<svg width="17" height="20" viewBox="0 0 17 20" fill="none" xmlns="http://www.w3.org/2000/svg">
<path d="M14.3847 1.7049C15.5819 2.54319 16.3063 3.67547 16.5578 5.10174C16.8093 6.52799 16.5159 7.83971 15.6776 9.03691L9.48407 17.8822C8.88098 18.7435 8.05801 19.266 7.01518 19.4499C5.97236 19.6338 5.02029 19.4242 4.15899 18.8211C3.29768 18.218 2.77509 17.395 2.59122 16.3522C2.40734 15.3094 2.61695 14.3573 3.22004 13.496L8.80741 5.51643C9.19004 4.96999 9.70212 4.64021 10.3437 4.52712C10.9852 4.41404 11.5793 4.54884 12.1258 4.93151C12.6723 5.31418 13.002 5.82623 13.1151 6.46766C13.2281 7.1091 13.0932 7.70304 12.7106 8.24948L7.12324 16.2291L6.14746 15.5458L11.7348 7.56623C11.9284 7.28976 11.9972 6.99252 11.9411 6.67452C11.885 6.35652 11.7188 6.10073 11.4423 5.90714C11.1658 5.71354 10.8686 5.64479 10.5506 5.70086C10.2326 5.75693 9.97678 5.9232 9.78319 6.19968L4.19582 14.1793C3.77307 14.783 3.62425 15.4393 3.74936 16.1482C3.87446 16.857 4.23897 17.4229 4.84291 17.8458C5.44684 18.2687 6.10303 18.4175 6.81149 18.2923C7.51993 18.1671 8.08552 17.8026 8.50827 17.1989L14.7018 8.35365C15.3468 7.43241 15.5717 6.41787 15.3764 5.31003C15.181 4.2022 14.6227 3.32575 13.7015 2.68068C12.7802 2.03561 11.7657 1.81075 10.6579 2.00609C9.55002 2.20144 8.67357 2.75974 8.02851 3.68098L1.83501 12.5262L0.859207 11.843L7.05271 2.99772C7.891 1.80052 9.02327 1.07619 10.4495 0.82471C11.8758 0.57322 13.1875 0.866617 14.3847 1.7049Z" fill="#656565"/>
<path d="M14.3847 1.7049C15.5819 2.54319 16.3063 3.67547 16.5578 5.10174C16.8093 6.52799 16.5159 7.83971 15.6776 9.03691L9.48407 17.8822C8.88098 18.7435 8.05801 19.266 7.01518 19.4499C5.97236 19.6338 5.02029 19.4242 4.15899 18.8211C3.29768 18.218 2.77509 17.395 2.59122 16.3522C2.40734 15.3094 2.61695 14.3573 3.22004 13.496L8.80741 5.51643C9.19004 4.96999 9.70212 4.64021 10.3437 4.52712C10.9852 4.41404 11.5793 4.54884 12.1258 4.93151C12.6723 5.31418 13.002 5.82623 13.1151 6.46766C13.2281 7.1091 13.0932 7.70304 12.7106 8.24948L7.12324 16.2291L6.14746 15.5458L11.7348 7.56623C11.9284 7.28976 11.9972 6.99252 11.9411 6.67452C11.885 6.35652 11.7188 6.10073 11.4423 5.90714C11.1658 5.71354 10.8686 5.64479 10.5506 5.70086C10.2326 5.75693 9.97678 5.9232 9.78319 6.19968L4.19582 14.1793C3.77307 14.783 3.62425 15.4393 3.74936 16.1482C3.87446 16.857 4.23897 17.4229 4.84291 17.8458C5.44684 18.2687 6.10303 18.4175 6.81149 18.2923C7.51993 18.1671 8.08552 17.8026 8.50827 17.1989L14.7018 8.35365C15.3468 7.43241 15.5717 6.41787 15.3764 5.31003C15.181 4.2022 14.6227 3.32575 13.7015 2.68068C12.7802 2.03561 11.7657 1.81075 10.6579 2.00609C9.55002 2.20144 8.67357 2.75974 8.02851 3.68098L1.83501 12.5262L0.859207 11.843L7.05271 2.99772C7.891 1.80052 9.02327 1.07619 10.4495 0.82471C11.8758 0.57322 13.1875 0.866617 14.3847 1.7049Z" fill="black" fill-opacity="0.2"/>
</svg>
