<svg width="20" height="19" viewBox="0 0 20 19" fill="none" xmlns="http://www.w3.org/2000/svg">
<path d="M13.0272 8.30765C13.391 8.30765 13.6996 8.18029 13.9528 7.92557C14.206 7.67087 14.3326 7.36158 14.3326 6.9977C14.3326 6.63383 14.2052 6.3253 13.9505 6.0721C13.6958 5.8189 13.3865 5.6923 13.0226 5.6923C12.6588 5.6923 12.3502 5.81966 12.097 6.07437C11.8438 6.32907 11.7172 6.63837 11.7172 7.00225C11.7172 7.36612 11.8446 7.67465 12.0993 7.92785C12.354 8.18105 12.6633 8.30765 13.0272 8.30765ZM6.21949 8.30765C6.58336 8.30765 6.89189 8.18029 7.14509 7.92557C7.39831 7.67087 7.52492 7.36158 7.52492 6.9977C7.52492 6.63383 7.39756 6.3253 7.14284 6.0721C6.88813 5.8189 6.57884 5.6923 6.21497 5.6923C5.8511 5.6923 5.54256 5.81966 5.28934 6.07437C5.03614 6.32907 4.90954 6.63837 4.90954 7.00225C4.90954 7.36612 5.0369 7.67465 5.29162 7.92785C5.54633 8.18105 5.85563 8.30765 6.21949 8.30765ZM9.62107 14.6922C10.6647 14.6922 11.6185 14.4003 12.4826 13.8163C13.3467 13.2323 13.9839 12.4602 14.3941 11.5H13.0711C12.7044 12.1166 12.2169 12.6041 11.6086 12.9625C11.0002 13.3208 10.3377 13.5 9.62107 13.5C8.9044 13.5 8.2419 13.3208 7.63357 12.9625C7.02524 12.6041 6.53773 12.1166 6.17107 11.5H4.84802C5.25827 12.4602 5.89544 13.2323 6.75954 13.8163C7.62364 14.4003 8.57748 14.6922 9.62107 14.6922ZM9.62274 19C8.30881 19 7.07378 18.7506 5.91764 18.2519C4.76149 17.7533 3.75581 17.0765 2.90059 16.2217C2.04536 15.3669 1.3683 14.3616 0.869419 13.206C0.370536 12.0504 0.121094 10.8156 0.121094 9.50165C0.121094 8.18772 0.370427 6.95268 0.869094 5.79655C1.36776 4.6404 2.04451 3.63472 2.89934 2.7795C3.75419 1.92427 4.75944 1.24721 5.91507 0.748325C7.07068 0.249442 8.30546 0 9.61939 0C10.9333 0 12.1684 0.249333 13.3245 0.748C14.4806 1.24667 15.4863 1.92342 16.3415 2.77825C17.1968 3.6331 17.8738 4.63834 18.3727 5.79397C18.8716 6.94959 19.121 8.18437 19.121 9.4983C19.121 10.8122 18.8717 12.0473 18.373 13.2034C17.8744 14.3595 17.1976 15.3652 16.3428 16.2204C15.4879 17.0757 14.4827 17.7527 13.3271 18.2516C12.1715 18.7505 10.9367 19 9.62274 19ZM9.62107 17.5C11.8544 17.5 13.7461 16.725 15.2961 15.175C16.8461 13.625 17.6211 11.7333 17.6211 9.49997C17.6211 7.26664 16.8461 5.37497 15.2961 3.82497C13.7461 2.27497 11.8544 1.49997 9.62107 1.49997C7.38773 1.49997 5.49607 2.27497 3.94607 3.82497C2.39607 5.37497 1.62107 7.26664 1.62107 9.49997C1.62107 11.7333 2.39607 13.625 3.94607 15.175C5.49607 16.725 7.38773 17.5 9.62107 17.5Z" fill="#656565"/>
<path d="M13.0272 8.30765C13.391 8.30765 13.6996 8.18029 13.9528 7.92557C14.206 7.67087 14.3326 7.36158 14.3326 6.9977C14.3326 6.63383 14.2052 6.3253 13.9505 6.0721C13.6958 5.8189 13.3865 5.6923 13.0226 5.6923C12.6588 5.6923 12.3502 5.81966 12.097 6.07437C11.8438 6.32907 11.7172 6.63837 11.7172 7.00225C11.7172 7.36612 11.8446 7.67465 12.0993 7.92785C12.354 8.18105 12.6633 8.30765 13.0272 8.30765ZM6.21949 8.30765C6.58336 8.30765 6.89189 8.18029 7.14509 7.92557C7.39831 7.67087 7.52492 7.36158 7.52492 6.9977C7.52492 6.63383 7.39756 6.3253 7.14284 6.0721C6.88813 5.8189 6.57884 5.6923 6.21497 5.6923C5.8511 5.6923 5.54256 5.81966 5.28934 6.07437C5.03614 6.32907 4.90954 6.63837 4.90954 7.00225C4.90954 7.36612 5.0369 7.67465 5.29162 7.92785C5.54633 8.18105 5.85563 8.30765 6.21949 8.30765ZM9.62107 14.6922C10.6647 14.6922 11.6185 14.4003 12.4826 13.8163C13.3467 13.2323 13.9839 12.4602 14.3941 11.5H13.0711C12.7044 12.1166 12.2169 12.6041 11.6086 12.9625C11.0002 13.3208 10.3377 13.5 9.62107 13.5C8.9044 13.5 8.2419 13.3208 7.63357 12.9625C7.02524 12.6041 6.53773 12.1166 6.17107 11.5H4.84802C5.25827 12.4602 5.89544 13.2323 6.75954 13.8163C7.62364 14.4003 8.57748 14.6922 9.62107 14.6922ZM9.62274 19C8.30881 19 7.07378 18.7506 5.91764 18.2519C4.76149 17.7533 3.75581 17.0765 2.90059 16.2217C2.04536 15.3669 1.3683 14.3616 0.869419 13.206C0.370536 12.0504 0.121094 10.8156 0.121094 9.50165C0.121094 8.18772 0.370427 6.95268 0.869094 5.79655C1.36776 4.6404 2.04451 3.63472 2.89934 2.7795C3.75419 1.92427 4.75944 1.24721 5.91507 0.748325C7.07068 0.249442 8.30546 0 9.61939 0C10.9333 0 12.1684 0.249333 13.3245 0.748C14.4806 1.24667 15.4863 1.92342 16.3415 2.77825C17.1968 3.6331 17.8738 4.63834 18.3727 5.79397C18.8716 6.94959 19.121 8.18437 19.121 9.4983C19.121 10.8122 18.8717 12.0473 18.373 13.2034C17.8744 14.3595 17.1976 15.3652 16.3428 16.2204C15.4879 17.0757 14.4827 17.7527 13.3271 18.2516C12.1715 18.7505 10.9367 19 9.62274 19ZM9.62107 17.5C11.8544 17.5 13.7461 16.725 15.2961 15.175C16.8461 13.625 17.6211 11.7333 17.6211 9.49997C17.6211 7.26664 16.8461 5.37497 15.2961 3.82497C13.7461 2.27497 11.8544 1.49997 9.62107 1.49997C7.38773 1.49997 5.49607 2.27497 3.94607 3.82497C2.39607 5.37497 1.62107 7.26664 1.62107 9.49997C1.62107 11.7333 2.39607 13.625 3.94607 15.175C5.49607 16.725 7.38773 17.5 9.62107 17.5Z" fill="black" fill-opacity="0.2"/>
</svg>
