<svg width="32" height="32" viewBox="0 0 32 32" fill="none" xmlns="http://www.w3.org/2000/svg">
<path d="M30.08 16.3335C30.08 15.2935 29.9867 14.2935 29.8133 13.3335H16V19.0068H23.8933C23.5533 20.8402 22.52 22.3935 20.9667 23.4335V27.1135H25.7067C28.48 24.5602 30.08 20.8002 30.08 16.3335Z" fill="#4285F4"/>
<path d="M16.0002 30.6666C19.9602 30.6666 23.2802 29.3533 25.7069 27.1133L20.9669 23.4333C19.6536 24.3133 17.9736 24.8333 16.0002 24.8333C12.1802 24.8333 8.94689 22.2533 7.79355 18.7866H2.89355V22.5866C5.30689 27.38 10.2669 30.6666 16.0002 30.6666Z" fill="#34A853"/>
<path d="M7.79301 18.7869C7.49968 17.9069 7.33301 16.9669 7.33301 16.0002C7.33301 15.0336 7.49968 14.0936 7.79301 13.2136V9.41357H2.89301C1.86634 11.4574 1.3321 13.7131 1.33301 16.0002C1.33301 18.3669 1.89968 20.6069 2.89301 22.5869L7.79301 18.7869Z" fill="#FBBC05"/>
<path d="M16.0002 7.16683C18.1536 7.16683 20.0869 7.90683 21.6069 9.36016L25.8136 5.1535C23.2736 2.78683 19.9536 1.3335 16.0002 1.3335C10.2669 1.3335 5.30689 4.62016 2.89355 9.4135L7.79355 13.2135C8.94689 9.74683 12.1802 7.16683 16.0002 7.16683Z" fill="#EA4335"/>
</svg>
