<svg width="33" height="32" viewBox="0 0 33 32" fill="none" xmlns="http://www.w3.org/2000/svg">
<path d="M27.7245 27.0419H22.9752V19.6775C22.9752 17.9214 22.9435 15.6607 20.505 15.6607C18.0314 15.6607 17.653 17.5741 17.653 19.5497V27.0414H12.9036V11.8972H17.463V13.9668H17.5268C17.9831 13.1944 18.6424 12.5589 19.4346 12.1281C20.2268 11.6973 21.1222 11.4873 22.0253 11.5205C26.839 11.5205 27.7265 14.6556 27.7265 18.7341L27.7245 27.0419ZM7.54476 9.8271C6.99965 9.8272 6.46675 9.66724 6.01345 9.36746C5.56016 9.06768 5.20685 8.64154 4.99816 8.14292C4.78946 7.64431 4.73477 7.09561 4.84102 6.56623C4.94727 6.03684 5.20968 5.55054 5.59506 5.16882C5.98044 4.7871 6.47149 4.52711 7.0061 4.42171C7.54071 4.31632 8.09487 4.37027 8.59852 4.57673C9.10217 4.78318 9.53268 5.13288 9.8356 5.5816C10.1385 6.03033 10.3003 6.55792 10.3004 7.09765C10.3004 7.45603 10.2292 7.8109 10.0908 8.14202C9.95231 8.47313 9.74937 8.77401 9.49349 9.02746C9.2376 9.28091 8.93379 9.48198 8.59943 9.61918C8.26507 9.75638 7.90669 9.82704 7.54476 9.8271ZM9.91942 27.0419H5.16514V11.8972H9.91942V27.0419ZM30.0923 0.00216228H2.77861C2.15866 -0.00476487 1.56127 0.232292 1.11776 0.66124C0.674249 1.09019 0.420896 1.67593 0.41333 2.28977V29.4466C0.420637 30.0607 0.673842 30.6469 1.11734 31.0763C1.56084 31.5057 2.15836 31.7432 2.77861 31.7367H30.0923C30.7138 31.7444 31.3129 31.5075 31.7582 31.0782C32.2034 30.6488 32.4583 30.062 32.4669 29.4466V2.28781C32.4581 1.67276 32.203 1.08635 31.7577 0.657408C31.3125 0.22847 30.7134 -0.00790966 30.0923 0.000202087" fill="white"/>
</svg>
