<svg width="21" height="20" viewBox="0 0 21 20" fill="none" xmlns="http://www.w3.org/2000/svg">
<path d="M4.70001 12H16.7V10H4.70001V12ZM4.70001 9H16.7V7H4.70001V9ZM4.70001 6H16.7V4H4.70001V6ZM20.7 20L16.7 16H2.70001C2.15001 16 1.67918 15.8042 1.28751 15.4125C0.895846 15.0208 0.700012 14.55 0.700012 14V2C0.700012 1.45 0.895846 0.979167 1.28751 0.5875C1.67918 0.195833 2.15001 0 2.70001 0H18.7C19.25 0 19.7208 0.195833 20.1125 0.5875C20.5042 0.979167 20.7 1.45 20.7 2V20ZM2.70001 14H17.55L18.7 15.125V2H2.70001V14Z" fill="#1C1B1F"/>
</svg>
