<svg width="18" height="18" viewBox="0 0 18 18" fill="none" xmlns="http://www.w3.org/2000/svg">
<path d="M11.9166 8.1665C12.2638 8.1665 12.559 8.04498 12.802 7.80192C13.0451 7.55887 13.1666 7.26373 13.1666 6.9165C13.1666 6.56928 13.0451 6.27414 12.802 6.03109C12.559 5.78803 12.2638 5.6665 11.9166 5.6665C11.5694 5.6665 11.2743 5.78803 11.0312 6.03109C10.7882 6.27414 10.6666 6.56928 10.6666 6.9165C10.6666 7.26373 10.7882 7.55887 11.0312 7.80192C11.2743 8.04498 11.5694 8.1665 11.9166 8.1665ZM6.08329 8.1665C6.43051 8.1665 6.72565 8.04498 6.96871 7.80192C7.21176 7.55887 7.33329 7.26373 7.33329 6.9165C7.33329 6.56928 7.21176 6.27414 6.96871 6.03109C6.72565 5.78803 6.43051 5.6665 6.08329 5.6665C5.73607 5.6665 5.44093 5.78803 5.19788 6.03109C4.95482 6.27414 4.83329 6.56928 4.83329 6.9165C4.83329 7.26373 4.95482 7.55887 5.19788 7.80192C5.44093 8.04498 5.73607 8.1665 6.08329 8.1665ZM8.99996 13.5832C9.9444 13.5832 10.802 13.3158 11.5729 12.7811C12.3437 12.2464 12.9027 11.5415 13.25 10.6665H11.875C11.5694 11.1804 11.1632 11.5866 10.6562 11.8853C10.1493 12.1839 9.59718 12.3332 8.99996 12.3332C8.40274 12.3332 7.85065 12.1839 7.34371 11.8853C6.83676 11.5866 6.43051 11.1804 6.12496 10.6665H4.74996C5.09718 11.5415 5.65621 12.2464 6.42704 12.7811C7.19788 13.3158 8.05551 13.5832 8.99996 13.5832ZM8.99996 17.3332C7.84718 17.3332 6.76385 17.1144 5.74996 16.6769C4.73607 16.2394 3.85413 15.6457 3.10413 14.8957C2.35413 14.1457 1.76038 13.2637 1.32288 12.2498C0.885376 11.2359 0.666626 10.1526 0.666626 8.99984C0.666626 7.84706 0.885376 6.76373 1.32288 5.74984C1.76038 4.73595 2.35413 3.854 3.10413 3.104C3.85413 2.354 4.73607 1.76025 5.74996 1.32275C6.76385 0.885254 7.84718 0.666504 8.99996 0.666504C10.1527 0.666504 11.2361 0.885254 12.25 1.32275C13.2638 1.76025 14.1458 2.354 14.8958 3.104C15.6458 3.854 16.2395 4.73595 16.677 5.74984C17.1145 6.76373 17.3333 7.84706 17.3333 8.99984C17.3333 10.1526 17.1145 11.2359 16.677 12.2498C16.2395 13.2637 15.6458 14.1457 14.8958 14.8957C14.1458 15.6457 13.2638 16.2394 12.25 16.6769C11.2361 17.1144 10.1527 17.3332 8.99996 17.3332ZM8.99996 15.6665C10.8611 15.6665 12.4375 15.0207 13.7291 13.729C15.0208 12.4373 15.6666 10.8609 15.6666 8.99984C15.6666 7.13873 15.0208 5.56234 13.7291 4.27067C12.4375 2.979 10.8611 2.33317 8.99996 2.33317C7.13885 2.33317 5.56246 2.979 4.27079 4.27067C2.97913 5.56234 2.33329 7.13873 2.33329 8.99984C2.33329 10.8609 2.97913 12.4373 4.27079 13.729C5.56246 15.0207 7.13885 15.6665 8.99996 15.6665Z" fill="#1C1B1F"/>
</svg>
