<svg width="20" height="12" viewBox="0 0 20 12" fill="none" xmlns="http://www.w3.org/2000/svg">
<path d="M2.50004 11.8332C2.04171 11.8332 1.64935 11.67 1.32296 11.3436C0.996569 11.0172 0.833374 10.6248 0.833374 10.1665V1.83317C0.833374 1.37484 0.996569 0.982476 1.32296 0.656087C1.64935 0.329698 2.04171 0.166504 2.50004 0.166504H10.8334C11.2917 0.166504 11.6841 0.329698 12.0105 0.656087C12.3368 0.982476 12.5 1.37484 12.5 1.83317V10.1665C12.5 10.6248 12.3368 11.0172 12.0105 11.3436C11.6841 11.67 11.2917 11.8332 10.8334 11.8332H2.50004ZM15 5.1665C14.7639 5.1665 14.566 5.08664 14.4063 4.92692C14.2466 4.7672 14.1667 4.56928 14.1667 4.33317V0.999837C14.1667 0.763726 14.2466 0.565809 14.4063 0.406087C14.566 0.246365 14.7639 0.166504 15 0.166504H18.3334C18.5695 0.166504 18.7674 0.246365 18.9271 0.406087C19.0868 0.565809 19.1667 0.763726 19.1667 0.999837V4.33317C19.1667 4.56928 19.0868 4.7672 18.9271 4.92692C18.7674 5.08664 18.5695 5.1665 18.3334 5.1665H15ZM15.8334 3.49984H17.5V1.83317H15.8334V3.49984ZM2.50004 10.1665H10.8334V1.83317H2.50004V10.1665ZM3.33337 8.49984H10L7.81254 5.58317L6.25004 7.6665L5.10421 6.14567L3.33337 8.49984ZM15 11.8332C14.7639 11.8332 14.566 11.7533 14.4063 11.5936C14.2466 11.4339 14.1667 11.2359 14.1667 10.9998V7.6665C14.1667 7.43039 14.2466 7.23248 14.4063 7.07275C14.566 6.91303 14.7639 6.83317 15 6.83317H18.3334C18.5695 6.83317 18.7674 6.91303 18.9271 7.07275C19.0868 7.23248 19.1667 7.43039 19.1667 7.6665V10.9998C19.1667 11.2359 19.0868 11.4339 18.9271 11.5936C18.7674 11.7533 18.5695 11.8332 18.3334 11.8332H15ZM15.8334 10.1665H17.5V8.49984H15.8334V10.1665Z" fill="#1C1B1F"/>
</svg>
