<svg width="20" height="21" viewBox="0 0 20 21" fill="none" xmlns="http://www.w3.org/2000/svg">
<path d="M10 20.5C8.61667 20.5 7.31667 20.2375 6.1 19.7125C4.88333 19.1875 3.825 18.475 2.925 17.575C2.025 16.675 1.3125 15.6167 0.7875 14.4C0.2625 13.1833 0 11.8833 0 10.5C0 9.11667 0.2625 7.81667 0.7875 6.6C1.3125 5.38333 2.025 4.325 2.925 3.425C3.825 2.525 4.88333 1.8125 6.1 1.2875C7.31667 0.7625 8.61667 0.5 10 0.5C11.3833 0.5 12.6833 0.7625 13.9 1.2875C15.1167 1.8125 16.175 2.525 17.075 3.425C17.975 4.325 18.6875 5.38333 19.2125 6.6C19.7375 7.81667 20 9.11667 20 10.5C20 11.8833 19.7375 13.1833 19.2125 14.4C18.6875 15.6167 17.975 16.675 17.075 17.575C16.175 18.475 15.1167 19.1875 13.9 19.7125C12.6833 20.2375 11.3833 20.5 10 20.5ZM9 18.45V16.5C8.45 16.5 7.97917 16.3042 7.5875 15.9125C7.19583 15.5208 7 15.05 7 14.5V13.5L2.2 8.7C2.15 9 2.10417 9.3 2.0625 9.6C2.02083 9.9 2 10.2 2 10.5C2 12.5167 2.6625 14.2833 3.9875 15.8C5.3125 17.3167 6.98333 18.2 9 18.45ZM15.9 15.9C16.2333 15.5333 16.5333 15.1375 16.8 14.7125C17.0667 14.2875 17.2875 13.8458 17.4625 13.3875C17.6375 12.9292 17.7708 12.4583 17.8625 11.975C17.9542 11.4917 18 11 18 10.5C18 8.86667 17.5458 7.375 16.6375 6.025C15.7292 4.675 14.5167 3.7 13 3.1V3.5C13 4.05 12.8042 4.52083 12.4125 4.9125C12.0208 5.30417 11.55 5.5 11 5.5H9V7.5C9 7.78333 8.90417 8.02083 8.7125 8.2125C8.52083 8.40417 8.28333 8.5 8 8.5H6V10.5H12C12.2833 10.5 12.5208 10.5958 12.7125 10.7875C12.9042 10.9792 13 11.2167 13 11.5V14.5H14C14.4333 14.5 14.825 14.6292 15.175 14.8875C15.525 15.1458 15.7667 15.4833 15.9 15.9Z" fill="#36474F"/>
</svg>
