<svg width="23" height="16" viewBox="0 0 23 16" fill="none" xmlns="http://www.w3.org/2000/svg">
<path d="M11.35 16C9.11672 16 7.21672 15.225 5.65005 13.675C4.08338 12.125 3.30005 10.2333 3.30005 8V7.825L1.70005 9.425L0.300049 8.025L4.30005 4.025L8.30005 8.025L6.90005 9.425L5.30005 7.825V8C5.30005 9.66667 5.88755 11.0833 7.06255 12.25C8.23755 13.4167 9.66672 14 11.35 14C11.7834 14 12.2084 13.95 12.625 13.85C13.0417 13.75 13.45 13.6 13.85 13.4L15.35 14.9C14.7167 15.2667 14.0667 15.5417 13.4 15.725C12.7334 15.9083 12.05 16 11.35 16ZM18.3 11.975L14.3 7.975L15.7 6.575L17.3 8.175V8C17.3 6.33333 16.7125 4.91667 15.5375 3.75C14.3625 2.58333 12.9334 2 11.25 2C10.8167 2 10.3917 2.05 9.97505 2.15C9.55838 2.25 9.15005 2.4 8.75005 2.6L7.25005 1.1C7.88338 0.733333 8.53338 0.458333 9.20005 0.275C9.86672 0.0916667 10.55 0 11.25 0C13.4834 0 15.3834 0.775 16.95 2.325C18.5167 3.875 19.3 5.76667 19.3 8V8.175L20.9 6.575L22.3 7.975L18.3 11.975Z" fill="#1C1B1F"/>
</svg>
