<svg width="19" height="20" viewBox="0 0 19 20" fill="none" xmlns="http://www.w3.org/2000/svg">
<path d="M15.9 20C15.0667 20 14.3584 19.7083 13.775 19.125C13.1917 18.5417 12.9 17.8333 12.9 17C12.9 16.8833 12.9084 16.7625 12.925 16.6375C12.9417 16.5125 12.9667 16.4 13 16.3L5.95002 12.2C5.66669 12.45 5.35002 12.6458 5.00002 12.7875C4.65002 12.9292 4.28336 13 3.90002 13C3.06669 13 2.35836 12.7083 1.77502 12.125C1.19169 11.5417 0.900024 10.8333 0.900024 10C0.900024 9.16667 1.19169 8.45833 1.77502 7.875C2.35836 7.29167 3.06669 7 3.90002 7C4.28336 7 4.65002 7.07083 5.00002 7.2125C5.35002 7.35417 5.66669 7.55 5.95002 7.8L13 3.7C12.9667 3.6 12.9417 3.4875 12.925 3.3625C12.9084 3.2375 12.9 3.11667 12.9 3C12.9 2.16667 13.1917 1.45833 13.775 0.875C14.3584 0.291667 15.0667 0 15.9 0C16.7334 0 17.4417 0.291667 18.025 0.875C18.6084 1.45833 18.9 2.16667 18.9 3C18.9 3.83333 18.6084 4.54167 18.025 5.125C17.4417 5.70833 16.7334 6 15.9 6C15.5167 6 15.15 5.92917 14.8 5.7875C14.45 5.64583 14.1334 5.45 13.85 5.2L6.80002 9.3C6.83336 9.4 6.85836 9.5125 6.87502 9.6375C6.89169 9.7625 6.90002 9.88333 6.90002 10C6.90002 10.1167 6.89169 10.2375 6.87502 10.3625C6.85836 10.4875 6.83336 10.6 6.80002 10.7L13.85 14.8C14.1334 14.55 14.45 14.3542 14.8 14.2125C15.15 14.0708 15.5167 14 15.9 14C16.7334 14 17.4417 14.2917 18.025 14.875C18.6084 15.4583 18.9 16.1667 18.9 17C18.9 17.8333 18.6084 18.5417 18.025 19.125C17.4417 19.7083 16.7334 20 15.9 20ZM15.9 4C16.1834 4 16.4209 3.90417 16.6125 3.7125C16.8042 3.52083 16.9 3.28333 16.9 3C16.9 2.71667 16.8042 2.47917 16.6125 2.2875C16.4209 2.09583 16.1834 2 15.9 2C15.6167 2 15.3792 2.09583 15.1875 2.2875C14.9959 2.47917 14.9 2.71667 14.9 3C14.9 3.28333 14.9959 3.52083 15.1875 3.7125C15.3792 3.90417 15.6167 4 15.9 4ZM3.90002 11C4.18336 11 4.42086 10.9042 4.61252 10.7125C4.80419 10.5208 4.90002 10.2833 4.90002 10C4.90002 9.71667 4.80419 9.47917 4.61252 9.2875C4.42086 9.09583 4.18336 9 3.90002 9C3.61669 9 3.37919 9.09583 3.18752 9.2875C2.99586 9.47917 2.90002 9.71667 2.90002 10C2.90002 10.2833 2.99586 10.5208 3.18752 10.7125C3.37919 10.9042 3.61669 11 3.90002 11ZM15.9 18C16.1834 18 16.4209 17.9042 16.6125 17.7125C16.8042 17.5208 16.9 17.2833 16.9 17C16.9 16.7167 16.8042 16.4792 16.6125 16.2875C16.4209 16.0958 16.1834 16 15.9 16C15.6167 16 15.3792 16.0958 15.1875 16.2875C14.9959 16.4792 14.9 16.7167 14.9 17C14.9 17.2833 14.9959 17.5208 15.1875 17.7125C15.3792 17.9042 15.6167 18 15.9 18Z" fill="#1C1B1F"/>
</svg>
