<svg width="167" height="127" viewBox="0 0 167 127" fill="none" xmlns="http://www.w3.org/2000/svg">
<path d="M155.464 90.6125C153.544 97.2067 147.246 102.078 140.786 104.447C134.348 106.802 127.237 105.947 120.457 105.05C98.0065 102.087 75.5582 99.1072 53.125 96.1474C47.6305 100.34 42.1182 104.529 36.621 108.739C35.7459 109.408 34.6858 110.103 33.626 109.804C32.0628 109.36 31.9015 107.238 32.03 105.61C32.4005 101.576 32.7533 97.5396 33.1237 93.5055C30.7982 93.203 28.4752 92.8827 26.1319 92.5776C18.8744 91.611 10.6388 90.0317 6.8867 83.751C3.93334 78.8167 4.80346 72.5943 5.77073 66.9468C7.8291 54.8015 9.90516 42.6587 11.9609 30.5312C13.0852 23.9297 14.5275 16.7595 19.6881 12.5006C24.6026 8.44091 31.5673 8.1891 37.9439 8.24957C66.7534 8.53846 103.787 12.5938 136.022 18.5549C138.716 19.0559 141.373 19.5695 144.012 20.0805C150.62 21.4048 158.318 24.1902 160.519 30.5703C165.09 43.7717 159.437 76.9915 155.464 90.6125Z" fill="#DA281C"/>
<path d="M42.928 41.716C28.6715 55.3949 17.2751 71.046 15.8263 58.3899C15.1093 52.1353 13.3658 27.8413 23.9083 17.0584C30.1125 10.7265 54.6793 11.9531 65.3072 13.501C80.009 15.6423 51.7606 33.2345 42.928 41.716Z" fill="#E04C42"/>
<path d="M25.9609 29.1692C26.8167 27.2679 27.6155 24.888 29.4135 23.7209C30.5267 23.0328 31.9219 22.8923 33.3323 22.7722C33.9729 22.7207 35.2566 22.6002 35.8821 22.5285C40.1969 22.0897 44.4718 21.428 48.6894 20.4143C50.3967 19.9937 52.0889 19.5528 53.7689 18.9473C47.7494 17.9259 41.6105 17.9724 35.5392 18.3001C32.6326 18.5098 29.5392 18.5115 27.0354 20.426C24.5265 22.376 23.7307 25.4799 23.2696 28.3973C23.2644 28.4328 23.2618 28.4505 23.2567 28.4859C23.0016 30.1129 25.2933 30.7723 25.9506 29.2401C25.9355 29.2198 25.9558 29.2046 25.9609 29.1692Z" fill="white"/>
<path d="M24.1509 42.2191C23.3041 42.6927 22.3517 42.8977 21.7135 42.0631C21.7135 42.0631 21.7161 42.0454 21.6984 42.0428C20.7933 40.6809 21.1934 38.8037 22.5855 37.9392C22.5855 37.9392 22.6032 37.9418 22.6058 37.9241C23.6681 37.3372 24.4596 37.6153 25.0096 38.3104C26.001 39.5763 25.5504 41.4281 24.1509 42.2191Z" fill="white"/>
<path d="M155.464 90.6123C153.545 97.2065 147.246 102.077 140.787 104.447C134.348 106.801 127.237 105.946 120.46 105.032C98.0091 102.069 75.5785 99.0918 53.1277 96.1294C47.6331 100.322 42.1208 104.511 36.6262 108.704C35.7511 109.372 34.691 110.068 33.6312 109.769C32.0679 109.324 31.889 107.2 32.0352 105.575C32.4057 101.541 32.7584 97.504 33.1289 93.4699C30.8034 93.1673 28.4778 92.8648 26.1371 92.542C18.8796 91.5754 10.644 89.996 6.89189 83.7154C6.61468 83.2589 6.37806 82.7723 6.15915 82.2882C30.3278 85.6274 54.6487 87.9216 79.0181 89.1375C88.1402 89.5978 97.3943 89.8966 106.298 87.8831C115.201 85.8696 123.864 81.2886 128.998 73.7336C132.955 67.9247 134.547 60.722 134.414 53.6842C134.264 46.6439 132.465 39.7433 130.063 33.1347C127.95 27.2737 125.343 21.5759 122.321 16.1251C126.969 16.8744 131.539 17.6666 136.03 18.5016C138.724 19.0026 141.398 19.5187 144.02 20.0271C150.646 21.354 158.326 24.1368 160.544 30.5196C165.09 43.7715 159.437 76.9913 155.464 90.6123Z" fill="#DA281C"/>
<path d="M155.464 90.6123C153.544 97.2065 147.245 102.078 140.786 104.447C134.348 106.801 127.236 105.947 120.46 105.032C98.0089 102.069 75.5783 99.0919 53.1275 96.1295C47.6329 100.322 42.1206 104.511 36.6261 108.704C35.7509 109.372 34.6908 110.068 33.631 109.769C32.0678 109.324 31.8888 107.2 32.035 105.575C32.0401 105.539 32.0453 105.504 32.0505 105.469C32.6349 99.096 38.1412 94.3266 44.5119 94.6756C66.4436 95.8621 88.3779 97.0309 110.31 98.2173C118.315 98.6417 124.629 96.9022 131.621 92.9824C136.742 90.1105 139.784 85.1268 141.82 80.0872C146.925 67.5174 149.109 53.6359 149.638 40.0738C149.912 33.0954 148.7 26.3888 145.942 20.4881C152.059 21.9579 158.537 24.8007 160.521 30.5525C165.09 43.7715 159.437 76.9914 155.464 90.6123Z" fill="#B62117"/>
</svg>
