<svg width="84" height="65" viewBox="0 0 84 65" fill="none" xmlns="http://www.w3.org/2000/svg">
<path d="M0.234573 33.71C1.63414 43.6069 9.09853 51.5267 17.607 55.2367C26.1155 58.9467 35.546 59.0911 44.6876 58.5024C48.9863 58.2247 53.3183 57.7804 57.5393 56.8584C61.227 59.4021 65.2369 62.1013 67.7917 63.823C68.958 64.6116 70.4686 63.6786 70.4575 62.179C70.4353 59.3244 70.3131 55.2478 69.8577 52.1821C76.6556 48.1278 82.3317 41.2632 83.6757 32.9546C85.2641 23.1354 80.9099 12.0277 72.9679 7.14031C60.9716 -0.246318 45.2097 -0.19078 34.0465 0.0869126C25.4491 0.297959 16.7073 3.07489 9.98714 8.95087C3.27808 14.838 -1.07614 24.4128 0.234573 33.71Z" fill="#B62117"/>
<path d="M57.8837 25.5904C67.6807 32.9548 74.0565 41.019 78.8107 34.6987C83.5648 28.3784 78.6551 15.8822 71.0353 10.4283C62.038 3.98587 48.3533 1.55328 42.5773 4.88559C35.7238 8.85105 48.0867 18.226 57.8837 25.5904Z" fill="#DA281C"/>
<path d="M72.157 15.8929C72.8901 16.9148 71.5239 18.1145 70.5908 17.2703C70.5797 17.2592 70.5575 17.2481 70.5464 17.237C68.5248 15.382 66.3033 13.7713 63.9262 12.394C61.9046 11.2388 59.783 10.2391 57.5948 9.37269C57.1505 9.18386 56.684 9.01724 56.2174 8.8062C56.7062 8.71733 57.2171 8.65069 57.717 8.63958C63.2486 8.39521 68.9136 11.3499 72.157 15.8929Z" fill="white"/>
<path d="M73.5012 25.0457C74.0232 25.3456 74.612 25.49 75.0118 24.979C75.0118 24.979 75.0118 24.9679 75.0229 24.9679C75.6005 24.1348 75.3784 22.9685 74.5342 22.402C74.5342 22.402 74.5231 22.402 74.5231 22.3909C73.8788 22.0022 73.379 22.1688 73.0236 22.602C72.3904 23.3795 72.6348 24.5458 73.5012 25.0457Z" fill="white"/>
<path d="M0.234642 33.7211C1.63422 43.6181 9.0986 51.5379 17.6071 55.2479C26.1156 58.9578 35.5461 59.1022 44.6877 58.5135C48.9864 58.2358 53.3184 57.7915 57.5393 56.8696C61.2271 59.4133 65.237 62.1124 67.7918 63.8341C68.9581 64.6228 70.4687 63.6897 70.4576 62.1902C70.4354 59.3355 70.3132 55.259 69.8578 52.1932C70.5576 51.7712 71.2463 51.3269 71.9238 50.8492C63.893 51.5046 55.8399 51.8378 47.8867 50.6493C37.7454 49.1275 27.6485 44.8733 21.0616 37.009C15.2412 30.0556 12.6086 20.5252 14.086 11.5834C14.4747 9.22861 15.1523 6.92931 16.0742 4.72998C13.9194 5.9074 11.8755 7.30697 9.98722 8.96202C3.27816 14.838 -1.07607 24.4128 0.234642 33.7211Z" fill="#911B13"/>
<path d="M0.234489 33.7212C1.63406 43.6182 9.09845 51.538 17.607 55.2479C26.1155 58.9579 35.5459 59.1023 44.6876 58.5136C48.9862 58.2359 53.3183 57.7916 57.5392 56.8697C61.2269 59.4133 65.2368 62.1125 67.7916 63.8342C68.9579 64.6228 70.4686 63.6898 70.4575 62.1903C70.4575 62.1681 70.4575 62.1458 70.4575 62.1236C70.4241 58.2359 67.1474 55.1702 63.2597 55.3701C54.8844 55.8033 46.487 55.5145 38.3006 53.5596C26.2599 50.6827 14.5857 43.7848 7.95435 32.7104C4.54428 27.0121 3.50016 19.881 5.46622 13.9717C1.45634 19.5811 -0.754097 26.7233 0.234489 33.7212Z" fill="#6D140E"/>
</svg>
