<svg width="70" height="75" viewBox="0 0 70 75" fill="none" xmlns="http://www.w3.org/2000/svg">
<path d="M31.2698 44.4849C29.7575 46.6894 28.1968 49.4626 26.7716 52.5669C22.9656 60.8537 21.588 68.3581 23.6978 69.3289C25.8076 70.2997 30.6037 64.3632 34.4097 56.0764C35.8267 52.9947 36.9066 50.0194 37.5917 47.4496C36.6324 47.1834 35.5615 46.7946 34.4611 46.2901C33.2375 45.7266 32.1473 45.099 31.2698 44.4849Z" fill="#6D140E"/>
<path d="M59.5818 36.3218C64.8982 27.2767 61.877 15.6337 52.8319 10.3172C43.7867 5.00076 32.1437 8.02197 26.8272 17.0671C31.757 8.68645 42.5506 5.88464 50.9336 10.8114C59.3167 15.7381 62.1185 26.5317 57.1917 34.9148C52.265 43.2978 41.4714 46.0996 33.0883 41.1729C24.7053 36.2462 21.9035 25.4525 26.8302 17.0695C22.0481 25.2031 24.0113 35.4377 31.0348 41.2814C32.3328 41.4086 34.1511 41.939 36.055 42.8143C37.8642 43.6436 39.3834 44.6118 40.3414 45.4793C47.7938 46.6165 55.5271 43.2211 59.5818 36.3218Z" fill="#6D140E"/>
<path d="M33.0861 41.1758C41.4691 46.1025 52.2604 43.3037 57.1895 34.9177C62.1162 26.5346 59.3174 15.7434 50.9314 10.8143C42.5507 5.88456 31.7571 8.68638 26.8304 17.0694C21.9012 25.4554 24.7024 36.2437 33.0861 41.1758Z" fill="#E62B3E"/>
<path d="M36.055 42.8143C34.1488 41.942 32.3329 41.4086 31.0348 41.2815C30.0327 41.1853 29.3399 41.3299 29.1495 41.7471C28.8701 42.3559 29.7349 43.402 31.2724 44.4818C32.1498 45.0959 33.24 45.7235 34.466 46.284C35.5664 46.7886 36.6373 47.1774 37.5966 47.4436C39.5735 47.9883 41.0744 47.9946 41.3714 47.3513C41.5748 46.9055 41.1725 46.2315 40.3415 45.4794C39.3835 44.6119 37.8643 43.6436 36.055 42.8143Z" fill="#BABABA"/>
<path d="M55.5343 33.9433C51.5339 40.7497 42.7704 43.0259 35.961 39.0232C29.1547 35.0229 26.8784 26.2593 30.8811 19.45C34.8814 12.6437 43.645 10.3674 50.4543 14.3701C57.2583 18.3734 59.5346 27.137 55.5343 33.9433Z" fill="#F43C3D"/>
<path d="M30.6405 58.1982C28.3706 63.1433 25.5086 66.6806 24.251 66.1048C22.9905 65.5266 23.8142 61.0508 26.0841 56.1057C28.3539 51.1607 31.216 47.6233 32.4736 48.1992C33.7311 48.775 32.9104 53.2531 30.6405 58.1982Z" fill="#E62B3E"/>
<path d="M26.0392 61.0691C25.2987 63.1092 24.5137 64.6913 24.2823 64.6096C24.0509 64.5278 24.4622 62.8045 25.2004 60.7674C25.9386 58.7304 26.7259 57.1453 26.9573 57.227C27.1888 57.3088 26.7774 59.0321 26.0392 61.0691Z" fill="white"/>
<path d="M27.6977 55.658C27.4736 56.2767 27.1627 56.7294 27.0045 56.6718C26.8462 56.6141 26.8971 56.0667 27.1212 55.448C27.3453 54.8293 27.6561 54.3766 27.8144 54.4342C27.9726 54.4919 27.9218 55.0393 27.6977 55.658Z" fill="white"/>
<path d="M30.3011 58.0019C28.9042 61.2357 27.1363 63.8784 26.8738 63.7623C26.6143 63.6486 28.0324 61.1652 29.4292 57.9315C30.826 54.6978 31.6739 51.9414 31.9363 52.0575C32.1981 52.1682 31.6979 54.7682 30.3011 58.0019Z" fill="#6D140E"/>
<path d="M30.3663 16.5007C28.5424 18.7978 27.6961 21.1668 27.0615 20.6629C26.4269 20.159 27.3899 17.8876 29.2162 15.5875C31.0401 13.2904 33.0364 11.8345 33.671 12.3384C34.3063 12.8477 32.1902 14.2035 30.3663 16.5007Z" fill="white"/>
<path d="M26.9873 23.4602C26.8322 24.2552 26.3988 24.8438 26.0195 24.7709C25.6402 24.698 25.4587 23.9905 25.6139 23.1955C25.769 22.4006 26.2023 21.812 26.5817 21.8848C26.961 21.9577 27.1395 22.6629 26.9873 23.4602Z" fill="white"/>
<path d="M36.24 41.29C35.897 41.722 33.6329 40.8231 31.3805 39.0347C29.1281 37.2463 27.7393 35.2449 28.0824 34.8129C28.4254 34.3809 29.781 36.4239 32.0334 38.2124C34.2858 40.0008 36.583 40.858 36.24 41.29Z" fill="#6D140E"/>
<path d="M38.8298 42.2921C38.7279 42.5367 38.1641 42.531 37.5673 42.2855C36.9704 42.0399 36.5673 41.6421 36.6692 41.3975C36.7687 41.1559 37.335 41.1586 37.9318 41.4042C38.5316 41.6521 38.9317 42.0475 38.8298 42.2921Z" fill="#6D140E"/>
<path d="M38.8703 45.8266C38.5561 46.5098 36.3536 46.1697 33.9445 45.0681C31.5377 43.9635 29.8414 42.5147 30.1556 41.8315C30.4698 41.1482 32.6723 41.4883 35.0815 42.5899C37.4852 43.6921 39.1815 45.141 38.8703 45.8266Z" fill="#E4E4E3"/>
<path d="M35.2362 43.7961C35.1503 44.0145 34.2354 43.4047 32.999 42.9184C31.7626 42.4322 30.6759 42.2592 30.7618 42.0408C30.8477 41.8224 31.9807 41.8088 33.2165 42.2896C34.4506 42.7788 35.3221 43.5777 35.2362 43.7961Z" fill="white"/>
<path d="M38.515 45.7048C38.2406 46.0505 36.4124 45.7161 36.3981 45.5445C36.366 45.2178 37.5173 45.6461 37.794 45.2975C38.0684 44.9519 37.235 44.3436 37.394 44.2901C37.5667 44.2378 38.7894 45.3592 38.515 45.7048Z" fill="#BABABA"/>
</svg>
