<svg width="60" height="63" viewBox="0 0 60 63" fill="none" xmlns="http://www.w3.org/2000/svg">
<path d="M23.7443 10.2392C24.2413 12.7741 26.3289 15.7564 27.5715 16.4523C28.8141 17.1481 31.1006 17.0487 32.5917 16.5517C34.1326 16.0546 36.2699 10.935 36.1208 9.49359C35.9717 8.10186 23.7443 10.2392 23.7443 10.2392Z" fill="url(#paint0_linear_3626_1067)"/>
<path d="M59.9791 31.662C59.6808 32.2087 54.3127 32.3082 51.3801 33.6005C49.9884 33.1034 49.6405 30.6182 49.2925 29.0276C49.1434 28.3318 49.044 27.785 49.044 27.785C49.044 27.785 48.2984 25.9956 47.2049 23.9577C46.4096 22.4666 45.4653 20.876 44.5706 19.6334C43.825 18.6393 43.0297 17.8937 42.3836 17.7446C40.9421 17.3967 37.4628 17.1979 34.5302 17.1482C32.0947 17.0488 30.0568 17.0488 30.0568 17.0488C30.0568 17.0488 27.7703 17.0488 25.136 17.1482C23.0981 17.1979 20.8614 17.347 19.2708 17.4961C18.6744 17.5458 18.1276 17.6452 17.7797 17.7446C17.2329 17.8937 16.4873 18.689 15.6921 19.8819C15.0459 20.8263 14.3997 22.069 13.7039 23.3613C13.505 23.7589 13.2565 24.2063 13.0577 24.6039C12.6104 25.5483 12.1133 26.5424 11.7157 27.4371C10.1748 30.817 9.92629 33.6502 9.92629 33.6502C9.92629 33.6502 7.78899 33.1531 5.8505 32.8549C3.71319 32.507 0.333263 32.0099 0.0350338 31.4632C-0.21349 30.9661 0.7309 26.6915 7.09312 24.0571C7.8884 23.7092 8.78309 23.411 9.77719 23.1625C9.57837 23.2122 8.83279 23.3613 7.8884 23.4607C6.04932 23.7092 3.31555 23.908 1.725 23.1625C-0.909361 22.0192 4.35935 17.1979 6.44696 18.2914C7.9381 19.037 9.57837 19.4843 11.3677 19.0867C12.163 18.9375 12.9583 18.5896 13.8033 18.0926C14.7477 17.4961 14.9962 16.502 14.8968 15.5079C14.7477 13.5197 13.4056 11.3824 13.4056 11.3824C13.4056 11.3824 19.5193 10.1398 24.6389 12.9233C24.6389 12.9233 25.2354 16.2535 27.8697 16.4026C30.5538 16.6014 25.0366 14.0168 23.7442 10.1398C22.4519 6.26281 30.0568 0 30.0568 0C30.0568 0 37.3137 6.31252 35.9716 10.1398C34.6793 14.0168 29.51 16.5517 32.1941 16.4026C34.8781 16.2535 35.4249 12.9233 35.4249 12.9233C40.5445 10.1398 46.6582 11.3824 46.6582 11.3824C46.6582 11.3824 43.5765 16.4026 46.2605 18.0926C48.9943 19.7825 51.4795 19.3849 53.6168 18.2914C55.7542 17.1979 60.9732 22.0192 58.3388 23.1625C56.2512 24.0571 52.4239 23.5104 50.8831 23.2619C57.3944 24.8027 60.2773 31.1152 59.9791 31.662Z" fill="url(#paint1_linear_3626_1067)"/>
<path opacity="0.5" d="M59.0844 22.2181C57.7424 20.5281 49.9884 21.7707 49.9884 21.7707C49.9884 21.7707 51.9766 23.2122 53.3683 23.7092C54.8098 24.2063 59.5814 23.7589 59.0844 22.2181Z" fill="#58395A"/>
<path opacity="0.5" d="M1.22797 22.3175C2.57001 20.6275 10.8707 21.6216 10.8707 21.6216C10.8707 21.6216 8.88252 23.0631 7.49079 23.5601C6.04935 24.0572 0.730926 23.8584 1.22797 22.3175Z" fill="#58395A"/>
<path opacity="0.5" d="M46.6582 11.4321C46.6582 11.4321 42.3836 12.5256 41.6877 12.8736C40.9918 13.2215 43.1291 12.8239 45.2167 15.0606C45.2664 15.0606 45.7635 12.6747 46.6582 11.4321Z" fill="#58395A"/>
<path opacity="0.5" d="M13.505 11.4321C13.505 11.4321 17.7796 12.5256 18.4755 12.8736C19.1714 13.2215 17.034 12.8239 14.9464 15.0606C14.9464 15.0606 14.4494 12.6747 13.505 11.4321Z" fill="#58395A"/>
<path d="M30.007 13.1221C30.007 13.1221 27.1242 11.4321 26.6768 9.59303C26.2295 7.75395 30.007 3.82727 30.007 3.82727C30.007 3.82727 33.1384 7.55513 32.9893 9.44392C32.8899 11.3327 30.007 13.1221 30.007 13.1221Z" fill="url(#paint2_linear_3626_1067)"/>
<path d="M29.8579 4.97049C28.5159 5.0699 26.9253 7.70426 27.2733 9.49363C27.6212 11.3327 29.3609 12.1777 29.8579 12.1777C30.355 12.1777 32.2438 10.8357 32.3929 9.04629C32.5917 7.30662 31.1006 4.92079 29.8579 4.97049Z" fill="url(#paint3_linear_3626_1067)"/>
<path opacity="0.5" d="M26.8757 8.20126C26.3289 9.49359 28.3668 5.16927 30.0071 5.16927C31.5976 5.16927 32.2935 8.35038 32.6414 8.5989C32.9894 8.84742 32.542 7.65451 32.542 7.65451C32.542 7.65451 30.5041 4.12546 30.0071 3.87694C30.0071 3.82724 27.6212 6.36218 26.8757 8.20126Z" fill="#58395A"/>
<path opacity="0.5" d="M27.5715 10.3883C27.8698 9.39418 31.7467 9.49359 32.045 9.54329C32.3432 9.593 30.9018 12.1279 29.9077 12.2274C28.8639 12.3268 27.5218 10.5871 27.5715 10.3883Z" fill="#58395A"/>
<path opacity="0.5" d="M24.7384 12.0782C24.639 10.4877 26.8757 11.2333 28.0189 11.8794C29.1125 12.5256 30.0071 13.5197 30.0071 13.5197C30.0071 13.5197 33.0888 11.0841 34.0829 10.8853C35.1267 10.6865 35.077 12.0285 35.077 12.0285C35.077 12.0285 31.8959 15.8558 30.3551 16.1043C28.8142 16.3529 24.7384 12.0782 24.7384 12.0782Z" fill="#58395A"/>
<path opacity="0.5" d="M24.0922 7.25689C23.2473 9.24508 29.361 3.52902 29.858 3.52902C30.355 3.47932 31.5977 6.06397 32.4427 6.90895C33.2876 7.75393 35.077 6.51131 35.077 6.51131C35.077 6.51131 32.7409 2.2367 30.0568 0.0496826C30.0568 0.0496826 25.3846 4.22489 24.0922 7.25689Z" fill="white"/>
<path opacity="0.5" d="M49.9884 21.7707C49.9884 21.7707 53.0204 21.4228 54.263 21.7707C55.4559 22.1187 55.3068 23.6595 55.3068 23.6595C55.3068 23.6595 53.1695 23.7589 52.7719 23.5601C52.3742 23.3613 50.8831 22.069 49.9884 21.7707Z" fill="#58395A"/>
<path opacity="0.5" d="M10.5724 21.7707C10.5724 21.7707 7.54042 21.4228 6.2978 21.7707C5.05518 22.1187 5.25399 23.6595 5.25399 23.6595C5.25399 23.6595 7.3913 23.7589 7.78894 23.5601C8.18658 23.3613 9.67772 22.069 10.5724 21.7707Z" fill="#58395A"/>
<path opacity="0.5" d="M52.4239 18.8878C50.9825 19.2854 54.0145 21.0251 56.45 21.2736C58.9353 21.5222 56.4003 18.8381 55.3068 18.3411C54.2133 17.9434 53.2192 18.689 52.4239 18.8878Z" fill="white"/>
<path opacity="0.5" d="M35.4249 12.973C35.4249 12.973 36.1208 14.1162 38.0096 13.818C39.8984 13.5695 44.5706 11.5813 44.5706 11.5813C44.5706 11.5813 40.8925 10.4878 35.4249 12.973Z" fill="white"/>
<path opacity="0.5" d="M7.54044 18.8878C8.98188 19.2854 5.94989 21.0251 3.51435 21.2736C1.02911 21.5222 3.56405 18.8381 4.65756 18.3411C5.80077 17.9434 6.74517 18.689 7.54044 18.8878Z" fill="white"/>
<path opacity="0.5" d="M24.4401 12.8735C24.4401 12.8735 23.7442 14.0167 21.8555 13.7185C19.9667 13.47 15.2944 11.4818 15.2944 11.4818C15.2944 11.4818 18.9726 10.3883 24.4401 12.8735Z" fill="white"/>
<path d="M30.007 13.1221C30.007 13.1221 30.007 12.3268 31.0508 11.5315C32.0946 10.6865 32.7407 10.1398 32.7407 10.1398C32.7407 10.1398 32.3431 11.5315 30.007 13.1221Z" fill="white"/>
<path d="M2.02332 21.7708C2.02332 21.7708 2.52037 20.9258 4.40915 20.8761C6.34764 20.7767 8.13701 21.3234 8.13701 21.3234C8.13701 21.3234 4.60797 21.224 2.02332 21.7708Z" fill="url(#paint4_linear_3626_1067)"/>
<path d="M52.076 21.4725C52.076 21.4725 54.2631 20.9755 55.8039 20.9755C57.2951 20.9755 58.2394 21.6713 58.2394 21.6713C58.2394 21.6713 56.7483 21.0749 52.076 21.4725Z" fill="url(#paint5_linear_3626_1067)"/>
<path d="M31.3989 3.72783C31.051 3.82724 31.4486 5.4178 32.4427 5.51721C33.3871 5.61662 32.3433 3.3799 31.3989 3.72783Z" fill="white"/>
<path d="M19.1216 12.0286C18.724 12.0286 19.4198 12.5256 20.0163 12.5256C20.6128 12.5256 20.3145 11.9789 19.1216 12.0286Z" fill="white"/>
<path d="M41.9859 11.6309C40.9421 12.6747 42.7314 12.3765 43.6758 12.0285C44.6202 11.6309 42.3835 11.2333 41.9859 11.6309Z" fill="white"/>
<path opacity="0.5" d="M10.622 38.2231C9.87641 38.3722 9.62788 40.0124 10.622 40.8077C11.5664 41.603 12.2622 37.9745 10.622 38.2231Z" fill="#58395A"/>
<path opacity="0.5" d="M10.0752 39.6148C10.3735 40.41 11.3676 39.9627 11.5167 39.3662C11.6658 38.8195 11.2185 37.9248 10.5226 38.2727C9.82673 38.6207 10.0752 39.6148 10.0752 39.6148Z" fill="#58395A"/>
<path d="M10.2244 40.3603C10.2244 39.8136 11.0196 40.0621 11.3676 39.913C11.7155 39.7639 11.5167 40.8077 11.0693 40.8574C10.622 40.9568 10.2244 40.3603 10.2244 40.3603Z" fill="white"/>
<path d="M50.237 19.5341C48.4974 17.2974 30.4545 16.7506 30.4545 16.7506C30.4545 16.7506 12.4117 17.3471 10.672 19.5341C8.93231 21.7708 9.47907 49.7049 10.672 53.4328C11.8649 57.1606 30.4545 56.9618 30.4545 56.9618C30.4545 56.9618 49.0938 57.2104 50.237 53.4328C51.43 49.7546 52.0264 21.7708 50.237 19.5341ZM45.9624 49.9037C45.0677 52.8363 30.4545 52.6375 30.4545 52.6375C30.4545 52.6375 15.8413 52.8363 14.9466 49.9037C14.0519 46.9712 13.5549 25.0513 14.9466 23.3116C16.3383 21.572 30.4545 21.1246 30.4545 21.1246C30.4545 21.1246 44.5707 21.572 45.9624 23.3116C47.3542 25.0016 46.9068 46.9712 45.9624 49.9037Z" fill="url(#paint6_linear_3626_1067)"/>
<path d="M48.1493 25.8465C48.1493 25.7968 48.1493 25.7471 48.1493 25.6974C48.0499 24.6039 47.9505 23.7092 47.8014 23.0134C47.7517 22.8145 47.702 22.6654 47.702 22.5163C47.6522 22.2678 47.5528 22.1187 47.4534 21.9696C47.354 21.8701 47.2049 21.721 46.9564 21.6216C46.9067 21.5719 46.9067 21.5719 46.857 21.5719C46.857 21.5719 46.8073 21.5719 46.8073 21.5222C46.6582 21.4228 46.4096 21.3731 46.2108 21.3234H46.1611C44.6203 20.8263 41.9859 20.4287 39.3018 20.1802C37.3633 19.9814 35.3752 19.8322 33.7846 19.7825H33.7349C31.7964 19.6831 30.4544 19.6334 30.4544 19.6334C30.4544 19.6334 29.2615 19.6831 27.5715 19.7825C25.9312 19.8819 23.7442 20.0311 21.6069 20.2299C18.5252 20.5281 15.4932 20.9755 14.1512 21.6216C13.9027 21.721 13.7038 21.8701 13.6044 21.9696C13.5547 22.069 13.505 22.1187 13.4553 22.1684C13.4553 22.2181 13.4056 22.2181 13.4056 22.2678C13.3559 22.3672 13.3062 22.4666 13.3062 22.566C13.1074 23.2122 12.9583 24.4051 12.8589 25.8962C12.3121 33.2526 12.7594 48.6611 13.5547 51.196C14.5488 54.3771 30.5538 54.1783 30.5538 54.1783C30.5538 54.1783 46.509 54.3771 47.5528 51.196C48.2487 48.6113 48.7458 33.2028 48.1493 25.8465ZM45.9623 49.9037C45.0676 52.8363 30.4544 52.6374 30.4544 52.6374C30.4544 52.6374 15.8412 52.8363 14.9465 49.9037C14.2009 47.6172 13.8033 33.5011 14.3003 26.7412C14.35 25.9956 14.4494 25.3495 14.4991 24.8027C14.5985 24.0074 14.7476 23.5104 14.9465 23.2619C15.4932 22.6157 17.879 22.1187 20.6128 21.7707C25.0862 21.224 30.4544 21.0749 30.4544 21.0749C30.4544 21.0749 35.8225 21.224 40.2959 21.7707C43.0794 22.1187 45.4652 22.566 45.9623 23.2619C46.1611 23.5104 46.3102 24.0572 46.4096 24.9021C46.4593 25.3992 46.5588 26.0453 46.6085 26.7412C47.1552 33.4514 46.7079 47.5675 45.9623 49.9037Z" fill="url(#paint7_linear_3626_1067)"/>
<path d="M11.0199 19.2856C10.5228 19.7329 13.1572 20.7767 16.8353 20.3791C20.5632 19.9814 29.9574 19.6335 32.2438 19.6335C34.5302 19.5838 45.515 20.8264 46.9067 21.1246C48.2488 21.4229 50.0879 19.385 49.9884 19.2856C49.889 19.2359 41.986 16.7506 30.5041 16.7506C19.0223 16.7506 11.3181 18.9873 11.0199 19.2856Z" fill="white"/>
<path opacity="0.5" d="M12.7595 55.1227C11.1689 52.4386 22.6011 54.6256 31.2497 54.5262C39.8983 54.4268 47.6026 52.8859 46.6085 55.6197C46.6085 55.6197 39.9481 57.0114 30.2059 57.0114C20.5135 56.9617 12.7595 55.1227 12.7595 55.1227Z" fill="#58395A"/>
<path opacity="0.5" d="M47.8014 21.1245C46.9068 21.6216 48.6464 19.6831 49.3423 23.7589C50.0382 27.8347 50.7837 21.721 50.6346 20.528C50.4855 19.3848 47.8014 21.1245 47.8014 21.1245Z" fill="#58395A"/>
<path opacity="0.5" d="M13.5051 21.5222C13.7039 20.9755 10.7713 19.3849 10.6719 19.5837C10.5725 19.7826 10.2246 22.7648 10.6719 24.0572C11.1192 25.3495 13.5051 21.5222 13.5051 21.5222Z" fill="#58395A"/>
<path d="M46.1612 19.8322C45.1671 20.5281 46.6086 21.3233 47.4038 21.0748C48.1991 20.8263 48.9944 19.8322 48.9944 19.8322C48.9944 19.8322 47.7021 18.7387 46.1612 19.8322Z" fill="white"/>
<path d="M14.4992 52.1404C12.3619 50.5996 20.7123 53.1842 30.5041 52.6375C40.296 52.0907 46.6582 51.2457 46.4594 52.1901C46.4594 52.1901 42.2842 54.1286 30.5041 54.1286C18.7241 54.1286 14.4992 52.1404 14.4992 52.1404Z" fill="white"/>
<path d="M44.5706 51.0966C43.6262 51.7924 45.7635 52.6374 46.4096 52.1901C47.0558 51.7427 47.4037 50.5001 47.4037 50.5001L44.5706 51.0966Z" fill="white"/>
<path opacity="0.5" d="M30.4544 16.7506L22.2531 17.7944C22.2531 17.7944 22.1537 18.7885 21.7063 19.9814L21.6566 20.1802C21.4081 20.727 21.1099 21.2737 20.7122 21.7708L20.6625 21.8205C17.9288 22.1684 15.4932 22.6157 14.9962 23.3116C14.8471 23.5104 14.698 24.0572 14.5488 24.8525C14.4494 25.3992 14.3997 26.0454 14.35 26.7909L12.8092 25.8963C12.8092 25.8963 11.7157 25.2998 10.7216 26.9401C9.92629 28.2324 9.67777 31.8111 9.62806 33.352L9.77718 29.4253C9.77718 29.4253 7.83869 28.7294 7.88839 28.0336C7.9381 27.3377 9.72747 25.8963 9.72747 25.8963L13.2068 22.6157L13.2565 22.566L14.0518 21.8205C14.0518 21.8205 14.1015 21.7708 14.1015 21.6216C14.1015 21.5719 14.1512 21.5719 14.1512 21.5222C14.5488 20.5778 16.1394 17.5458 20.0164 16.9991C24.4898 16.2535 30.1562 16.7009 30.4544 16.7506Z" fill="#58395A"/>
<path opacity="0.5" d="M51.1814 29.3756L51.3305 33.3023C51.2311 31.7615 50.9826 28.1827 50.237 26.8904C49.2926 25.3495 48.2985 25.7969 48.1991 25.8466L46.7079 26.7413C46.6582 26.0454 46.6085 25.4489 46.5091 24.9022C46.4097 24.0572 46.2109 23.5105 46.0618 23.2619C45.515 22.6158 43.1292 22.1187 40.3954 21.7708L40.3457 21.7211C39.9481 21.224 39.6499 20.6773 39.4013 20.1305C39.4013 20.0808 39.3516 20.0311 39.3516 19.9814C38.8546 18.7885 38.7552 17.7447 38.7552 17.7447L30.4545 16.7506C30.4545 16.7506 36.3196 16.2536 40.8925 16.9494C44.8689 17.5459 46.4097 20.727 46.7577 21.572C46.8074 21.6714 46.8074 21.7708 46.8074 21.7708L47.5529 22.4667L47.6523 22.5661L51.1317 25.8466C51.1317 25.8466 52.9211 27.288 52.9708 27.9839C53.1199 28.6798 51.1814 29.3756 51.1814 29.3756Z" fill="#58395A"/>
<path d="M25.3348 18.6394C24.9868 19.882 26.3786 19.4346 27.2236 18.3411C28.0685 17.2476 25.4839 18.1423 25.3348 18.6394Z" fill="white"/>
<path opacity="0.5" d="M9.57837 34.7934C9.77719 29.1767 12.4612 43.2929 12.8092 45.8775C13.1571 48.4622 11.7654 51.8918 11.1192 51.8918C10.4234 51.8421 9.42925 39.2171 9.57837 34.7934Z" fill="#58395A"/>
<path opacity="0.5" d="M50.9825 32.0596C50.5351 28.5305 48.3481 42.7958 48.199 46.5734C48.0002 50.3509 49.4913 52.19 50.2369 51.9415C50.9328 51.6433 51.4795 35.8371 50.9825 32.0596Z" fill="#58395A"/>
<path d="M45.9624 23.3115C44.5706 21.5719 30.4545 21.1245 30.4545 21.1245C30.4545 21.1245 16.3383 21.5719 14.9466 23.3115C13.5548 25.0512 14.0022 46.971 14.9466 49.9036C15.891 52.8362 30.4545 52.6374 30.4545 52.6374C30.4545 52.6374 45.0677 52.8362 45.9624 49.9036C46.9068 46.971 47.3541 25.0015 45.9624 23.3115Z" fill="url(#paint8_linear_3626_1067)"/>
<path opacity="0.5" d="M15.7419 24.1069C14.0022 24.8028 15.1951 29.9721 17.9786 32.4573C20.7621 34.9426 37.4132 35.042 42.0854 32.4573C46.7577 29.8727 46.2607 24.4051 45.8133 23.6596C45.4157 22.914 27.0746 19.5341 15.7419 24.1069Z" fill="white"/>
<path opacity="0.2" d="M16.6862 50.2019C12.511 49.1581 17.9785 38.9189 31.3491 36.1851C44.7197 33.4513 47.2547 45.7284 46.012 49.9036C44.7694 54.0789 22.2531 51.5439 16.6862 50.2019Z" fill="#552FBE"/>
<path d="M16.885 27.1389C16.7359 28.5306 18.8235 29.1768 19.3206 27.1389C19.8176 25.101 17.0342 25.6975 16.885 27.1389Z" fill="white"/>
<path opacity="0.5" d="M19.0224 29.8229C18.8733 31.2147 20.9609 31.8608 21.4579 29.8229C21.955 27.785 19.1218 28.3318 19.0224 29.8229Z" fill="white"/>
<path opacity="0.5" d="M12.8092 25.8466C12.8092 25.8466 18.1773 21.6714 30.1065 21.6714C42.0356 21.6714 48.199 25.8466 48.199 25.8466C48.199 25.8466 48.2487 22.1684 46.9067 21.6217C44.5706 20.6276 40.8427 19.7329 30.1065 19.7329C19.3702 19.7329 14.2009 20.7767 13.4554 22.1684C12.6601 23.5105 12.8092 25.8466 12.8092 25.8466Z" fill="#58395A"/>
<path opacity="0.5" d="M15.8909 49.8043C14.4992 46.325 24.9869 51.1463 32.045 51.3949C39.1031 51.6434 42.1351 51.6434 42.1351 51.6434C42.1351 51.6434 23.0981 54.4766 15.8909 49.8043Z" fill="white"/>
<path d="M18.1275 39.7639C18.0778 40.5095 18.2766 41.2054 18.5252 41.8515C18.6743 42.1497 18.8234 42.4977 19.0719 42.7959C19.1713 42.945 19.2707 43.0941 19.3701 43.2433L19.7181 43.6409C20.6625 44.7344 21.9051 45.48 23.1974 46.1758C25.7821 47.4185 28.6649 48.1143 31.4981 48.6114C32.9396 48.8102 34.381 48.9096 35.8224 48.7605C37.2639 48.6114 38.6556 48.2137 39.8982 47.5179C42.4332 46.1261 44.0237 43.3427 44.322 40.4598C44.2226 41.9012 43.7752 43.3427 43.0296 44.5853C42.2841 45.8776 41.2403 46.9214 39.9479 47.667C38.7053 48.4126 37.2142 48.8102 35.7727 48.9593C34.3313 49.1084 32.8402 49.009 31.3987 48.8102C28.5158 48.3131 25.6826 47.6173 23.0483 46.2752C21.756 45.5794 20.5133 44.7841 19.569 43.6906L19.221 43.2433C19.1216 43.0941 19.0222 42.945 18.9228 42.7959C18.724 42.4977 18.5749 42.1497 18.4257 41.8515C18.2269 41.2551 18.0281 40.5095 18.1275 39.7639Z" fill="#FFF9C7"/>
<path d="M23.6448 43.9391C24.4401 44.1876 25.2353 44.3367 26.0306 44.4858C26.8259 44.6349 27.6709 44.7343 28.4662 44.6846C29.2614 44.6846 30.1064 44.5852 30.9017 44.4361C31.697 44.2373 32.4425 43.8894 33.1384 43.442C32.4922 43.9888 31.7467 44.3367 30.9514 44.5852C30.1561 44.8338 29.3111 44.8835 28.4662 44.9332C27.6212 44.9332 26.7762 44.8338 25.9809 44.6349C25.2353 44.4858 24.4401 44.2373 23.6448 43.9391Z" fill="#FFF9C7"/>
<path d="M32.8899 26.4927C33.5858 26.4927 34.2319 26.5921 34.8781 26.8406C35.5242 27.0394 36.1207 27.3874 36.6675 27.785C37.2142 28.1826 37.6616 28.6797 38.0592 29.2761C38.258 29.5744 38.4071 29.8726 38.5065 30.1708C38.6556 30.4691 38.7054 30.817 38.8048 31.1152C38.5562 30.5188 38.258 29.8726 37.8604 29.3756C37.5124 28.8288 37.0154 28.3318 36.5183 27.9838C36.0213 27.5862 35.4248 27.2382 34.8284 27.0394C34.1822 26.7412 33.5361 26.5921 32.8899 26.4927Z" fill="#FFF9C7"/>
<g opacity="0.5">
<path d="M18.1275 39.5651C18.0778 40.3106 18.2766 41.0065 18.5252 41.6527C18.6743 41.9509 18.8234 42.2988 19.0719 42.5971C19.1713 42.7462 19.2707 42.8953 19.3701 43.0444L19.7181 43.442C20.6625 44.5355 21.9051 45.2811 23.1974 45.977C25.7821 47.2196 28.6649 47.9155 31.4981 48.4125C32.9396 48.6113 34.381 48.7108 35.8224 48.5616C37.2639 48.4125 38.6556 48.0149 39.8982 47.319C42.4332 45.9273 44.0237 43.1438 44.322 40.2609C44.2226 41.7024 43.7752 43.1438 43.0296 44.3864C42.2841 45.6788 41.2403 46.7226 39.9479 47.4681C38.7053 48.2137 37.2142 48.6113 35.7727 48.7605C34.3313 48.9096 32.8402 48.8102 31.3987 48.6113C28.5158 48.1143 25.6826 47.4184 23.0483 46.0764C21.756 45.3805 20.5133 44.5853 19.569 43.4917L19.221 43.0444C19.1216 42.8953 19.0222 42.7462 18.9228 42.5971C18.724 42.2988 18.5749 41.9509 18.4257 41.6527C18.2269 41.0065 18.0281 40.2609 18.1275 39.5651Z" fill="#CA6D92"/>
<path d="M23.6448 43.6905C24.4401 43.9391 25.2353 44.0882 26.0306 44.2373C26.8259 44.3864 27.6709 44.4858 28.4662 44.4361C29.2614 44.4361 30.1064 44.3367 30.9017 44.1876C31.697 43.9888 32.4425 43.6408 33.1384 43.1935C32.4922 43.7402 31.7467 44.0882 30.9514 44.3367C30.1561 44.5852 29.3111 44.6349 28.4662 44.6846C27.6212 44.6846 26.7762 44.5852 25.9809 44.3864C25.2353 44.2373 24.4401 44.0385 23.6448 43.6905Z" fill="#CA6D92"/>
<path d="M32.8899 26.2441C33.5858 26.2441 34.2319 26.3436 34.8781 26.5921C35.5242 26.7909 36.1207 27.1388 36.6675 27.5365C37.2142 27.9341 37.6616 28.4312 38.0592 29.0276C38.258 29.3258 38.4071 29.6241 38.5065 29.9223C38.6556 30.2205 38.7054 30.5685 38.8048 30.8667C38.5562 30.2702 38.258 29.6241 37.8604 29.127C37.5124 28.5803 37.0154 28.0832 36.5183 27.7353C36.0213 27.3376 35.4248 26.9897 34.8284 26.7909C34.1822 26.4927 33.5361 26.3436 32.8899 26.2441Z" fill="#CA6D92"/>
</g>
<path d="M27.8699 16.8002C27.8699 16.8002 27.3231 16.8002 26.4781 16.8002C24.6888 16.8002 21.6071 16.8499 19.9668 17.1481C19.7183 17.1978 19.5195 17.2476 19.2709 17.347C17.2827 17.9931 16.0898 19.6831 16.0898 19.6831C16.2389 19.6831 16.3881 19.6831 16.5372 19.6831C16.736 19.6831 16.9845 19.6334 17.1833 19.6334C18.9727 19.2854 20.7124 17.844 20.7124 17.844C20.7124 17.844 20.7124 21.4725 17.7301 22.8642C16.4378 23.5104 14.6981 23.9577 13.0578 24.5045C10.9205 25.2003 8.88262 26.0453 7.98794 27.6359C7.34177 28.7791 9.97613 29.2761 9.72761 30.1708C9.6779 30.3199 9.52879 33.9981 9.52879 33.9981C9.52879 33.9981 2.66952 31.0655 3.5145 28.282C3.96184 26.7412 5.5027 25.25 7.04355 24.0074C7.29207 23.8086 7.5903 23.6098 7.83882 23.411C9.57849 22.1683 11.1193 21.3233 11.1193 21.3233C10.0258 21.373 9.08144 20.4784 9.08144 20.4784C9.87672 20.1801 10.6223 19.6831 11.3182 19.0369C12.5608 17.9931 13.704 16.6014 14.8472 15.4085C16.388 13.8179 17.9289 12.625 19.5692 13.0723C23.1976 13.967 24.6391 16.4026 27.8699 16.8002Z" fill="url(#paint9_linear_3626_1067)"/>
<path d="M51.3802 33.004C51.3802 33.004 50.9329 31.1152 50.9329 30.1211C50.9329 29.1767 53.3684 28.7293 52.6725 27.5861C51.7281 25.9956 49.6902 25.1506 47.5529 24.4547C45.9127 23.908 44.2227 23.4606 42.9801 22.8642C40.0475 21.4227 40.0475 17.844 40.0475 17.7943C40.0475 17.7943 42.5824 19.8819 44.67 19.6334C44.67 19.6334 42.7316 17.2972 40.296 17.0487C38.6558 16.8499 32.0947 16.8499 32.0947 16.8499C35.3255 16.4522 37.5126 13.967 41.0913 12.9729C44.6701 11.9788 47.6523 18.7884 51.579 20.3789C51.579 20.3789 50.6346 21.2736 49.5411 21.2239C49.5411 21.2239 56.0525 24.7033 57.146 28.1826C57.9412 31.0158 51.3802 33.004 51.3802 33.004Z" fill="url(#paint10_linear_3626_1067)"/>
<path opacity="0.5" d="M20.6626 17.7943C20.6626 17.7943 20.6626 21.4228 17.6803 22.8145C16.388 23.4607 14.6483 23.908 13.008 24.4548C10.8707 25.1506 8.83281 25.9956 7.93813 27.5862C7.29196 28.7294 9.92632 29.2264 9.6778 30.1211C9.62809 30.2702 9.62809 30.8667 9.57839 31.6123C9.52868 31.4631 9.03164 31.2146 8.53459 30.9661C7.73931 30.5685 4.35938 28.3814 5.94993 26.94C7.04344 25.9459 10.6719 24.4548 13.6045 23.1624C14.8968 22.6157 16.0897 22.0689 16.885 21.6216C19.4199 20.1801 20.3643 18.689 20.3643 18.689C19.0223 19.186 17.9288 19.4346 17.0341 19.5837C18.9726 19.2358 20.6626 17.7943 20.6626 17.7943Z" fill="#58395A"/>
<path opacity="0.5" d="M26.4285 16.8001C26.4782 16.8499 26.5279 16.8499 26.5279 16.8499C26.5279 16.8499 25.9314 16.8499 25.1361 16.9493C23.0982 16.999 20.8615 17.1481 19.271 17.2972C17.2828 17.9434 16.0899 19.6333 16.0899 19.6333C16.239 19.6333 16.3881 19.6333 16.5372 19.6333C16.239 19.6333 15.9905 19.683 15.7419 19.683C14.5987 19.683 14.1514 19.3848 14.1514 19.3848C14.1514 19.3848 17.4319 14.1658 19.4201 14.1161C21.11 14.1161 25.6829 16.4025 26.4285 16.8001Z" fill="#58395A"/>
<path opacity="0.5" d="M44.5706 19.4842C43.8251 18.4901 43.0298 17.7446 42.3836 17.5955C40.9422 17.2475 37.4628 17.0487 34.5303 16.999C33.9338 16.8996 33.4865 16.8499 33.4865 16.8499C33.4865 16.8499 40.3457 13.6191 41.7872 14.5635C42.9304 15.309 44.2227 18.6393 44.5706 19.4842Z" fill="#58395A"/>
<path opacity="0.5" d="M51.1815 32.159C50.9826 31.4134 50.9826 30.3199 50.9329 30.1211C50.6844 29.2264 53.3685 28.7294 52.6726 27.5862C51.7282 25.9956 49.6903 25.1506 47.553 24.4548C47.4536 24.2559 47.3045 24.0074 47.2051 23.8086C50.5353 25.3494 54.6608 27.3873 54.6608 28.3317C54.6111 29.5744 51.1815 32.159 51.1815 32.159Z" fill="#58395A"/>
<path opacity="0.5" d="M49.4914 21.2239C49.4914 21.2239 46.8571 20.9257 45.1671 20.031C45.1671 20.031 48.1494 20.2298 49.4914 20.1304C50.8335 20.031 51.5293 20.3789 51.5293 20.3789C51.5293 20.3789 50.4358 21.373 49.4914 21.2239Z" fill="#58395A"/>
<path opacity="0.5" d="M9.1311 20.379C9.1311 20.379 11.9146 20.727 15.543 20.4784C15.543 20.4784 12.5607 21.2737 11.169 21.224C9.77726 21.1743 9.1311 20.379 9.1311 20.379Z" fill="#58395A"/>
<path opacity="0.5" d="M39.4014 16.9493C39.4014 16.9493 41.0913 14.812 41.7872 14.8617C42.5328 14.9114 44.6204 19.6831 44.6204 19.6831C44.6204 19.6831 41.7375 17.4463 39.4014 16.9493Z" fill="#58395A"/>
<path opacity="0.5" d="M14.0519 19.4346C14.0519 19.4346 16.6862 15.5576 18.078 15.1103C19.4697 14.6132 21.607 16.9494 21.607 16.9494C21.607 16.9494 17.8295 17.2973 15.7418 19.6831C15.7418 19.6334 14.5489 19.6334 14.0519 19.4346Z" fill="#58395A"/>
<path opacity="0.5" d="M9.72761 29.7234C9.72761 29.7234 6.39739 28.5305 6.59621 27.4867C6.79503 26.4429 11.0199 25.25 11.0199 25.25C11.0199 25.25 10.0755 26.3932 9.08145 27.6358C8.33588 28.6299 9.72761 29.7234 9.72761 29.7234Z" fill="#58395A"/>
<path opacity="0.5" d="M50.9825 29.7234C50.9825 29.7234 53.6666 28.5305 53.4181 27.4867C53.2193 26.4429 49.6405 25.25 49.6405 25.25C49.6405 25.25 51.2808 26.3932 51.579 27.6358C51.9269 28.8785 50.9825 29.7234 50.9825 29.7234Z" fill="#58395A"/>
<path opacity="0.5" d="M40.5944 13.2214C39.65 13.7185 41.3896 14.2652 42.1849 14.812C42.9305 15.3587 43.5766 16.1043 43.5766 16.1043C43.5766 16.1043 46.2607 16.7008 46.6583 16.7008C47.1057 16.7008 44.5707 13.7682 42.9802 13.1717C41.4393 12.6747 40.5944 13.2214 40.5944 13.2214Z" fill="white"/>
<path opacity="0.5" d="M40.644 18.6393C40.644 18.6393 41.6381 20.9257 43.3281 21.8701C44.9684 22.8642 49.8891 24.405 49.8891 24.405C49.8891 24.405 48.5968 21.6713 46.0122 20.379C43.4275 19.0866 43.5766 19.9316 40.644 18.6393Z" fill="white"/>
<path opacity="0.5" d="M19.42 13.2215C20.2152 13.7186 18.7241 14.2653 18.0282 14.8121C17.3821 15.3588 16.4874 16.0547 16.4874 16.0547C16.4874 16.0547 14.4495 16.7506 14.1015 16.7506C13.7536 16.7506 15.9406 13.818 17.3324 13.2215C18.7241 12.6748 19.42 13.2215 19.42 13.2215Z" fill="white"/>
<path opacity="0.5" d="M19.3702 19.3351C19.3702 19.3351 18.1276 21.1742 16.4873 21.9197C14.8471 22.6653 10.1251 23.7091 10.1251 23.7091C10.1251 23.7091 11.3677 22.0688 13.9524 21.0748C16.537 20.1304 16.4376 20.3292 19.3702 19.3351Z" fill="white"/>
<path opacity="0.5" d="M11.0697 25.2003C11.0697 25.2003 13.1076 23.4109 14.3005 22.8145C15.4934 22.218 18.4757 22.2677 18.4757 22.2677C18.4757 22.2677 17.581 22.9636 15.6923 23.5104C13.7538 24.1068 11.0697 25.2003 11.0697 25.2003Z" fill="#58395A"/>
<path opacity="0.5" d="M49.3921 25.2003C49.3921 25.2003 46.5092 23.4109 45.3163 22.8145C44.1234 22.218 41.9861 22.2677 41.9861 22.2677C41.9861 22.2677 42.8808 22.9636 44.7696 23.5104C46.708 24.1068 49.3921 25.2003 49.3921 25.2003Z" fill="#58395A"/>
<path d="M41.7375 20.6276C41.7375 20.6276 42.5328 21.7211 44.4216 22.4666C46.2607 23.2122 48.5471 24.4051 48.5471 24.4051C48.5471 24.4051 46.3104 22.7152 44.8193 22.0193C43.3281 21.3234 41.7375 20.6276 41.7375 20.6276Z" fill="white"/>
<path d="M45.7139 20.0807C45.7139 20.0807 48.2985 19.8819 49.1435 19.9316C49.9885 19.9813 50.0382 20.1304 50.0382 20.1304C50.0382 20.1304 46.4097 20.1801 45.7139 20.0807Z" fill="white"/>
<path d="M38.7552 14.7623C38.7552 14.7623 40.7434 13.9174 41.7375 14.0665C42.7316 14.2156 43.3281 16.7008 43.3281 16.7008C43.3281 16.7008 42.3837 14.9115 41.5387 14.4144C40.644 13.9174 38.7552 14.7623 38.7552 14.7623Z" fill="white"/>
<path d="M8.48486 25.4986C8.48486 25.4986 12.9583 23.1128 15.2447 22.069C17.5311 21.0252 19.1217 20.1305 19.1217 20.1305C19.1217 20.1305 17.4814 21.5222 15.4932 22.3672C13.5548 23.2619 8.48486 25.4986 8.48486 25.4986Z" fill="white"/>
<path d="M10.1251 20.4784H15.543C15.543 20.4784 11.8151 20.7766 10.1251 20.4784Z" fill="white"/>
<path d="M16.8851 15.7564C16.8851 15.7564 18.3266 14.0167 19.1716 13.8676C19.9668 13.6688 21.8556 14.7126 21.8556 14.7126C21.8556 14.7126 20.0662 13.9173 19.1716 14.1658C18.2272 14.4143 16.8851 15.7564 16.8851 15.7564Z" fill="white"/>
<path d="M44.2723 22.4168C43.7256 22.1683 45.1173 22.0192 45.5149 22.4168C45.9126 22.8145 45.2664 22.9139 44.2723 22.4168Z" fill="white"/>
<path d="M41.7375 13.8677C41.1411 13.7682 41.8867 14.3647 42.2346 14.5635C42.5825 14.7126 42.6322 13.9671 41.7375 13.8677Z" fill="white"/>
<path d="M18.3762 14.1658C18.1277 14.9114 18.8236 14.2155 19.3703 13.967C19.9171 13.6688 18.575 13.5694 18.3762 14.1658Z" fill="white"/>
<path d="M16.2389 21.8701C15.8413 21.8701 16.4377 21.3234 17.0839 21.1743C17.6803 21.0749 16.7857 21.9199 16.2389 21.8701Z" fill="white"/>
<path d="M51.1814 32.0596C51.1814 32.0596 50.8335 30.5187 50.9826 29.972C51.082 29.3755 53.1199 27.9838 53.8655 27.7849C54.611 27.5364 55.1081 28.5305 53.2193 30.4193C52.0761 31.5625 51.1814 32.0596 51.1814 32.0596Z" fill="white"/>
<path d="M5.7015 28.2323C5.65179 27.6359 8.28615 28.8288 8.93231 29.1767C9.62818 29.475 9.72759 29.7235 9.72759 29.7235C9.72759 29.7235 9.87671 31.3637 9.23055 31.3637C8.63409 31.314 5.85061 29.5247 5.7015 28.2323Z" fill="white"/>
<path d="M53.0701 57.9062C52.921 58.95 50.6346 59.3973 48.4476 59.5465C47.1552 59.6459 45.8629 59.5962 45.167 59.447C43.2783 59.1488 40.6936 57.7074 36.7669 57.6577C34.0332 57.608 32.5917 59.6459 32.2935 61.1867C32.1941 61.7832 32.2438 62.3299 32.4426 62.6282C32.4923 62.6779 32.4923 62.7276 32.542 62.7773C32.542 62.7773 30.8521 62.0814 30.4047 61.3358C30.355 61.2861 30.355 61.2364 30.355 61.1867C30.2556 60.9382 30.3053 60.4411 30.355 59.8944C30.355 59.795 30.4047 59.6956 30.4047 59.5962C30.6035 58.4529 31.0012 57.2103 31.0012 57.2103C33.2379 55.8683 39.2522 54.6754 41.9859 55.2221C42.2345 55.2718 42.483 55.3215 42.7315 55.3712C45.167 55.918 47.3043 56.9618 48.8949 56.9121C50.6843 56.8624 50.2369 52.886 50.2369 52.886L52.5234 51.196C52.5234 51.196 52.5234 51.196 52.5234 51.2457C52.5234 51.3949 52.6228 52.0907 52.7719 52.9854C53.0204 54.576 53.2689 56.9121 53.0701 57.9062Z" fill="url(#paint11_linear_3626_1067)"/>
<path opacity="0.5" d="M52.8216 54.4766C52.6228 56.1665 52.1258 58.0553 49.9387 57.5583C47.8511 57.0612 43.0795 55.4707 42.7812 55.3712C45.2168 55.918 47.3541 56.9618 48.9446 56.9121C50.734 56.8624 50.2867 52.886 50.2867 52.886L52.5731 51.196C52.5731 51.196 52.5731 51.196 52.5731 51.2457C52.6228 51.3949 52.7719 52.0907 52.8216 52.9854C52.8713 53.4328 52.8713 53.9298 52.8216 54.4766Z" fill="#58395A"/>
<path opacity="0.5" d="M48.4973 59.5463C47.205 59.6457 45.9127 59.596 45.2168 59.4469C43.328 59.1487 40.7434 57.7072 36.8167 57.6575C34.0829 57.6078 32.6415 59.6457 32.3433 61.1866C32.393 60.8386 32.5421 58.6516 33.1385 57.6078C33.7847 56.4646 37.6617 56.8622 41.141 57.6078C44.6204 58.3534 48.4973 59.5463 48.4973 59.5463Z" fill="#58395A"/>
<path opacity="0.5" d="M31.2498 57.26C31.2498 57.26 34.4309 56.8126 37.1149 57.0114C39.799 57.2103 45.018 58.5026 45.863 58.602C46.708 58.7014 45.2665 55.9676 42.2345 55.2221C39.2025 54.4765 32.3433 56.3653 31.2498 57.26Z" fill="white"/>
<path d="M30.5041 61.2364C30.5041 61.2861 30.4544 61.3358 30.4544 61.3855C30.0071 62.1311 28.3171 62.827 28.3171 62.827C28.3668 62.7773 28.4165 62.7276 28.4165 62.6779C28.6153 62.3299 28.665 61.8329 28.5656 61.2364C28.2674 59.6459 26.7762 57.6577 24.0922 57.7074C20.2152 57.7571 17.5809 59.1985 15.6921 59.4968C14.9962 59.5962 13.7039 59.6459 12.4115 59.5962C10.2742 59.4967 7.93812 58.9997 7.789 57.9559C7.63989 56.9121 7.83871 54.6257 8.03753 52.9854C8.13693 52.0907 8.23634 51.3949 8.28605 51.2457V51.196L10.5228 52.9357C10.5228 52.9357 10.1748 56.8624 11.9642 56.9121C13.6045 56.9618 15.6921 55.918 18.1276 55.3712C18.3761 55.3215 18.6247 55.2718 18.8732 55.2221C21.6069 54.7251 27.6212 55.918 29.8579 57.2103C29.8579 57.2103 30.2556 58.4529 30.4544 59.5962C30.5041 59.7453 30.5041 59.8944 30.5041 60.0435C30.6035 60.5406 30.6035 60.9879 30.5041 61.2364Z" fill="url(#paint12_linear_3626_1067)"/>
<path opacity="0.5" d="M8.0873 54.4766C8.28612 56.1665 8.78317 58.0553 10.9702 57.5583C13.0578 57.0612 17.8294 55.4707 18.1277 55.3712C15.6921 55.918 13.5548 56.9618 11.9643 56.9121C10.1749 56.8624 10.5228 52.9357 10.5228 52.9357L8.28612 51.196C8.28612 51.196 8.28612 51.196 8.28612 51.2457C8.23642 51.3949 8.0873 52.0907 8.0376 52.9854C8.0376 53.4328 8.03759 53.9298 8.0873 54.4766Z" fill="#58395A"/>
<path opacity="0.5" d="M12.4116 59.5463C13.7039 59.6457 14.9963 59.596 15.6921 59.4469C17.5809 59.1487 20.1656 57.7072 24.0923 57.6575C26.826 57.6078 28.2675 59.6457 28.5657 61.1866C28.516 60.8386 28.3669 58.6516 27.7704 57.6078C27.1243 56.4646 23.2473 56.8622 19.7679 57.6078C16.2886 58.3534 12.4116 59.5463 12.4116 59.5463Z" fill="#58395A"/>
<path opacity="0.5" d="M29.6593 57.26C29.6593 57.26 26.4781 56.8126 23.7941 57.0114C21.11 57.2103 15.891 58.5026 15.046 58.602C14.2011 58.7014 15.6425 55.9676 18.6745 55.2221C21.6568 54.4765 28.5658 56.3653 29.6593 57.26Z" fill="white"/>
<path opacity="0.5" d="M32.5421 62.7772C32.5421 62.7772 30.8521 62.0813 30.4048 61.3357C29.9574 62.0813 28.2675 62.7772 28.2675 62.7772L28.3669 62.6281L30.3054 59.8943V59.8446L30.4048 59.9937L32.3433 62.6281C32.4924 62.7275 32.5421 62.7772 32.5421 62.7772Z" fill="#58395A"/>
<path d="M33.9338 57.1109C33.9338 57.1109 35.6735 56.6138 37.4132 56.6635C39.1528 56.6635 43.0795 58.105 43.0795 58.105C43.0795 58.105 37.5126 56.6138 33.9338 57.1109Z" fill="white"/>
<path d="M18.078 57.9559C18.078 57.9559 21.4579 56.9121 23.8935 56.8127C26.329 56.763 27.0249 57.1109 27.0249 57.1109C27.0249 57.1109 23.6947 56.6636 18.078 57.9559Z" fill="white"/>
<path opacity="0.5" d="M50.4358 53.0351C50.4358 53.0351 50.3861 55.073 50.1376 56.3156C49.9388 57.5582 52.2749 56.3156 52.7222 55.073C53.1696 53.7807 52.6228 51.2457 52.6228 51.2457L50.4358 53.0351Z" fill="#58395A"/>
<path opacity="0.5" d="M8.2861 51.196C8.2861 51.196 7.88846 54.7251 8.63404 55.6695C9.42931 56.6139 10.2743 55.2718 10.3737 54.7251C10.5228 54.1286 10.4731 52.9357 10.4731 52.9357L8.2861 51.196Z" fill="#58395A"/>
<path d="M21.3585 57.1605C20.613 57.1108 21.11 56.067 23.0485 56.1167C24.9373 56.1664 24.5396 57.3593 21.3585 57.1605Z" fill="white"/>
<path d="M37.6119 56.6138C36.9658 56.7132 38.3575 57.2599 39.1031 57.1605C39.8487 57.0611 38.5066 56.4646 37.6119 56.6138Z" fill="white"/>
<path d="M50.9825 47.3688C50.9825 47.3688 51.7778 48.9593 52.6725 48.9593C53.5672 48.9593 53.9151 48.512 54.2134 48.5617C54.5613 48.6114 53.8157 51.6931 52.424 52.886C51.0322 54.0789 50.4358 53.0351 50.4358 53.0351C50.4358 53.0351 50.8831 48.6611 50.9825 47.3688Z" fill="url(#paint13_linear_3626_1067)"/>
<path opacity="0.5" d="M54.2629 48.6611C53.8653 48.3629 51.5291 50.8978 51.1315 51.6434C50.7339 52.3393 50.5351 53.0351 50.8333 53.3831C51.1315 53.731 53.6168 52.9854 54.2629 48.6611Z" fill="#58395A"/>
<path d="M52.3245 48.9096C51.4796 48.8102 51.1316 50.5002 51.0819 51.0469C51.0322 51.5937 53.1198 49.3569 53.4678 49.0587C53.8654 48.8102 53.0204 48.9593 52.3245 48.9096Z" fill="white"/>
<path d="M9.97614 47.3688C9.97614 47.3688 9.18087 48.9593 8.28618 48.9593C7.39149 48.9593 7.04355 48.512 6.74533 48.5617C6.39739 48.6114 7.14297 51.6931 8.5347 52.886C9.92644 54.0789 10.5726 53.0351 10.5726 53.0351C10.5726 53.0351 10.0258 48.6611 9.97614 47.3688Z" fill="url(#paint14_linear_3626_1067)"/>
<path opacity="0.5" d="M6.646 48.6611C7.04363 48.3629 9.37976 50.8978 9.7774 51.6434C10.175 52.3393 10.3739 53.0351 10.0756 53.3831C9.7774 53.731 7.34186 52.9854 6.646 48.6611Z" fill="#58395A"/>
<path d="M8.6342 48.9096C9.47919 48.8102 9.82712 50.5002 9.87682 51.0469C9.92653 51.5937 7.83892 49.3569 7.49099 49.0587C7.09335 48.8102 7.93834 48.9593 8.6342 48.9096Z" fill="white"/>
<path opacity="0.5" d="M50.0381 37.9745C49.3422 38.0242 48.9446 39.6148 49.8393 40.4598C50.6843 41.3047 51.6784 37.8254 50.0381 37.9745Z" fill="#58395A"/>
<path opacity="0.5" d="M49.4416 39.2668C49.6901 40.0621 50.6345 39.7142 50.8333 39.1674C51.0321 38.6207 50.6842 37.726 49.9386 38.0242C49.2428 38.2727 49.4416 39.2668 49.4416 39.2668Z" fill="#58395A"/>
<path d="M49.4912 39.9627C49.4912 39.416 50.2865 39.7639 50.6344 39.6645C50.9824 39.5651 50.6841 40.5095 50.2865 40.5592C49.8391 40.6089 49.4912 39.9627 49.4912 39.9627Z" fill="white"/>
<path opacity="0.5" d="M48.2488 41.5036C47.7021 41.603 47.553 42.5474 48.0003 42.8953C48.4476 43.1936 49.2429 41.3048 48.2488 41.5036Z" fill="#58395A"/>
<path opacity="0.5" d="M48.05 41.5533C47.7518 41.8018 47.9009 42.3485 48.0997 42.3982C48.2985 42.448 48.8453 41.9509 48.6961 41.6527C48.547 41.3544 48.1494 41.4539 48.05 41.5533Z" fill="#58395A"/>
<path d="M47.9008 42.7462C47.7517 42.2988 48.1493 42.5971 48.4475 42.4977C48.6961 42.3983 48.199 43.2929 47.9008 42.7462Z" fill="white"/>
<path d="M20.7619 17.2973C20.911 16.1044 23.595 15.4582 26.8258 15.8558C30.007 16.2535 32.4922 17.5458 32.3431 18.689C32.194 19.8819 29.5099 20.5281 26.2791 20.1304C23.098 19.7825 20.6128 18.4902 20.7619 17.2973Z" fill="url(#paint15_radial_3626_1067)"/>
<path d="M43.9741 50.9972C44.0735 50.2516 44.8688 49.7545 45.7635 49.9037C46.6581 50.0031 47.3043 50.6989 47.2049 51.3948C47.1055 52.1404 46.3102 52.6374 45.4155 52.4883C44.5208 52.4386 43.8747 51.7427 43.9741 50.9972Z" fill="url(#paint16_radial_3626_1067)"/>
<path d="M52.921 19.1861C53.1198 18.3411 54.3127 17.8937 55.5553 18.192C56.8477 18.4902 57.6926 19.3849 57.5435 20.2299C57.3447 21.0748 56.1518 21.5222 54.9092 21.2239C53.6168 20.9257 52.7221 19.9813 52.921 19.1861Z" fill="url(#paint17_radial_3626_1067)"/>
<path d="M3.36531 19.1861C3.56412 18.3411 4.75704 17.8937 5.99966 18.192C7.29199 18.4902 8.13697 19.3849 7.98786 20.2299C7.78904 21.0748 6.59612 21.5222 5.3535 21.2239C4.06117 20.9257 3.16649 19.9813 3.36531 19.1861Z" fill="url(#paint18_radial_3626_1067)"/>
<path d="M12.8588 22.7649C12.5606 22.1684 13.4056 21.1246 14.6979 20.4287C16.0399 19.7329 17.3323 19.6832 17.6802 20.2796C17.9784 20.8761 17.1334 21.9199 15.8411 22.6158C14.4991 23.3116 13.1571 23.3613 12.8588 22.7649Z" fill="url(#paint19_radial_3626_1067)"/>
<path d="M15.5428 15.0606C15.2943 14.6132 15.9405 13.818 16.9346 13.3209C17.9287 12.8239 18.9228 12.7244 19.1713 13.1718C19.4198 13.6191 18.7737 14.4144 17.7796 14.9115C16.7855 15.4582 15.7914 15.5079 15.5428 15.0606Z" fill="url(#paint20_radial_3626_1067)"/>
<path d="M43.1291 20.6275C43.3777 20.1802 44.3718 20.2796 45.3162 20.876C46.3103 21.4228 46.857 22.2181 46.6085 22.6654C46.36 23.1127 45.3659 23.0133 44.4215 22.4169C43.4771 21.8204 42.8806 21.0748 43.1291 20.6275Z" fill="url(#paint21_radial_3626_1067)"/>
<path d="M36.419 56.1168C36.5184 55.4706 37.7113 55.1227 39.1528 55.2718C40.5942 55.4706 41.6877 56.1168 41.5883 56.7132C41.4889 57.3594 40.296 57.7073 38.8545 57.5582C37.4131 57.4091 36.3196 56.7132 36.419 56.1168Z" fill="url(#paint22_radial_3626_1067)"/>
<path d="M31.0509 2.83323C31.6474 2.4853 32.5918 2.98235 33.1385 3.97644C33.6853 4.97054 33.6853 6.01434 33.0391 6.36227C32.4426 6.71021 31.4983 6.21316 30.9515 5.21906C30.4048 4.27467 30.4544 3.18117 31.0509 2.83323Z" fill="url(#paint23_radial_3626_1067)"/>
<path d="M19.7181 56.6139C19.6684 56.0174 20.911 55.4707 22.5016 55.3216C24.0921 55.1724 25.4342 55.5204 25.4839 56.1168C25.5336 56.7133 24.291 57.26 22.7004 57.4092C21.1099 57.5086 19.7678 57.1606 19.7181 56.6139Z" fill="url(#paint24_radial_3626_1067)"/>
<path d="M41.6876 13.6688C41.9859 13.2712 42.9303 13.47 43.8747 14.0664C44.8191 14.7126 45.3161 15.5576 45.0179 15.9552C44.7196 16.3529 43.7753 16.154 42.8309 15.5576C41.8865 14.9114 41.3894 14.0664 41.6876 13.6688Z" fill="url(#paint25_radial_3626_1067)"/>
<path d="M22.2531 60.3417C26.4257 60.3417 29.8083 58.6727 29.8083 56.6138C29.8083 54.555 26.4257 52.886 22.2531 52.886C18.0806 52.886 14.698 54.555 14.698 56.6138C14.698 58.6727 18.0806 60.3417 22.2531 60.3417Z" fill="url(#paint26_radial_3626_1067)"/>
<path d="M38.4072 60.8885C42.5798 60.8885 45.9623 59.2194 45.9623 57.1606C45.9623 55.1018 42.5798 53.4327 38.4072 53.4327C34.2346 53.4327 30.8521 55.1018 30.8521 57.1606C30.8521 59.2194 34.2346 60.8885 38.4072 60.8885Z" fill="url(#paint27_radial_3626_1067)"/>
<defs>
<linearGradient id="paint0_linear_3626_1067" x1="29.9438" y1="16.9361" x2="29.9438" y2="9.01747" gradientUnits="userSpaceOnUse">
<stop stop-color="#7E5555"/>
<stop offset="1" stop-color="#451E32"/>
</linearGradient>
<linearGradient id="paint1_linear_3626_1067" x1="30.0031" y1="33.7457" x2="30.0031" y2="0.0607874" gradientUnits="userSpaceOnUse">
<stop stop-color="#D7A282"/>
<stop offset="0.2151" stop-color="#916F77"/>
<stop offset="0.3302" stop-color="#A08288"/>
<stop offset="0.6325" stop-color="#C4B0B0"/>
<stop offset="0.8657" stop-color="#DACCC9"/>
<stop offset="1" stop-color="#E2D7D2"/>
</linearGradient>
<linearGradient id="paint2_linear_3626_1067" x1="29.8241" y1="13.134" x2="29.8241" y2="3.84054" gradientUnits="userSpaceOnUse">
<stop stop-color="#E2D7D2"/>
<stop offset="0.1284" stop-color="#DACCC8"/>
<stop offset="0.3513" stop-color="#C4B0AD"/>
<stop offset="0.64" stop-color="#A18281"/>
<stop offset="0.8911" stop-color="#7E5555"/>
<stop offset="1" stop-color="#451E32"/>
</linearGradient>
<linearGradient id="paint3_linear_3626_1067" x1="29.8241" y1="12.2214" x2="29.8241" y2="4.98371" gradientUnits="userSpaceOnUse">
<stop stop-color="#1434A3"/>
<stop offset="0.3492" stop-color="#221791"/>
<stop offset="0.4773" stop-color="#2733AC"/>
<stop offset="0.7129" stop-color="#3060D9"/>
<stop offset="0.895" stop-color="#367CF5"/>
<stop offset="1" stop-color="#3887FF"/>
</linearGradient>
<linearGradient id="paint4_linear_3626_1067" x1="2.02744" y1="21.3161" x2="8.1399" y2="21.3161" gradientUnits="userSpaceOnUse">
<stop stop-color="#E2D7D2"/>
<stop offset="0.1131" stop-color="#DACCC8"/>
<stop offset="0.3094" stop-color="#C4B0AD"/>
<stop offset="0.5638" stop-color="#A18281"/>
<stop offset="0.7849" stop-color="#7E5555"/>
<stop offset="1" stop-color="#451E32"/>
</linearGradient>
<linearGradient id="paint5_linear_3626_1067" x1="52.0684" y1="21.3156" x2="58.2147" y2="21.3156" gradientUnits="userSpaceOnUse">
<stop stop-color="#E2D7D2"/>
<stop offset="0.1131" stop-color="#DACCC8"/>
<stop offset="0.3094" stop-color="#C4B0AD"/>
<stop offset="0.5638" stop-color="#A18281"/>
<stop offset="0.7849" stop-color="#7E5555"/>
<stop offset="1" stop-color="#451E32"/>
</linearGradient>
<linearGradient id="paint6_linear_3626_1067" x1="30.4728" y1="56.9748" x2="30.4728" y2="16.746" gradientUnits="userSpaceOnUse">
<stop stop-color="#D7A28B"/>
<stop offset="0.2151" stop-color="#8E6A81"/>
<stop offset="0.4716" stop-color="#B9A3B0"/>
<stop offset="0.7109" stop-color="#DCD1D7"/>
<stop offset="0.8944" stop-color="#F2EDEE"/>
<stop offset="1" stop-color="#FAF8F7"/>
</linearGradient>
<linearGradient id="paint7_linear_3626_1067" x1="30.4727" y1="54.1212" x2="30.4727" y2="19.599" gradientUnits="userSpaceOnUse">
<stop stop-color="#E2D7D2"/>
<stop offset="0.1131" stop-color="#DACCC8"/>
<stop offset="0.3094" stop-color="#C4B0AD"/>
<stop offset="0.5638" stop-color="#A18281"/>
<stop offset="0.7849" stop-color="#7E5555"/>
<stop offset="1" stop-color="#451E32"/>
</linearGradient>
<linearGradient id="paint8_linear_3626_1067" x1="30.4717" y1="52.6349" x2="30.4717" y2="21.0917" gradientUnits="userSpaceOnUse">
<stop stop-color="#1434A3"/>
<stop offset="0.3492" stop-color="#221791"/>
<stop offset="0.4773" stop-color="#2733AC"/>
<stop offset="0.7129" stop-color="#3060D9"/>
<stop offset="0.895" stop-color="#367CF5"/>
<stop offset="1" stop-color="#3887FF"/>
</linearGradient>
<linearGradient id="paint9_linear_3626_1067" x1="15.6708" y1="33.9441" x2="15.6708" y2="12.8913" gradientUnits="userSpaceOnUse">
<stop stop-color="#D7A282"/>
<stop offset="0.2151" stop-color="#916F77"/>
<stop offset="0.3302" stop-color="#A08288"/>
<stop offset="0.6325" stop-color="#C4B0B0"/>
<stop offset="0.8657" stop-color="#DACCC9"/>
<stop offset="1" stop-color="#E2D7D2"/>
</linearGradient>
<linearGradient id="paint10_linear_3626_1067" x1="44.6068" y1="33.0164" x2="44.6068" y2="12.8909" gradientUnits="userSpaceOnUse">
<stop stop-color="#D7A282"/>
<stop offset="0.2151" stop-color="#916F77"/>
<stop offset="0.3302" stop-color="#A08288"/>
<stop offset="0.6325" stop-color="#C4B0B0"/>
<stop offset="0.8657" stop-color="#DACCC9"/>
<stop offset="1" stop-color="#E2D7D2"/>
</linearGradient>
<linearGradient id="paint11_linear_3626_1067" x1="41.7269" y1="62.7801" x2="41.7269" y2="51.1721" gradientUnits="userSpaceOnUse">
<stop stop-color="#D7A282"/>
<stop offset="0.2151" stop-color="#916F6F"/>
<stop offset="0.3302" stop-color="#A08281"/>
<stop offset="0.6325" stop-color="#C4B0AD"/>
<stop offset="0.8657" stop-color="#DACCC8"/>
<stop offset="1" stop-color="#E2D7D2"/>
</linearGradient>
<linearGradient id="paint12_linear_3626_1067" x1="19.1612" y1="62.7933" x2="19.1612" y2="51.1853" gradientUnits="userSpaceOnUse">
<stop stop-color="#D7A282"/>
<stop offset="0.2151" stop-color="#916F6F"/>
<stop offset="0.3302" stop-color="#A08281"/>
<stop offset="0.6325" stop-color="#C4B0AD"/>
<stop offset="0.8657" stop-color="#DACCC8"/>
<stop offset="1" stop-color="#E2D7D2"/>
</linearGradient>
<linearGradient id="paint13_linear_3626_1067" x1="52.3516" y1="53.4518" x2="52.3516" y2="47.3894" gradientUnits="userSpaceOnUse">
<stop stop-color="#D7A282"/>
<stop offset="0.2151" stop-color="#916F77"/>
<stop offset="0.3302" stop-color="#A08288"/>
<stop offset="0.6325" stop-color="#C4B0B0"/>
<stop offset="0.8657" stop-color="#DACCC9"/>
<stop offset="1" stop-color="#E2D7D2"/>
</linearGradient>
<linearGradient id="paint14_linear_3626_1067" x1="8.61358" y1="53.4464" x2="8.61358" y2="47.3894" gradientUnits="userSpaceOnUse">
<stop stop-color="#D7A282"/>
<stop offset="0.2151" stop-color="#916F77"/>
<stop offset="0.3302" stop-color="#A08288"/>
<stop offset="0.6325" stop-color="#C4B0B0"/>
<stop offset="0.8657" stop-color="#DACCC9"/>
<stop offset="1" stop-color="#E2D7D2"/>
</linearGradient>
<radialGradient id="paint15_radial_3626_1067" cx="0" cy="0" r="1" gradientUnits="userSpaceOnUse" gradientTransform="translate(26.5357 18.0273) rotate(-173.009) scale(5.8319 2.16338)">
<stop offset="0.5196" stop-color="#A68F95"/>
<stop offset="1"/>
</radialGradient>
<radialGradient id="paint16_radial_3626_1067" cx="0" cy="0" r="1" gradientUnits="userSpaceOnUse" gradientTransform="translate(45.5752 51.2185) rotate(-173.012) scale(1.61856 1.32084)">
<stop offset="0.5196" stop-color="#A68F95"/>
<stop offset="1"/>
</radialGradient>
<radialGradient id="paint17_radial_3626_1067" cx="0" cy="0" r="1" gradientUnits="userSpaceOnUse" gradientTransform="translate(55.2331 19.6866) rotate(-167.227) scale(2.37177 1.55651)">
<stop offset="0.5196" stop-color="#A68F95"/>
<stop offset="1"/>
</radialGradient>
<radialGradient id="paint18_radial_3626_1067" cx="0" cy="0" r="1" gradientUnits="userSpaceOnUse" gradientTransform="translate(5.68849 19.6866) rotate(-167.227) scale(2.37177 1.55651)">
<stop offset="0.5196" stop-color="#A68F95"/>
<stop offset="1"/>
</radialGradient>
<radialGradient id="paint19_radial_3626_1067" cx="0" cy="0" r="1" gradientUnits="userSpaceOnUse" gradientTransform="translate(15.2519 21.5336) rotate(152.664) scale(2.71219 1.20789)">
<stop offset="0.5196" stop-color="#A68F95"/>
<stop offset="1"/>
</radialGradient>
<radialGradient id="paint20_radial_3626_1067" cx="0" cy="0" r="1" gradientUnits="userSpaceOnUse" gradientTransform="translate(17.3467 14.1512) rotate(152.664) scale(2.03153 0.904753)">
<stop offset="0.5196" stop-color="#A68F95"/>
<stop offset="1"/>
</radialGradient>
<radialGradient id="paint21_radial_3626_1067" cx="0" cy="0" r="1" gradientUnits="userSpaceOnUse" gradientTransform="translate(44.9063 21.6541) rotate(-149.999) scale(2.03126 0.904885)">
<stop offset="0.5196" stop-color="#A68F95"/>
<stop offset="1"/>
</radialGradient>
<radialGradient id="paint22_radial_3626_1067" cx="0" cy="0" r="1" gradientUnits="userSpaceOnUse" gradientTransform="translate(38.9874 56.4201) rotate(-173.007) scale(2.59231 1.15462)">
<stop offset="0.5196" stop-color="#A68F95"/>
<stop offset="1"/>
</radialGradient>
<radialGradient id="paint23_radial_3626_1067" cx="0" cy="0" r="1" gradientUnits="userSpaceOnUse" gradientTransform="translate(32.0719 4.6018) rotate(-120.001) scale(2.03143 1.26479)">
<stop offset="0.5196" stop-color="#A68F95"/>
<stop offset="1"/>
</radialGradient>
<radialGradient id="paint24_radial_3626_1067" cx="0" cy="0" r="1" gradientUnits="userSpaceOnUse" gradientTransform="translate(22.596 56.3468) rotate(174.895) scale(2.90724 1.04099)">
<stop offset="0.5196" stop-color="#A68F95"/>
<stop offset="1"/>
</radialGradient>
<radialGradient id="paint25_radial_3626_1067" cx="0" cy="0" r="1" gradientUnits="userSpaceOnUse" gradientTransform="translate(43.3365 14.8064) rotate(-145.104) scale(2.03137 0.904833)">
<stop offset="0.5196" stop-color="#A68F95"/>
<stop offset="1"/>
</radialGradient>
<radialGradient id="paint26_radial_3626_1067" cx="0" cy="0" r="1" gradientUnits="userSpaceOnUse" gradientTransform="translate(22.2597 56.5998) rotate(180) scale(7.54342 3.74163)">
<stop stop-color="#A68F95"/>
<stop offset="1"/>
</radialGradient>
<radialGradient id="paint27_radial_3626_1067" cx="0" cy="0" r="1" gradientUnits="userSpaceOnUse" gradientTransform="translate(38.4002 57.1698) rotate(180) scale(7.54342 3.74163)">
<stop stop-color="#A68F95"/>
<stop offset="1"/>
</radialGradient>
</defs>
</svg>
