<svg width="60" height="49" viewBox="0 0 60 49" fill="none" xmlns="http://www.w3.org/2000/svg">
<path d="M47.926 5.42389C46.2984 3.38941 29.9321 2.89209 29.9321 2.89209C29.9321 2.89209 13.5207 3.43462 11.9383 5.42389C10.3559 7.45837 10.8532 32.912 11.9383 36.2576C13.0233 39.6484 29.9321 39.4676 29.9321 39.4676C29.9321 39.4676 46.8409 39.6936 47.926 36.2576C49.0111 32.912 49.5084 7.45837 47.926 5.42389ZM46.0272 34.7204C45.0777 37.7495 29.8869 37.5687 29.8869 37.5687C29.8869 37.5687 14.7413 37.7495 13.7919 34.7204C13.0685 32.4599 12.6164 19.2584 13.0233 11.9342C13.159 9.40243 13.385 7.59401 13.7919 7.1419C15.2387 5.33347 29.8869 4.88137 29.8869 4.88137C29.8869 4.88137 44.5804 5.37868 46.0272 7.1419C46.3888 7.59401 46.6149 9.31201 46.7505 11.7534C47.2026 18.9871 46.7505 32.4147 46.0272 34.7204Z" fill="url(#paint0_linear_3626_345)"/>
<path d="M12.2096 5.19791C11.7575 5.60481 13.2946 6.28297 16.6854 5.96649C20.0763 5.60481 27.4004 4.79101 29.4801 4.79101C31.5598 4.7458 42.4103 5.33355 45.4395 6.46381C46.6149 6.91592 47.7452 5.28833 47.6548 5.24312C47.5644 5.19791 40.3759 2.93738 29.9322 2.93738C19.4885 2.93738 12.4809 4.92665 12.2096 5.19791Z" fill="white"/>
<path opacity="0.5" d="M13.8372 37.7947C12.3904 35.3534 22.7889 37.3426 30.6556 37.2522C38.5222 37.1618 45.5299 35.7603 44.6257 38.2468C44.6257 38.2468 38.5674 39.5127 29.7061 39.5127C20.8448 39.4675 13.8372 37.7947 13.8372 37.7947Z" fill="#58395A"/>
<path opacity="0.5" d="M13.792 7.09674C13.5659 6.01168 12.2096 5.83084 11.8931 6.05689C11.5766 6.28295 11.215 9.99022 11.3506 10.4423C11.441 10.8944 13.1138 10.3971 13.2947 9.22164C13.4755 8.00095 13.792 7.09674 13.792 7.09674Z" fill="#58395A"/>
<path opacity="0.5" d="M46.1628 7.23237C46.1176 6.73505 47.3835 5.83084 47.6548 5.65C47.926 5.42394 48.4233 7.68447 48.4686 9.31206C48.559 10.8944 47.8808 11.2109 47.2931 11.2109C46.7505 11.1657 46.1628 7.23237 46.1628 7.23237Z" fill="#58395A"/>
<path d="M34.9506 4.74569C33.7751 4.51963 36.9398 3.84147 38.8839 4.33879C40.828 4.8361 39.969 5.78553 34.9506 4.74569Z" fill="white"/>
<path d="M29.661 3.11823H29.6158C28.7568 3.25387 16.0526 5.10751 11.8932 4.74582C10.5369 4.61019 9.94911 1.44544 10.0395 0.269958C10.13 -0.90552 11.8932 2.5757 15.6457 2.75655C18.9008 2.93739 26.0893 1.89754 28.0786 0.948119C28.3499 0.812487 28.5307 0.676858 28.5759 0.541225C28.8924 -0.317778 29.4349 2.1236 29.5706 2.89218C29.6158 3.02781 29.661 3.11823 29.661 3.11823Z" fill="url(#paint1_linear_3626_345)"/>
<path d="M47.3384 4.74579C43.179 5.10748 30.52 3.25384 29.6158 3.11821C29.5706 3.11821 29.5706 3.11821 29.5706 3.11821C29.5706 3.11821 29.5706 3.02778 29.6158 2.89215C29.7514 2.12357 30.2487 -0.317806 30.6104 0.541197C30.6556 0.72204 30.9721 0.902885 31.379 1.03852H31.4242C33.7752 1.94273 40.4211 2.89216 43.5859 2.71131C46.3889 2.57568 48.1069 0.541197 48.8303 0.08909C49.0564 -0.0465421 49.192 -0.0465407 49.192 0.224724C49.2824 1.44541 48.6495 4.61016 47.3384 4.74579Z" fill="url(#paint2_linear_3626_345)"/>
<path opacity="0.5" d="M11.3505 4.51977C10.4463 3.29908 12.2999 2.9826 19.6693 3.25387C26.9934 3.47992 29.6609 3.11823 29.6609 3.11823C29.6609 3.11823 41.7321 3.52513 44.1283 3.02781C46.5245 2.5305 47.7904 4.51977 47.7904 4.51977C47.7904 4.51977 46.9766 4.88145 45.575 4.83624C42.6363 4.74582 36.985 4.24851 29.7965 4.2033C19.2172 4.11287 12.0287 5.42398 11.3505 4.51977Z" fill="#58395A"/>
<path d="M48.785 0.134277C48.785 0.134277 48.6946 0.676804 48.3781 1.35497C48.0617 2.03313 46.6149 3.43466 40.9636 3.25381C35.7643 3.07297 31.9666 1.35496 31.3789 1.0837C33.7299 1.98791 40.3758 2.93734 43.5406 2.75649C46.3889 2.62086 48.0617 0.631595 48.785 0.134277Z" fill="url(#paint3_linear_3626_345)"/>
<path d="M28.0786 0.948119C27.4909 1.40023 26.451 2.07839 25.4112 2.39487C23.8288 2.89219 14.8771 3.43471 12.7522 3.25387C10.6273 3.07303 10.0396 0.269958 10.0396 0.269958C10.13 -0.90552 11.8932 2.5757 15.6457 2.75655C18.9461 2.93739 26.0894 1.89754 28.0786 0.948119Z" fill="url(#paint4_linear_3626_345)"/>
<path opacity="0.5" d="M30.1582 0.676859C30.5199 0.224751 30.6103 3.29908 30.6103 3.29908L29.6609 3.11823C29.6609 3.11823 29.9322 1.03854 30.1582 0.676859Z" fill="#58395A"/>
<path opacity="0.5" d="M28.9827 0.631602C28.8018 0.224705 28.4854 3.25382 28.4854 3.25382L29.6156 3.07298C29.6156 3.11819 29.2087 1.08371 28.9827 0.631602Z" fill="#58395A"/>
<path d="M46.4794 2.71134C46.2533 2.5305 47.2932 1.35501 47.7453 0.948119C48.2426 0.541222 48.2426 1.53586 48.2426 1.53586C48.2426 1.53586 47.5192 2.57571 46.4794 2.71134Z" fill="white"/>
<path d="M10.7628 1.98797C10.6724 0.360384 13.0233 2.80176 13.2042 2.9826C13.385 3.11824 11.4862 3.66077 10.7628 1.98797Z" fill="white"/>
<path d="M15.9621 38.0659C15.9621 38.0659 14.018 36.9809 12.4809 34.9012C11.0341 32.9119 10.6724 29.6567 10.6724 29.6567L10.5368 26.4468C10.5368 26.4468 8.09543 30.2897 8.8188 34.6299C9.63259 39.4222 15.9621 38.0659 15.9621 38.0659Z" fill="url(#paint5_linear_3626_345)"/>
<path d="M29.6156 44.2598C27.9428 47.6054 24.7781 48.8713 24.8233 48.2835C24.8233 48.1931 24.9137 47.9671 25.0041 47.6506C25.5919 45.5257 27.1742 39.6483 23.2861 39.7839C18.7651 39.9648 13.8823 46.0682 9.72291 45.1188C5.65394 44.2146 3.48383 39.7839 3.48383 39.7839L2.12751 43.9433C0.816397 43.2199 -1.35372 40.5073 1.17808 37.0713C2.48919 35.3081 4.43325 32.6858 5.78957 30.8774V30.8322C6.739 29.5663 7.41716 28.6621 7.46237 28.6169C6.64858 28.0291 6.60337 26.8989 6.78421 26.2659C6.87463 25.8138 7.05548 25.633 7.19111 25.9042C7.46237 26.6728 10.4011 27.1249 11.2149 24.7288C10.4011 28.8881 12.526 31.5556 12.2999 32.0077C12.0739 32.505 10.7175 32.8215 10.1298 32.0077C9.58728 31.2391 10.0394 28.3004 10.0394 28.3004C10.0394 28.3004 9.94896 28.5717 9.81333 29.0238C9.40643 30.6966 8.54743 34.9916 10.808 36.2123C13.8823 37.8399 28.3045 38.292 28.3045 38.292C28.3045 38.292 31.1528 41.2307 29.6156 44.2598Z" fill="url(#paint6_linear_3626_345)"/>
<path opacity="0.5" d="M12.3001 32.0077C12.074 32.505 10.7177 32.8215 10.13 32.0077C9.58743 31.2391 10.0395 28.3004 10.0395 28.3004C10.0395 28.3004 9.94911 28.5717 9.81348 29.0238C9.99432 27.0797 10.6273 25.859 10.6273 25.859C10.6273 25.859 9.76827 28.1648 10.1752 29.7019C10.6725 31.3747 12.3001 32.0077 12.3001 32.0077Z" fill="#58395A"/>
<path opacity="0.5" d="M25.0043 47.6506C25.592 45.5257 27.1744 39.6483 23.2863 39.784C18.7652 39.9648 13.8825 46.0682 9.72309 45.1188C5.65412 44.2146 3.48401 39.784 3.48401 39.784C3.48401 39.784 3.52922 37.1165 4.84033 34.3135C6.28707 31.1939 9.99435 26.9893 10.2204 26.6729C9.99435 27.0345 5.88018 32.0529 5.15681 35.9863C4.52386 39.4223 7.73382 42.6322 14.425 41.6828C18.72 41.0951 22.5177 38.6085 25.6373 39.1058C28.7116 39.5127 25.1851 47.2889 25.0043 47.6506Z" fill="#58395A"/>
<path opacity="0.5" d="M2.12751 43.9433C0.816397 43.22 -1.35372 40.5073 1.17808 37.0713C2.48919 35.3081 4.43325 32.6859 5.78957 30.8774C5.56352 31.2391 3.57425 34.5395 2.30835 37.3426C0.816398 40.6429 2.12751 43.9433 2.12751 43.9433Z" fill="#58395A"/>
<path opacity="0.5" d="M10.0846 26.4919C9.9942 26.5823 8.2762 28.1647 7.46241 28.6168C6.64861 28.0291 6.6034 26.8988 6.78424 26.2659C6.78424 26.2659 6.82946 27.3961 7.64325 27.4414C8.45704 27.4866 9.9942 26.5371 10.0846 26.4919Z" fill="#58395A"/>
<path opacity="0.5" d="M30.0678 42.0896C28.5307 39.2866 24.7782 47.8314 24.8234 48.3287C24.8686 48.7808 29.7514 47.0176 30.0678 42.0896Z" fill="#58395A"/>
<path opacity="0.5" d="M25.6824 44.4858C25.6824 44.4858 27.1744 41.1854 26.8127 40.1456C26.4962 39.151 25.0947 38.6084 23.015 39.1962C20.8901 39.7839 23.874 39.0153 25.0495 40.3716C26.3154 41.7732 25.6824 44.4858 25.6824 44.4858Z" fill="#58395A"/>
<path opacity="0.5" d="M3.48401 39.784C3.48401 39.784 3.66485 36.7096 4.61428 34.7656C5.51849 32.9571 6.78439 31.7365 6.78439 31.7365C6.78439 31.7365 4.52385 35.2629 5.11159 37.5234C5.74454 39.9648 8.32156 41.1403 8.32156 41.1403C8.32156 41.1403 5.78976 42.0897 5.02117 41.5924C4.2978 41.0951 3.48401 39.784 3.48401 39.784Z" fill="#58395A"/>
<path opacity="0.5" d="M2.1276 43.9433C2.1276 43.9433 1.17817 41.6376 1.90154 38.3824C2.5797 35.4437 0.093116 38.4728 0.00269456 40.4169C-0.0877269 42.4966 2.1276 43.9433 2.1276 43.9433Z" fill="#58395A"/>
<path opacity="0.5" d="M6.7391 26.8085C6.7391 26.6729 7.05557 27.2606 7.50768 27.3962C7.95979 27.5319 8.09542 27.4415 8.27626 27.4867C8.4571 27.5319 7.77894 28.4813 7.50768 28.5265C7.23641 28.5717 6.55825 27.4415 6.7391 26.8085Z" fill="#58395A"/>
<path opacity="0.5" d="M9.81333 28.9786C9.81333 28.9786 9.81333 29.0238 9.81333 29.069C9.72291 29.4759 9.31601 31.6912 9.49685 32.505C9.63249 33.4544 11.9382 32.0529 11.9382 32.0529C11.9382 32.0529 9.85854 30.8322 10.1298 28.0743L9.81333 28.9786Z" fill="#58395A"/>
<path opacity="0.5" d="M10.2203 35.715C10.2203 35.715 10.356 40.869 12.5713 41.4567C14.7866 42.0897 19.1721 40.0552 22.6985 39.1962C26.1345 38.3824 26.9935 39.9648 26.9935 39.9648C26.9935 39.9648 27.8073 38.2468 28.0786 38.3824C28.3498 38.4728 25.5016 38.1563 19.4433 37.9755C13.4303 37.7947 10.7177 36.4835 10.2203 35.715Z" fill="white"/>
<path opacity="0.5" d="M2.12754 37.7043C1.49459 39.4675 2.17276 40.8238 2.39881 41.0951C2.62486 41.3664 3.25781 39.9196 3.84555 37.1618C4.38808 34.63 4.8854 33.5449 4.8854 33.5449C4.8854 33.5449 3.16739 34.8108 2.12754 37.7043Z" fill="white"/>
<path opacity="0.5" d="M10.4916 30.3801C10.1299 29.7472 10.3108 28.21 10.6273 28.0292C10.9437 27.8031 11.8932 30.6966 11.8932 30.6966C11.8932 30.6966 11.0342 31.3296 10.4916 30.3801Z" fill="white"/>
<path d="M6.2417 39.558C6.2417 39.558 7.32676 41.4568 12.5712 41.4568C15.5099 41.4568 19.0363 40.3266 19.0363 40.3266C19.0363 40.3266 15.8716 41.9994 11.3957 41.7733C6.91986 41.5925 6.2417 39.558 6.2417 39.558Z" fill="url(#paint7_linear_3626_345)"/>
<path d="M1.72071 42.2253C1.72071 42.2253 1.81113 38.5633 2.89619 36.2123C3.93603 34.0422 5.33757 31.6008 5.33757 31.6008C5.33757 31.6008 3.16745 35.0821 2.30845 37.3426C1.35902 39.784 1.72071 42.2253 1.72071 42.2253Z" fill="url(#paint8_linear_3626_345)"/>
<path d="M10.1752 27.9839C10.1752 27.9839 10.2204 29.5663 10.6273 30.3801C11.0794 31.1938 11.8027 31.7816 11.8027 31.7816C11.8027 31.7816 9.72305 30.787 10.1752 27.9839Z" fill="white"/>
<path opacity="0.5" d="M11.3506 45.1641C10.1751 45.3901 12.1192 42.1802 13.2042 41.8185C14.2441 41.4568 17.454 41.0951 17.454 41.0951C17.454 41.0951 15.6456 44.3503 11.3506 45.1641Z" fill="white"/>
<path d="M26.9934 40.01C26.903 41.3663 27.3099 43.1747 27.4907 42.9487C27.6716 42.7226 28.5306 41.3663 29.2539 41.5019C30.0225 41.5924 29.4348 39.2866 28.7566 39.0154C28.0785 38.6989 26.9934 40.01 26.9934 40.01Z" fill="url(#paint9_linear_3626_345)"/>
<path d="M10.2203 29.7472C10.1299 28.8429 10.8985 29.7924 10.8532 30.2445C10.8532 30.7418 10.2655 30.1541 10.2203 29.7472Z" fill="white"/>
<path d="M7.372 27.3962C7.14595 27.2154 7.86932 26.9441 8.45706 27.0346C9.09001 27.125 7.73369 27.7127 7.372 27.3962Z" fill="white"/>
<path d="M2.39888 37.207C3.12225 35.8507 2.76057 37.433 2.30846 38.3825C1.90157 39.3319 1.94678 38.066 2.39888 37.207Z" fill="white"/>
<path d="M5.38272 34.856C5.47314 34.6299 5.06624 37.0713 5.06624 37.0713C5.06624 37.0713 4.8854 36.1219 5.38272 34.856Z" fill="url(#paint10_linear_3626_345)"/>
<path opacity="0.5" d="M9.76824 29.5663C9.76824 29.5663 7.37207 33.8161 7.37207 35.9862C7.37207 38.292 9.36134 39.9647 11.6671 40.1908C14.018 40.4621 15.3292 38.8797 15.4196 38.518C15.5552 38.1563 12.7521 36.4835 11.5315 36.6644C10.3108 36.8452 10.8985 38.292 11.2602 38.6988C11.5767 39.1057 12.5713 38.518 12.5713 38.518C12.5713 38.518 12.2096 37.9755 11.9836 37.9303C11.7575 37.8851 12.2096 38.2015 12.2096 38.3824C12.2096 38.518 11.215 38.4276 11.0794 37.5686C10.9437 36.7096 13.2947 36.6644 14.3797 37.8398C15.51 39.0605 11.9384 40.01 9.85866 39.3318C7.77897 38.6989 8.05023 35.082 8.36671 33.4544C8.59276 31.9625 9.76824 29.5663 9.76824 29.5663Z" fill="#58395A"/>
<path opacity="0.5" d="M7.77881 37.7042C7.77881 37.7042 8.41176 38.7893 9.31597 39.151C10.2202 39.5127 11.4861 39.9648 13.2041 39.377C14.8769 38.7893 15.2386 38.6989 15.2838 38.7441C15.329 38.7893 14.3344 40.4169 11.4861 40.1456C8.68303 39.8291 7.86923 37.9303 7.77881 37.7042Z" fill="#58395A"/>
<path opacity="0.5" d="M11.0342 38.3372C11.0342 38.0208 11.2602 38.292 11.7576 38.4276C12.2549 38.5181 12.5261 38.5181 12.5261 38.5181C12.5261 38.5181 12.0288 38.9702 11.5767 38.8798C11.1698 38.7893 11.0342 38.3372 11.0342 38.3372Z" fill="#58395A"/>
<path d="M8.14062 36.4835C8.14062 36.4835 8.81878 38.2015 10.0395 38.9249C11.3054 39.6483 13.2946 39.3318 13.2946 39.3318C13.2946 39.3318 10.7628 39.8743 9.54216 39.2414C8.36668 38.6084 8.14062 36.4835 8.14062 36.4835Z" fill="white"/>
<path d="M11.1245 37.7947C11.1245 37.7947 11.3506 38.0659 11.667 38.2468C12.0287 38.4276 12.1644 38.4276 12.1644 38.4276C12.1644 38.4276 11.9835 38.5181 11.6218 38.3824C11.2149 38.292 11.1245 37.7947 11.1245 37.7947Z" fill="white"/>
<path d="M11.5314 37.0261C11.5314 37.0261 12.5712 36.9357 13.385 37.2973C14.1988 37.7042 14.4701 37.9755 14.4701 37.9755C14.4701 37.9755 14.1084 37.3878 13.2042 37.1165C12.3 36.8452 11.7122 36.9809 11.5314 37.0261Z" fill="white"/>
<path d="M44.2188 37.3878C44.2188 37.3878 45.4394 36.9809 46.9314 34.9012C48.3781 32.912 49.418 29.069 49.418 29.069L49.5536 25.9043C49.5536 25.9043 51.995 29.702 51.2716 33.9518C50.5483 38.6989 44.2188 37.3878 44.2188 37.3878Z" fill="url(#paint11_linear_3626_345)"/>
<path d="M30.3843 44.2598C32.0571 47.6054 35.2219 48.8713 35.1767 48.2835C35.1767 48.1931 35.0863 47.9671 34.9958 47.6506C34.4081 45.5257 32.8257 39.6483 36.7138 39.7839C41.2349 39.9648 46.1177 46.0682 50.2771 45.1188C54.346 44.2146 56.5161 39.7839 56.5161 39.7839L57.8725 43.9433C59.1836 43.2199 61.3537 40.5073 58.8219 37.0713C57.5108 35.3081 55.5667 32.6858 54.2104 30.8774V30.8322C53.261 29.5663 52.5828 28.6621 52.5376 28.6169C53.3514 28.0291 53.3966 26.8989 53.2158 26.2659C53.1253 25.8138 52.9445 25.633 52.8089 25.9042C52.5376 26.6728 49.5989 27.1249 48.7851 24.7288C49.5989 28.8881 47.474 31.5556 47.7 32.0077C47.9261 32.505 49.2824 32.8215 49.8702 32.0077C50.4127 31.2391 49.9606 28.3004 49.9606 28.3004C49.9606 28.3004 50.051 28.5717 50.1866 29.0238C50.5935 30.6966 51.4525 34.9916 49.192 36.2123C46.1177 37.8399 31.6955 38.292 31.6955 38.292C31.6955 38.292 28.8472 41.2307 30.3843 44.2598Z" fill="url(#paint12_linear_3626_345)"/>
<path opacity="0.5" d="M47.7 32.0077C47.926 32.505 49.2823 32.8215 49.8701 32.0077C50.4126 31.2391 49.9605 28.3004 49.9605 28.3004C49.9605 28.3004 50.0509 28.5717 50.1865 29.0238C50.0057 27.0797 49.3728 25.859 49.3728 25.859C49.3728 25.859 50.2318 28.1648 49.8249 29.7019C49.3275 31.3747 47.7 32.0077 47.7 32.0077Z" fill="#58395A"/>
<path opacity="0.5" d="M34.9958 47.6506C34.408 45.5257 32.8256 39.6483 36.7138 39.784C41.2348 39.9648 46.1176 46.0682 50.277 45.1188C54.3459 44.2146 56.5161 39.784 56.5161 39.784C56.5161 39.784 56.4708 37.1165 55.1597 34.3135C53.713 31.1939 50.0057 26.9893 49.7797 26.6729C50.0057 27.0345 54.1199 32.0529 54.8433 35.9863C55.4762 39.4223 52.2663 42.6322 45.5751 41.6828C41.28 41.0951 37.4823 38.6085 34.3628 39.1058C31.2433 39.5127 34.8149 47.2889 34.9958 47.6506Z" fill="#58395A"/>
<path opacity="0.5" d="M57.8724 43.9433C59.1835 43.22 61.3536 40.5073 58.8218 37.0713C57.5107 35.3081 55.5666 32.6859 54.2103 30.8774C54.4364 31.2391 56.4257 34.5395 57.6916 37.3426C59.1835 40.6429 57.8724 43.9433 57.8724 43.9433Z" fill="#58395A"/>
<path opacity="0.5" d="M49.8701 26.4919C49.9605 26.5823 51.6785 28.1647 52.4923 28.6168C53.3061 28.0291 53.3513 26.8988 53.1705 26.2659C53.1705 26.2659 53.1253 27.3961 52.3115 27.4414C51.5429 27.4866 50.0057 26.5371 49.8701 26.4919Z" fill="#58395A"/>
<path opacity="0.5" d="M29.887 42.0896C31.4241 39.2866 35.1766 47.8314 35.1314 48.3287C35.1314 48.7808 30.2486 47.0176 29.887 42.0896Z" fill="#58395A"/>
<path opacity="0.5" d="M34.2724 44.4858C34.2724 44.4858 32.7804 41.1854 33.1421 40.1456C33.4586 39.151 34.8601 38.6084 36.9398 39.1962C39.0647 39.7839 36.0808 39.0153 34.9053 40.3716C33.6394 41.7732 34.2724 44.4858 34.2724 44.4858Z" fill="#58395A"/>
<path opacity="0.5" d="M56.516 39.784C56.516 39.784 56.3352 36.7096 55.3857 34.7656C54.4815 32.9571 53.2156 31.7365 53.2156 31.7365C53.2156 31.7365 55.4762 35.2629 54.8884 37.5234C54.2555 39.9648 51.6785 41.1403 51.6785 41.1403C51.6785 41.1403 54.2103 42.0897 54.9789 41.5924C55.7022 41.0951 56.516 39.784 56.516 39.784Z" fill="#58395A"/>
<path opacity="0.5" d="M57.8723 43.9433C57.8723 43.9433 58.8217 41.6376 58.0984 38.3824C57.4202 35.4437 59.9068 38.4728 59.9972 40.4169C60.0876 42.4966 57.8723 43.9433 57.8723 43.9433Z" fill="#58395A"/>
<path opacity="0.5" d="M53.2609 26.8085C53.2609 26.6729 52.9444 27.2606 52.4923 27.3962C52.0402 27.5319 51.9046 27.4415 51.7237 27.4867C51.5429 27.5319 52.221 28.4813 52.4923 28.5265C52.7636 28.5717 53.4417 27.4415 53.2609 26.8085Z" fill="#58395A"/>
<path opacity="0.5" d="M50.1865 28.9786C50.1865 28.9786 50.1865 29.0238 50.1865 29.069C50.277 29.4759 50.6839 31.6912 50.503 32.505C50.3674 33.4544 48.0616 32.0529 48.0616 32.0529C48.0616 32.0529 50.1413 30.8322 49.8701 28.0743L50.1865 28.9786Z" fill="#58395A"/>
<path opacity="0.5" d="M49.7344 35.715C49.7344 35.715 49.5988 40.869 47.3835 41.4567C45.1682 42.0897 40.7827 40.0552 37.2563 39.1962C33.8203 38.3824 32.9613 39.9648 32.9613 39.9648C32.9613 39.9648 32.1475 38.2468 31.8762 38.3824C31.6049 38.4728 34.4532 38.1563 40.5114 37.9755C46.5697 37.7947 49.2823 36.4835 49.7344 35.715Z" fill="white"/>
<path opacity="0.5" d="M57.8272 37.7043C58.4601 39.4675 57.782 40.8238 57.5559 41.0951C57.3299 41.3664 56.6969 39.9196 56.1092 37.1618C55.5667 34.63 55.0693 33.5449 55.0693 33.5449C55.0693 33.5449 56.8326 34.8108 57.8272 37.7043Z" fill="white"/>
<path opacity="0.5" d="M49.5085 30.3801C49.8701 29.7472 49.6893 28.21 49.3728 28.0292C49.0564 27.8031 48.1069 30.6966 48.1069 30.6966C48.1069 30.6966 48.9659 31.3296 49.5085 30.3801Z" fill="white"/>
<path d="M53.7583 39.558C53.7583 39.558 52.6732 41.4568 47.4288 41.4568C44.4901 41.4568 40.9636 40.3266 40.9636 40.3266C40.9636 40.3266 44.1284 41.9994 48.6042 41.7733C53.0801 41.5925 53.7583 39.558 53.7583 39.558Z" fill="url(#paint13_linear_3626_345)"/>
<path d="M58.2793 42.2253C58.2793 42.2253 58.1889 38.5633 57.1039 36.2123C56.064 34.0422 54.6625 31.6008 54.6625 31.6008C54.6625 31.6008 56.8326 35.0821 57.6916 37.3426C58.641 39.784 58.2793 42.2253 58.2793 42.2253Z" fill="url(#paint14_linear_3626_345)"/>
<path d="M49.8249 27.9839C49.8249 27.9839 49.7796 29.5663 49.3727 30.3801C48.9206 31.1938 48.1973 31.7816 48.1973 31.7816C48.1973 31.7816 50.277 30.787 49.8249 27.9839Z" fill="white"/>
<path opacity="0.5" d="M48.6495 45.1641C49.8249 45.3901 47.8809 42.1802 46.7958 41.8185C45.756 41.4568 42.546 41.0951 42.546 41.0951C42.546 41.0951 44.3544 44.3503 48.6495 45.1641Z" fill="white"/>
<path d="M33.0065 40.01C33.0969 41.3663 32.69 43.1747 32.5092 42.9487C32.3283 42.7226 31.4693 41.3663 30.7459 41.5019C29.9774 41.5924 30.5651 39.2866 31.2433 39.0154C31.9214 38.6989 33.0065 40.01 33.0065 40.01Z" fill="url(#paint15_linear_3626_345)"/>
<path d="M49.7345 29.7472C49.8249 28.8429 49.0563 29.7924 49.1015 30.2445C49.1467 30.7418 49.6893 30.1541 49.7345 29.7472Z" fill="white"/>
<path d="M52.6279 27.3962C52.8539 27.2154 52.1306 26.9441 51.5428 27.0346C50.9099 27.125 52.221 27.7127 52.6279 27.3962Z" fill="white"/>
<path d="M57.6012 37.207C56.8778 35.8507 57.2395 37.433 57.6916 38.3825C58.0985 39.3319 58.0533 38.066 57.6012 37.207Z" fill="white"/>
<path d="M54.5721 34.856C54.4816 34.6299 54.8885 37.0713 54.8885 37.0713C54.8885 37.0713 55.1146 36.1219 54.5721 34.856Z" fill="url(#paint16_linear_3626_345)"/>
<path opacity="0.5" d="M50.3674 29.5663C50.3674 29.5663 52.7636 33.8161 52.7636 35.9862C52.7636 38.292 50.7743 39.9647 48.4685 40.1908C46.1176 40.4621 44.8065 38.8797 44.7161 38.518C44.5804 38.1563 47.3835 36.4835 48.6042 36.6644C49.8249 36.8452 49.2371 38.292 48.8754 38.6988C48.559 39.1057 47.5643 38.518 47.5643 38.518C47.5643 38.518 47.926 37.9755 48.1521 37.9303C48.3781 37.8851 47.926 38.2015 47.926 38.3824C47.926 38.518 48.9206 38.4276 49.0563 37.5686C49.1919 36.7096 46.841 36.6644 45.7559 37.8398C44.6256 39.0605 48.1973 40.01 50.277 39.3318C52.3567 38.6989 52.0854 35.082 51.7689 33.4544C51.4977 31.9625 50.3674 29.5663 50.3674 29.5663Z" fill="#58395A"/>
<path opacity="0.5" d="M52.3567 37.7042C52.3567 37.7042 51.7237 38.7893 50.8195 39.151C49.9153 39.5127 48.6494 39.9648 46.9314 39.377C45.2586 38.7893 44.8969 38.6989 44.8517 38.7441C44.8065 38.7893 45.8011 40.4169 48.6494 40.1456C51.4072 39.8291 52.2662 37.9303 52.3567 37.7042Z" fill="#58395A"/>
<path opacity="0.5" d="M49.1013 38.3372C49.1013 38.0208 48.8753 38.292 48.378 38.4276C47.8806 38.5181 47.6094 38.5181 47.6094 38.5181C47.6094 38.5181 48.1067 38.9702 48.5588 38.8798C48.9657 38.7893 49.1013 38.3372 49.1013 38.3372Z" fill="#58395A"/>
<path d="M51.9498 36.4835C51.9498 36.4835 51.2716 38.2015 50.051 38.9249C48.7851 39.6483 46.7958 39.3318 46.7958 39.3318C46.7958 39.3318 49.3276 39.8743 50.5483 39.2414C51.769 38.6084 51.9498 36.4835 51.9498 36.4835Z" fill="white"/>
<path d="M49.011 37.7947C49.011 37.7947 48.785 38.0659 48.4685 38.2468C48.1068 38.4276 47.9712 38.4276 47.9712 38.4276C47.9712 38.4276 48.152 38.5181 48.5137 38.3824C48.8754 38.292 49.011 37.7947 49.011 37.7947Z" fill="white"/>
<path d="M48.5589 37.0261C48.5589 37.0261 47.5191 36.9357 46.7053 37.2973C45.8915 37.7042 45.6202 37.9755 45.6202 37.9755C45.6202 37.9755 45.9819 37.3878 46.8861 37.1165C47.7904 36.8452 48.3781 36.9809 48.5589 37.0261Z" fill="white"/>
<path d="M46.0272 34.7205C45.0778 37.7496 29.887 37.5687 29.887 37.5687C29.887 37.5687 14.7414 37.7496 13.792 34.7205C13.0686 32.4599 12.6165 19.2584 13.0234 11.8891C13.159 9.35726 13.3851 7.54882 13.792 7.09672C15.2387 5.28829 29.887 4.83618 29.887 4.83618C29.887 4.83618 44.5805 5.3335 46.0272 7.09672C46.3889 7.54882 46.6149 9.26683 46.7506 11.7082C47.2027 18.9871 46.7506 32.4147 46.0272 34.7205Z" fill="url(#paint17_linear_3626_345)"/>
<path opacity="0.5" d="M14.8318 35.0822C12.7521 33.8615 28.6662 30.0638 36.5781 30.8324C44.49 31.6009 45.8463 34.2684 45.575 35.3986C45.2586 36.5289 22.2011 39.332 14.8318 35.0822Z" fill="white"/>
<path opacity="0.2" d="M14.1536 17.8569C13.159 18.6707 14.877 30.8776 15.7812 32.3243C16.7306 33.7711 28.7114 30.2898 36.5329 30.7871C44.3996 31.2845 45.2134 32.053 45.9819 22.5136C46.8409 12.9741 20.1666 12.8385 14.1536 17.8569Z" fill="#552FBE"/>
<path d="M46.7958 11.7082C46.7506 11.4822 45.9368 7.27756 45.349 7.09672C44.7161 6.87066 38.9291 5.46913 30.2035 5.46913C21.4778 5.46913 15.6456 6.41856 14.6058 6.87066C13.5659 7.32277 13.1138 11.663 13.0686 11.8891C13.2042 9.35726 13.4303 7.54882 13.8372 7.09672C15.2839 5.28829 29.9322 4.83618 29.9322 4.83618C29.9322 4.83618 44.6257 5.3335 46.0724 7.09672C46.3889 7.54882 46.6149 9.26683 46.7958 11.7082Z" fill="white"/>
<path d="M13.2947 30.6967C13.3399 30.9227 13.9276 35.3081 14.5154 35.5342C15.1483 35.7603 20.8449 36.6193 29.5705 36.6193C38.2962 36.6193 44.1736 36.1219 45.2586 35.6698C46.2985 35.2177 46.5245 31.0131 46.5698 30.7419C46.4341 33.2737 46.3889 35.0821 46.0272 35.5342C44.5805 37.3426 29.9322 37.7947 29.9322 37.7947C29.9322 37.7947 15.2387 37.2974 13.792 35.5342C13.4303 35.0369 13.4303 33.138 13.2947 30.6967Z" fill="white"/>
<g opacity="0.5">
<path d="M17.8608 16.5458C18.3582 17.3596 18.9007 18.1734 19.4884 18.9419C20.0762 19.7105 20.6639 20.4791 21.3421 21.1573C22.6532 22.604 24.0547 23.9151 25.5919 25.0454C27.129 26.1757 28.847 27.1251 30.6555 27.7128C32.4639 28.3458 34.408 28.617 36.352 28.5266C35.4026 28.5718 34.408 28.617 33.4585 28.4814C32.5091 28.3458 31.5597 28.1649 30.6103 27.8485C28.7566 27.2607 27.0386 26.3113 25.4562 25.181C23.8739 24.0055 22.4723 22.6944 21.2064 21.2477C19.9405 19.8462 18.8103 18.2638 17.8608 16.5458Z" fill="#CA6D92"/>
<path d="M21.749 24.0055C22.0655 24.4124 22.4272 24.7741 22.8341 25.1358C23.1958 25.4974 23.5575 25.8591 23.9643 26.2208C24.7329 26.899 25.5467 27.5771 26.4057 28.1649C27.2647 28.7526 28.1689 29.2951 29.1184 29.6568C30.0678 30.0185 31.1076 30.2446 32.1475 30.1994C31.1076 30.2898 30.0678 30.1542 29.0732 29.7925L28.3498 29.5212L27.6264 29.1595C27.4004 29.0691 27.1743 28.8883 26.9483 28.7526C26.7222 28.617 26.4961 28.4814 26.2701 28.3457C25.4111 27.758 24.5973 27.0798 23.8739 26.3565C23.1053 25.6331 22.382 24.8645 21.749 24.0055Z" fill="#CA6D92"/>
<path d="M29.7965 11.7534C31.4241 11.663 33.0065 11.7082 34.6341 11.9342C36.2164 12.1603 37.7988 12.5672 39.2908 13.2001C40.7827 13.8331 42.139 14.7825 43.1337 16.1388C43.5858 16.817 43.9475 17.5404 44.2187 18.3089C44.4448 19.0775 44.5352 19.8913 44.5352 20.7051C44.49 19.8913 44.3544 19.1227 44.1283 18.3541C43.857 17.5856 43.4954 16.8622 43.0432 16.2292C42.0486 14.9633 40.7375 14.0591 39.2455 13.4262C37.7988 12.7932 36.2164 12.3863 34.6341 12.1603C33.8203 12.0246 33.0517 11.9342 32.2379 11.889C31.3789 11.7534 30.5651 11.7082 29.7965 11.7534Z" fill="#CA6D92"/>
</g>
<path d="M17.6799 16.7267C18.1772 17.5405 18.7198 18.3543 19.3075 19.1229C19.8953 19.8914 20.483 20.66 21.1612 21.3382C22.4723 22.7849 23.8738 24.096 25.411 25.2263C26.9481 26.3566 28.6661 27.306 30.4746 27.8937C32.283 28.5267 34.227 28.7979 36.1711 28.7075C35.2217 28.7527 34.2271 28.7979 33.2776 28.6623C32.3282 28.5267 31.3788 28.3458 30.4294 28.0294C28.5757 27.4416 26.8577 26.4922 25.2753 25.3619C23.693 24.1864 22.2914 22.8753 21.0255 21.4286C19.7596 19.9819 18.6294 18.3995 17.6799 16.7267Z" fill="#FFF9C7"/>
<path d="M21.5681 24.1864C21.8846 24.5933 22.2463 24.955 22.6532 25.3167C23.0149 25.6784 23.3765 26.04 23.7834 26.4017C24.552 27.0799 25.3658 27.758 26.2248 28.3458C27.0838 28.9335 27.988 29.4761 28.9375 29.8377C29.8869 30.1994 30.9267 30.4255 31.9666 30.3803C30.9267 30.4707 29.8869 30.3351 28.8923 29.9734L28.1689 29.7021L27.4455 29.3404C27.2195 29.25 26.9934 29.0692 26.7673 28.9335C26.5413 28.7979 26.3152 28.6623 26.0892 28.5266C25.2302 27.9389 24.4164 27.2607 23.693 26.5374C22.9244 25.814 22.2011 25.0002 21.5681 24.1864Z" fill="#FFF9C7"/>
<path d="M29.6156 11.8891C31.2432 11.7987 32.8256 11.8439 34.4531 12.07C36.0355 12.296 37.6179 12.7029 39.1098 13.3359C40.6018 13.9688 41.9581 14.9182 42.9528 16.2746C43.4049 16.9527 43.7666 17.6761 44.0378 18.4447C44.2639 19.2133 44.3543 20.027 44.3543 20.8408C44.3091 20.027 44.1735 19.2585 43.9474 18.4899C43.6761 17.7213 43.3144 16.9979 42.8623 16.365C41.8677 15.0991 40.5566 14.1949 39.0646 13.5619C37.6179 12.929 36.0355 12.5221 34.4531 12.296C33.6394 12.1604 32.8708 12.07 32.057 12.0247C31.198 11.9343 30.3842 11.8891 29.6156 11.8891Z" fill="#FFF9C7"/>
<path d="M15.4195 9.85455C15.2839 11.1205 17.1827 11.7082 17.6348 9.85455C18.0417 8.00091 15.5099 8.49823 15.4195 9.85455Z" fill="white"/>
<path opacity="0.5" d="M42.3652 8.85992C42.2296 10.1258 44.1284 10.7136 44.5805 8.85992C45.0326 7.00628 42.5008 7.5036 42.3652 8.85992Z" fill="white"/>
<path d="M11.6671 42.1802C13.7645 42.1802 15.4648 41.6135 15.4648 40.9143C15.4648 40.2152 13.7645 39.6484 11.6671 39.6484C9.56967 39.6484 7.86938 40.2152 7.86938 40.9143C7.86938 41.6135 9.56967 42.1802 11.6671 42.1802Z" fill="url(#paint18_radial_3626_345)"/>
<path d="M48.4234 42.1802C50.5208 42.1802 52.2211 41.6135 52.2211 40.9143C52.2211 40.2152 50.5208 39.6484 48.4234 39.6484C46.326 39.6484 44.6257 40.2152 44.6257 40.9143C44.6257 41.6135 46.326 42.1802 48.4234 42.1802Z" fill="url(#paint19_radial_3626_345)"/>
<path d="M49.6893 44.5313C49.4633 45.2095 47.9713 45.2547 46.3437 44.6669C44.7161 44.0792 43.6311 43.0846 43.8571 42.4064C44.0832 41.7282 45.5751 41.683 47.2027 42.2708C48.8303 42.9037 49.9154 43.8984 49.6893 44.5313Z" fill="url(#paint20_radial_3626_345)"/>
<path d="M16.2786 42.2255C16.595 42.8585 15.5552 43.9435 14.018 44.6669C12.4809 45.3903 10.9889 45.4807 10.6724 44.8477C10.356 44.2148 11.3958 43.1297 12.933 42.4064C14.4701 41.683 15.9621 41.5926 16.2786 42.2255Z" fill="url(#paint21_radial_3626_345)"/>
<path d="M58.3698 41.3665C57.782 41.5925 56.697 40.3266 56.0188 38.473C55.3407 36.6646 55.2502 34.9918 55.8832 34.7657C56.4709 34.5397 57.556 35.8056 58.2341 37.6592C58.9123 39.4676 58.9575 41.0952 58.3698 41.3665Z" fill="url(#paint22_radial_3626_345)"/>
<path d="M48.1973 31.3297C47.8809 31.1489 48.0165 30.2899 48.5138 29.4309C49.0111 28.5718 49.6893 28.0293 50.0058 28.2102C50.3222 28.391 50.1866 29.25 49.6893 30.109C49.192 30.968 48.5138 31.5105 48.1973 31.3297Z" fill="url(#paint23_radial_3626_345)"/>
<path d="M10.1299 28.2554C10.4916 28.0745 11.0793 28.7075 11.5314 29.5665C11.9383 30.4707 12.0288 31.3297 11.6671 31.5105C11.3054 31.6914 10.7177 31.0584 10.2655 30.1994C9.81344 29.25 9.76823 28.391 10.1299 28.2554Z" fill="url(#paint24_radial_3626_345)"/>
<path d="M1.58514 41.5473C0.997398 41.3212 0.997397 39.6484 1.67556 37.84C2.35372 36.0316 3.34835 34.7205 3.9813 34.9465C4.56904 35.1726 4.56904 36.8454 3.89088 38.6538C3.25793 40.4622 2.21809 41.7733 1.58514 41.5473Z" fill="url(#paint25_radial_3626_345)"/>
<path d="M30.113 40.824C30.0226 41.5022 29.1184 41.9543 28.1237 41.8186C27.1291 41.683 26.4057 41.0048 26.4962 40.3267C26.5866 39.6485 27.4908 39.1964 28.4854 39.332C29.4801 39.4225 30.2034 40.1006 30.113 40.824Z" fill="url(#paint26_radial_3626_345)"/>
<path d="M33.5039 40.9596C33.4135 41.6378 32.5092 42.0899 31.5146 41.9543C30.52 41.8186 29.7966 41.1405 29.887 40.4623C29.9774 39.7841 30.8817 39.332 31.8763 39.4677C32.8709 39.5581 33.5943 40.2362 33.5039 40.9596Z" fill="url(#paint27_radial_3626_345)"/>
<path d="M37.618 5.33356C39.9901 5.33356 41.913 4.7668 41.913 4.06766C41.913 3.36852 39.9901 2.80176 37.618 2.80176C35.2459 2.80176 33.323 3.36852 33.323 4.06766C33.323 4.7668 35.2459 5.33356 37.618 5.33356Z" fill="url(#paint28_radial_3626_345)"/>
<path d="M13.4755 46.5657C17.2709 46.5657 20.3476 45.0475 20.3476 43.1749C20.3476 41.3022 17.2709 39.7841 13.4755 39.7841C9.68023 39.7841 6.60352 41.3022 6.60352 43.1749C6.60352 45.0475 9.68023 46.5657 13.4755 46.5657Z" fill="url(#paint29_radial_3626_345)"/>
<defs>
<linearGradient id="paint0_linear_3626_345" x1="29.9249" y1="39.4858" x2="29.9249" y2="2.89426" gradientUnits="userSpaceOnUse">
<stop stop-color="#D7A28B"/>
<stop offset="0.3268" stop-color="#7A5B6F"/>
<stop offset="0.3556" stop-color="#816476"/>
<stop offset="0.5804" stop-color="#B5A3AD"/>
<stop offset="0.7705" stop-color="#DAD1D5"/>
<stop offset="0.9161" stop-color="#F1EDEE"/>
<stop offset="1" stop-color="#FAF8F7"/>
</linearGradient>
<linearGradient id="paint1_linear_3626_345" x1="19.8329" y1="4.7857" x2="19.8329" y2="0.0401976" gradientUnits="userSpaceOnUse">
<stop stop-color="#D7A282"/>
<stop offset="0.2151" stop-color="#916F77"/>
<stop offset="0.3302" stop-color="#A08288"/>
<stop offset="0.6325" stop-color="#C4B0B0"/>
<stop offset="0.8657" stop-color="#DACCC9"/>
<stop offset="1" stop-color="#E2D7D2"/>
</linearGradient>
<linearGradient id="paint2_linear_3626_345" x1="39.3666" y1="4.78567" x2="39.3666" y2="0.0403532" gradientUnits="userSpaceOnUse">
<stop stop-color="#D7A282"/>
<stop offset="0.2151" stop-color="#916F77"/>
<stop offset="0.3302" stop-color="#A08288"/>
<stop offset="0.6325" stop-color="#C4B0B0"/>
<stop offset="0.8657" stop-color="#DACCC9"/>
<stop offset="1" stop-color="#E2D7D2"/>
</linearGradient>
<linearGradient id="paint3_linear_3626_345" x1="31.4096" y1="1.70693" x2="48.7818" y2="1.70693" gradientUnits="userSpaceOnUse">
<stop stop-color="#D7A282"/>
<stop offset="0.2151" stop-color="#916F77"/>
<stop offset="0.3302" stop-color="#A08288"/>
<stop offset="0.6325" stop-color="#C4B0B0"/>
<stop offset="0.8657" stop-color="#DACCC9"/>
<stop offset="1" stop-color="#E2D7D2"/>
</linearGradient>
<linearGradient id="paint4_linear_3626_345" x1="10.0374" y1="1.67601" x2="28.0965" y2="1.67601" gradientUnits="userSpaceOnUse">
<stop stop-color="#D7A282"/>
<stop offset="0.2151" stop-color="#916F77"/>
<stop offset="0.3302" stop-color="#A08288"/>
<stop offset="0.6325" stop-color="#C4B0B0"/>
<stop offset="0.8657" stop-color="#DACCC9"/>
<stop offset="1" stop-color="#E2D7D2"/>
</linearGradient>
<linearGradient id="paint5_linear_3626_345" x1="12.3549" y1="38.2567" x2="12.3549" y2="26.4454" gradientUnits="userSpaceOnUse">
<stop stop-color="#B08D8D"/>
<stop offset="0.1307" stop-color="#9B7979"/>
<stop offset="0.3236" stop-color="#826161"/>
<stop offset="0.5263" stop-color="#715050"/>
<stop offset="0.7434" stop-color="#664646"/>
<stop offset="1" stop-color="#634343"/>
</linearGradient>
<linearGradient id="paint6_linear_3626_345" x1="15.0404" y1="48.4297" x2="15.0404" y2="24.7303" gradientUnits="userSpaceOnUse">
<stop stop-color="#D7A28B"/>
<stop offset="0.148" stop-color="#8E6A6A"/>
<stop offset="0.4265" stop-color="#B9A3A3"/>
<stop offset="0.6862" stop-color="#DCD1D0"/>
<stop offset="0.8853" stop-color="#F2EDEC"/>
<stop offset="1" stop-color="#FAF8F7"/>
</linearGradient>
<linearGradient id="paint7_linear_3626_345" x1="6.23433" y1="40.6826" x2="19.031" y2="40.6826" gradientUnits="userSpaceOnUse">
<stop stop-color="#E2D7D2"/>
<stop offset="0.1131" stop-color="#DACCC8"/>
<stop offset="0.3094" stop-color="#C4B0AD"/>
<stop offset="0.5638" stop-color="#A18281"/>
<stop offset="0.7849" stop-color="#7E5555"/>
<stop offset="1" stop-color="#451E32"/>
</linearGradient>
<linearGradient id="paint8_linear_3626_345" x1="1.6425" y1="36.9111" x2="5.33512" y2="36.9111" gradientUnits="userSpaceOnUse">
<stop stop-color="#E2D7D2"/>
<stop offset="0.1131" stop-color="#DACCC8"/>
<stop offset="0.3094" stop-color="#C4B0AD"/>
<stop offset="0.5638" stop-color="#A18281"/>
<stop offset="0.7849" stop-color="#7E5555"/>
<stop offset="1" stop-color="#451E32"/>
</linearGradient>
<linearGradient id="paint9_linear_3626_345" x1="26.9835" y1="40.9364" x2="29.6178" y2="40.9364" gradientUnits="userSpaceOnUse">
<stop stop-color="#E2D7D2"/>
<stop offset="0.1131" stop-color="#DACCC8"/>
<stop offset="0.3094" stop-color="#C4B0AD"/>
<stop offset="0.5638" stop-color="#A18281"/>
<stop offset="0.7849" stop-color="#7E5555"/>
<stop offset="1" stop-color="#451E32"/>
</linearGradient>
<linearGradient id="paint10_linear_3626_345" x1="5.05837" y1="35.9466" x2="5.4112" y2="35.9466" gradientUnits="userSpaceOnUse">
<stop stop-color="#E2D7D2"/>
<stop offset="0.1131" stop-color="#DACCC8"/>
<stop offset="0.3094" stop-color="#C4B0AD"/>
<stop offset="0.5638" stop-color="#A18281"/>
<stop offset="0.7849" stop-color="#7E5555"/>
<stop offset="1" stop-color="#451E32"/>
</linearGradient>
<linearGradient id="paint11_linear_3626_345" x1="47.8333" y1="37.5522" x2="47.8333" y2="25.9135" gradientUnits="userSpaceOnUse">
<stop stop-color="#B08D8D"/>
<stop offset="0.1307" stop-color="#9B7979"/>
<stop offset="0.3236" stop-color="#826161"/>
<stop offset="0.5263" stop-color="#715050"/>
<stop offset="0.7434" stop-color="#664646"/>
<stop offset="1" stop-color="#634343"/>
</linearGradient>
<linearGradient id="paint12_linear_3626_345" x1="44.9487" y1="48.4297" x2="44.9487" y2="24.7303" gradientUnits="userSpaceOnUse">
<stop stop-color="#D7A28B"/>
<stop offset="0.148" stop-color="#8E6A6A"/>
<stop offset="0.4265" stop-color="#B9A3A3"/>
<stop offset="0.6862" stop-color="#DCD1D0"/>
<stop offset="0.8853" stop-color="#F2EDEC"/>
<stop offset="1" stop-color="#FAF8F7"/>
</linearGradient>
<linearGradient id="paint13_linear_3626_345" x1="40.9581" y1="40.6826" x2="53.7548" y2="40.6826" gradientUnits="userSpaceOnUse">
<stop stop-color="#E2D7D2"/>
<stop offset="0.1131" stop-color="#DACCC8"/>
<stop offset="0.3094" stop-color="#C4B0AD"/>
<stop offset="0.5638" stop-color="#A18281"/>
<stop offset="0.7849" stop-color="#7E5555"/>
<stop offset="1" stop-color="#451E32"/>
</linearGradient>
<linearGradient id="paint14_linear_3626_345" x1="54.6541" y1="36.9111" x2="58.3467" y2="36.9111" gradientUnits="userSpaceOnUse">
<stop stop-color="#E2D7D2"/>
<stop offset="0.1131" stop-color="#DACCC8"/>
<stop offset="0.3094" stop-color="#C4B0AD"/>
<stop offset="0.5638" stop-color="#A18281"/>
<stop offset="0.7849" stop-color="#7E5555"/>
<stop offset="1" stop-color="#451E32"/>
</linearGradient>
<linearGradient id="paint15_linear_3626_345" x1="30.3712" y1="40.9364" x2="33.0056" y2="40.9364" gradientUnits="userSpaceOnUse">
<stop stop-color="#E2D7D2"/>
<stop offset="0.1131" stop-color="#DACCC8"/>
<stop offset="0.3094" stop-color="#C4B0AD"/>
<stop offset="0.5638" stop-color="#A18281"/>
<stop offset="0.7849" stop-color="#7E5555"/>
<stop offset="1" stop-color="#451E32"/>
</linearGradient>
<linearGradient id="paint16_linear_3626_345" x1="54.5779" y1="35.9466" x2="54.9308" y2="35.9466" gradientUnits="userSpaceOnUse">
<stop stop-color="#E2D7D2"/>
<stop offset="0.1131" stop-color="#DACCC8"/>
<stop offset="0.3094" stop-color="#C4B0AD"/>
<stop offset="0.5638" stop-color="#A18281"/>
<stop offset="0.7849" stop-color="#7E5555"/>
<stop offset="1" stop-color="#451E32"/>
</linearGradient>
<linearGradient id="paint17_linear_3626_345" x1="29.9243" y1="37.5701" x2="29.9243" y2="4.80218" gradientUnits="userSpaceOnUse">
<stop stop-color="#1434A3"/>
<stop offset="0.3492" stop-color="#221791"/>
<stop offset="0.4773" stop-color="#2733AC"/>
<stop offset="0.7129" stop-color="#3060D9"/>
<stop offset="0.895" stop-color="#367CF5"/>
<stop offset="1" stop-color="#3887FF"/>
</linearGradient>
<radialGradient id="paint18_radial_3626_345" cx="0" cy="0" r="1" gradientUnits="userSpaceOnUse" gradientTransform="translate(11.6514 40.9365) scale(3.79937 1.266)">
<stop offset="0.5196" stop-color="#A68F95"/>
<stop offset="1"/>
</radialGradient>
<radialGradient id="paint19_radial_3626_345" cx="0" cy="0" r="1" gradientUnits="userSpaceOnUse" gradientTransform="translate(48.4448 40.9365) scale(3.79937 1.266)">
<stop offset="0.5196" stop-color="#A68F95"/>
<stop offset="1"/>
</radialGradient>
<radialGradient id="paint20_radial_3626_345" cx="0" cy="0" r="1" gradientUnits="userSpaceOnUse" gradientTransform="translate(46.7919 43.5036) rotate(19.8909) scale(3.07895 1.26601)">
<stop offset="0.5196" stop-color="#A68F95"/>
<stop offset="1"/>
</radialGradient>
<radialGradient id="paint21_radial_3626_345" cx="0" cy="0" r="1" gradientUnits="userSpaceOnUse" gradientTransform="translate(13.4864 43.5589) rotate(-25.3676) scale(3.07909 1.26596)">
<stop offset="0.5196" stop-color="#A68F95"/>
<stop offset="1"/>
</radialGradient>
<radialGradient id="paint22_radial_3626_345" cx="0" cy="0" r="1" gradientUnits="userSpaceOnUse" gradientTransform="translate(57.1067 38.05) rotate(69.3563) scale(3.5201 1.17317)">
<stop offset="0.5196" stop-color="#A68F95"/>
<stop offset="1"/>
</radialGradient>
<radialGradient id="paint23_radial_3626_345" cx="0" cy="0" r="1" gradientUnits="userSpaceOnUse" gradientTransform="translate(49.093 29.7537) rotate(119.997) scale(1.80059 0.689043)">
<stop offset="0.5196" stop-color="#A68F95"/>
<stop offset="1"/>
</radialGradient>
<radialGradient id="paint24_radial_3626_345" cx="0" cy="0" r="1" gradientUnits="userSpaceOnUse" gradientTransform="translate(10.8825 29.8742) rotate(-115.371) scale(1.8007 0.689015)">
<stop offset="0.5196" stop-color="#A68F95"/>
<stop offset="1"/>
</radialGradient>
<radialGradient id="paint25_radial_3626_345" cx="0" cy="0" r="1" gradientUnits="userSpaceOnUse" gradientTransform="translate(2.79385 38.2568) rotate(109.895) scale(3.52039 1.17306)">
<stop offset="0.5196" stop-color="#A68F95"/>
<stop offset="1"/>
</radialGradient>
<radialGradient id="paint26_radial_3626_345" cx="0" cy="0" r="1" gradientUnits="userSpaceOnUse" gradientTransform="translate(28.3007 40.5534) rotate(8.20061) scale(1.82378 1.26607)">
<stop offset="0.5196" stop-color="#A68F95"/>
<stop offset="1"/>
</radialGradient>
<radialGradient id="paint27_radial_3626_345" cx="0" cy="0" r="1" gradientUnits="userSpaceOnUse" gradientTransform="translate(31.6885 40.6827) rotate(8.20061) scale(1.82378 1.26607)">
<stop offset="0.5196" stop-color="#A68F95"/>
<stop offset="1"/>
</radialGradient>
<radialGradient id="paint28_radial_3626_345" cx="0" cy="0" r="1" gradientUnits="userSpaceOnUse" gradientTransform="translate(37.6312 4.0857) scale(4.28067 1.26598)">
<stop offset="0.5196" stop-color="#A68F95"/>
<stop offset="1"/>
</radialGradient>
<radialGradient id="paint29_radial_3626_345" cx="0" cy="0" r="1" gradientUnits="userSpaceOnUse" gradientTransform="translate(13.4746 43.1878) rotate(180) scale(6.86137 3.40332)">
<stop stop-color="#A68F95"/>
<stop offset="1"/>
</radialGradient>
</defs>
</svg>
