<svg width="56" height="49" viewBox="0 0 56 49" fill="none" xmlns="http://www.w3.org/2000/svg">
<path d="M46.5421 11.7995C44.8565 9.69242 27.9065 9.17737 27.9065 9.17737C27.9065 9.17737 10.9097 9.73924 9.27089 11.7995C7.63208 13.8597 8.14713 40.2679 9.27089 43.7328C10.3946 47.2446 27.9065 47.0104 27.9065 47.0104C27.9065 47.0104 45.4183 47.2446 46.5421 43.7328C47.6658 40.2679 48.2277 13.9065 46.5421 11.7995ZM44.3882 40.4084C43.4049 43.1709 27.9533 42.9837 27.9533 42.9837C27.9533 42.9837 12.5017 43.1709 11.5184 40.4084C10.5351 37.6458 10.0669 16.9968 11.5184 15.358C12.9699 13.7192 27.9533 13.2978 27.9533 13.2978C27.9533 13.2978 42.9367 13.7192 44.3882 15.358C45.8397 16.9968 45.3247 37.6458 44.3882 40.4084Z" fill="url(#paint0_linear_3626_593)"/>
<path opacity="0.5" d="M11.2374 45.3248C9.73907 42.7963 20.5084 44.8566 28.6556 44.7629C36.8028 44.6693 44.0604 43.2178 43.1239 45.793C43.1239 45.793 36.8497 47.1041 27.6723 47.1041C18.495 47.0572 11.2374 45.3248 11.2374 45.3248Z" fill="#58395A"/>
<path opacity="0.5" d="M44.2476 13.2977C43.4048 13.7659 45.0436 11.9398 45.6991 15.7793C46.3547 19.6188 47.057 13.8596 46.9166 12.7358C46.7761 11.6589 44.2476 13.2977 44.2476 13.2977Z" fill="#58395A"/>
<path opacity="0.5" d="M11.9397 13.6723C12.127 13.1573 9.36445 11.6589 9.2708 11.8462C9.17716 12.0335 8.8494 14.8429 9.2708 16.0603C9.69221 17.2777 11.9397 13.6723 11.9397 13.6723Z" fill="#58395A"/>
<path opacity="0.5" d="M8.24071 26.1741C8.428 20.8831 10.9564 34.1809 11.2842 36.6157C11.5651 39.0505 10.3009 42.2813 9.69222 42.2813C9.03669 42.2345 8.10024 30.3414 8.24071 26.1741Z" fill="#58395A"/>
<path opacity="0.5" d="M47.2445 23.5988C46.8231 20.2744 44.7628 33.7126 44.6224 37.2712C44.4351 40.8297 45.8398 42.5622 46.5421 42.3281C47.1976 42.0471 47.7127 27.1574 47.2445 23.5988Z" fill="#58395A"/>
<path d="M46.6357 17.5587C46.542 16.5754 46.4484 15.7326 46.3079 15.1707C46.3079 15.1707 46.3079 15.1707 46.3079 15.1239C46.2143 14.6556 46.0738 14.2811 45.9333 14.1406C45.8397 14.0469 45.6524 13.9065 45.4651 13.8128C45.4183 13.766 45.3715 13.766 45.3246 13.7192C45.1373 13.6255 44.8564 13.5319 44.5755 13.4851C44.5287 13.4851 44.5286 13.4382 44.4818 13.4382C41.5788 12.6422 35.3981 12.174 31.465 11.9867H31.4182C29.358 11.8931 27.9533 11.8463 27.9533 11.8463C27.9533 11.8463 26.7359 11.8931 24.8629 11.9867C20.1806 12.2208 11.5652 12.7827 10.02 14.0469C9.97318 14.0938 9.97318 14.0938 9.92636 14.1406C9.87954 14.1874 9.87954 14.2342 9.83272 14.2811C9.83272 14.3279 9.78589 14.3279 9.78589 14.3747C9.50495 14.9366 9.31767 16.154 9.1772 17.746C8.5685 24.6758 9.08355 39.191 9.92636 41.5789C11.0033 44.5756 27.9533 44.4351 27.9533 44.4351C27.9533 44.4351 44.9032 44.6224 45.9333 41.5789C46.7762 39.1441 47.2912 24.4417 46.6357 17.5587ZM44.3882 40.4084C43.4049 43.1709 27.9533 42.9836 27.9533 42.9836C27.9533 42.9836 12.5016 43.1709 11.5184 40.4084C10.6755 37.9736 10.1605 21.8664 11.0501 16.7627C11.1906 16.0603 11.3311 15.5453 11.5184 15.358C12.9699 13.7192 27.9533 13.2978 27.9533 13.2978C27.9533 13.2978 42.9367 13.7192 44.3882 15.358C44.5755 15.5921 44.7159 16.1072 44.8564 16.8563C45.6992 22.0537 45.231 37.9736 44.3882 40.4084Z" fill="url(#paint1_linear_3626_593)"/>
<path d="M9.55176 11.5653C9.08353 11.9868 11.5652 12.97 15.0301 12.5955C18.5418 12.2209 27.3914 11.8931 29.5452 11.8931C31.6991 11.8463 42.047 13.0169 43.3581 13.2978C44.6223 13.5787 46.3547 11.659 46.2611 11.5653C46.1674 11.5185 38.7226 9.17737 27.9064 9.17737C17.0903 9.17737 9.87952 11.2844 9.55176 11.5653Z" fill="white"/>
<path d="M42.7026 12.0803C41.7661 12.7358 43.124 13.485 43.8731 13.2509C44.6223 13.0168 45.3715 12.0803 45.3715 12.0803C45.3715 12.0803 44.1541 11.097 42.7026 12.0803Z" fill="white"/>
<path d="M12.8761 42.5155C10.8627 41.0639 18.729 43.7329 27.9532 43.2178C37.1773 42.7027 42.9834 42.2345 42.9834 42.5623C42.9834 42.5623 39.0502 44.3884 27.9532 44.3884C16.8561 44.3884 12.8761 42.5155 12.8761 42.5155Z" fill="white"/>
<path d="M41.1105 42.0003C40.2209 42.6558 42.2343 43.0772 42.843 42.6558C43.4517 42.2344 43.7794 41.0638 43.7794 41.0638L41.1105 42.0003Z" fill="white"/>
<path d="M23.0837 10.9566C22.7559 12.1272 24.067 11.7058 24.863 10.6757C25.6589 9.64556 23.2241 10.4884 23.0837 10.9566Z" fill="white"/>
<path d="M44.3881 15.3111C42.9366 13.6723 27.9532 13.2509 27.9532 13.2509C27.9532 13.2509 12.9698 13.6723 11.5183 15.3111C10.0667 16.9499 10.535 37.5989 11.5183 40.3615C12.5016 43.1241 27.9532 42.9368 27.9532 42.9368C27.9532 42.9368 43.4048 43.1241 44.3881 40.3615C45.3246 37.6458 45.8396 16.9499 44.3881 15.3111Z" fill="url(#paint2_linear_3626_593)"/>
<path opacity="0.5" d="M14.0468 16.1071C12.408 16.7626 13.5317 21.6322 16.1538 23.9733C18.7759 26.3145 34.4617 26.4081 38.863 23.9733C43.2644 21.5385 42.7962 16.388 42.3748 15.6856C42.0002 14.9833 24.7225 11.7993 14.0468 16.1071Z" fill="white"/>
<path opacity="0.2" d="M14.9364 40.6893C11.0032 39.706 16.1538 30.0605 28.7492 27.4852C41.3446 24.9099 43.7326 36.4752 42.562 40.4084C41.3446 44.3415 20.1806 41.9536 14.9364 40.6893Z" fill="#552FBE"/>
<path d="M15.1237 18.9634C14.9833 20.2744 16.9499 20.8831 17.4181 18.9634C17.8863 17.0436 15.2642 17.6055 15.1237 18.9634Z" fill="white"/>
<path opacity="0.5" d="M17.1372 21.4919C16.9967 22.8029 18.9633 23.4116 19.4315 21.4919C19.8997 19.5721 17.2308 20.0872 17.1372 21.4919Z" fill="white"/>
<path opacity="0.5" d="M9.17711 17.7459C9.17711 17.7459 14.8427 13.8128 27.5318 13.8128C40.174 13.8128 46.6824 17.7459 46.6824 17.7459C46.6824 17.7459 46.7292 14.281 45.3246 13.766C42.8429 12.8295 38.863 11.9867 27.5318 11.9867C16.1537 11.9867 10.6755 12.97 9.87946 14.281C9.03664 15.5452 9.17711 17.7459 9.17711 17.7459Z" fill="#58395A"/>
<path opacity="0.5" d="M14.1872 40.3147C12.8762 37.0371 22.7559 41.5789 29.4048 41.813C36.0536 42.0471 38.9099 42.0471 38.9099 42.0471C38.9099 42.0471 20.9766 44.716 14.1872 40.3147Z" fill="white"/>
<path d="M16.2945 30.8564C16.2476 31.5587 16.4349 32.2143 16.6691 32.823C16.8095 33.1039 16.95 33.4317 17.1841 33.7126C17.2778 33.8531 17.3714 33.9935 17.465 34.134L17.7928 34.5086C18.6825 35.5387 19.853 36.241 21.0704 36.8966C23.5052 38.0671 26.221 38.7227 28.8899 39.1909C30.2478 39.3782 31.6056 39.4718 32.9635 39.3314C34.3214 39.1909 35.6324 38.8163 36.803 38.1608C39.191 36.8497 40.6893 34.2276 40.9703 31.5119C40.8766 32.8698 40.4552 34.2276 39.7529 35.3982C39.0505 36.6156 38.0672 37.5989 36.8498 38.3013C35.6793 39.0036 34.2745 39.3782 32.9167 39.5187C31.5588 39.6591 30.1541 39.5655 28.7962 39.3782C26.0805 38.91 23.4116 38.2544 20.93 36.9902C19.7126 36.3347 18.542 35.5855 17.6524 34.5554L17.3246 34.134C17.2309 33.9935 17.1373 33.8531 17.0436 33.7126C16.8563 33.4317 16.7159 33.1039 16.5754 32.823C16.3413 32.2611 16.2008 31.5587 16.2945 30.8564Z" fill="#FFF9C7"/>
<path d="M21.4917 34.7895C22.2409 35.0236 22.99 35.1641 23.7392 35.3046C24.4884 35.445 25.2844 35.5387 26.0335 35.4919C26.7827 35.4919 27.5787 35.3982 28.3279 35.2578C29.077 35.0705 29.7794 34.7427 30.4349 34.3213C29.8262 34.8363 29.1239 35.1641 28.3747 35.3982C27.6255 35.6323 26.8295 35.6792 26.0335 35.726C25.2376 35.726 24.4416 35.6323 23.6924 35.445C22.99 35.3046 22.2409 35.0705 21.4917 34.7895Z" fill="#FFF9C7"/>
<path d="M30.2008 18.3546C30.8563 18.3546 31.465 18.4483 32.0737 18.6824C32.6824 18.8697 33.2443 19.1974 33.7594 19.572C34.2744 19.9466 34.6958 20.4148 35.0704 20.9767C35.2577 21.2577 35.3982 21.5386 35.4918 21.8195C35.6323 22.1005 35.6791 22.4282 35.7728 22.7092C35.5386 22.1473 35.2577 21.5386 34.8831 21.0704C34.5554 20.5553 34.0871 20.0871 33.6189 19.7593C33.1507 19.3847 32.5888 19.057 32.0269 18.8697C31.4182 18.5887 30.8095 18.4483 30.2008 18.3546Z" fill="#FFF9C7"/>
<g opacity="0.5">
<path d="M16.2945 30.6691C16.2476 31.3714 16.4349 32.0269 16.6691 32.6356C16.8095 32.9166 16.95 33.2443 17.1841 33.5253C17.2778 33.6657 17.3714 33.8062 17.465 33.9467L17.7928 34.3213C18.6825 35.3514 19.853 36.0537 21.0704 36.7093C23.5052 37.8798 26.221 38.5354 28.8899 39.0036C30.2478 39.1909 31.6056 39.2845 32.9635 39.1441C34.3214 39.0036 35.6324 38.629 36.803 37.9735C39.191 36.6624 40.6893 34.0403 40.9703 31.3246C40.8766 32.6825 40.4552 34.0403 39.7529 35.2109C39.0505 36.4283 38.0672 37.4116 36.8498 38.1139C35.6793 38.8163 34.2745 39.1909 32.9167 39.3313C31.5588 39.4718 30.1541 39.3782 28.7962 39.1909C26.0805 38.7226 23.4116 38.0671 20.93 36.8029C19.7126 36.1474 18.542 35.3982 17.6524 34.3681L17.3246 33.9467C17.2309 33.8062 17.1373 33.6657 17.0436 33.5253C16.8563 33.2443 16.7159 32.9166 16.5754 32.6356C16.3413 32.0269 16.2008 31.3246 16.2945 30.6691Z" fill="#CA6D92"/>
<path d="M21.4917 34.5554C22.2409 34.7895 22.99 34.93 23.7392 35.0704C24.4884 35.2109 25.2844 35.3046 26.0335 35.2577C26.7827 35.2577 27.5787 35.1641 28.3279 35.0236C29.077 34.8363 29.7794 34.5086 30.4349 34.0872C29.8262 34.6022 29.1239 34.93 28.3747 35.1641C27.6255 35.3982 26.8295 35.445 26.0335 35.4919C25.2376 35.4919 24.4416 35.3982 23.6924 35.2109C22.99 35.0704 22.2409 34.8832 21.4917 34.5554Z" fill="#CA6D92"/>
<path d="M30.2008 18.1205C30.8563 18.1205 31.465 18.2141 32.0737 18.4483C32.6824 18.6355 33.2443 18.9633 33.7594 19.3379C34.2744 19.7125 34.6958 20.1807 35.0704 20.7426C35.2577 21.0235 35.3982 21.3045 35.4918 21.5854C35.6323 21.8663 35.6791 22.1941 35.7728 22.475C35.5386 21.9132 35.2577 21.3045 34.8831 20.8362C34.5554 20.3212 34.0871 19.8529 33.6189 19.5252C33.1507 19.1506 32.5888 18.8228 32.0269 18.6355C31.4182 18.3546 30.8095 18.2141 30.2008 18.1205Z" fill="#CA6D92"/>
</g>
<path opacity="0.5" d="M9.69211 25.6123C9.13023 25.6591 8.89611 26.9233 9.55164 27.6257C10.254 28.2812 10.9563 25.5186 9.69211 25.6123Z" fill="#58395A"/>
<path opacity="0.5" d="M9.2238 26.6424C9.41109 27.2511 10.1603 27.017 10.3007 26.5956C10.4412 26.1741 10.1603 25.4718 9.59838 25.6591C9.08333 25.8464 9.2238 26.6424 9.2238 26.6424Z" fill="#58395A"/>
<path d="M9.27063 27.2042C9.27063 26.7828 9.87933 27.0638 10.1603 26.9701C10.4412 26.8765 10.2071 27.6725 9.87933 27.7193C9.55157 27.7193 9.27063 27.2042 9.27063 27.2042Z" fill="white"/>
<path opacity="0.5" d="M8.38102 33.2912L8.80243 14.1874C8.80243 14.1874 6.5081 13.3445 5.94622 13.3445C5.33752 13.3445 7.16362 22.8496 7.25727 24.348C7.39774 25.8931 6.36763 28.5621 6.69539 29.9199C7.02315 31.231 8.38102 33.2912 8.38102 33.2912Z" fill="#58395A"/>
<path opacity="0.5" d="M8.38116 33.2912C8.38116 33.2912 7.39787 29.3581 7.91292 27.7192C8.4748 26.1273 8.28751 26.3614 8.38116 25.7527C8.4748 25.144 6.92964 18.8229 6.97646 16.8563C7.02329 14.8897 9.50491 14.4683 11.7056 12.7827C13.9063 11.097 14.5618 10.2074 14.5618 10.2074L13.0635 10.4415L5.89954 14.2342L6.78917 23.8329L7.02329 30.9969L8.38116 33.2912Z" fill="#58395A"/>
<path d="M8.75561 14.1874C7.3041 15.1238 6.13352 13.766 6.13352 13.766C6.13352 13.766 6.92951 20.0871 7.58504 23.1774C7.7255 23.7861 7.86597 24.2543 7.95962 24.5353C8.42785 25.6122 8.10009 26.8296 7.86598 27.9065V27.9534C7.77233 28.3748 7.67868 28.7493 7.63186 29.0771C7.63186 29.1708 7.63186 29.2644 7.63186 29.3112C7.63186 30.5755 8.24056 32.7761 8.28738 33.0571C7.44457 32.7761 6.55493 32.2143 5.71211 31.4651C4.72883 30.6223 3.88601 29.5922 3.51143 28.7494V28.7025C3.37096 28.4216 3.32413 28.1875 3.27731 27.9534C3.09002 26.5487 6.22716 26.9232 6.03987 24.2075C6.03987 24.2075 6.03987 24.1607 6.03987 24.1139C5.80576 21.5386 1.2171 15.3579 0.280633 12.2676C0.186987 11.9867 0.140162 11.7057 0.140162 11.4716C-0.0471303 8.84952 3.32413 4.68227 6.03987 3.3244C8.75561 1.96652 15.0767 5.71237 15.7791 6.55519C16.4814 7.53847 10.2071 13.2509 8.75561 14.1874Z" fill="url(#paint3_linear_3626_593)"/>
<path d="M13.0165 10.4883C13.0165 10.4883 23.7858 8.24078 25.0032 6.6488C26.2206 5.05681 26.4079 9.27089 26.4079 9.27089L13.0165 10.4883Z" fill="url(#paint4_linear_3626_593)"/>
<path opacity="0.5" d="M15.7791 6.69568C15.7323 7.21073 10.6754 12.1272 7.53826 12.174C4.44794 12.2208 3.46465 10.2542 3.51147 9.31778C3.5583 8.33449 6.64862 5.89969 7.95967 5.57193C9.27072 5.24416 10.5349 6.97662 10.8627 7.44485C11.1905 7.91308 9.41118 9.50506 8.38107 9.69236C7.30414 9.92647 6.36769 8.84954 6.36769 8.84954C6.36769 8.84954 8.33425 7.72579 8.61519 7.44485C8.89613 7.16391 6.64862 7.21073 5.85263 7.77261C5.05663 8.33449 6.97638 10.1606 8.56837 10.2542C10.1604 10.3947 12.1269 8.10037 12.1737 7.25755C12.2206 6.41474 8.98978 5.19734 8.00649 5.29099C7.02321 5.43145 3.27736 8.52178 3.09007 9.31778C2.85595 10.1138 2.71548 14.2342 6.50815 16.2008C6.50815 16.2008 6.55498 15.077 6.83592 14.7493C7.07003 14.4215 8.00649 15.1238 10.254 13.5787C11.2841 12.8763 12.2674 11.5185 13.3443 10.2542C14.6086 8.61543 15.9664 7.11709 15.7791 6.69568Z" fill="#58395A"/>
<path opacity="0.5" d="M3.51144 28.7962C3.27733 27.7661 6.18036 29.124 6.8827 30.1072C7.53823 31.0905 8.33422 33.1039 8.33422 33.1039C8.33422 33.1039 4.40108 31.3246 3.51144 28.7962Z" fill="#58395A"/>
<path opacity="0.5" d="M7.63191 29.0772C7.63191 29.0772 6.50815 27.4384 6.46133 26.4551C6.41451 25.4718 7.58508 23.1307 7.58508 23.1307C7.58508 23.1307 8.00649 24.3481 8.28743 25.5187C8.56837 26.6892 7.58508 27.9535 7.63191 29.0772Z" fill="#58395A"/>
<path opacity="0.5" d="M6.04 24.348C6.04 24.348 6.04 24.3012 6.04 24.2544C5.80588 21.6791 1.21722 15.4985 0.280762 12.4081C0.280762 12.4081 4.96307 18.1674 5.4313 19.8062C5.85271 21.2577 6.27411 22.5219 6.04 24.348Z" fill="#58395A"/>
<path d="M0.140248 11.6121C0.140248 11.6121 -0.655745 6.64888 1.54494 3.51173C3.74563 0.421408 8.19382 0 8.61523 0C9.03664 0 8.10018 2.4348 7.07007 3.18397C6.03996 3.93314 0.561656 6.18065 0.140248 11.6121Z" fill="url(#paint5_linear_3626_593)"/>
<path opacity="0.5" d="M8.61531 0C8.61531 0 5.00993 1.35787 2.94972 3.32444C0.936323 5.33784 0.421265 9.73921 0.421265 9.73921C0.421265 9.73921 2.66878 4.91643 7.07015 3.18397C7.07015 3.18397 9.03672 1.17058 8.61531 0Z" fill="#58395A"/>
<path opacity="0.5" d="M2.10691 7.11716C1.45139 8.0068 6.55511 5.85294 7.9598 5.33788C9.36449 4.77601 12.0802 6.88304 12.6889 7.11716C13.3445 7.35127 15.311 6.69575 15.311 6.69575C15.311 6.69575 10.9097 3.51178 8.33439 3.27766C5.80594 3.04355 2.10691 7.11716 2.10691 7.11716Z" fill="white"/>
<path opacity="0.5" d="M1.54501 3.55856C1.17043 4.68232 2.80924 3.13715 4.54169 2.10704C6.27415 1.07693 7.95978 0.280945 7.95978 0.280945C7.95978 0.280945 3.41794 0.468237 1.54501 3.55856Z" fill="white"/>
<path opacity="0.5" d="M3.8861 12.97C3.13693 11.9867 3.46469 10.4415 3.46469 10.4415C3.46469 10.4415 4.4948 11.7526 6.46137 12.1272C8.42794 12.5017 8.7557 14.1874 8.7557 14.1874C8.7557 14.1874 7.67877 14.9834 6.18043 14.1874C4.68209 13.3446 3.8861 12.97 3.8861 12.97Z" fill="#58395A"/>
<path opacity="0.5" d="M8.75574 5.61877C8.75574 5.61877 10.5818 6.6957 10.9096 7.58534C11.2374 8.47498 12.0802 7.4917 12.0802 7.02347C12.0802 6.55524 10.2541 5.6656 8.75574 5.61877Z" fill="#58395A"/>
<path opacity="0.5" d="M3.65186 27.2511C3.46457 28.0002 6.3676 29.3113 6.92948 29.8732C7.49135 30.435 7.25724 28.8899 6.78901 27.4852C6.32078 26.0805 6.08666 26.0337 5.7589 26.1273C5.38431 26.1741 3.65186 27.2511 3.65186 27.2511Z" fill="white"/>
<path d="M4.02661 10.7693C4.02661 10.7693 5.89953 12.0335 7.81928 11.9399C9.78585 11.8463 11.9865 10.2543 11.9865 10.2543C11.9865 10.2543 9.92632 11.9867 7.77246 12.2208C5.6186 12.455 4.02661 10.7693 4.02661 10.7693Z" fill="white"/>
<path d="M3.88599 8.61549C3.88599 8.61549 6.78902 6.13386 7.58501 5.94656C8.33418 5.75927 9.45793 6.04021 9.45793 6.04021C9.45793 6.04021 8.89606 5.52516 7.9596 5.6188C7.02313 5.66563 4.44786 7.72585 3.88599 8.61549Z" fill="white"/>
<path d="M6.69549 9.17727C6.69549 8.84951 8.10018 7.8194 8.10018 7.8194C8.10018 7.8194 6.32091 8.80268 6.36773 8.89633C6.41455 8.94315 6.69549 9.17727 6.69549 9.17727Z" fill="white"/>
<path d="M2.20044 4.35457C2.20044 4.35457 2.90278 2.9967 3.93289 2.2007C4.91618 1.40471 7.49145 0.515076 7.49145 0.515076C7.49145 0.515076 3.55831 2.20071 2.20044 4.35457Z" fill="white"/>
<path opacity="0.5" d="M0.421265 9.73923C0.421265 9.73923 0.983146 5.75926 2.48149 4.12045C4.02665 2.48164 6.5551 3.4181 6.5551 3.4181C6.5551 3.4181 4.68217 4.2141 3.18383 6.0402C1.73232 7.8663 0.421265 9.73923 0.421265 9.73923Z" fill="#58395A"/>
<path opacity="0.5" d="M4.16711 28.047C4.58852 27.0638 6.04004 28.6557 6.13369 29.0771C6.18051 29.4986 4.16711 28.047 4.16711 28.047Z" fill="white"/>
<path opacity="0.5" d="M25.7525 6.41484C25.5184 6.1339 24.3947 9.36469 24.3947 9.36469L26.408 9.27105C26.408 9.27105 26.3144 7.02354 25.7525 6.41484Z" fill="#58395A"/>
<path opacity="0.5" d="M18.0267 9.45825C18.0267 9.45825 23.6455 8.9432 24.1606 8.70909C24.6756 8.47497 25.378 6.32111 25.378 6.32111C25.378 6.32111 24.2074 7.30439 22.5218 8.10039C20.8829 8.9432 18.0267 9.45825 18.0267 9.45825Z" fill="white"/>
<path d="M7.58508 11.8931C7.30414 11.7994 9.36436 10.9098 9.69212 10.9566C10.0667 11.0503 9.13024 12.5018 7.58508 11.8931Z" fill="white"/>
<path d="M7.21055 3.41809C6.03998 3.88632 8.56843 4.16726 9.36442 3.97997C10.1604 3.79268 8.66207 2.85622 7.21055 3.41809Z" fill="white"/>
<path d="M3.1837 2.10706C2.62182 2.90305 3.93287 2.62211 4.82251 1.91977C5.66533 1.21742 3.65193 1.49836 3.1837 2.10706Z" fill="white"/>
<path d="M25.1905 6.97668C25.0969 5.75928 24.535 7.86632 24.6287 8.19408C24.7223 8.52184 25.2373 7.39809 25.1905 6.97668Z" fill="white"/>
<path opacity="0.5" d="M47.6189 33.2912L47.1975 14.1874C47.1975 14.1874 49.4918 13.3445 50.0537 13.3445C50.6624 13.3445 48.8363 22.8496 48.7427 24.348C48.6022 25.8931 49.6323 28.5621 49.3045 29.9199C48.9768 31.231 47.6189 33.2912 47.6189 33.2912Z" fill="#58395A"/>
<path opacity="0.5" d="M47.619 33.2912C47.619 33.2912 48.6023 29.3581 48.0872 27.7192C47.5254 26.1273 47.7127 26.3614 47.619 25.7527C47.5254 25.144 49.0705 18.8229 49.0237 16.8563C48.9769 14.8429 46.4953 14.4683 44.2946 12.7827C42.0939 11.097 41.4384 10.2074 41.4384 10.2074L42.9367 10.4415L50.1006 14.1874L49.211 23.7861L48.9769 30.95L47.619 33.2912Z" fill="#58395A"/>
<path d="M47.1974 14.1874C48.6489 15.1238 49.8195 13.766 49.8195 13.766C49.8195 13.766 49.0235 20.0871 48.368 23.1774C48.2275 23.7861 48.087 24.2543 47.9934 24.5353C47.5252 25.6122 47.8529 26.8296 48.0871 27.9065V27.9534C48.1807 28.3748 48.2743 28.7493 48.3212 29.0771C48.3212 29.1708 48.3212 29.2644 48.3212 29.3112C48.3212 30.5755 47.7125 32.7761 47.6656 33.0571C48.5085 32.7761 49.3981 32.2143 50.2409 31.4651C51.2242 30.6223 52.067 29.5922 52.4416 28.7494V28.7025C52.5821 28.4216 52.6289 28.1875 52.6757 27.9534C52.863 26.5487 49.7259 26.9232 49.9132 24.2075C49.9132 24.2075 49.9132 24.1607 49.9132 24.1139C50.1473 21.5386 54.7359 15.3579 55.6724 12.2676C55.766 11.9867 55.8129 11.7057 55.8129 11.4716C56.0002 8.84952 52.6289 4.68227 49.9132 3.3244C47.1974 1.96652 40.8763 5.71237 40.1739 6.55519C39.5184 7.53847 45.7927 13.2509 47.1974 14.1874Z" fill="url(#paint6_linear_3626_593)"/>
<path d="M42.9833 10.4883C42.9833 10.4883 32.214 8.24078 30.9966 6.6488C29.7792 5.05681 29.5919 9.27089 29.5919 9.27089L42.9833 10.4883Z" fill="url(#paint7_linear_3626_593)"/>
<path opacity="0.5" d="M40.2209 6.69568C40.2677 7.21073 45.3246 12.1272 48.4618 12.174C51.5521 12.2208 52.5354 10.2542 52.4886 9.31778C52.4417 8.33449 49.3514 5.89969 48.0404 5.57193C46.7293 5.24416 45.4651 6.97662 45.1373 7.44485C44.8096 7.91308 46.5889 9.50506 47.619 9.69236C48.6959 9.92647 49.6324 8.84954 49.6324 8.84954C49.6324 8.84954 47.6658 7.72579 47.3848 7.44485C47.1039 7.16391 49.3514 7.21073 50.1474 7.77261C50.9434 8.33449 49.0236 10.1606 47.4317 10.2542C45.8397 10.3947 43.8731 8.10037 43.8263 7.25755C43.7795 6.41474 47.0103 5.19734 47.9935 5.29099C48.9768 5.38463 52.7227 8.52178 52.91 9.31778C53.1441 10.1138 53.2846 14.2342 49.4919 16.2008C49.4919 16.2008 49.4451 15.077 49.1641 14.7493C48.93 14.4215 47.9935 15.1238 45.746 13.5787C44.7159 12.8763 43.7326 11.5185 42.6557 10.2542C41.3915 8.61543 40.0336 7.11709 40.2209 6.69568Z" fill="#58395A"/>
<path opacity="0.5" d="M52.4884 28.7962C52.7226 27.7661 49.8195 29.124 49.1172 30.1072C48.4616 31.0905 47.6656 33.1039 47.6656 33.1039C47.6656 33.1039 51.5988 31.3246 52.4884 28.7962Z" fill="#58395A"/>
<path opacity="0.5" d="M48.3212 29.0772C48.3212 29.0772 49.445 27.4384 49.4918 26.4551C49.5386 25.4718 48.368 23.1307 48.368 23.1307C48.368 23.1307 47.9466 24.3481 47.6657 25.5187C47.3847 26.6892 48.368 27.9535 48.3212 29.0772Z" fill="#58395A"/>
<path opacity="0.5" d="M49.96 24.348C49.96 24.348 49.96 24.3012 49.96 24.2544C50.1941 21.6791 54.7828 15.4985 55.7192 12.4081C55.7192 12.4081 51.0369 18.1674 50.5687 19.8062C50.1473 21.2577 49.7259 22.5219 49.96 24.348Z" fill="#58395A"/>
<path d="M55.8598 11.6121C55.8598 11.6121 56.6557 6.64888 54.4551 3.51173C52.2544 0.421408 47.8062 0 47.3848 0C46.9634 0 47.8998 2.4348 48.9299 3.18397C49.9132 3.93314 55.4383 6.18065 55.8598 11.6121Z" fill="url(#paint8_linear_3626_593)"/>
<path opacity="0.5" d="M47.3848 0C47.3848 0 50.9901 1.35787 53.0503 3.32444C55.0637 5.33784 55.5788 9.73921 55.5788 9.73921C55.5788 9.73921 53.3313 4.91643 48.9299 3.18397C48.9299 3.18397 46.9634 1.17058 47.3848 0Z" fill="#58395A"/>
<path opacity="0.5" d="M53.8932 7.11716C54.5487 8.0068 49.445 5.85294 48.0403 5.33788C46.5888 4.77601 43.9199 6.88304 43.3112 7.11716C42.6557 7.35127 40.6891 6.69575 40.6891 6.69575C40.6891 6.69575 45.0905 3.51178 47.6657 3.27766C50.1942 3.04355 53.8932 7.11716 53.8932 7.11716Z" fill="white"/>
<path opacity="0.5" d="M54.455 3.55856C54.8296 4.68232 53.1908 3.13715 51.4584 2.10704C49.7259 1.07693 48.0403 0.280945 48.0403 0.280945C48.0403 0.280945 52.5353 0.468237 54.455 3.55856Z" fill="white"/>
<path opacity="0.5" d="M52.1139 12.97C52.863 11.9867 52.5353 10.4415 52.5353 10.4415C52.5353 10.4415 51.5052 11.7526 49.5386 12.1272C47.572 12.5017 47.2443 14.1874 47.2443 14.1874C47.2443 14.1874 48.3212 14.9834 49.8195 14.1874C51.2711 13.3446 52.1139 12.97 52.1139 12.97Z" fill="#58395A"/>
<path opacity="0.5" d="M47.1975 5.61877C47.1975 5.61877 45.3714 6.6957 45.0436 7.58534C44.7159 8.47498 43.873 7.4917 43.873 7.02347C43.9199 6.55524 45.746 5.6656 47.1975 5.61877Z" fill="#58395A"/>
<path opacity="0.5" d="M52.3481 27.2511C52.5354 28.0002 49.6324 29.3113 49.0705 29.8732C48.5086 30.435 48.7427 28.8899 49.211 27.4852C49.6792 26.0805 49.9133 26.0337 50.2411 26.1273C50.6157 26.1741 52.3481 27.2511 52.3481 27.2511Z" fill="white"/>
<path d="M51.9735 10.7693C51.9735 10.7693 50.1006 12.0335 48.1808 11.9399C46.2142 11.8463 44.0135 10.2543 44.0135 10.2543C44.0135 10.2543 46.0738 11.9867 48.2276 12.2208C50.3347 12.4081 51.9735 10.7693 51.9735 10.7693Z" fill="white"/>
<path d="M52.1138 8.61549C52.1138 8.61549 49.2108 6.13386 48.4148 5.94656C47.6656 5.75927 46.5419 6.04021 46.5419 6.04021C46.5419 6.04021 47.1038 5.52516 48.0402 5.6188C48.9299 5.66563 51.5519 7.72585 52.1138 8.61549Z" fill="white"/>
<path d="M49.3045 9.17727C49.3045 8.84951 47.8998 7.8194 47.8998 7.8194C47.8998 7.8194 49.6791 8.80268 49.6322 8.89633C49.5854 8.94315 49.3045 9.17727 49.3045 9.17727Z" fill="white"/>
<path d="M53.7996 4.35457C53.7996 4.35457 53.0972 2.9967 52.0671 2.2007C51.0838 1.40471 48.5085 0.515076 48.5085 0.515076C48.5085 0.515076 52.4417 2.20071 53.7996 4.35457Z" fill="white"/>
<path opacity="0.5" d="M55.5789 9.73923C55.5789 9.73923 55.017 5.75926 53.5187 4.12045C51.9735 2.48164 49.4451 3.4181 49.4451 3.4181C49.4451 3.4181 51.318 4.2141 52.8163 6.0402C54.2678 7.8663 55.5789 9.73923 55.5789 9.73923Z" fill="#58395A"/>
<path opacity="0.5" d="M51.833 28.047C51.4116 27.0638 49.9601 28.6557 49.8664 29.0771C49.8196 29.4986 51.833 28.047 51.833 28.047Z" fill="white"/>
<path opacity="0.5" d="M30.2474 6.41484C30.4816 6.1339 31.6053 9.36469 31.6053 9.36469L29.5919 9.27105C29.5919 9.27105 29.6856 7.02354 30.2474 6.41484Z" fill="#58395A"/>
<path opacity="0.5" d="M37.9734 9.45825C37.9734 9.45825 32.3547 8.9432 31.8396 8.70909C31.3245 8.47497 30.6222 6.32111 30.6222 6.32111C30.6222 6.32111 31.7928 7.30439 33.4784 8.10039C35.1172 8.9432 37.9734 9.45825 37.9734 9.45825Z" fill="white"/>
<path d="M48.415 11.8931C48.6959 11.7994 46.6357 10.9098 46.3079 10.9566C45.9802 11.0034 46.823 12.5018 48.415 11.8931Z" fill="white"/>
<path d="M48.7895 3.41811C49.9601 3.88634 47.4316 4.16728 46.6356 3.97998C45.8396 3.74587 47.338 2.85623 48.7895 3.41811Z" fill="white"/>
<path d="M52.8163 2.10706C53.3781 2.90305 52.0671 2.62211 51.1775 1.91977C50.3346 1.21742 52.348 1.49836 52.8163 2.10706Z" fill="white"/>
<path d="M30.8094 6.97668C30.903 5.75928 31.4649 7.86632 31.3713 8.19408C31.2776 8.52184 30.7626 7.39809 30.8094 6.97668Z" fill="white"/>
<path d="M50.756 4.35451C50.756 5.05685 49.7259 5.66555 48.4149 5.66555C47.1507 5.66555 46.0737 5.05685 46.0737 4.35451C46.0737 3.65216 47.1038 3.04346 48.4149 3.04346C49.7259 3.04346 50.756 3.60534 50.756 4.35451Z" fill="url(#paint9_radial_3626_593)"/>
<path d="M51.8329 26.9233C52.2543 27.532 51.6925 28.6089 50.6623 29.3113C49.5854 30.0136 48.4148 30.1072 47.9934 29.5454C47.572 28.9367 48.1339 27.8597 49.164 27.1574C50.2409 26.455 51.4115 26.3614 51.8329 26.9233Z" fill="url(#paint10_radial_3626_593)"/>
<path d="M7.91292 29.2644C7.53834 29.8731 6.36776 29.8731 5.24401 29.2176C4.12025 28.5621 3.51155 27.5319 3.88614 26.9232C4.26072 26.3145 5.4313 26.3145 6.55505 26.9701C7.67881 27.6256 8.28751 28.6557 7.91292 29.2644Z" fill="url(#paint11_radial_3626_593)"/>
<path d="M10.8628 10.4883C11.0969 11.1907 10.3009 12.0803 9.13031 12.5017C7.95973 12.9231 6.74232 12.7358 6.50821 12.0335C6.27409 11.3311 7.07009 10.4415 8.24067 10.0201C9.41125 9.59869 10.6286 9.78598 10.8628 10.4883Z" fill="url(#paint12_radial_3626_593)"/>
<path d="M47.9935 12.5017C49.2865 12.5017 50.3347 11.9148 50.3347 11.1907C50.3347 10.4666 49.2865 9.87964 47.9935 9.87964C46.7005 9.87964 45.6523 10.4666 45.6523 11.1907C45.6523 11.9148 46.7005 12.5017 47.9935 12.5017Z" fill="url(#paint13_radial_3626_593)"/>
<path d="M38.582 45.2312C38.7224 45.9335 37.4114 46.7763 35.6789 47.0573C33.9465 47.3382 32.4481 47.0104 32.3077 46.3081C32.1672 45.6057 33.4783 44.7629 35.2107 44.482C36.9432 44.201 38.4415 44.5288 38.582 45.2312Z" fill="url(#paint14_radial_3626_593)"/>
<path d="M26.6889 10.6757C26.7358 11.378 25.3779 12.0804 23.5986 12.2208C21.8193 12.3613 20.3678 11.8931 20.321 11.1439C20.2742 10.4416 21.632 9.73922 23.4113 9.59875C25.1906 9.45828 26.5953 9.97334 26.6889 10.6757Z" fill="url(#paint15_radial_3626_593)"/>
<path d="M10.0667 4.35451C10.0667 5.05685 9.0366 5.66555 7.72556 5.66555C6.46133 5.66555 5.3844 5.05685 5.3844 4.35451C5.3844 3.65216 6.41451 3.04346 7.72556 3.04346C9.0366 3.04346 10.0667 3.60534 10.0667 4.35451Z" fill="url(#paint16_radial_3626_593)"/>
<path d="M35.0235 48.4151C38.9542 48.4151 42.1406 46.8428 42.1406 44.9033C42.1406 42.9639 38.9542 41.3916 35.0235 41.3916C31.0928 41.3916 27.9064 42.9639 27.9064 44.9033C27.9064 46.8428 31.0928 48.4151 35.0235 48.4151Z" fill="url(#paint17_radial_3626_593)"/>
<defs>
<linearGradient id="paint0_linear_3626_593" x1="27.9181" y1="47.0767" x2="27.9181" y2="9.18018" gradientUnits="userSpaceOnUse">
<stop stop-color="#D7A28B"/>
<stop offset="0.2151" stop-color="#8E6A81"/>
<stop offset="0.4716" stop-color="#B9A3B0"/>
<stop offset="0.7109" stop-color="#DCD1D7"/>
<stop offset="0.8944" stop-color="#F2EDEE"/>
<stop offset="1" stop-color="#FAF8F7"/>
</linearGradient>
<linearGradient id="paint1_linear_3626_593" x1="27.9184" y1="44.3886" x2="27.9184" y2="11.8678" gradientUnits="userSpaceOnUse">
<stop stop-color="#E2D7D2"/>
<stop offset="0.1131" stop-color="#DACCC8"/>
<stop offset="0.3094" stop-color="#C4B0AD"/>
<stop offset="0.5638" stop-color="#A18281"/>
<stop offset="0.7849" stop-color="#7E5555"/>
<stop offset="1" stop-color="#451E32"/>
</linearGradient>
<linearGradient id="paint2_linear_3626_593" x1="27.9195" y1="42.9811" x2="27.9195" y2="13.2666" gradientUnits="userSpaceOnUse">
<stop stop-color="#1434A3"/>
<stop offset="0.3492" stop-color="#221791"/>
<stop offset="0.4773" stop-color="#2733AC"/>
<stop offset="0.7129" stop-color="#3060D9"/>
<stop offset="0.895" stop-color="#367CF5"/>
<stop offset="1" stop-color="#3887FF"/>
</linearGradient>
<linearGradient id="paint3_linear_3626_593" x1="7.97934" y1="33.0995" x2="7.97934" y2="3.18875" gradientUnits="userSpaceOnUse">
<stop stop-color="#D7A282"/>
<stop offset="0.2151" stop-color="#916F77"/>
<stop offset="0.3302" stop-color="#A08288"/>
<stop offset="0.6325" stop-color="#C4B0B0"/>
<stop offset="0.8657" stop-color="#DACCC9"/>
<stop offset="1" stop-color="#E2D7D2"/>
</linearGradient>
<linearGradient id="paint4_linear_3626_593" x1="19.7074" y1="10.2292" x2="19.5746" y2="6.5036" gradientUnits="userSpaceOnUse">
<stop stop-color="#D7A282"/>
<stop offset="0.2151" stop-color="#916F77"/>
<stop offset="0.3302" stop-color="#A08288"/>
<stop offset="0.6325" stop-color="#C4B0B0"/>
<stop offset="0.8657" stop-color="#DACCC9"/>
<stop offset="1" stop-color="#E2D7D2"/>
</linearGradient>
<linearGradient id="paint5_linear_3626_593" x1="4.34829" y1="11.6231" x2="4.34829" y2="0.0155448" gradientUnits="userSpaceOnUse">
<stop stop-color="#755266"/>
<stop offset="0.2151" stop-color="#7E5555"/>
<stop offset="0.4362" stop-color="#A18281"/>
<stop offset="0.6906" stop-color="#C4B0AD"/>
<stop offset="0.8869" stop-color="#DACCC8"/>
<stop offset="1" stop-color="#E2D7D2"/>
</linearGradient>
<linearGradient id="paint6_linear_3626_593" x1="48.0131" y1="33.0995" x2="48.0131" y2="3.18875" gradientUnits="userSpaceOnUse">
<stop stop-color="#D7A282"/>
<stop offset="0.2151" stop-color="#916F77"/>
<stop offset="0.3302" stop-color="#A08288"/>
<stop offset="0.6325" stop-color="#C4B0B0"/>
<stop offset="0.8657" stop-color="#DACCC9"/>
<stop offset="1" stop-color="#E2D7D2"/>
</linearGradient>
<linearGradient id="paint7_linear_3626_593" x1="36.285" y1="10.2292" x2="36.4178" y2="6.50362" gradientUnits="userSpaceOnUse">
<stop stop-color="#D7A282"/>
<stop offset="0.2151" stop-color="#916F77"/>
<stop offset="0.3302" stop-color="#A08288"/>
<stop offset="0.6325" stop-color="#C4B0B0"/>
<stop offset="0.8657" stop-color="#DACCC9"/>
<stop offset="1" stop-color="#E2D7D2"/>
</linearGradient>
<linearGradient id="paint8_linear_3626_593" x1="51.6443" y1="11.6231" x2="51.6443" y2="0.0155448" gradientUnits="userSpaceOnUse">
<stop stop-color="#755266"/>
<stop offset="0.2151" stop-color="#7E5555"/>
<stop offset="0.4362" stop-color="#A18281"/>
<stop offset="0.6906" stop-color="#C4B0AD"/>
<stop offset="0.8869" stop-color="#DACCC8"/>
<stop offset="1" stop-color="#E2D7D2"/>
</linearGradient>
<radialGradient id="paint9_radial_3626_593" cx="0" cy="0" r="1" gradientUnits="userSpaceOnUse" gradientTransform="translate(48.4329 4.34064) scale(2.31923 1.31113)">
<stop offset="0.5196" stop-color="#A68F95"/>
<stop offset="1"/>
</radialGradient>
<radialGradient id="paint10_radial_3626_593" cx="0" cy="0" r="1" gradientUnits="userSpaceOnUse" gradientTransform="translate(49.8959 28.2376) rotate(-34.0206) scale(2.31917 1.31118)">
<stop offset="0.5196" stop-color="#A68F95"/>
<stop offset="1"/>
</radialGradient>
<radialGradient id="paint11_radial_3626_593" cx="0" cy="0" r="1" gradientUnits="userSpaceOnUse" gradientTransform="translate(5.89878 28.1279) rotate(30.0023) scale(2.31895 1.31132)">
<stop offset="0.5196" stop-color="#A68F95"/>
<stop offset="1"/>
</radialGradient>
<radialGradient id="paint12_radial_3626_593" cx="0" cy="0" r="1" gradientUnits="userSpaceOnUse" gradientTransform="translate(8.66281 11.2372) rotate(-19.44) scale(2.31919 1.31116)">
<stop offset="0.5196" stop-color="#A68F95"/>
<stop offset="1"/>
</radialGradient>
<radialGradient id="paint13_radial_3626_593" cx="0" cy="0" r="1" gradientUnits="userSpaceOnUse" gradientTransform="translate(48.0132 11.2109) scale(2.31923 1.31113)">
<stop offset="0.5196" stop-color="#A68F95"/>
<stop offset="1"/>
</radialGradient>
<radialGradient id="paint14_radial_3626_593" cx="0" cy="0" r="1" gradientUnits="userSpaceOnUse" gradientTransform="translate(35.4342 45.7884) rotate(-9.90572) scale(3.18893 1.31112)">
<stop offset="0.5196" stop-color="#A68F95"/>
<stop offset="1"/>
</radialGradient>
<radialGradient id="paint15_radial_3626_593" cx="0" cy="0" r="1" gradientUnits="userSpaceOnUse" gradientTransform="translate(23.4872 10.9353) rotate(-4.27411) scale(3.1886 1.31122)">
<stop offset="0.5196" stop-color="#A68F95"/>
<stop offset="1"/>
</radialGradient>
<radialGradient id="paint16_radial_3626_593" cx="0" cy="0" r="1" gradientUnits="userSpaceOnUse" gradientTransform="translate(7.75619 4.34064) scale(2.31923 1.31113)">
<stop offset="0.5196" stop-color="#A68F95"/>
<stop offset="1"/>
</radialGradient>
<radialGradient id="paint17_radial_3626_593" cx="0" cy="0" r="1" gradientUnits="userSpaceOnUse" gradientTransform="translate(35.0433 44.8817) rotate(180) scale(7.10607 3.5247)">
<stop stop-color="#A68F95"/>
<stop offset="1"/>
</radialGradient>
</defs>
</svg>
