<svg width="60" height="43" viewBox="0 0 60 43" fill="none" xmlns="http://www.w3.org/2000/svg">
<path d="M46.6097 10.5971C45.1473 8.75851 29.9791 8.25708 29.9791 8.25708C29.9791 8.25708 14.8111 8.75851 13.3486 10.5971C11.8443 12.4774 12.3457 36.0026 13.3486 39.1365C14.3514 42.2704 29.9791 42.0615 29.9791 42.0615C29.9791 42.0615 45.6487 42.2704 46.6097 39.1365C47.5708 35.9608 48.0722 12.4356 46.6097 10.5971ZM43.3087 36.3369C42.5148 38.844 29.9791 38.6769 29.9791 38.6769C29.9791 38.6769 17.4435 38.844 16.6496 36.3369C15.8557 33.8297 15.4796 14.9845 16.6496 13.4803C17.8196 11.976 29.9791 11.5999 29.9791 11.5999C29.9791 11.5999 42.1387 11.976 43.3087 13.4803C44.4787 14.9845 44.1026 33.8297 43.3087 36.3369Z" fill="url(#paint0_linear_3626_692)"/>
<path d="M13.5992 10.3464C13.1814 10.7224 15.396 11.5999 18.4881 11.2657C21.622 10.9314 29.5195 10.6389 31.4416 10.6389C33.3637 10.5971 42.5983 11.6417 43.7683 11.8924C44.8965 12.1432 46.4426 10.4299 46.359 10.3464C46.2754 10.3046 39.6315 8.21533 29.9791 8.21533C20.3267 8.21533 13.85 10.1374 13.5992 10.3464Z" fill="white"/>
<path opacity="0.5" d="M15.1036 40.5155C13.7665 38.259 23.3771 40.0976 30.6478 40.014C37.9184 39.9305 44.3952 38.6351 43.5595 40.9333C43.5595 40.9333 37.9602 42.1033 29.7703 42.1033C21.5803 42.0615 15.1036 40.5155 15.1036 40.5155Z" fill="#58395A"/>
<path d="M45.3979 11.6417C44.019 9.9285 29.9373 9.46887 29.9373 9.46887C29.9373 9.46887 25.9677 9.59422 22.0399 9.97029H21.9981C20.0759 10.1792 18.1538 10.3882 16.7331 10.7224C16.6913 10.7224 16.6913 10.7224 16.6495 10.7224C15.5631 10.9731 14.7692 11.2656 14.5185 11.5999C14.3931 11.7671 14.2678 12.1431 14.1842 12.6446C14.1006 13.146 14.0171 13.8563 13.9335 14.6503C13.9335 14.6503 13.9335 14.6503 13.9335 14.692C13.3903 21.2106 13.8081 35.7519 14.5603 38.0919C15.4795 41.0168 30.0209 40.8079 30.0209 40.8079C30.0209 40.8079 44.5204 40.9751 45.4815 38.0919C46.3172 35.2087 46.7768 13.3549 45.3979 11.6417ZM43.3086 36.3369C42.5147 38.844 29.9791 38.6769 29.9791 38.6769C29.9791 38.6769 17.4435 38.844 16.6495 36.3369C15.8974 33.9969 15.5213 17.4081 16.4406 13.9817C16.5242 13.731 16.566 13.5638 16.6495 13.4803C17.8195 11.976 29.9791 11.5999 29.9791 11.5999C29.9791 11.5999 42.1386 11.976 43.3086 13.4803C43.3922 13.6056 43.4758 13.8145 43.5593 14.107C44.4368 17.7842 44.019 34.0387 43.3086 36.3369Z" fill="url(#paint1_linear_3626_692)"/>
<path d="M16.5242 38.0083C14.7274 36.713 22.3323 39.1365 30.5641 38.6769C40.1329 38.1337 43.5593 37.2562 43.3504 38.0501C43.3504 38.0501 44.8129 40.7662 29.5194 40.7662C15.7303 40.7244 16.5242 38.0083 16.5242 38.0083Z" fill="white"/>
<path d="M42.5147 37.3397C41.7208 37.9247 44.3533 39.0947 44.8965 38.7187C45.4397 38.3426 45.6068 37.1726 45.6068 37.1726L42.5147 37.3397Z" fill="white"/>
<path d="M43.3087 13.4803C42.1387 11.976 29.9791 11.6 29.9791 11.6C29.9791 11.6 17.8196 11.976 16.6496 13.4803C15.4796 14.9846 15.8557 33.8298 16.6496 36.3369C17.4435 38.8441 29.9791 38.7187 29.9791 38.7187C29.9791 38.7187 42.5147 38.8858 43.3087 36.3369C44.1026 33.8298 44.4787 14.9846 43.3087 13.4803Z" fill="url(#paint2_linear_3626_692)"/>
<path opacity="0.5" d="M17.6106 14.4413C16.1481 15.0263 17.151 19.372 19.491 21.4612C21.8309 23.5505 35.829 23.6341 39.7569 21.4612C43.6847 19.2884 43.2668 14.692 42.8908 14.0652C42.5147 13.3967 27.0959 10.597 17.6106 14.4413Z" fill="white"/>
<path opacity="0.2" d="M18.3628 36.3369C14.8528 35.4594 19.4492 26.8516 30.6895 24.5534C41.9297 22.2552 44.0608 32.5762 43.0162 36.0862C41.9715 39.5961 23.0427 37.5069 18.3628 36.3369Z" fill="#552FBE"/>
<path opacity="0.5" d="M13.9335 15.1935C13.9335 15.1935 18.7388 11.9342 29.5613 11.9342C40.3837 11.9342 45.9829 15.1935 45.9829 15.1935C45.9829 15.1935 46.0247 11.8924 44.8129 11.391C42.7237 10.5135 39.2973 9.7196 29.5613 9.7196C19.8253 9.7196 15.1453 10.6807 14.4767 11.8925C13.8082 13.1042 13.9335 15.1935 13.9335 15.1935Z" fill="#58395A"/>
<path opacity="0.5" d="M17.736 36.0443C16.5661 33.1194 25.3828 37.1725 31.3163 37.3815C37.2498 37.5904 39.7987 37.5904 39.7987 37.5904C39.7987 37.5904 23.7949 39.9304 17.736 36.0443Z" fill="white"/>
<path d="M25.6334 35.7936C26.0931 36.2115 26.6781 36.4204 27.2631 36.5458C27.5556 36.5876 27.848 36.6711 28.1823 36.6293C28.3495 36.6293 28.4748 36.6293 28.642 36.6293L29.1016 36.5876C30.3134 36.4622 31.4416 36.0026 32.528 35.4593C34.6591 34.2894 36.5394 32.7015 38.2526 30.9883C39.0883 30.1108 39.8822 29.1498 40.4672 28.1051C41.0522 27.0605 41.5119 25.8905 41.6372 24.7205C41.9297 22.297 40.8015 19.8734 39.0047 18.2438C39.924 19.0377 40.6762 20.0405 41.2194 21.127C41.7208 22.2552 41.9297 23.5087 41.8044 24.7205C41.7208 25.9741 41.2194 27.1441 40.6344 28.1887C40.0076 29.2751 39.2555 30.2362 38.378 31.1137C36.623 32.8269 34.7426 34.4147 32.5698 35.5847C31.4834 36.1279 30.3134 36.5876 29.0598 36.6711L28.6002 36.7129C28.433 36.7129 28.3077 36.7129 28.1405 36.7129C27.848 36.7129 27.5138 36.6293 27.2213 36.5876C26.6781 36.4204 26.0931 36.2115 25.6334 35.7936Z" fill="#FFF9C7"/>
<path d="M31.1909 34.0387C31.7341 33.6209 32.2773 33.1612 32.737 32.6598C33.2384 32.1584 33.698 31.657 34.0741 31.1138C34.492 30.5705 34.8262 29.9438 35.077 29.317C35.3277 28.6902 35.453 28.0216 35.4948 27.3113C35.5366 28.0216 35.453 28.732 35.2023 29.4005C34.9516 30.0691 34.6173 30.6959 34.1995 31.2391C33.7816 31.7823 33.322 32.3255 32.7788 32.7852C32.3609 33.2448 31.7759 33.6627 31.1909 34.0387Z" fill="#FFF9C7"/>
<path d="M23.8367 19.1631C24.171 18.7035 24.5888 18.2856 25.0484 17.9513C25.5081 17.617 26.0513 17.3663 26.5945 17.1992C27.1377 17.032 27.7227 16.9485 28.3077 16.9903C28.6002 16.9903 28.8927 17.0738 29.1434 17.1156C29.4359 17.1992 29.6866 17.2828 29.9373 17.3663C29.3941 17.241 28.8509 17.1574 28.2659 17.1574C27.7227 17.1574 27.1795 17.241 26.6363 17.4081C26.0931 17.5753 25.5917 17.7842 25.132 18.1185C24.6306 18.411 24.2127 18.7452 23.8367 19.1631Z" fill="#FFF9C7"/>
<g opacity="0.5">
<path d="M25.4664 35.6683C25.9261 36.0861 26.5111 36.2951 27.0961 36.4204C27.3886 36.4622 27.6811 36.5458 28.0153 36.504C28.1825 36.504 28.3078 36.504 28.475 36.504L28.9346 36.4622C30.1464 36.3368 31.2746 35.8772 32.361 35.334C34.4921 34.164 36.3724 32.5762 38.0856 30.863C38.9213 29.9855 39.7152 29.0244 40.3002 27.9798C40.8852 26.9351 41.3449 25.7651 41.4702 24.5951C41.7627 22.1716 40.6345 19.748 38.8378 18.1184C39.757 18.9123 40.5092 19.9152 41.0524 21.0016C41.5538 22.1298 41.7627 23.3834 41.6374 24.5951C41.5538 25.8487 41.0524 27.0187 40.4674 28.0633C39.8406 29.1498 39.0885 30.1108 38.211 30.9883C36.456 32.7015 34.5756 34.2894 32.4028 35.4593C31.3164 36.0026 30.1464 36.4622 28.8928 36.5458L28.4332 36.5876C28.2661 36.5876 28.1407 36.5876 27.9736 36.5876C27.6811 36.5876 27.3468 36.504 27.0543 36.4622C26.5111 36.3368 25.9261 36.0861 25.4664 35.6683Z" fill="#CA6D92"/>
<path d="M31.0239 33.9134C31.5671 33.4955 32.1103 33.0359 32.57 32.5344C33.0714 32.033 33.531 31.5316 33.9071 30.9884C34.325 30.4452 34.6593 29.8184 34.91 29.1916C35.1607 28.5648 35.286 27.8963 35.3278 27.1859C35.3696 27.8963 35.286 28.6066 35.0353 29.2752C34.7846 29.9437 34.4503 30.5705 34.0325 31.1137C33.6146 31.6569 33.155 32.2002 32.6118 32.6598C32.1939 33.1194 31.6507 33.5791 31.0239 33.9134Z" fill="#CA6D92"/>
<path d="M23.6696 19.0377C24.0038 18.5781 24.4217 18.1603 24.8813 17.826C25.341 17.4917 25.8842 17.241 26.4274 17.0738C26.9706 16.9067 27.5556 16.8231 28.1406 16.8649C28.4331 16.8649 28.7256 16.9485 28.9763 16.9903C29.2688 17.0738 29.5195 17.1574 29.7702 17.241C29.227 17.1156 28.6838 17.032 28.0988 17.032C27.5556 17.032 27.0124 17.1156 26.4692 17.2828C25.926 17.4499 25.4245 17.6588 24.9649 17.9931C24.5053 18.2856 24.0456 18.6617 23.6696 19.0377Z" fill="#CA6D92"/>
</g>
<path d="M35.2023 18.202C35.077 19.372 36.8319 19.9152 37.2498 18.202C37.6677 16.4888 35.3277 16.9485 35.2023 18.202Z" fill="white"/>
<path opacity="0.5" d="M36.9991 20.4585C36.8737 21.6285 38.6287 22.1717 39.0466 20.4585C39.4644 18.7453 37.1244 19.2049 36.9991 20.4585Z" fill="white"/>
<path opacity="0.5" d="M48.3646 35.8773C47.9886 38.5098 46.5679 38.6351 46.5679 38.6351C46.9022 37.883 46.9857 36.0862 46.9857 34.373C46.9857 32.4091 46.8604 30.5706 46.8604 30.5706C46.9439 30.6959 48.7407 33.2866 48.3646 35.8773Z" fill="#58395A"/>
<path d="M42.8489 41.0168C42.8489 41.0586 42.8907 41.1004 42.9325 41.1422C43.5592 41.9361 46.6514 43.7747 48.0721 42.2286C49.0331 41.2258 49.4092 40.014 49.5346 39.2619C49.6181 38.7604 49.6181 38.4679 49.6181 38.4679C52.0835 38.1754 54.0474 34.4147 53.8384 33.7462C53.7967 33.6208 53.7131 33.6208 53.5042 33.7044C52.2506 34.4983 48.1974 35.8772 48.4899 30.3616L46.8185 30.6123C47.5289 31.3226 48.7406 36.6294 47.1946 38.1336C45.7321 39.5961 42.5146 40.3065 42.8489 41.0168Z" fill="url(#paint3_linear_3626_692)"/>
<path opacity="0.5" d="M47.7797 31.1555C48.0304 32.0748 49.4511 36.9637 49.66 38.3844C52.1253 38.0919 54.0893 34.3312 53.8803 33.6626C53.8803 33.6626 53.17 36.2115 51.2896 36.5458C49.5347 36.8383 48.0304 32.0748 47.7797 31.1555Z" fill="#58395A"/>
<path opacity="0.5" d="M42.9325 41.1004C43.5593 41.8944 46.6514 43.7329 48.1139 42.1869C49.0749 41.184 49.451 39.9722 49.5764 39.2201C48.5317 41.3511 44.7293 40.3065 43.9353 40.3901C43.1414 40.4737 42.9325 41.1004 42.9325 41.1004Z" fill="#58395A"/>
<path opacity="0.5" d="M47.4873 37.7576C48.7826 36.713 48.9915 38.5515 48.9497 39.3872C48.908 40.2647 47.153 40.6826 45.8158 40.5572C44.4787 40.4319 47.4873 37.7576 47.4873 37.7576Z" fill="white"/>
<path d="M49.66 38.4261C49.66 38.4261 48.9915 40.2647 47.529 40.4318C46.1083 40.6408 44.7294 40.4318 44.7294 40.4318C44.7294 40.4318 46.359 41.0586 47.7797 40.6826C49.2422 40.3483 49.7018 39.3454 49.66 38.4261Z" fill="white"/>
<path d="M53.2535 35.0833C53.2535 35.0833 52.2506 36.3368 51.2896 36.295C50.3703 36.2532 49.6182 35.4175 49.6182 35.4175C49.6182 35.4175 50.4121 36.6293 51.206 36.6293C51.9999 36.6293 53.2535 35.0833 53.2535 35.0833Z" fill="white"/>
<path opacity="0.5" d="M49.66 38.4262C49.66 38.4262 50.3703 37.6741 50.5375 37.1308C50.7046 36.5459 49.3257 35.4177 48.866 34.4566C48.4064 33.4537 48.2393 32.9105 48.2393 32.9105L49.66 38.4262Z" fill="#58395A"/>
<path opacity="0.5" d="M47.7798 37.0891C48.0722 35.3759 47.5708 34.9998 46.9858 34.373C46.9858 32.4091 46.8605 30.5706 46.8605 30.5706C46.944 30.7377 48.6572 34.1641 47.7798 37.0891Z" fill="#58395A"/>
<path opacity="0.5" d="M36.9989 8.59143C37.6675 9.00928 37.7928 10.8896 38.0435 11.6418C38.2942 12.4357 42.1803 12.4357 43.1414 13.2296C44.0606 14.0235 46.0245 15.1935 46.0245 15.1935C46.0245 15.1935 47.3199 14.4414 47.3199 14.1907C47.3199 13.94 47.111 11.0568 46.526 10.3464C45.941 9.63606 36.9989 8.59143 36.9989 8.59143Z" fill="#58395A"/>
<path d="M37.2079 8.17354C38.3362 11.1821 41.9297 11.4328 43.7265 10.9314C45.4815 10.43 50.9553 2.03108 54.4653 4.70534C57.3067 6.87819 55.9696 10.8478 54.2564 13.2296C53.546 14.2324 52.7521 14.9846 52.2089 15.1935C51.6657 15.4024 52.5432 14.1906 52.4178 13.731C52.4178 13.6892 52.376 13.6892 52.3343 13.6892L52.2089 13.731C51.7493 13.9817 50.4957 15.486 50.0778 16.2381C49.5764 17.1156 47.2782 23.8849 46.9022 30.5705L48.6154 30.4452C48.5318 23.3834 55.4264 21.3359 57.9335 19.2467C60.4824 17.1574 60.1063 14.6921 59.7303 14.0653C59.4378 13.6056 58.811 14.4413 58.5603 14.8592C58.5603 14.8592 58.5185 14.901 58.4767 14.9428C58.4349 14.9846 58.4349 15.0263 58.4349 15.0263C58.4349 15.0263 58.4767 14.9846 58.4767 14.9428C58.8528 14.2324 60.8167 10.0121 59.3542 5.4157C59.1871 4.95606 59.0199 4.49643 58.811 4.03679C54.7578 -4.52922 44.5622 3.91142 41.5118 3.91142C38.4615 3.91142 37.7094 1.52966 37.0408 1.23716C36.9572 1.19538 36.8737 1.27895 36.8319 1.48788C36.4976 2.5743 36.9572 7.46319 37.2079 8.17354Z" fill="url(#paint4_linear_3626_692)"/>
<path opacity="0.5" d="M37.2078 8.17352C38.336 11.1821 41.9296 11.4328 43.7263 10.9314C45.4813 10.4299 50.9552 2.03106 54.4652 4.70532C57.3066 6.87816 55.9695 10.8478 54.2563 13.2296C54.4234 13.0624 57.6827 9.55243 57.1812 5.16496C56.638 0.526786 49.7016 5.08139 44.6038 7.88102C39.6314 10.6389 36.9989 1.15356 36.9989 1.15356L36.79 1.40428C36.4975 2.57427 36.9571 7.46317 37.2078 8.17352Z" fill="#58395A"/>
<path d="M52.5849 15.5696C52.5849 15.5696 56.3873 8.88391 54.7159 4.45466C53.0027 -0.141732 45.8156 -0.350662 44.6456 0.234334C44.2278 0.443261 45.4813 4.58001 48.9077 5.62465C52.3341 6.66928 53.5041 9.59426 51.4984 14.8174C49.5345 19.8735 49.451 23.2999 49.451 23.2999C49.451 23.2999 54.7995 19.6228 56.5545 16.1128C58.4348 12.3939 56.6798 10.3882 56.5545 10.2628C56.4709 10.1375 55.9695 14.3996 52.5849 15.5696Z" fill="url(#paint5_linear_3626_692)"/>
<path d="M44.4785 13.7309C44.4785 13.7309 44.5621 13.7727 44.6874 13.7727C45.1471 13.8145 46.4006 13.7309 47.6542 11.2656C49.2421 8.13169 52.0835 7.29598 52.3342 12.3102C52.3342 12.3102 53.2952 9.00918 51.9163 7.04527C50.4956 5.08135 47.0274 3.8278 45.8992 7.75562C44.771 11.6417 44.4785 13.7309 44.4785 13.7309Z" fill="url(#paint6_linear_3626_692)"/>
<path d="M48.7406 28.3142C48.7406 28.3142 50.7463 23.7596 53.8802 23.2999C57.0141 22.8821 58.3512 25.5563 58.602 25.8906C58.8527 26.2249 60.0644 21.5867 57.1812 19.7064C54.2563 17.826 49.7852 21.5032 48.7406 28.3142Z" fill="url(#paint7_linear_3626_692)"/>
<path opacity="0.5" d="M48.7406 28.3141C48.7406 28.3141 50.8717 22.5895 54.3398 21.4613C57.8498 20.3331 58.5602 25.9324 58.5602 25.9324C58.5602 25.9324 57.1813 23.0492 54.1309 23.2999C51.1642 23.5506 48.7406 28.3141 48.7406 28.3141Z" fill="#58395A"/>
<path opacity="0.5" d="M59.6465 14.0653C59.6465 14.0653 58.8108 16.2799 57.2648 17.7842C55.7605 19.2885 54.9248 18.7035 52.6266 19.7899C50.3284 20.8345 48.9495 24.6788 48.3227 27.3531C47.7377 29.9855 48.2809 30.5705 48.2809 30.5705C48.2809 30.5705 49.0748 24.3445 51.373 21.7538C53.7548 19.1213 55.468 19.2885 57.1812 19.7481C57.1812 19.7481 60.7747 17.4081 59.6465 14.0653Z" fill="#58395A"/>
<path opacity="0.5" d="M56.5963 10.2628C56.5963 10.2628 56.8052 12.6446 55.677 15.5278C54.5906 18.3692 53.7966 19.3302 53.7966 19.3302C53.7966 19.3302 59.2705 15.6949 56.5963 10.2628Z" fill="#58395A"/>
<path opacity="0.5" d="M52.5848 15.5696L51.4984 16.5725C51.4984 16.5725 54.7159 11.0986 55.0084 8.54968C55.0502 8.54968 54.5905 11.9761 52.5848 15.5696Z" fill="#58395A"/>
<path opacity="0.5" d="M44.6456 13.7728C45.1053 13.8145 46.3588 13.731 47.6124 11.2656C49.2002 8.13173 52.0416 7.29602 52.2924 12.3103C52.2924 12.3103 52.9609 8.29887 50.2867 7.0871C47.5706 5.83353 47.0692 10.9314 46.4842 12.3103C45.941 13.522 44.9381 13.731 44.6456 13.7728Z" fill="#58395A"/>
<path opacity="0.5" d="M44.6874 0.234375C44.6874 0.234375 48.6571 0.48509 51.0806 2.57436C53.5042 4.62184 52.5849 10.9314 52.5849 10.9314C52.5849 10.9314 52.961 7.75574 51.3313 6.25147C49.7017 4.7472 47.4453 5.45755 47.4453 5.45755C47.4453 5.45755 44.4367 2.53257 44.6874 0.234375Z" fill="#58395A"/>
<path opacity="0.5" d="M52.5848 10.9314C52.5848 10.9314 52.752 6.87819 50.8716 5.87534C48.9913 4.91428 48.9077 1.52966 48.9077 1.52966C48.9077 1.52966 51.2477 1.86394 52.167 4.28749C53.0862 6.66926 52.5848 10.9314 52.5848 10.9314Z" fill="#58395A"/>
<path opacity="0.5" d="M54.131 3.32641C54.131 3.32641 55.8024 2.86678 56.6799 3.9532C57.5574 5.03962 56.5127 8.63316 56.3038 9.05102C56.0949 9.46887 56.262 7.25424 55.6353 6.16782C54.9667 5.0814 54.8831 4.91425 54.8831 4.91425C54.8831 4.91425 54.4235 3.61891 54.131 3.32641Z" fill="#58395A"/>
<path opacity="0.5" d="M46.1081 7.04541C46.1081 7.04541 43.7263 8.42433 43.016 8.71683C42.3474 9.00932 41.9296 11.1404 41.9296 11.1404C41.9296 11.1404 43.1831 11.0986 43.9771 10.7225C44.771 10.3882 45.3142 9.6779 45.3142 9.6779C45.3142 9.6779 45.941 7.37969 46.1081 7.04541Z" fill="#58395A"/>
<path opacity="0.5" d="M51.1224 8.96749C51.791 9.25999 51.206 7.37965 49.8689 6.9618C48.5317 6.50216 47.6542 8.6332 47.4035 9.30177C47.1946 10.0121 47.8632 10.0539 48.49 9.67785C49.1167 9.30178 49.4928 8.29892 51.1224 8.96749Z" fill="#58395A"/>
<path opacity="0.5" d="M58.1842 18.9541C58.6856 18.4109 57.5156 18.1602 56.0531 18.6199C54.5906 19.0795 53.7131 19.372 53.7131 19.372C53.7131 19.372 54.3817 19.2884 55.4681 19.2048C56.5545 19.1213 57.2231 19.6645 57.2231 19.6645C57.2231 19.6645 57.9335 19.2048 58.1842 18.9541Z" fill="#58395A"/>
<path opacity="0.5" d="M58.602 25.807C58.602 25.807 58.0588 22.7149 56.7635 21.8792C55.4681 21.0017 53.1281 23.0074 52.9192 23.3416C52.7103 23.6759 54.2981 22.9238 55.9695 23.5506C57.641 24.1774 58.602 25.807 58.602 25.807Z" fill="#58395A"/>
<path opacity="0.5" d="M56.3456 17.5753C57.0559 16.7814 58.1006 15.3607 58.3931 14.9428C58.7691 14.2325 60.733 10.0122 59.2706 5.41577C59.9391 10.8479 56.3456 17.5753 56.3456 17.5753Z" fill="#58395A"/>
<path opacity="0.5" d="M59.3541 6.16784C59.0198 8.59139 57.9752 4.20393 56.2202 3.49358C54.4234 2.78323 51.7074 1.23717 51.7074 1.23717C51.7074 1.23717 54.4652 -0.476027 56.9724 1.52967C59.3959 3.53537 59.3541 6.16784 59.3541 6.16784Z" fill="white"/>
<path opacity="0.5" d="M55.1756 7.33791C54.8831 9.42718 53.3789 7.46326 52.4596 4.95614C51.4985 2.40723 50.1614 1.52975 50.1614 1.52975C50.1614 1.52975 55.0921 0.944749 55.1756 7.33791Z" fill="white"/>
<path opacity="0.5" d="M50.4957 5.6664C50.9971 6.12604 49.2003 6.37675 48.4064 7.29603C47.5707 8.21531 47.4454 9.09279 46.2754 9.51065C45.1054 9.97029 46.1082 6.54389 46.9439 5.83354C47.6961 5.16497 50.0778 5.33212 50.4957 5.6664Z" fill="white"/>
<path opacity="0.5" d="M43.5174 8.3407C45.0635 7.54677 43.5174 5.83357 41.3446 4.58001C39.13 3.28466 37.7928 2.74146 37.7928 2.74146C37.7928 2.74146 38.6703 8.08998 43.5174 8.3407Z" fill="white"/>
<path opacity="0.5" d="M53.2534 15.2771C54.298 14.7757 54.7577 16.4471 54.2562 17.8678C53.7548 19.2885 51.9163 19.6645 50.997 20.8345C50.1195 22.0045 50.4956 19.2049 50.7463 17.8678C51.0805 16.5306 53.2534 15.2771 53.2534 15.2771Z" fill="white"/>
<path opacity="0.5" d="M58.3513 21.127C58.9362 22.297 57.5573 21.2524 55.4263 21.2942C53.2952 21.336 50.9135 23.8431 50.9135 23.8431C50.9135 23.8431 52.0834 20.1242 54.2145 19.6645C56.3038 19.2049 57.808 20.0824 58.3513 21.127Z" fill="white"/>
<path d="M52.7102 9.46887C52.7102 9.46887 53.2952 5.24855 52.0834 3.20107C50.8716 1.1118 47.4034 0.735718 47.4034 0.735718C47.4034 0.735718 50.997 1.655 51.8745 3.53534C52.7102 5.41569 52.7102 9.46887 52.7102 9.46887Z" fill="white"/>
<path d="M45.6068 7.3379C45.6068 7.3379 43.7682 8.5079 41.7625 8.00647C39.7568 7.46326 38.7958 5.41577 38.7958 5.41577C38.7958 5.41577 40.0076 7.88111 42.055 8.38254C44.019 8.84218 45.6068 7.3379 45.6068 7.3379Z" fill="white"/>
<path d="M51.3731 7.88103C51.3731 7.88103 50.412 6.54389 49.1167 6.58568C47.8213 6.66925 46.9438 10.9314 46.9438 10.9314C46.9438 10.9314 47.696 7.79746 48.7406 7.25424C49.7435 6.66925 50.3703 6.96175 51.3731 7.88103Z" fill="white"/>
<path d="M57.1813 6.58566C57.1813 6.58566 57.432 4.53818 56.7217 3.49355C56.0531 2.44891 54.131 3.28462 54.131 3.28462C54.131 3.28462 55.7606 2.82498 56.5127 3.74426C57.2649 4.66354 57.1813 6.58566 57.1813 6.58566Z" fill="white"/>
<path opacity="0.5" d="M59.6466 14.0653C59.6466 14.0653 58.8945 15.7785 57.9334 17.0321C57.0141 18.2856 55.8024 18.7453 55.8024 18.7453C55.8024 18.7453 58.5602 16.5306 59.6466 14.0653Z" fill="white"/>
<path opacity="0.5" d="M56.5963 10.2628C56.5963 10.2628 56.6799 12.2685 56.0949 14.2742C55.5517 16.2799 54.5488 18.0767 54.5488 18.0767C54.5488 18.0767 56.5127 14.1071 56.5963 10.2628Z" fill="white"/>
<path d="M57.4737 22.7149C57.4737 22.7149 56.9305 21.4196 55.5516 21.0017C54.1727 20.5839 52.167 22.8821 52.167 22.8821C52.167 22.8821 53.6713 21.3778 55.2173 21.336C56.8052 21.2524 57.4737 22.7149 57.4737 22.7149Z" fill="white"/>
<path d="M42.8489 8.38252C43.3085 8.25716 42.0549 7.63038 41.4282 7.67216C40.7596 7.75573 42.0549 8.63323 42.8489 8.38252Z" fill="white"/>
<path d="M51.9581 3.70247C52.3759 3.82783 52.2924 2.57427 51.4567 2.03106C50.621 1.52963 51.9581 3.70247 51.9581 3.70247Z" fill="white"/>
<path d="M49.3255 6.91997C49.7434 6.71104 48.9495 6.29319 48.2809 6.87818C47.6541 7.46318 49.3255 6.91997 49.3255 6.91997Z" fill="white"/>
<path d="M56.1784 21.4613C56.638 21.5866 56.053 20.6256 55.3009 20.6673C54.5905 20.7091 54.507 21.2941 54.883 21.2941C55.2173 21.3359 56.1784 21.4613 56.1784 21.4613Z" fill="white"/>
<path opacity="0.5" d="M56.5962 10.2629C56.638 9.13466 57.4737 6.92004 57.4737 6.12611C57.4737 5.33219 58.393 7.04538 58.9362 7.46324C59.4794 7.88109 58.8108 11.3075 58.3094 12.8118C57.7662 14.316 57.3483 11.7671 57.1812 11.0986C57.014 10.4718 56.5962 10.2629 56.5962 10.2629Z" fill="#58395A"/>
<path opacity="0.5" d="M46.9438 28.9827C46.9438 28.9827 46.0664 34.2058 45.7739 35.6265C45.4814 37.0472 45.1053 38.5097 44.4785 39.0529C43.8517 39.5962 43.3921 39.5962 43.3921 39.5962C43.3921 39.5962 46.0246 39.5126 46.6514 38.3844C47.2781 37.2562 46.9438 28.9827 46.9438 28.9827Z" fill="#58395A"/>
<path opacity="0.5" d="M11.5519 35.8773C11.928 38.5098 13.3487 38.6351 13.3487 38.6351C13.0144 37.883 12.9308 36.0862 12.9308 34.373C12.9308 32.4091 13.0562 30.5706 13.0562 30.5706C12.9726 30.6959 11.1759 33.2866 11.5519 35.8773Z" fill="#58395A"/>
<path d="M17.0676 41.0168C17.0676 41.0586 17.0258 41.1004 16.984 41.1422C16.3572 41.9361 13.2651 43.7747 11.8444 42.2286C10.8833 41.2258 10.5073 40.014 10.3819 39.2619C10.2983 38.7604 10.2983 38.4679 10.2983 38.4679C7.83299 38.1754 5.86908 34.4147 6.078 33.7462C6.11979 33.6208 6.20336 33.6208 6.41229 33.7044C7.66585 34.4983 11.719 35.8772 11.4265 30.3616L13.0979 30.6123C12.3876 31.3226 11.1758 36.6294 12.7219 38.1336C14.1844 39.5961 17.4018 40.3065 17.0676 41.0168Z" fill="url(#paint8_linear_3626_692)"/>
<path opacity="0.5" d="M12.1369 31.1555C11.8862 32.0748 10.4655 36.9637 10.2566 38.3844C7.79124 38.0919 5.82733 34.3312 6.03625 33.6626C6.03625 33.6626 6.7466 36.2115 8.62695 36.5458C10.3401 36.8383 11.8862 32.0748 12.1369 31.1555Z" fill="#58395A"/>
<path opacity="0.5" d="M16.984 41.1004C16.3572 41.8944 13.2651 43.7329 11.8026 42.1869C10.8415 41.184 10.4654 39.9722 10.3401 39.2201C11.3847 41.3511 15.1872 40.3065 15.9811 40.3901C16.775 40.4737 16.984 41.1004 16.984 41.1004Z" fill="#58395A"/>
<path opacity="0.5" d="M12.4293 37.7576C11.134 36.713 10.9251 38.5515 10.9669 39.3872C11.0086 40.2647 12.7636 40.6826 14.1008 40.5572C15.4379 40.4319 12.4293 37.7576 12.4293 37.7576Z" fill="white"/>
<path d="M10.2566 38.4261C10.2566 38.4261 10.9252 40.2647 12.3877 40.4318C13.8084 40.6408 15.1873 40.4318 15.1873 40.4318C15.1873 40.4318 13.5577 41.0586 12.1369 40.6826C10.6745 40.3483 10.2148 39.3454 10.2566 38.4261Z" fill="white"/>
<path d="M6.66309 35.0833C6.66309 35.0833 7.66593 36.3368 8.627 36.295C9.58806 36.2532 10.2984 35.4175 10.2984 35.4175C10.2984 35.4175 9.50449 36.6293 8.71057 36.6293C7.91665 36.6293 6.66309 35.0833 6.66309 35.0833Z" fill="white"/>
<path opacity="0.5" d="M10.2566 38.4262C10.2566 38.4262 9.54622 37.6741 9.37908 37.1308C9.21194 36.5459 10.5909 35.4177 11.0505 34.4566C11.5101 33.4537 11.6773 32.9105 11.6773 32.9105L10.2566 38.4262Z" fill="#58395A"/>
<path opacity="0.5" d="M12.1369 37.0891C11.8444 35.3759 12.3458 34.9998 12.9308 34.373C12.9308 32.4091 13.0561 30.5706 13.0561 30.5706C12.9726 30.7377 11.2594 34.1641 12.1369 37.0891Z" fill="#58395A"/>
<path opacity="0.5" d="M22.9174 8.59143C22.2489 9.00928 22.1235 10.8896 21.8728 11.6418C21.6221 12.4357 17.736 12.4357 16.775 13.2296C15.8557 14.0235 13.8918 15.1935 13.8918 15.1935C13.8918 15.1935 12.5964 14.4414 12.5964 14.1907C12.5964 13.94 12.8054 11.0568 13.3904 10.3464C13.9754 9.63606 22.9174 8.59143 22.9174 8.59143Z" fill="#58395A"/>
<path d="M22.7084 8.17354C21.5802 11.1821 17.9867 11.4328 16.1899 10.9314C14.4349 10.43 8.96105 2.03108 5.45108 4.70534C2.60967 6.87819 3.94681 10.8478 5.66001 13.2296C6.37036 14.2324 7.16428 14.9846 7.70749 15.1935C8.2507 15.4024 7.37321 14.1906 7.49857 13.731C7.49857 13.6892 7.54035 13.6892 7.58213 13.6892L7.70749 13.731C8.16713 13.9817 9.42069 15.486 9.83855 16.2381C10.34 17.1156 12.6382 23.8849 13.0142 30.5705L11.301 30.4452C11.4682 23.3834 4.57359 21.2942 2.06646 19.2467C-0.482445 17.1574 -0.106376 14.6921 0.269693 14.0653C0.562191 13.6056 1.18897 14.4413 1.43968 14.8592C1.43968 14.8592 1.48147 14.901 1.52325 14.9428C1.56504 14.9846 1.56504 15.0263 1.56504 15.0263C1.56504 15.0263 1.52325 14.9846 1.52325 14.9428C1.14719 14.2324 -0.816728 10.0121 0.64576 5.4157C0.812902 4.95606 0.980045 4.49643 1.18897 4.03679C5.24215 -4.52922 15.4378 3.91142 18.4881 3.91142C21.5385 3.91142 22.2906 1.52966 22.9592 1.23716C23.0427 1.19538 23.1263 1.27895 23.1681 1.48788C23.4188 2.5743 22.9592 7.46319 22.7084 8.17354Z" fill="url(#paint9_linear_3626_692)"/>
<path opacity="0.5" d="M22.7085 8.17352C21.5803 11.1821 17.9868 11.4328 16.19 10.9314C14.435 10.4299 8.96115 2.03106 5.45117 4.70532C2.60977 6.87816 3.9469 10.8478 5.6601 13.2296C5.49296 13.0624 2.2337 9.55243 2.73512 5.16496C3.27833 0.526786 10.2147 5.08139 15.3125 7.88102C20.285 10.6389 22.9175 1.15356 22.9175 1.15356L23.1264 1.40428C23.4189 2.57427 22.9593 7.46317 22.7085 8.17352Z" fill="#58395A"/>
<path d="M7.33144 15.5696C7.33144 15.5696 3.52897 8.88391 5.20039 4.45466C6.91359 -0.141732 14.1007 -0.350662 15.2707 0.234334C15.6885 0.443261 14.435 4.58001 11.0086 5.62465C7.58215 6.66928 6.41216 9.59426 8.41786 14.8174C10.3818 19.8735 10.4653 23.2999 10.4653 23.2999C10.4653 23.2999 5.11681 19.6228 3.36183 16.1128C1.48148 12.3939 3.23647 10.3882 3.36183 10.2628C3.4454 10.1375 3.90504 14.3996 7.33144 15.5696Z" fill="url(#paint10_linear_3626_692)"/>
<path d="M15.4378 13.7309C15.4378 13.7309 15.3543 13.7727 15.2289 13.7727C14.7693 13.8145 13.5157 13.7309 12.2622 11.2656C10.6743 8.13169 7.83291 7.29598 7.58219 12.3102C7.58219 12.3102 6.62113 9.00918 8.00005 7.04527C9.42075 5.08135 12.8889 3.8278 14.0171 7.75562C15.1454 11.6417 15.4378 13.7309 15.4378 13.7309Z" fill="url(#paint11_linear_3626_692)"/>
<path d="M11.1757 28.3142C11.1757 28.3142 9.16999 23.7596 6.03609 23.2999C2.90218 22.8821 1.56505 25.5563 1.31434 25.8906C1.06363 26.2249 -0.148152 21.5867 2.73504 19.7064C5.66002 17.826 10.1311 21.5032 11.1757 28.3142Z" fill="url(#paint12_linear_3626_692)"/>
<path opacity="0.5" d="M11.1756 28.3141C11.1756 28.3141 9.04459 22.5895 5.5764 21.4613C2.06643 20.3331 1.35608 25.9324 1.35608 25.9324C1.35608 25.9324 2.735 23.0492 5.78533 23.2999C8.75209 23.5506 11.1756 28.3141 11.1756 28.3141Z" fill="#58395A"/>
<path opacity="0.5" d="M0.269762 14.0653C0.269762 14.0653 1.10547 16.2799 2.65153 17.7842C4.1558 19.2885 4.99151 18.7035 7.28971 19.7899C9.5879 20.8345 10.9668 24.6788 11.5936 27.3531C12.1786 29.9855 11.6354 30.5705 11.6354 30.5705C11.6354 30.5705 10.8415 24.3445 8.54327 21.7538C6.1615 19.1213 4.4483 19.2885 2.7351 19.7481C2.7351 19.7481 -0.858443 17.4081 0.269762 14.0653Z" fill="#58395A"/>
<path opacity="0.5" d="M3.31996 10.2628C3.31996 10.2628 3.11104 12.6446 4.23924 15.5278C5.32566 18.3692 6.11958 19.3302 6.11958 19.3302C6.11958 19.3302 0.645698 15.6949 3.31996 10.2628Z" fill="#58395A"/>
<path opacity="0.5" d="M7.33137 15.5696L8.41779 16.5725C8.41779 16.5725 5.20031 11.0986 4.90781 8.54968C4.86603 8.54968 5.32567 11.9761 7.33137 15.5696Z" fill="#58395A"/>
<path opacity="0.5" d="M15.2707 13.7728C14.8111 13.8145 13.5575 13.731 12.3039 11.2656C10.7161 8.13173 7.87468 7.29602 7.62397 12.3103C7.62397 12.3103 6.9554 8.29887 9.62967 7.0871C12.3457 5.83353 12.8471 10.9314 13.4321 12.3103C13.9753 13.522 14.9364 13.731 15.2707 13.7728Z" fill="#58395A"/>
<path opacity="0.5" d="M15.2288 0.234375C15.2288 0.234375 11.2592 0.48509 8.83561 2.57436C6.41206 4.62184 7.33134 10.9314 7.33134 10.9314C7.33134 10.9314 6.95527 7.75574 8.5849 6.25147C10.2145 4.7472 12.4709 5.45755 12.4709 5.45755C12.4709 5.45755 15.4795 2.53257 15.2288 0.234375Z" fill="#58395A"/>
<path opacity="0.5" d="M7.33144 10.9314C7.33144 10.9314 7.1643 6.87819 9.04464 5.87534C10.925 4.91428 11.0086 1.52966 11.0086 1.52966C11.0086 1.52966 8.66857 1.86394 7.74929 4.28749C6.83002 6.66926 7.33144 10.9314 7.33144 10.9314Z" fill="#58395A"/>
<path opacity="0.5" d="M5.74353 3.32641C5.74353 3.32641 4.07212 2.86678 3.19462 3.9532C2.31713 5.03962 3.36176 8.63316 3.57069 9.05102C3.77962 9.46887 3.61248 7.25424 4.23926 6.16782C4.90782 5.0814 4.9914 4.91425 4.9914 4.91425C4.9914 4.91425 5.49282 3.61891 5.74353 3.32641Z" fill="#58395A"/>
<path opacity="0.5" d="M13.7664 7.04541C13.7664 7.04541 16.1481 8.42433 16.8585 8.71683C17.527 9.00932 17.9449 11.1404 17.9449 11.1404C17.9449 11.1404 16.6913 11.0986 15.8974 10.7225C15.1035 10.3882 14.5603 9.6779 14.5603 9.6779C14.5603 9.6779 13.9335 7.37969 13.7664 7.04541Z" fill="#58395A"/>
<path opacity="0.5" d="M8.7939 8.96749C8.12534 9.25999 8.71033 7.37965 10.0475 6.9618C11.3846 6.50216 12.2621 8.6332 12.5128 9.30177C12.7217 10.0121 12.0532 10.0539 11.4264 9.67785C10.7996 9.30178 10.4235 8.29892 8.7939 8.96749Z" fill="#58395A"/>
<path opacity="0.5" d="M1.7321 18.9541C1.23068 18.4109 2.40067 18.1602 3.86316 18.6199C5.32565 19.0795 6.20314 19.372 6.20314 19.372C6.20314 19.372 5.53458 19.2884 4.44816 19.2048C3.36174 19.1213 2.69317 19.6645 2.69317 19.6645C2.69317 19.6645 1.94103 19.2048 1.7321 18.9541Z" fill="#58395A"/>
<path opacity="0.5" d="M1.31433 25.807C1.31433 25.807 1.85754 22.7149 3.15289 21.8792C4.44823 21.0017 6.78822 23.0074 6.99715 23.3416C7.20607 23.6759 5.61823 22.9238 3.94681 23.5506C2.27539 24.1774 1.31433 25.807 1.31433 25.807Z" fill="#58395A"/>
<path opacity="0.5" d="M3.57068 17.5753C2.86033 16.7814 1.8157 15.3607 1.5232 14.9428C1.14713 14.2325 -0.816781 10.0122 0.645707 5.41577C-0.0646444 10.8479 3.57068 17.5753 3.57068 17.5753Z" fill="#58395A"/>
<path opacity="0.5" d="M0.56218 6.16784C0.896463 8.59139 1.9411 4.20393 3.69608 3.49358C5.49286 2.78323 8.2089 1.23717 8.2089 1.23717C8.2089 1.23717 5.45107 -0.476027 2.94395 1.52967C0.520393 3.53537 0.56218 6.16784 0.56218 6.16784Z" fill="white"/>
<path opacity="0.5" d="M4.74072 7.33791C5.03322 9.42718 6.53749 7.46326 7.45677 4.95614C8.41784 2.40723 9.75497 1.52975 9.75497 1.52975C9.75497 1.52975 4.82429 0.944749 4.74072 7.33791Z" fill="white"/>
<path opacity="0.5" d="M9.42068 5.6664C8.91925 6.12604 10.716 6.37675 11.5099 7.29603C12.3457 8.21531 12.471 9.09279 13.641 9.51065C14.811 9.97029 13.8081 6.54389 12.9724 5.83354C12.1785 5.16497 9.83853 5.33212 9.42068 5.6664Z" fill="white"/>
<path opacity="0.5" d="M16.3989 8.3407C14.8528 7.54677 16.3989 5.83357 18.5717 4.58001C20.7863 3.28466 22.1235 2.74146 22.1235 2.74146C22.1235 2.74146 21.246 8.08998 16.3989 8.3407Z" fill="white"/>
<path opacity="0.5" d="M6.6211 15.2771C5.57647 14.7757 5.11683 16.4471 5.61825 17.8678C6.11968 19.2885 7.95823 19.6645 8.87751 20.8345C9.75501 22.0045 9.37894 19.2049 9.12822 17.8678C8.83573 16.5306 6.6211 15.2771 6.6211 15.2771Z" fill="white"/>
<path opacity="0.5" d="M1.56505 21.127C0.980056 22.297 2.35897 21.2524 4.49003 21.2942C6.62108 21.336 9.00285 23.8431 9.00285 23.8431C9.00285 23.8431 7.83286 20.1242 5.7018 19.6645C3.57075 19.2049 2.10826 20.0824 1.56505 21.127Z" fill="white"/>
<path d="M7.2061 9.46887C7.2061 9.46887 6.62111 5.24855 7.83288 3.20107C9.04466 1.1118 12.5128 0.735718 12.5128 0.735718C12.5128 0.735718 8.9193 1.655 8.04181 3.53534C7.16432 5.41569 7.2061 9.46887 7.2061 9.46887Z" fill="white"/>
<path d="M14.3096 7.3379C14.3096 7.3379 16.1481 8.5079 18.1538 8.00647C20.1595 7.46326 21.1206 5.41577 21.1206 5.41577C21.1206 5.41577 19.9088 7.88111 17.8613 8.38254C15.8974 8.84218 14.3096 7.3379 14.3096 7.3379Z" fill="white"/>
<path d="M8.54321 7.88103C8.54321 7.88103 9.50428 6.54389 10.7996 6.58568C12.095 6.66925 12.9725 10.9314 12.9725 10.9314C12.9725 10.9314 12.2203 7.79746 11.1757 7.25424C10.1728 6.66925 9.50428 6.96175 8.54321 7.88103Z" fill="white"/>
<path d="M2.73494 6.58566C2.73494 6.58566 2.48423 4.53818 3.19458 3.49355C3.86315 2.44891 5.78528 3.28462 5.78528 3.28462C5.78528 3.28462 4.15565 2.82498 3.40351 3.74426C2.60959 4.66354 2.73494 6.58566 2.73494 6.58566Z" fill="white"/>
<path opacity="0.5" d="M0.269775 14.0653C0.269775 14.0653 1.02191 15.7785 1.98298 17.0321C2.90225 18.2856 4.11403 18.7453 4.11403 18.7453C4.11403 18.7453 1.3562 16.5306 0.269775 14.0653Z" fill="white"/>
<path opacity="0.5" d="M3.32004 10.2628C3.32004 10.2628 3.23647 12.2685 3.82147 14.2742C4.36468 16.2799 5.36753 18.0767 5.36753 18.0767C5.36753 18.0767 3.36183 14.1071 3.32004 10.2628Z" fill="white"/>
<path d="M2.4425 22.7149C2.4425 22.7149 2.98571 21.4196 4.36463 21.0017C5.74355 20.5839 7.74925 22.8821 7.74925 22.8821C7.74925 22.8821 6.24497 21.3778 4.69892 21.336C3.11107 21.2524 2.4425 22.7149 2.4425 22.7149Z" fill="white"/>
<path d="M17.0674 8.38252C16.6077 8.25716 17.8613 7.63038 18.4881 7.67216C19.1148 7.75573 17.8613 8.63323 17.0674 8.38252Z" fill="white"/>
<path d="M7.95827 3.70247C7.54042 3.82783 7.62399 2.57427 8.4597 2.03106C9.2954 1.52963 7.95827 3.70247 7.95827 3.70247Z" fill="white"/>
<path d="M10.5906 6.91997C10.1728 6.71104 10.9667 6.29319 11.6353 6.87818C12.262 7.46318 10.5906 6.91997 10.5906 6.91997Z" fill="white"/>
<path d="M3.73782 21.4613C3.27818 21.5866 3.86318 20.6256 4.61531 20.6673C5.32567 20.7091 5.40924 21.2941 5.03317 21.2941C4.6571 21.3359 3.73782 21.4613 3.73782 21.4613Z" fill="white"/>
<path opacity="0.5" d="M3.32004 10.2629C3.27825 9.13466 2.44255 6.92004 2.44255 6.12611C2.44255 5.33219 1.52327 7.04538 0.980058 7.46324C0.436848 7.88109 1.10541 11.3075 1.60684 12.8118C2.15005 14.316 2.5679 11.7671 2.73504 11.0986C2.90219 10.4718 3.32004 10.2629 3.32004 10.2629Z" fill="#58395A"/>
<path opacity="0.5" d="M12.9307 28.9827C12.9307 28.9827 13.8082 34.2058 14.1007 35.6265C14.3932 37.0472 14.7692 38.5097 15.396 39.0529C16.0228 39.5962 16.4824 39.5962 16.4824 39.5962C16.4824 39.5962 13.8499 39.5126 13.2232 38.3844C12.6382 37.2562 12.9307 28.9827 12.9307 28.9827Z" fill="#58395A"/>
<path opacity="0.5" d="M45.1473 32.7016C44.6876 32.7851 44.5623 33.5791 44.9383 33.8716C45.3144 34.1223 45.983 32.5344 45.1473 32.7016Z" fill="#58395A"/>
<path opacity="0.5" d="M44.98 32.7434C44.7293 32.9523 44.8547 33.4119 45.0218 33.4537C45.189 33.4955 45.6486 33.0776 45.5232 32.8269C45.3979 32.5762 45.0636 32.6598 44.98 32.7434Z" fill="#58395A"/>
<path d="M44.8547 33.7462C44.7294 33.3702 45.0637 33.6209 45.3144 33.5373C45.5233 33.4537 45.1054 34.2059 44.8547 33.7462Z" fill="white"/>
<path d="M51.8746 1.61328C52.4179 1.279 53.3789 1.78043 53.9639 2.74149C54.5489 3.70256 54.6325 4.74718 54.0893 5.12325C53.5461 5.45754 52.585 4.95612 52 3.99505C51.3732 3.03399 51.3314 1.94757 51.8746 1.61328Z" fill="url(#paint13_radial_3626_692)"/>
<path d="M56.0113 1.19542C56.5546 0.861132 57.4738 1.40434 58.0588 2.40719C58.6438 3.41004 58.6438 4.45468 58.1006 4.78896C57.5574 5.12325 56.6381 4.58004 56.0531 3.57719C55.4681 2.57434 55.4681 1.5297 56.0113 1.19542Z" fill="url(#paint14_radial_3626_692)"/>
<path d="M47.6543 5.4993C48.2811 5.70823 48.49 6.71107 48.1557 7.83928C47.8214 8.9257 47.0275 9.67784 46.4425 9.46892C45.8157 9.25999 45.6068 8.25714 45.9411 7.12893C46.2336 6.04251 47.0275 5.33216 47.6543 5.4993Z" fill="url(#paint15_radial_3626_692)"/>
<path d="M57.9753 22.1717C57.5993 22.6731 56.5128 22.5477 55.6353 21.8374C54.7161 21.127 54.2982 20.166 54.7161 19.6645C55.0921 19.1631 56.1786 19.2885 57.0561 19.9988C57.9753 20.7092 58.3932 21.6702 57.9753 22.1717Z" fill="url(#paint16_radial_3626_692)"/>
<path d="M46.1918 37.7576C46.2336 38.3844 45.0218 39.0112 43.434 39.1366C41.8461 39.2619 40.5508 38.8441 40.509 38.1755C40.4672 37.5487 41.679 36.9219 43.2668 36.7966C44.8547 36.6712 46.15 37.1308 46.1918 37.7576Z" fill="url(#paint17_radial_3626_692)"/>
<path d="M49.1586 37.7158C49.5765 38.2172 49.2004 39.22 48.3229 39.9304C47.4454 40.6825 46.4008 40.8497 45.983 40.3482C45.5651 39.8468 45.9412 38.844 46.8187 38.1336C47.6962 37.4233 48.7408 37.2143 49.1586 37.7158Z" fill="url(#paint18_radial_3626_692)"/>
<path d="M8.04177 1.73865C7.49856 1.40437 6.5375 1.90578 5.95251 2.86685C5.36751 3.82791 5.28394 4.87255 5.82715 5.24862C6.37036 5.5829 7.33142 5.08147 7.91642 4.12041C8.5432 3.15935 8.58499 2.11472 8.04177 1.73865Z" fill="url(#paint19_radial_3626_692)"/>
<path d="M3.90505 1.36253C3.36184 1.02825 2.44256 1.57147 1.85757 2.57432C1.27257 3.57716 1.27257 4.62179 1.81578 4.95607C2.35899 5.29036 3.27827 4.74715 3.86327 3.7443C4.44826 2.74145 4.44826 1.65503 3.90505 1.36253Z" fill="url(#paint20_radial_3626_692)"/>
<path d="M12.2621 5.66651C11.6353 5.87543 11.4264 6.87829 11.7607 8.00649C12.095 9.09291 12.8889 9.84505 13.4739 9.63612C14.1007 9.42719 14.3096 8.42434 13.9753 7.29613C13.6828 6.20971 12.8889 5.45758 12.2621 5.66651Z" fill="url(#paint21_radial_3626_692)"/>
<path d="M1.81568 22.1717C2.19174 22.6731 3.27816 22.5477 4.15566 21.8374C5.07494 21.127 5.49279 20.166 5.07494 19.6645C4.69887 19.1631 3.61245 19.2885 2.73495 19.9988C1.81567 20.7092 1.39782 21.6702 1.81568 22.1717Z" fill="url(#paint22_radial_3626_692)"/>
<path d="M10.7579 37.8412C10.34 38.3426 10.7161 39.3455 11.5936 40.0558C12.4711 40.8079 13.5157 40.9751 13.9336 40.4737C14.3514 39.9722 13.9753 38.9694 13.0978 38.259C12.2203 37.5487 11.1757 37.3815 10.7579 37.8412Z" fill="url(#paint23_radial_3626_692)"/>
<path d="M27.5974 12.8535C31.1051 12.8535 33.9487 11.4504 33.9487 9.7196C33.9487 7.98879 31.1051 6.58569 27.5974 6.58569C24.0896 6.58569 21.246 7.98879 21.246 9.7196C21.246 11.4504 24.0896 12.8535 27.5974 12.8535Z" fill="url(#paint24_radial_3626_692)"/>
<defs>
<linearGradient id="paint0_linear_3626_692" x1="29.9633" y1="42.0635" x2="29.9633" y2="8.2402" gradientUnits="userSpaceOnUse">
<stop stop-color="#D7A28B"/>
<stop offset="0.2151" stop-color="#8E6A81"/>
<stop offset="0.4716" stop-color="#B9A3B0"/>
<stop offset="0.7109" stop-color="#DCD1D7"/>
<stop offset="0.8944" stop-color="#F2EDEE"/>
<stop offset="1" stop-color="#FAF8F7"/>
</linearGradient>
<linearGradient id="paint1_linear_3626_692" x1="29.9634" y1="40.8434" x2="29.9634" y2="9.45617" gradientUnits="userSpaceOnUse">
<stop stop-color="#E2D7D2"/>
<stop offset="0.1284" stop-color="#DACCC8"/>
<stop offset="0.3513" stop-color="#C4B0AD"/>
<stop offset="0.64" stop-color="#A18281"/>
<stop offset="0.8911" stop-color="#7E5555"/>
<stop offset="1" stop-color="#451E32"/>
</linearGradient>
<linearGradient id="paint2_linear_3626_692" x1="29.9687" y1="38.7021" x2="29.9687" y2="11.5889" gradientUnits="userSpaceOnUse">
<stop stop-color="#1434A3"/>
<stop offset="0.3492" stop-color="#221791"/>
<stop offset="0.4773" stop-color="#2733AC"/>
<stop offset="0.7129" stop-color="#3060D9"/>
<stop offset="0.895" stop-color="#367CF5"/>
<stop offset="1" stop-color="#3887FF"/>
</linearGradient>
<linearGradient id="paint3_linear_3626_692" x1="47.4614" y1="42.806" x2="47.4614" y2="30.3107" gradientUnits="userSpaceOnUse">
<stop stop-color="#7E5555"/>
<stop offset="0.5922" stop-color="#E2D9D8"/>
<stop offset="1" stop-color="#7E5555"/>
</linearGradient>
<linearGradient id="paint4_linear_3626_692" x1="48.2981" y1="30.5525" x2="48.2981" y2="0.151706" gradientUnits="userSpaceOnUse">
<stop stop-color="#D7A282"/>
<stop offset="0.2151" stop-color="#916F77"/>
<stop offset="0.3302" stop-color="#A08288"/>
<stop offset="0.6325" stop-color="#C4B0B0"/>
<stop offset="0.8657" stop-color="#DACCC9"/>
<stop offset="1" stop-color="#E2D7D2"/>
</linearGradient>
<linearGradient id="paint5_linear_3626_692" x1="51.032" y1="23.3261" x2="51.032" y2="0.00196578" gradientUnits="userSpaceOnUse">
<stop stop-color="#D7A282"/>
<stop offset="0.2151" stop-color="#916F77"/>
<stop offset="0.3302" stop-color="#A08288"/>
<stop offset="0.6325" stop-color="#C4B0B0"/>
<stop offset="0.8657" stop-color="#DACCC9"/>
<stop offset="1" stop-color="#E2D7D2"/>
</linearGradient>
<linearGradient id="paint6_linear_3626_692" x1="48.5521" y1="13.79" x2="48.5521" y2="5.18072" gradientUnits="userSpaceOnUse">
<stop stop-color="#D7A282"/>
<stop offset="0.2151" stop-color="#916F77"/>
<stop offset="0.3302" stop-color="#A08288"/>
<stop offset="0.6325" stop-color="#C4B0B0"/>
<stop offset="0.8657" stop-color="#DACCC9"/>
<stop offset="1" stop-color="#E2D7D2"/>
</linearGradient>
<linearGradient id="paint7_linear_3626_692" x1="53.9087" y1="28.3311" x2="53.9087" y2="19.2363" gradientUnits="userSpaceOnUse">
<stop stop-color="#D7A282"/>
<stop offset="0.2151" stop-color="#916F77"/>
<stop offset="0.3302" stop-color="#A08288"/>
<stop offset="0.6325" stop-color="#C4B0B0"/>
<stop offset="0.8657" stop-color="#DACCC9"/>
<stop offset="1" stop-color="#E2D7D2"/>
</linearGradient>
<linearGradient id="paint8_linear_3626_692" x1="12.445" y1="42.806" x2="12.445" y2="30.3107" gradientUnits="userSpaceOnUse">
<stop stop-color="#7E5555"/>
<stop offset="0.5922" stop-color="#E2D9D8"/>
<stop offset="1" stop-color="#7E5555"/>
</linearGradient>
<linearGradient id="paint9_linear_3626_692" x1="11.6083" y1="30.5525" x2="11.6083" y2="0.151706" gradientUnits="userSpaceOnUse">
<stop stop-color="#D7A282"/>
<stop offset="0.2151" stop-color="#916F77"/>
<stop offset="0.3302" stop-color="#A08288"/>
<stop offset="0.6325" stop-color="#C4B0B0"/>
<stop offset="0.8657" stop-color="#DACCC9"/>
<stop offset="1" stop-color="#E2D7D2"/>
</linearGradient>
<linearGradient id="paint10_linear_3626_692" x1="8.87432" y1="23.3261" x2="8.87432" y2="0.00196578" gradientUnits="userSpaceOnUse">
<stop stop-color="#D7A282"/>
<stop offset="0.2151" stop-color="#916F77"/>
<stop offset="0.3302" stop-color="#A08288"/>
<stop offset="0.6325" stop-color="#C4B0B0"/>
<stop offset="0.8657" stop-color="#DACCC9"/>
<stop offset="1" stop-color="#E2D7D2"/>
</linearGradient>
<linearGradient id="paint11_linear_3626_692" x1="11.3542" y1="13.79" x2="11.3542" y2="5.18072" gradientUnits="userSpaceOnUse">
<stop stop-color="#D7A282"/>
<stop offset="0.2151" stop-color="#916F77"/>
<stop offset="0.3302" stop-color="#A08288"/>
<stop offset="0.6325" stop-color="#C4B0B0"/>
<stop offset="0.8657" stop-color="#DACCC9"/>
<stop offset="1" stop-color="#E2D7D2"/>
</linearGradient>
<linearGradient id="paint12_linear_3626_692" x1="5.99756" y1="28.3311" x2="5.99756" y2="19.2363" gradientUnits="userSpaceOnUse">
<stop stop-color="#D7A282"/>
<stop offset="0.2151" stop-color="#916F77"/>
<stop offset="0.3302" stop-color="#A08288"/>
<stop offset="0.6325" stop-color="#C4B0B0"/>
<stop offset="0.8657" stop-color="#DACCC9"/>
<stop offset="1" stop-color="#E2D7D2"/>
</linearGradient>
<radialGradient id="paint13_radial_3626_692" cx="0" cy="0" r="1" gradientUnits="userSpaceOnUse" gradientTransform="translate(52.9878 3.3495) rotate(-122.625) scale(2.06976 1.17005)">
<stop offset="0.5196" stop-color="#A68F95"/>
<stop offset="1"/>
</radialGradient>
<radialGradient id="paint14_radial_3626_692" cx="0" cy="0" r="1" gradientUnits="userSpaceOnUse" gradientTransform="translate(57.0496 2.99184) rotate(-120.002) scale(2.06943 1.17022)">
<stop offset="0.5196" stop-color="#A68F95"/>
<stop offset="1"/>
</radialGradient>
<radialGradient id="paint15_radial_3626_692" cx="0" cy="0" r="1" gradientUnits="userSpaceOnUse" gradientTransform="translate(47.0358 7.48227) rotate(-72.8661) scale(2.06974 1.17004)">
<stop offset="0.5196" stop-color="#A68F95"/>
<stop offset="1"/>
</radialGradient>
<radialGradient id="paint16_radial_3626_692" cx="0" cy="0" r="1" gradientUnits="userSpaceOnUse" gradientTransform="translate(56.349 20.9381) rotate(37.2725) scale(2.06952 1.17017)">
<stop offset="0.5196" stop-color="#A68F95"/>
<stop offset="1"/>
</radialGradient>
<radialGradient id="paint17_radial_3626_692" cx="0" cy="0" r="1" gradientUnits="userSpaceOnUse" gradientTransform="translate(43.3683 37.9751) rotate(-4.27411) scale(2.84558 1.17016)">
<stop offset="0.5196" stop-color="#A68F95"/>
<stop offset="1"/>
</radialGradient>
<radialGradient id="paint18_radial_3626_692" cx="0" cy="0" r="1" gradientUnits="userSpaceOnUse" gradientTransform="translate(47.5758 39.0338) rotate(-39.8678) scale(2.06965 1.17011)">
<stop offset="0.5196" stop-color="#A68F95"/>
<stop offset="1"/>
</radialGradient>
<radialGradient id="paint19_radial_3626_692" cx="0" cy="0" r="1" gradientUnits="userSpaceOnUse" gradientTransform="translate(6.92877 3.50118) rotate(-57.3751) scale(2.06973 1.17004)">
<stop offset="0.5196" stop-color="#A68F95"/>
<stop offset="1"/>
</radialGradient>
<radialGradient id="paint20_radial_3626_692" cx="0" cy="0" r="1" gradientUnits="userSpaceOnUse" gradientTransform="translate(2.86694 3.1435) rotate(-59.9978) scale(2.06943 1.17022)">
<stop offset="0.5196" stop-color="#A68F95"/>
<stop offset="1"/>
</radialGradient>
<radialGradient id="paint21_radial_3626_692" cx="0" cy="0" r="1" gradientUnits="userSpaceOnUse" gradientTransform="translate(12.8807 7.63403) rotate(-107.134) scale(2.06974 1.17004)">
<stop offset="0.5196" stop-color="#A68F95"/>
<stop offset="1"/>
</radialGradient>
<radialGradient id="paint22_radial_3626_692" cx="0" cy="0" r="1" gradientUnits="userSpaceOnUse" gradientTransform="translate(3.45205 20.9381) rotate(142.727) scale(2.06955 1.17019)">
<stop offset="0.5196" stop-color="#A68F95"/>
<stop offset="1"/>
</radialGradient>
<radialGradient id="paint23_radial_3626_692" cx="0" cy="0" r="1" gradientUnits="userSpaceOnUse" gradientTransform="translate(12.3408 39.1856) rotate(-140.132) scale(2.06965 1.1701)">
<stop offset="0.5196" stop-color="#A68F95"/>
<stop offset="1"/>
</radialGradient>
<radialGradient id="paint24_radial_3626_692" cx="0" cy="0" r="1" gradientUnits="userSpaceOnUse" gradientTransform="translate(27.6062 9.71946) rotate(180) scale(6.3415 3.14546)">
<stop stop-color="#A68F95"/>
<stop offset="1"/>
</radialGradient>
</defs>
</svg>
