<svg width="60" height="44" viewBox="0 0 60 44" fill="none" xmlns="http://www.w3.org/2000/svg">
<path d="M48.9486 14.313C48.9486 14.313 47.6814 14.9862 46.8894 14.511C46.8894 14.511 46.8498 14.4714 46.8102 14.4714C46.8102 14.4714 46.7706 14.4318 46.731 14.4318C46.6914 14.3922 46.6518 14.3526 46.6122 14.313C45.8994 13.4814 44.8698 11.5806 43.2462 10.8282C41.6226 10.0758 39.8406 10.3926 36.6727 9.91741C36.5539 9.91741 36.4747 9.87781 36.3559 9.87781C33.4651 9.28381 33.2671 6.86823 33.2671 6.86823C34.5739 6.90783 44.8302 5.12584 45.6618 7.42263C45.6618 7.46223 45.7014 7.50183 45.7014 7.54143C45.8598 8.17502 45.939 8.84822 46.0182 9.52141C46.0182 9.56101 46.0182 9.60061 46.0182 9.64021C46.0578 9.83821 46.0578 9.99661 46.0974 10.1946C46.0974 10.2738 46.0974 10.353 46.137 10.3926V10.4322C46.2162 10.8678 46.2954 11.3034 46.4142 11.6994C46.7706 12.927 47.4438 13.917 48.9486 14.313Z" fill="url(#paint0_linear_3626_932)"/>
<path d="M59.9178 9.36314C59.4426 11.1055 57.423 11.5807 56.5518 11.5411C56.3142 11.5411 56.1558 11.5015 56.1558 11.4223C56.1162 11.1055 58.5318 9.16514 55.9974 8.41274C53.6214 7.69995 48.7903 11.4619 50.9286 14.5903C51.0078 14.7091 51.1266 14.8675 51.2454 14.9863C51.285 15.0259 51.3246 15.0655 51.3642 15.1051C54.5322 18.3127 54.7302 23.5794 54.7302 23.5794C55.0866 22.5894 55.5222 21.9954 55.5222 21.9954C55.5222 23.223 56.9082 24.7278 57.027 27.1038C57.0666 28.2126 56.8686 29.4798 56.1162 31.0242C53.7402 35.9346 49.503 34.2318 47.5231 34.9446H47.4835L46.0579 36.1721C46.0579 36.1721 46.0579 31.0638 46.4935 30.2718C47.4043 28.569 49.6614 29.0046 49.4634 24.807C49.2654 20.4907 47.3647 17.2831 46.4539 14.6299C46.2955 14.1547 46.4143 13.4419 46.2955 13.0063C46.1371 12.4123 46.2163 11.9767 46.1767 11.4619C46.1371 10.9075 46.1371 10.4719 46.1371 10.1155C46.2163 8.65034 46.7311 8.88794 46.2163 7.22475C45.5827 5.20516 42.8899 0.175999 42.8899 0.175999C42.8899 0.175999 43.6027 -0.219998 46.0579 0.175999C48.5131 0.571996 53.4234 2.74998 51.6414 4.33397C51.5226 4.45277 51.4038 4.53197 51.3246 4.65077C51.3246 4.65077 51.3246 4.65077 51.285 4.69037C51.087 4.92797 50.889 5.16556 50.7306 5.40316C49.899 6.74955 49.5822 8.41274 49.503 8.96714C49.503 9.04634 49.503 9.08594 49.503 9.12554C49.6218 8.65034 50.5326 4.84877 53.9382 5.20516C56.631 5.48236 59.007 6.35356 59.7594 7.69995C59.997 8.25434 60.0762 8.76914 59.9178 9.36314Z" fill="url(#paint1_linear_3626_932)"/>
<path opacity="0.5" d="M56.0764 31.0637C53.7004 35.9741 49.4633 34.2713 47.4833 34.9841C47.7209 34.8653 49.5425 34.0337 50.7305 33.4793C51.9581 32.8853 54.0172 32.7269 55.324 31.6577C56.5912 30.6677 56.9872 27.381 56.9872 27.1038C57.0664 28.2126 56.8288 29.5193 56.0764 31.0637Z" fill="#58395A"/>
<path opacity="0.5" d="M55.0866 27.8167C53.859 30.1135 51.879 30.9055 51.681 30.9451C51.7998 30.8263 53.3838 29.6779 54.057 27.6979C54.7698 25.6387 54.6906 23.5399 54.6906 23.5399C55.047 22.5499 55.4826 21.9559 55.4826 21.9559C55.2846 23.5795 56.235 25.6387 55.0866 27.8167Z" fill="#58395A"/>
<path opacity="0.5" d="M57.4624 8.57121C57.4624 9.9176 56.1556 11.4224 56.1556 11.4224C56.116 11.1056 58.5316 9.16521 55.9972 8.41281C53.4628 7.66042 48.196 11.9372 51.364 15.1052C51.2452 14.9864 49.3048 13.3232 49.5028 11.9372C49.6612 10.5116 49.8196 9.16521 51.7204 7.85842C53.5816 6.51203 57.4624 7.18522 57.4624 8.57121Z" fill="#58395A"/>
<path opacity="0.5" d="M59.9177 9.36299C59.4425 11.1054 57.423 11.5806 56.5518 11.541C56.7498 11.4222 59.1257 11.541 59.7197 7.8186C59.9969 8.2542 60.0761 8.769 59.9177 9.36299Z" fill="#58395A"/>
<path opacity="0.5" d="M45.741 7.50186C45.8994 8.13545 45.9786 8.80865 46.0578 9.48184C45.9786 8.76905 45.8598 8.05625 45.7014 7.38306C45.7014 7.42266 45.741 7.46226 45.741 7.50186Z" fill="#58395A"/>
<path opacity="0.5" d="M46.4143 11.6996C46.3747 12.056 46.4143 12.452 46.4539 12.9272C46.4143 12.4916 46.2955 11.5412 46.1767 10.472V10.4324C46.1767 10.3532 46.1371 10.274 46.1371 10.1948C46.2163 8.72959 46.7311 8.96719 46.2163 7.304C45.5827 5.28441 42.8899 0.255249 42.8899 0.255249C42.8899 0.255249 46.2955 1.95804 47.5231 3.50243C48.7507 5.08642 48.2755 7.898 47.5231 9.04639C46.9291 9.91758 46.4935 10.5116 46.4143 11.6996Z" fill="#58395A"/>
<path opacity="0.5" d="M51.285 4.76965C51.285 4.76965 50.8494 5.52205 49.7407 6.59124C48.6319 7.66043 48.5131 10.9472 48.5131 10.9472L49.5031 9.08602C49.4635 9.04642 49.9387 6.55164 51.285 4.76965Z" fill="#58395A"/>
<path opacity="0.5" d="M46.8498 14.5507C46.8498 14.5507 46.8102 14.5111 46.7706 14.4319C46.3746 13.8379 44.5926 11.2639 43.2066 10.5907C42.1374 10.0759 38.5735 9.91751 36.3559 9.83832C33.4651 9.24432 33.2671 6.82874 33.2671 6.82874C33.2671 6.82874 39.009 7.81873 42.2562 8.17513C45.2658 8.49192 46.6518 13.7587 46.8102 14.4319C46.8498 14.5111 46.8498 14.5507 46.8498 14.5507Z" fill="#58395A"/>
<path opacity="0.5" d="M48.2358 16.491C48.2358 16.491 51.285 19.7777 52.275 21.9953C53.265 24.1733 50.5326 28.8461 50.5326 28.8461C50.5326 28.8461 51.8394 26.1137 51.6018 23.6981C51.4038 21.2825 48.2358 16.491 48.2358 16.491Z" fill="#58395A"/>
<path opacity="0.5" d="M42.8502 0.255249C42.8502 0.255249 45.1866 4.49242 46.0182 6.5912C46.8498 8.68999 48.1566 6.51201 48.0378 4.76962C47.9586 3.02723 42.8502 0.255249 42.8502 0.255249Z" fill="#58395A"/>
<path opacity="0.5" d="M33.3068 6.82874C33.3068 6.82874 40.6723 7.93753 42.0979 8.17513C43.5631 8.37313 44.0383 11.1055 44.0383 11.1055C44.0383 11.1055 42.4939 10.1155 39.9595 10.0363C37.4251 9.91751 34.1384 9.79871 33.3068 6.82874Z" fill="#58395A"/>
<path opacity="0.5" d="M51.681 10.0758C49.5426 11.2638 50.6514 8.0958 52.9482 7.42261C55.245 6.74941 56.4726 8.05621 56.5518 8.2542C56.631 8.4522 55.1658 8.0958 53.8194 8.6106C52.5522 9.1254 51.681 10.0758 51.681 10.0758Z" fill="#58395A"/>
<path opacity="0.5" d="M52.4729 30.5886C52.4729 30.5886 53.8589 29.7174 54.8093 28.3314C55.7597 26.9454 55.2053 22.9855 55.2053 22.9855C55.2053 22.9855 54.6509 23.3023 54.7301 23.5795C54.8093 23.8171 54.5321 28.6878 52.4729 30.5886Z" fill="#58395A"/>
<path opacity="0.5" d="M48.5131 16.9265C48.5131 16.9265 50.8098 19.2233 51.7206 20.8469C52.5918 22.4705 52.5522 23.6585 52.1958 24.5297C51.8394 25.4009 51.6414 25.6385 51.6414 25.6385C51.6414 25.6385 52.0374 23.1833 50.8494 20.7677C49.6219 18.4313 48.5131 16.9265 48.5131 16.9265Z" fill="#58395A"/>
<path opacity="0.5" d="M54.3342 29.3609C53.2254 30.8261 54.3342 31.5785 54.6906 31.7369C55.047 31.8953 56.5518 30.5489 56.7498 28.6086C56.9478 26.6682 55.7598 26.985 55.5222 27.1434C55.3242 27.3018 54.3342 29.3609 54.3342 29.3609Z" fill="white"/>
<path opacity="0.5" d="M47.9982 14.234C47.6814 14.828 50.2158 18.2731 51.4038 19.8571C52.5918 21.4411 53.8194 21.5995 54.0966 21.4411C54.3738 21.2431 53.661 18.4315 52.6314 16.7287C51.6018 14.9863 48.1962 13.8776 47.9982 14.234Z" fill="white"/>
<path opacity="0.5" d="M43.365 0.413493C43.365 0.413493 47.1666 2.63108 48.1566 3.81907C49.1862 5.00706 51.8393 4.41307 51.9185 3.38347C51.9977 2.35388 47.6814 0.0174959 43.365 0.413493Z" fill="white"/>
<path opacity="0.5" d="M35.2074 6.67037C35.2074 6.67037 37.5834 7.62076 40.7514 8.01676C43.9589 8.41276 45.1865 7.10597 45.1865 7.10597C45.1865 7.10597 43.9193 6.15557 40.197 6.19517C36.4746 6.27437 35.2074 6.67037 35.2074 6.67037Z" fill="white"/>
<path opacity="0.5" d="M52.8294 5.32395C50.7306 5.68034 51.4434 7.34353 51.5622 7.58113C51.681 7.81873 52.8294 6.94754 55.0866 7.14553C57.3438 7.34353 57.9377 7.18513 58.0961 6.82873C58.2149 6.47234 55.6014 4.84875 52.8294 5.32395Z" fill="white"/>
<path d="M52.2749 32.9645C52.2749 32.9645 54.2153 32.0933 55.2053 31.1825C56.1953 30.3114 56.6705 28.965 56.6705 28.965C56.6705 28.965 56.2745 30.747 55.5221 31.4993C54.7301 32.2517 52.2749 32.9645 52.2749 32.9645Z" fill="white"/>
<path d="M50.9286 8.45241C50.9286 8.45241 51.5622 7.62081 52.7502 7.10602C53.8986 6.59122 55.6806 7.22481 55.6806 7.22481C55.6806 7.22481 54.1758 6.90802 52.9482 7.30401C51.681 7.73961 50.9286 8.45241 50.9286 8.45241Z" fill="white"/>
<path d="M38.4943 7.62085C38.4943 7.62085 42.0978 7.89805 43.167 8.01685C44.2362 8.13565 44.6718 9.68004 44.6718 9.68004C44.6718 9.68004 43.7214 8.21485 38.4943 7.62085Z" fill="white"/>
<path d="M46.2559 2.354C46.2559 2.354 47.6815 3.1064 48.1566 3.85879C48.6318 4.61119 48.2358 6.23478 48.2358 6.23478C48.2358 6.23478 48.2754 3.89839 46.2559 2.354Z" fill="white"/>
<path d="M38.6922 7.62084C38.415 7.54164 39.6822 7.22484 40.3554 7.42284C40.989 7.62084 40.593 8.05644 38.6922 7.62084Z" fill="white"/>
<path d="M52.9086 7.34355C51.8394 7.38315 52.9086 6.23476 54.3342 6.43276C55.7598 6.63076 54.0966 7.26435 52.9086 7.34355Z" fill="white"/>
<path d="M48.0774 3.50236C47.6418 3.34396 47.9982 4.72995 48.3942 4.72995C48.7902 4.76955 48.513 3.70036 48.0774 3.50236Z" fill="white"/>
<path d="M55.0073 31.8559C54.1757 32.0539 55.7993 30.2323 55.9577 30.3115C56.1161 30.3907 55.7201 31.6975 55.0073 31.8559Z" fill="white"/>
<path opacity="0.5" d="M47.9586 33.6377C47.9586 33.6377 51.5622 31.3013 52.9878 29.6777C54.4134 28.0541 54.8094 24.8862 54.7302 23.817C54.651 22.7478 53.2254 24.0942 52.7898 24.1734C52.3542 24.2922 51.2058 29.9945 47.9586 33.6377Z" fill="#58395A"/>
<path opacity="0.5" d="M48.5129 10.9471C47.6417 9.67994 46.6122 11.3827 46.8498 13.4023C47.0082 14.5903 48.4337 16.7683 48.4337 16.7683C48.4337 16.7683 47.4833 15.1447 47.6021 14.2339C47.7209 13.3231 49.9781 14.3923 50.4137 14.5507C50.8493 14.6695 48.8693 12.0559 48.9089 10.5907C48.9881 9.12554 48.5129 10.9471 48.5129 10.9471Z" fill="#58395A"/>
<path d="M48.7902 15.7386C48.3942 15.7386 49.2258 16.3722 49.3446 16.491C49.4634 16.6494 50.1762 15.699 48.7902 15.7386Z" fill="white"/>
<path opacity="0.5" d="M47.6418 34.9444C47.6418 34.9444 49.9386 33.7168 50.493 33.6376C51.087 33.5584 53.5026 33.7564 53.5026 33.7564C53.5026 33.7564 52.5918 34.6672 50.691 34.7464C48.8298 34.786 48.711 34.6672 47.6418 34.9444Z" fill="#58395A"/>
<path opacity="0.5" d="M46.2559 31.42C47.0083 29.5984 49.7406 29.1628 50.0574 25.678C50.3742 22.1933 46.4143 14.6693 46.4143 14.6693L46.2559 31.42Z" fill="#58395A"/>
<path opacity="0.5" d="M46.4538 14.6693C46.4538 14.6693 48.6317 19.5797 49.1861 21.1637C49.7009 22.7477 49.7405 24.0544 49.1861 24.688C48.6317 25.3216 46.335 25.7968 46.335 25.7968L46.4538 14.6693Z" fill="#58395A"/>
<path opacity="0.8" d="M46.2953 30.9053C46.2953 30.9053 46.2161 28.1333 46.6517 27.1037C47.0873 26.0741 49.8593 24.8861 49.8593 24.8861C49.8593 24.8861 50.4533 27.0245 48.9485 28.4501C47.4437 29.9153 46.2953 30.9053 46.2953 30.9053Z" fill="white"/>
<path d="M11.0516 14.313C11.0516 14.313 12.3188 14.9862 13.1108 14.511C13.1108 14.511 13.1504 14.4714 13.19 14.4714C13.19 14.4714 13.2296 14.4318 13.2692 14.4318C13.3088 14.3922 13.3484 14.3526 13.388 14.313C14.1008 13.4814 15.1304 11.5806 16.754 10.8282C18.3776 10.0758 20.1596 10.3926 23.3276 9.91741C23.4464 9.91741 23.5255 9.87781 23.6443 9.87781C26.5351 9.28381 26.7331 6.86823 26.7331 6.86823C25.4263 6.90783 15.17 5.12584 14.3384 7.42263C14.3384 7.46223 14.2988 7.50183 14.2988 7.54143C14.1404 8.17502 14.0612 8.84822 13.982 9.52141C13.982 9.56101 13.982 9.60061 13.982 9.64021C13.9424 9.83821 13.9424 9.99661 13.9028 10.1946C13.9028 10.2738 13.9028 10.353 13.8632 10.3926V10.4322C13.784 10.8678 13.7048 11.3034 13.586 11.6994C13.2296 12.927 12.5564 13.917 11.0516 14.313Z" fill="url(#paint2_linear_3626_932)"/>
<path d="M0.0824087 9.36314C0.557605 11.1055 2.57719 11.5807 3.44839 11.5411C3.68598 11.5411 3.84438 11.5015 3.84438 11.4223C3.88398 11.1055 1.4684 9.16514 4.00278 8.41274C6.37876 7.69995 11.2099 11.4619 9.07155 14.5903C8.99235 14.7091 8.87355 14.8675 8.75475 14.9863C8.71515 15.0259 8.67555 15.0655 8.63595 15.1051C5.46797 18.3127 5.26997 23.5794 5.26997 23.5794C4.91357 22.5894 4.47798 21.9954 4.47798 21.9954C4.47798 23.223 3.09199 24.7278 2.97319 27.1038C2.93359 28.2126 3.13159 29.4798 3.88398 31.0242C6.25997 35.9346 10.4971 34.2318 12.4771 34.9446H12.5167L13.9423 36.1721C13.9423 36.1721 13.9423 31.0638 13.5067 30.2718C12.5959 28.569 10.3387 29.0046 10.5367 24.807C10.7347 20.4907 12.6355 17.2831 13.5463 14.6299C13.7047 14.1547 13.5859 13.4419 13.7047 13.0063C13.8631 12.4123 13.7839 11.9767 13.8235 11.4619C13.8631 10.9075 13.8631 10.4719 13.8631 10.1155C13.7839 8.65034 13.2691 8.88794 13.7839 7.22475C14.4175 5.20516 17.1103 0.175999 17.1103 0.175999C17.1103 0.175999 16.3975 -0.219998 13.9423 0.175999C11.4871 0.571996 6.57676 2.74998 8.35875 4.33397C8.47755 4.45277 8.59635 4.53197 8.67555 4.65077C8.67555 4.65077 8.67555 4.65077 8.71515 4.69037C8.91315 4.92797 9.11115 5.16556 9.26955 5.40316C10.1011 6.74955 10.4179 8.41274 10.4971 8.96714C10.4971 9.04634 10.4971 9.08594 10.4971 9.12554C10.3783 8.65034 9.46754 4.84877 6.06197 5.20516C3.36919 5.48236 0.993201 6.35356 0.240807 7.69995C0.00320837 8.25434 -0.0759902 8.76914 0.0824087 9.36314Z" fill="url(#paint3_linear_3626_932)"/>
<path opacity="0.5" d="M3.88396 31.0637C6.25994 35.9741 10.4971 34.2713 12.4771 34.9841C12.2395 34.8653 10.4179 34.0337 9.22993 33.4793C8.00233 32.8853 5.94315 32.7269 4.63636 31.6577C3.36916 30.6677 2.97317 27.381 2.97317 27.1038C2.93357 28.2126 3.17117 29.5193 3.88396 31.0637Z" fill="#58395A"/>
<path opacity="0.5" d="M4.91351 27.8167C6.1411 30.1135 8.12109 30.9055 8.31909 30.9451C8.20029 30.8263 6.6163 29.6779 5.9431 27.6979C5.23031 25.6387 5.30951 23.5399 5.30951 23.5399C4.95311 22.5499 4.51751 21.9559 4.51751 21.9559C4.67591 23.5795 3.72552 25.6387 4.91351 27.8167Z" fill="#58395A"/>
<path opacity="0.5" d="M2.5376 8.57121C2.5376 9.9176 3.84439 11.4224 3.84439 11.4224C3.88399 11.1056 1.4684 9.16521 4.00279 8.41281C6.53717 7.66042 11.8039 11.9372 8.63596 15.1052C8.75476 14.9864 10.6951 13.3232 10.4971 11.9372C10.3387 10.5116 10.1803 9.16521 8.27956 7.85842C6.41837 6.51203 2.5376 7.18522 2.5376 8.57121Z" fill="#58395A"/>
<path opacity="0.5" d="M0.0824398 9.36299C0.557636 11.1054 2.57722 11.5806 3.44842 11.541C3.25042 11.4222 0.874434 11.541 0.280438 7.8186C0.00324039 8.2542 -0.0759591 8.769 0.0824398 9.36299Z" fill="#58395A"/>
<path opacity="0.5" d="M14.2591 7.50186C14.1007 8.13545 14.0215 8.80865 13.9423 9.48184C14.0215 8.76905 14.1403 8.05625 14.2987 7.38306C14.2987 7.42266 14.2591 7.46226 14.2591 7.50186Z" fill="#58395A"/>
<path opacity="0.5" d="M13.5859 11.6996C13.6255 12.056 13.5859 12.452 13.5463 12.9272C13.5859 12.4916 13.7047 11.5412 13.8235 10.472V10.4324C13.8235 10.3532 13.8631 10.274 13.8631 10.1948C13.7839 8.72959 13.2691 8.96719 13.7839 7.304C14.4175 5.28441 17.1103 0.255249 17.1103 0.255249C17.1103 0.255249 13.7047 1.95804 12.4771 3.50243C11.2495 5.08642 11.7247 7.898 12.4771 9.04639C13.0711 9.91758 13.4671 10.5116 13.5859 11.6996Z" fill="#58395A"/>
<path opacity="0.5" d="M8.71521 4.76965C8.71521 4.76965 9.15081 5.52205 10.2596 6.59124C11.3684 7.66043 11.4872 10.9472 11.4872 10.9472L10.4972 9.08602C10.4972 9.04642 10.022 6.55164 8.71521 4.76965Z" fill="#58395A"/>
<path opacity="0.5" d="M13.1503 14.5507C13.1503 14.5507 13.1899 14.5111 13.2295 14.4319C13.6255 13.8379 15.4075 11.2639 16.7934 10.5907C17.8626 10.0759 21.4266 9.91751 23.6442 9.83832C26.535 9.24432 26.733 6.82874 26.733 6.82874C26.733 6.82874 20.9118 7.81873 17.7042 8.17513C14.6947 8.49192 13.3087 13.7587 13.1503 14.4319C13.1503 14.5111 13.1503 14.5507 13.1503 14.5507Z" fill="#58395A"/>
<path opacity="0.5" d="M11.7643 16.491C11.7643 16.491 8.71514 19.7777 7.72515 21.9953C6.73516 24.1733 9.46754 28.8461 9.46754 28.8461C9.46754 28.8461 8.16074 26.1137 8.39834 23.6981C8.59634 21.2825 11.7643 16.491 11.7643 16.491Z" fill="#58395A"/>
<path opacity="0.5" d="M17.1499 0.255249C17.1499 0.255249 14.8136 4.49242 13.982 6.5912C13.1108 8.68999 11.8436 6.51201 11.9624 4.76962C12.002 3.02723 17.1499 0.255249 17.1499 0.255249Z" fill="#58395A"/>
<path opacity="0.5" d="M26.6934 6.82874C26.6934 6.82874 19.3279 7.93753 17.9023 8.17513C16.4371 8.37313 15.9619 11.1055 15.9619 11.1055C15.9619 11.1055 17.5063 10.1155 20.0407 10.0363C22.5355 9.91751 25.8618 9.79871 26.6934 6.82874Z" fill="#58395A"/>
<path opacity="0.5" d="M8.2796 10.0758C10.418 11.2638 9.30919 8.0958 7.01241 7.42261C4.71563 6.74941 3.48804 8.05621 3.40884 8.2542C3.32964 8.4522 4.79483 8.0958 6.14122 8.6106C7.44801 9.1254 8.2796 10.0758 8.2796 10.0758Z" fill="#58395A"/>
<path opacity="0.5" d="M7.52716 30.5886C7.52716 30.5886 6.14117 29.7174 5.19077 28.3314C4.24038 26.9454 4.79478 22.9855 4.79478 22.9855C4.79478 22.9855 5.34917 23.3023 5.26997 23.5795C5.15117 23.8171 5.46797 28.6878 7.52716 30.5886Z" fill="#58395A"/>
<path opacity="0.5" d="M11.4871 16.9265C11.4871 16.9265 9.19032 19.2233 8.27953 20.8469C7.40834 22.4705 7.44794 23.6585 7.80433 24.5297C8.16073 25.4009 8.35873 25.6385 8.35873 25.6385C8.35873 25.6385 7.96273 23.1833 9.15072 20.7677C10.3783 18.4313 11.4871 16.9265 11.4871 16.9265Z" fill="#58395A"/>
<path opacity="0.5" d="M5.66589 29.3609C6.77468 30.8261 5.66589 31.5785 5.30949 31.7369C4.95309 31.8953 3.4483 30.5489 3.2503 28.6086C3.0523 26.6682 4.2403 26.985 4.47789 27.1434C4.67589 27.3018 5.66589 29.3609 5.66589 29.3609Z" fill="white"/>
<path opacity="0.5" d="M12.0019 14.234C12.3187 14.828 9.78436 18.2731 8.59637 19.8571C7.40838 21.4411 6.18079 21.5995 5.90359 21.4411C5.62639 21.2431 6.33918 18.4315 7.36878 16.7287C8.39837 14.9863 11.8039 13.8776 12.0019 14.234Z" fill="white"/>
<path opacity="0.5" d="M16.6351 0.413493C16.6351 0.413493 12.8335 2.63108 11.8435 3.81907C10.8139 5.00706 8.16073 4.41307 8.08153 3.38347C8.00233 2.35388 12.2791 0.0174959 16.6351 0.413493Z" fill="white"/>
<path opacity="0.5" d="M24.7531 6.67037C24.7531 6.67037 22.3771 7.62076 19.2091 8.01676C16.0411 8.41276 14.7739 7.10597 14.7739 7.10597C14.7739 7.10597 16.0411 6.15557 19.7635 6.19517C23.5255 6.27437 24.7531 6.67037 24.7531 6.67037Z" fill="white"/>
<path opacity="0.5" d="M7.17081 5.32395C9.2696 5.68034 8.5568 7.34353 8.438 7.58113C8.3192 7.81873 7.17081 6.94754 4.91363 7.14553C2.65644 7.34353 2.06245 7.18513 1.90405 6.82873C1.78525 6.47234 4.39883 4.84875 7.17081 5.32395Z" fill="white"/>
<path d="M7.72516 32.9645C7.72516 32.9645 5.78477 32.0933 4.79478 31.1825C3.80479 30.3114 3.32959 28.965 3.32959 28.965C3.32959 28.965 3.72559 30.747 4.47798 31.4993C5.26998 32.2517 7.72516 32.9645 7.72516 32.9645Z" fill="white"/>
<path d="M9.07155 8.45241C9.07155 8.45241 8.43795 7.62081 7.24996 7.10602C6.10157 6.59122 4.31958 7.22481 4.31958 7.22481C4.31958 7.22481 5.82437 6.90802 7.05196 7.30401C8.31915 7.73961 9.07155 8.45241 9.07155 8.45241Z" fill="white"/>
<path d="M21.5058 7.62085C21.5058 7.62085 17.9022 7.89805 16.833 8.01685C15.7638 8.13565 15.3282 9.68004 15.3282 9.68004C15.3282 9.68004 16.2786 8.21485 21.5058 7.62085Z" fill="white"/>
<path d="M13.7442 2.354C13.7442 2.354 12.3186 3.1064 11.8434 3.85879C11.3682 4.61119 11.7642 6.23478 11.7642 6.23478C11.7642 6.23478 11.685 3.89839 13.7442 2.354Z" fill="white"/>
<path d="M21.3079 7.62084C21.5851 7.54164 20.3179 7.22484 19.6447 7.42284C19.0111 7.62084 19.3675 8.05644 21.3079 7.62084Z" fill="white"/>
<path d="M7.05196 7.34355C8.12116 7.38315 7.05196 6.23476 5.62637 6.43276C4.20078 6.63076 5.86397 7.26435 7.05196 7.34355Z" fill="white"/>
<path d="M11.9227 3.50236C12.3583 3.34396 12.0019 4.72995 11.6059 4.72995C11.2099 4.76955 11.4475 3.70036 11.9227 3.50236Z" fill="white"/>
<path d="M4.95325 31.8559C5.78485 32.0539 4.16126 30.2323 4.00286 30.3115C3.88406 30.3907 4.24046 31.6975 4.95325 31.8559Z" fill="white"/>
<path opacity="0.5" d="M12.0019 33.6377C12.0019 33.6377 8.39828 31.3013 6.97269 29.6777C5.5471 28.0541 5.1511 24.8862 5.2303 23.817C5.3095 22.7478 6.73509 24.0942 7.17069 24.1734C7.64589 24.2922 8.79428 29.9945 12.0019 33.6377Z" fill="#58395A"/>
<path opacity="0.5" d="M11.4871 10.9471C12.3583 9.67994 13.3879 11.3827 13.1503 13.4023C12.9919 14.5903 11.5663 16.7683 11.5663 16.7683C11.5663 16.7683 12.5167 15.1447 12.3979 14.2339C12.2791 13.3231 10.0219 14.3923 9.58633 14.5507C9.15074 14.6695 11.1307 12.0559 11.0911 10.5907C11.0119 9.12554 11.4871 10.9471 11.4871 10.9471Z" fill="#58395A"/>
<path d="M11.1703 15.7386C11.5663 15.7386 10.7347 16.3722 10.6159 16.491C10.5367 16.6494 9.82393 15.699 11.1703 15.7386Z" fill="white"/>
<path opacity="0.5" d="M12.3584 34.9444C12.3584 34.9444 10.0617 33.7168 9.50726 33.6376C8.91326 33.5584 6.49768 33.7564 6.49768 33.7564C6.49768 33.7564 7.40847 34.6672 9.30926 34.7464C11.1704 34.786 11.2892 34.6672 12.3584 34.9444Z" fill="#58395A"/>
<path opacity="0.5" d="M13.7443 31.42C12.9919 29.5984 10.2595 29.1628 9.94273 25.678C9.62593 22.2329 13.5859 14.6693 13.5859 14.6693L13.7443 31.42Z" fill="#58395A"/>
<path opacity="0.5" d="M13.5463 14.6693C13.5463 14.6693 11.3683 19.5797 10.8139 21.1637C10.2991 22.7477 10.2595 24.0544 10.8139 24.688C11.3683 25.3216 13.6651 25.7968 13.6651 25.7968L13.5463 14.6693Z" fill="#58395A"/>
<path opacity="0.8" d="M10.1011 24.3713C10.1011 24.3713 9.7051 26.5493 10.8139 28.1333C11.9227 29.7173 13.7443 30.9845 13.7443 30.9845C13.7443 30.9845 13.7047 27.8561 13.3483 26.7869C12.9919 25.7573 10.5763 24.9257 10.1011 24.3713Z" fill="white"/>
<path d="M45.7805 10.868C44.3549 9.08599 30.0198 8.65039 30.0198 8.65039C30.0198 8.65039 15.6451 9.12559 14.2591 10.868C12.8731 12.65 13.3087 34.9446 14.2591 37.875C15.2095 40.845 30.0198 40.6866 30.0198 40.6866C30.0198 40.6866 44.8301 40.8846 45.7805 37.875C46.6913 34.9446 47.1665 12.65 45.7805 10.868ZM42.2957 24.6091C42.2957 24.6091 44.4341 32.925 42.2957 35.4198C40.1573 37.9146 30.0198 37.7958 30.0198 37.7958C30.0198 37.7958 19.8823 37.9146 17.7439 35.4198C15.5659 32.925 17.7439 24.6091 17.7439 24.6091C17.7439 24.6091 15.5659 16.2931 17.7439 13.7588C19.8823 11.264 30.0198 11.3828 30.0198 11.3828C30.0198 11.3828 40.1573 11.2244 42.2957 13.7588C44.4341 16.2931 42.2957 24.6091 42.2957 24.6091Z" fill="url(#paint4_linear_3626_932)"/>
<path d="M44.1966 15.7387C44.0778 14.5903 43.8006 13.5607 43.2462 12.9271C43.0086 12.6499 42.7314 12.4123 42.3354 12.2143C41.781 11.8975 41.1474 11.6599 40.395 11.4619C40.395 11.4619 40.3554 11.4619 40.3158 11.4619C36.2767 10.3135 29.9803 10.3927 29.9803 10.3927C29.9803 10.3927 19.0508 10.2343 16.754 12.9271C16.3184 13.4419 16.0412 14.1547 15.8828 15.0259C15.8828 15.0655 15.8828 15.0655 15.8828 15.0655C15.2096 18.7483 16.754 24.609 16.754 24.609C16.754 24.609 14.4176 33.5982 16.754 36.291C19.0904 38.9837 30.0199 38.865 30.0199 38.865C30.0199 38.865 40.9494 39.0233 43.2858 36.291C45.6222 33.5982 43.2858 24.609 43.2858 24.609C43.2858 24.609 44.5926 19.4215 44.1966 15.7387ZM42.2958 35.4594C40.1574 37.9542 30.0199 37.8354 30.0199 37.8354C30.0199 37.8354 19.8824 37.9542 17.744 35.4594C15.566 32.9646 17.744 24.6486 17.744 24.6486C17.744 24.6486 15.8036 17.2039 17.4272 14.2735C17.5064 14.1151 17.6252 13.9567 17.744 13.7983C19.8824 11.3035 30.0199 11.4223 30.0199 11.4223C30.0199 11.4223 40.1574 11.2639 42.2958 13.7983C42.573 14.1151 42.771 14.4715 42.8898 14.9467C43.959 18.1939 42.2958 24.6486 42.2958 24.6486C42.2958 24.6486 44.4342 32.925 42.2958 35.4594Z" fill="url(#paint5_linear_3626_932)"/>
<path d="M14.2989 11.1055C13.9425 11.8579 21.7436 10.3136 29.7428 10.3532C37.7419 10.3928 41.6623 11.7787 42.8503 11.8975C44.0383 12.0163 45.5035 11.1055 45.5431 10.67C45.5827 10.2344 38.3755 8.76917 29.9804 8.76917C21.6248 8.80876 14.7741 10.1156 14.2989 11.1055Z" fill="white"/>
<path d="M17.1499 36.6869C16.5559 35.6573 20.9119 37.8353 30.0198 37.8353C39.1278 37.8353 41.8998 35.9345 42.4542 36.2513C43.0086 36.5681 42.4542 36.9641 42.4542 36.9641C42.4542 36.9641 40.4742 38.8649 30.0198 38.8649C19.5259 38.8649 17.1499 36.6869 17.1499 36.6869Z" fill="white"/>
<path opacity="0.5" d="M17.9025 38.7858C16.6749 37.281 22.6149 38.865 29.5844 38.865C36.5144 38.865 39.6823 38.1522 40.4347 38.1522C41.1871 38.1522 38.6132 39.5382 38.6132 39.5382C38.6132 39.5382 35.4056 39.4194 34.4948 40.6866C34.4948 40.6866 27.248 40.7262 25.4264 40.6074C25.4264 40.6074 24.3573 39.9738 22.8129 39.7362C21.2685 39.5382 18.3777 38.9046 17.9025 38.7858Z" fill="#58395A"/>
<path d="M34.2966 38.7462C34.2966 38.7462 34.4154 37.875 36.5934 37.479C38.7714 37.0434 40.4346 37.7958 40.4346 37.7958C40.4346 37.7958 38.3358 38.7462 34.2966 38.7462Z" fill="white"/>
<path d="M32.5146 10.4323C32.5146 10.4323 33.663 9.44229 36.4746 9.67989C39.2862 9.91749 40.2366 11.2639 40.2366 11.2639L32.5146 10.4323Z" fill="white"/>
<path opacity="0.5" d="M13.6255 21.4807C14.2987 17.5603 16.2787 22.7479 16.0807 25.0843C15.8827 27.4603 14.9719 32.0934 14.4571 32.6082C13.9423 33.2022 13.3879 22.9855 13.6255 21.4807Z" fill="#58395A"/>
<path opacity="0.5" d="M43.6817 24.9259C43.5629 23.8963 44.1173 21.0847 45.2261 20.4907C46.2953 19.8967 46.6517 28.1335 45.8597 30.9451C45.0677 33.717 43.8401 26.4307 43.6817 24.9259Z" fill="#58395A"/>
<path d="M42.2958 13.7985C40.1178 11.3037 30.0199 11.4225 30.0199 11.4225C30.0199 11.4225 19.8824 11.3037 17.744 13.7985C15.566 16.2933 17.744 24.6488 17.744 24.6488C17.744 24.6488 15.566 32.9648 17.744 35.4992C19.922 37.9939 30.0199 37.8751 30.0199 37.8751C30.0199 37.8751 40.1574 37.9939 42.2958 35.4992C44.4738 33.0044 42.2958 24.6488 42.2958 24.6488C42.2958 24.6488 44.4342 16.2933 42.2958 13.7985Z" fill="url(#paint6_linear_3626_932)"/>
<path opacity="0.5" d="M15.8827 15.0654C15.8827 15.0654 20.2387 11.8974 29.7822 11.8974C39.3257 11.8974 44.2361 15.7386 44.2361 15.7386C44.2361 15.7386 44.1965 13.0458 42.3749 12.2142C40.5533 11.3826 38.2961 10.353 29.7822 10.353C21.2683 10.353 17.3479 11.8578 16.7539 12.927C16.1599 14.0358 15.8827 15.0654 15.8827 15.0654Z" fill="#58395A"/>
<path opacity="0.5" d="M17.15 15.0654C15.4076 16.1742 17.2688 22.0746 18.4568 23.3814C19.6448 24.6882 39.7219 24.2526 41.1474 23.817C42.6126 23.3814 43.563 16.9662 42.5334 15.0654C41.4642 13.2043 25.268 9.91748 17.15 15.0654Z" fill="white"/>
<path opacity="0.2" d="M19.0904 36.2117C15.4472 34.311 19.4864 27.579 30.6535 25.3614C41.8206 23.1438 43.167 30.0738 41.979 34.5881C40.7514 39.1421 22.1791 37.8749 19.0904 36.2117Z" fill="#552FBE"/>
<path opacity="0.5" d="M18.4171 35.7364C18.4171 35.7364 20.7931 36.7264 25.7827 35.7364C30.7722 34.7464 36.9102 33.1625 40.395 34.5484C43.8797 35.9344 39.0882 37.3204 32.8314 37.5184C27.0895 37.6768 19.8031 37.3996 18.4171 35.7364Z" fill="white"/>
<path d="M39.4842 13.7587C38.0586 14.7883 39.6426 15.8971 40.8702 15.0655C42.0978 14.2735 39.801 13.5211 39.4842 13.7587Z" fill="white"/>
<path d="M18.4172 19.0651C18.2984 20.1739 19.9616 20.6887 20.3576 19.0651C20.7536 17.4415 18.536 17.8771 18.4172 19.0651Z" fill="white"/>
<g opacity="0.5">
<path d="M23.1295 31.4597C23.9611 31.6181 24.7927 31.7369 25.6243 31.7765C26.4559 31.8557 27.3271 31.8953 28.1587 31.8953C29.8615 31.8953 31.5247 31.7369 33.1878 31.3805C34.851 31.0241 36.435 30.4697 37.9002 29.6381C39.3654 28.8065 40.6722 27.7373 41.781 26.4305C41.2662 27.1037 40.7118 27.7373 40.0386 28.2917C39.405 28.8461 38.6922 29.3609 37.9794 29.7965C36.5142 30.6677 34.8906 31.2221 33.2274 31.5785C31.5643 31.9349 29.8615 32.0933 28.1587 32.0537C26.4955 32.0141 24.7927 31.8557 23.1295 31.4597Z" fill="#CA6D92"/>
<path d="M21.2683 28.4502C21.5851 26.8662 22.1395 25.2823 22.8523 23.8171C23.5651 22.3519 24.5155 20.9659 25.6639 19.8175C26.8123 18.6691 28.2379 17.7583 29.8219 17.2435C31.3662 16.7683 33.1086 16.6099 34.6926 17.1643C36.2766 17.7583 37.4646 19.0255 38.217 20.4907C38.9694 21.9559 39.3258 23.6191 39.3258 25.2427C39.3258 26.8662 38.9694 28.5294 38.217 29.9946C37.4646 31.4598 36.1974 32.6478 34.653 33.2418C36.1578 32.6082 37.3854 31.3806 38.1378 29.955C38.8506 28.4898 39.207 26.8662 39.207 25.2427C39.1674 23.6191 38.8506 21.9955 38.0982 20.5303C37.3458 19.1047 36.1578 17.8375 34.653 17.2831C33.1482 16.7287 31.4454 16.8475 29.9011 17.3227C28.3567 17.7979 26.9311 18.6691 25.7827 19.8175C24.6343 20.9659 23.6839 22.3123 22.9711 23.7775C22.1791 25.3219 21.6247 26.8662 21.2683 28.4502Z" fill="#CA6D92"/>
<path d="M30.2576 33.3209C30.7328 33.3209 31.1684 33.3209 31.6436 33.2813C32.0792 33.2813 32.5544 33.2417 32.9899 33.2021C33.9007 33.1229 34.8115 33.0041 35.6827 32.7665C36.5539 32.5685 37.4251 32.2913 38.2171 31.8557C39.0091 31.4201 39.7615 30.9053 40.3555 30.1925C39.8011 30.9449 39.0883 31.5389 38.2963 31.9745L37.6627 32.2913L37.0291 32.5289C36.8311 32.6081 36.5935 32.6873 36.3559 32.7269C36.1183 32.8061 35.9203 32.8457 35.6827 32.9249C34.7719 33.1229 33.8611 33.2813 32.9503 33.3209C32.1188 33.4001 31.1684 33.4001 30.2576 33.3209Z" fill="#CA6D92"/>
<path d="M26.9707 20.8865C27.8419 19.7777 28.8319 18.7481 29.9011 17.8373C30.9703 16.9266 32.1583 16.1346 33.4651 15.5406C34.7718 14.9466 36.1974 14.5902 37.623 14.7486C38.3358 14.8278 39.009 15.0258 39.6822 15.3426C40.3158 15.6594 40.9098 16.095 41.4246 16.5306C40.8702 16.095 40.2762 15.699 39.6426 15.4218C39.009 15.1446 38.3358 14.9862 37.623 14.907C36.237 14.7882 34.851 15.1446 33.5839 15.7386C32.3167 16.3326 31.1287 17.1246 30.0595 17.9957C29.5051 18.4313 28.9903 18.9065 28.4755 19.3817C27.9211 19.8569 27.4063 20.3717 26.9707 20.8865Z" fill="#CA6D92"/>
</g>
<path d="M23.1295 31.6974C23.9611 31.8558 24.7927 31.9746 25.6243 32.0142C26.4559 32.0934 27.3271 32.133 28.1587 32.133C29.8615 32.133 31.5247 31.9746 33.1878 31.6182C34.851 31.2618 36.435 30.7074 37.9002 29.8758C39.3654 29.0442 40.6722 27.975 41.781 26.6682C41.2662 27.3414 40.7118 27.975 40.0386 28.5294C39.405 29.0838 38.6922 29.5986 37.9794 30.0342C36.5142 30.9054 34.8906 31.4598 33.2274 31.8162C31.5643 32.1726 29.8615 32.331 28.1587 32.2914C26.4955 32.2518 24.7927 32.0538 23.1295 31.6974Z" fill="#FFF9C7"/>
<path d="M21.2683 28.6482C21.5851 27.0642 22.1395 25.4803 22.8523 24.0151C23.5651 22.5499 24.5155 21.1639 25.6639 20.0155C26.8123 18.8671 28.2379 17.9563 29.8219 17.4415C31.3662 16.9663 33.1086 16.8079 34.6926 17.3623C36.2766 17.9563 37.4646 19.2235 38.217 20.6887C38.9694 22.1539 39.3258 23.8171 39.3258 25.4406C39.3258 27.0642 38.9694 28.7274 38.217 30.1926C37.4646 31.6578 36.1974 32.8458 34.653 33.4398C36.1578 32.8062 37.3854 31.5786 38.1378 30.153C38.8506 28.6878 39.207 27.0642 39.207 25.4406C39.1674 23.8171 38.8506 22.1935 38.0982 20.7283C37.3458 19.3027 36.1578 18.0355 34.653 17.4811C33.1482 16.9267 31.4454 17.0455 29.9011 17.5207C28.3567 17.9959 26.9311 18.8671 25.7827 20.0155C24.6343 21.1639 23.6839 22.5103 22.9711 23.9755C22.1791 25.5199 21.6247 27.0642 21.2683 28.6482Z" fill="#FFF9C7"/>
<path d="M30.2576 33.5189C30.7328 33.5189 31.1684 33.5189 31.6436 33.4793C32.0792 33.4793 32.5544 33.4397 32.9899 33.4001C33.9007 33.3209 34.8115 33.2021 35.6827 32.9645C36.5539 32.7665 37.4251 32.4893 38.2171 32.0537C39.0091 31.6181 39.7615 31.1033 40.3555 30.3905C39.8011 31.1429 39.0883 31.7369 38.2963 32.1725L37.6627 32.4893L37.0291 32.7269C36.8311 32.8061 36.5935 32.8853 36.3559 32.9249C36.1183 33.0041 35.9203 33.0437 35.6827 33.1229C34.7719 33.3209 33.8611 33.4793 32.9503 33.5189C32.1188 33.5981 31.1684 33.5981 30.2576 33.5189Z" fill="#FFF9C7"/>
<path d="M26.9707 21.1243C27.8419 20.0155 28.8319 18.9859 29.9011 18.0751C30.9703 17.1643 32.1583 16.3724 33.4651 15.7784C34.7718 15.1844 36.1974 14.828 37.623 14.9864C38.3358 15.0656 39.009 15.2636 39.6822 15.5804C40.3158 15.8972 40.9098 16.3328 41.4246 16.7683C40.8702 16.3328 40.2762 15.9368 39.6426 15.6596C39.009 15.3824 38.3358 15.224 37.623 15.1448C36.237 15.026 34.851 15.3824 33.5839 15.9764C32.3167 16.5704 31.1287 17.3623 30.0595 18.2335C29.5051 18.6691 28.9903 19.1443 28.4755 19.6195C27.9211 20.0551 27.4063 20.5699 26.9707 21.1243Z" fill="#FFF9C7"/>
<path opacity="0.5" d="M23.8425 39.855C23.8425 39.855 17.3877 40.3698 16.1997 40.251C15.0117 40.1322 13.705 36.0535 13.705 36.0535C13.705 36.0535 15.0909 37.5583 16.6353 38.2711C19.0113 39.4194 23.8425 39.855 23.8425 39.855Z" fill="#58395A"/>
<path d="M11.0516 35.3801C11.21 35.4197 11.3288 35.4593 11.4476 35.4989C14.1404 36.4493 13.7048 39.8152 14.2592 42.1516C14.8532 44.6068 25.3471 42.7456 26.6935 42.8248C26.6935 42.8248 26.4955 40.2508 23.288 39.7756C20.0804 39.3005 18.338 39.6568 16.7144 38.8649C15.0908 38.1125 14.0612 36.2117 13.3484 35.3801C13.1504 35.1029 12.8336 35.0237 12.5168 35.0237C12.2792 35.0237 12.0812 35.0633 11.8436 35.1029C11.408 35.1821 11.0516 35.3801 11.0516 35.3801Z" fill="url(#paint7_linear_3626_932)"/>
<path opacity="0.5" d="M11.4478 35.499C14.1405 36.4494 13.7049 39.8153 14.2593 42.1517C14.8533 44.6069 25.3473 42.7457 26.6936 42.8249C26.6936 42.8249 16.6353 42.3893 15.3285 41.6765C14.0613 40.9637 13.9821 37.677 13.9425 37.0038C13.9029 36.4098 14.6949 37.2414 14.8137 37.4394C14.6553 37.2018 13.4673 35.5782 13.1901 35.3802C12.8733 35.1822 11.4478 35.499 11.4478 35.499Z" fill="#58395A"/>
<path opacity="0.5" d="M20.9515 39.6964C20.9515 39.6964 23.7235 41.9536 23.8423 42.31C24.0007 42.6664 17.7043 42.2308 16.1995 41.9536C14.6947 41.6764 14.5759 39.0232 14.5759 38.746C14.5759 38.4688 16.6351 39.1024 17.6251 39.34C18.5755 39.4984 20.9515 39.6964 20.9515 39.6964Z" fill="white"/>
<path d="M19.5656 42.3893C19.5656 42.3893 16.0412 41.8745 15.4076 41.4785C14.774 41.0825 14.4968 40.4885 14.4968 40.4885C14.4968 40.4885 14.774 41.3597 15.368 41.6765C15.9224 41.9933 19.5656 42.3893 19.5656 42.3893Z" fill="white"/>
<path opacity="0.5" d="M36.1578 39.855C36.1578 39.855 42.6126 40.3698 43.8006 40.251C44.9886 40.1322 46.2954 36.0535 46.2954 36.0535C46.2954 36.0535 44.9094 37.5583 43.365 38.2711C40.989 39.4194 36.1578 39.855 36.1578 39.855Z" fill="#58395A"/>
<path d="M48.9487 35.3801C48.7903 35.4197 48.6715 35.4593 48.5527 35.4989C45.8599 36.4493 46.2955 39.8152 45.7411 42.1516C45.1471 44.6068 34.6532 42.7456 33.3068 42.8248C33.3068 42.8248 33.5048 40.2508 36.7123 39.7756C39.9199 39.3005 41.6623 39.6568 43.2859 38.8649C44.9095 38.1125 45.9391 36.2117 46.6519 35.3801C46.8499 35.1029 47.1667 35.0237 47.4835 35.0237C47.7211 35.0237 47.9191 35.0633 48.1567 35.1029C48.5923 35.1821 48.9487 35.3801 48.9487 35.3801Z" fill="url(#paint8_linear_3626_932)"/>
<path opacity="0.5" d="M48.513 35.499C45.8202 36.4494 46.2558 39.8153 45.7014 42.1517C45.1074 44.6069 34.6135 42.7457 33.2671 42.8249C33.2671 42.8249 43.3254 42.3893 44.6322 41.6765C45.8994 40.9637 45.9786 37.677 46.0182 37.0038C46.0578 36.4098 45.2658 37.2414 45.147 37.4394C45.3054 37.2018 46.4934 35.5782 46.7706 35.3802C47.127 35.1822 48.513 35.499 48.513 35.499Z" fill="#58395A"/>
<path opacity="0.5" d="M39.0485 39.6964C39.0485 39.6964 36.2765 41.9536 36.1577 42.31C35.9993 42.6664 42.2957 42.2308 43.8005 41.9536C45.3053 41.6764 45.4241 39.0232 45.4241 38.746C45.4241 38.4688 43.3649 39.1024 42.3749 39.34C41.4245 39.4984 39.0485 39.6964 39.0485 39.6964Z" fill="white"/>
<path d="M40.4347 42.3893C40.4347 42.3893 43.9591 41.8745 44.5927 41.4785C45.2263 41.0825 45.5035 40.4885 45.5035 40.4885C45.5035 40.4885 45.2263 41.3597 44.6323 41.6765C44.0779 41.9933 40.4347 42.3893 40.4347 42.3893Z" fill="white"/>
<path opacity="0.5" d="M44.949 22.431C44.3946 22.2726 43.6026 23.3418 43.9986 24.2526C44.3946 25.1634 46.2162 22.827 44.949 22.431Z" fill="#58395A"/>
<path opacity="0.5" d="M44.0778 23.2231C44.0382 23.8963 44.8698 23.9359 45.1866 23.5795C45.5034 23.2231 45.5034 22.4312 44.8698 22.4312C44.2758 22.4312 44.0778 23.2231 44.0778 23.2231Z" fill="#58395A"/>
<path d="M43.9193 23.7774C44.1173 23.3814 44.5925 23.8566 44.9093 23.8962C45.2261 23.9358 44.7113 24.5694 44.3549 24.4902C43.9589 24.3714 43.9193 23.7774 43.9193 23.7774Z" fill="white"/>
<path opacity="0.5" d="M15.645 11.3034C15.0906 11.145 14.2986 12.2142 14.6946 13.125C15.0906 14.0358 16.9122 11.6994 15.645 11.3034Z" fill="#58395A"/>
<path opacity="0.5" d="M14.7738 12.0559C14.7342 12.7291 15.5658 12.7687 15.8826 12.4123C16.1994 12.0559 16.1994 11.2639 15.5658 11.2639C14.9322 11.2639 14.7738 12.0559 14.7738 12.0559Z" fill="#58395A"/>
<path d="M14.6155 12.6499C14.8135 12.2539 15.2887 12.7291 15.6055 12.7687C15.9223 12.8083 15.4075 13.4419 15.0511 13.3627C14.6551 13.2439 14.6155 12.6499 14.6155 12.6499Z" fill="white"/>
<defs>
<linearGradient id="paint0_linear_3626_932" x1="41.1229" y1="14.6722" x2="41.1229" y2="6.2165" gradientUnits="userSpaceOnUse">
<stop stop-color="#755266"/>
<stop offset="0.2151" stop-color="#7E5555"/>
<stop offset="0.4362" stop-color="#A18281"/>
<stop offset="0.6906" stop-color="#C4B0AD"/>
<stop offset="0.8869" stop-color="#DACCC8"/>
<stop offset="1" stop-color="#E2D7D2"/>
</linearGradient>
<linearGradient id="paint1_linear_3626_932" x1="51.4253" y1="36.2215" x2="51.4253" y2="0.07775" gradientUnits="userSpaceOnUse">
<stop stop-color="#755266"/>
<stop offset="0.2151" stop-color="#7E5555"/>
<stop offset="0.4362" stop-color="#A18281"/>
<stop offset="0.6906" stop-color="#C4B0AD"/>
<stop offset="0.8869" stop-color="#DACCC8"/>
<stop offset="1" stop-color="#E2D7D2"/>
</linearGradient>
<linearGradient id="paint2_linear_3626_932" x1="18.8678" y1="14.6722" x2="18.8678" y2="6.2165" gradientUnits="userSpaceOnUse">
<stop stop-color="#755266"/>
<stop offset="0.2151" stop-color="#7E5555"/>
<stop offset="0.4362" stop-color="#A18281"/>
<stop offset="0.6906" stop-color="#C4B0AD"/>
<stop offset="0.8869" stop-color="#DACCC8"/>
<stop offset="1" stop-color="#E2D7D2"/>
</linearGradient>
<linearGradient id="paint3_linear_3626_932" x1="8.56534" y1="36.2215" x2="8.56534" y2="0.07775" gradientUnits="userSpaceOnUse">
<stop stop-color="#755266"/>
<stop offset="0.2151" stop-color="#7E5555"/>
<stop offset="0.4362" stop-color="#A18281"/>
<stop offset="0.6906" stop-color="#C4B0AD"/>
<stop offset="0.8869" stop-color="#DACCC8"/>
<stop offset="1" stop-color="#E2D7D2"/>
</linearGradient>
<linearGradient id="paint4_linear_3626_932" x1="29.9949" y1="40.7085" x2="29.9949" y2="8.65827" gradientUnits="userSpaceOnUse">
<stop stop-color="#D7A28B"/>
<stop offset="0.2151" stop-color="#8E6A81"/>
<stop offset="0.4716" stop-color="#B9A3B0"/>
<stop offset="0.7109" stop-color="#DCD1D7"/>
<stop offset="0.8944" stop-color="#F2EDEE"/>
<stop offset="1" stop-color="#FAF8F7"/>
</linearGradient>
<linearGradient id="paint5_linear_3626_932" x1="29.995" y1="38.8584" x2="29.995" y2="10.3832" gradientUnits="userSpaceOnUse">
<stop stop-color="#E2D7D2"/>
<stop offset="0.1131" stop-color="#DACCC8"/>
<stop offset="0.3094" stop-color="#C4B0AD"/>
<stop offset="0.5638" stop-color="#A18281"/>
<stop offset="0.7849" stop-color="#7E5555"/>
<stop offset="1" stop-color="#451E32"/>
</linearGradient>
<linearGradient id="paint6_linear_3626_932" x1="29.998" y1="37.8294" x2="29.998" y2="11.415" gradientUnits="userSpaceOnUse">
<stop stop-color="#1434A3"/>
<stop offset="0.3492" stop-color="#221791"/>
<stop offset="0.4773" stop-color="#2733AC"/>
<stop offset="0.7129" stop-color="#3060D9"/>
<stop offset="0.895" stop-color="#367CF5"/>
<stop offset="1" stop-color="#3887FF"/>
</linearGradient>
<linearGradient id="paint7_linear_3626_932" x1="11.0457" y1="39.2248" x2="26.69" y2="39.2248" gradientUnits="userSpaceOnUse">
<stop stop-color="#D7A282"/>
<stop offset="0.2151" stop-color="#916F77"/>
<stop offset="0.3302" stop-color="#A08288"/>
<stop offset="0.6325" stop-color="#C4B0B0"/>
<stop offset="0.8657" stop-color="#DACCC9"/>
<stop offset="1" stop-color="#E2D7D2"/>
</linearGradient>
<linearGradient id="paint8_linear_3626_932" x1="48.9451" y1="39.2248" x2="33.3009" y2="39.2248" gradientUnits="userSpaceOnUse">
<stop stop-color="#D7A282"/>
<stop offset="0.2151" stop-color="#916F77"/>
<stop offset="0.3302" stop-color="#A08288"/>
<stop offset="0.6325" stop-color="#C4B0B0"/>
<stop offset="0.8657" stop-color="#DACCC9"/>
<stop offset="1" stop-color="#E2D7D2"/>
</linearGradient>
</defs>
</svg>
