<svg width="32" height="32" viewBox="0 0 32 32" fill="none" xmlns="http://www.w3.org/2000/svg">
<mask id="mask0_3775_1004" style="mask-type:alpha" maskUnits="userSpaceOnUse" x="0" y="0" width="32" height="32">
<rect width="32" height="32" fill="#D9D9D9"/>
</mask>
<g mask="url(#mask0_3775_1004)">
<path d="M5.33317 26.6668C4.59984 26.6668 3.97206 26.4057 3.44984 25.8835C2.92762 25.3613 2.6665 24.7335 2.6665 24.0002V8.00016C2.6665 7.26683 2.92762 6.63905 3.44984 6.11683C3.97206 5.59461 4.59984 5.3335 5.33317 5.3335H26.6665C27.3998 5.3335 28.0276 5.59461 28.5498 6.11683C29.0721 6.63905 29.3332 7.26683 29.3332 8.00016V24.0002C29.3332 24.7335 29.0721 25.3613 28.5498 25.8835C28.0276 26.4057 27.3998 26.6668 26.6665 26.6668H5.33317ZM15.9998 17.3335L26.6665 10.6668V8.00016L15.9998 14.6668L5.33317 8.00016V10.6668L15.9998 17.3335Z" fill="#DA281C"/>
</g>
</svg>
