<svg width="32" height="32" viewBox="0 0 32 32" fill="none" xmlns="http://www.w3.org/2000/svg">
<mask id="mask0_3775_1011" style="mask-type:alpha" maskUnits="userSpaceOnUse" x="0" y="0" width="32" height="32">
<rect width="32" height="32" fill="#D9D9D9"/>
</mask>
<g mask="url(#mask0_3775_1011)">
<path d="M5.3335 25.3332V22.6665H8.00016V13.3332C8.00016 11.4887 8.55572 9.84984 9.66683 8.4165C10.7779 6.98317 12.2224 6.04428 14.0002 5.59984V4.6665C14.0002 4.11095 14.1946 3.63873 14.5835 3.24984C14.9724 2.86095 15.4446 2.6665 16.0002 2.6665C16.5557 2.6665 17.0279 2.86095 17.4168 3.24984C17.8057 3.63873 18.0002 4.11095 18.0002 4.6665V5.59984C19.7779 6.04428 21.2224 6.98317 22.3335 8.4165C23.4446 9.84984 24.0002 11.4887 24.0002 13.3332V22.6665H26.6668V25.3332H5.3335ZM16.0002 29.3332C15.2668 29.3332 14.6391 29.0721 14.1168 28.5498C13.5946 28.0276 13.3335 27.3998 13.3335 26.6665H18.6668C18.6668 27.3998 18.4057 28.0276 17.8835 28.5498C17.3613 29.0721 16.7335 29.3332 16.0002 29.3332Z" fill="#DA281C"/>
</g>
</svg>
