<svg width="300" height="300" viewBox="0 0 300 300" fill="none" xmlns="http://www.w3.org/2000/svg">
<rect width="300" height="300" rx="150" fill="#F8D4D2"/>
<path d="M230.676 209.989H52.882C47.9816 209.989 44 206.007 44 201.107V99.882C44 94.9816 47.9816 91 52.882 91H230.676C235.576 91 239.558 94.9816 239.558 99.882V200.954C239.558 206.007 235.576 209.989 230.676 209.989Z" fill="#DA281C" stroke="#DA281C" stroke-width="3.06277" stroke-miterlimit="10" stroke-linecap="round" stroke-linejoin="round"/>
<path d="M149.666 147.508L239.711 102.026V99.882C239.711 94.9816 235.73 91 230.829 91H52.882C47.9816 91 44 94.9816 44 99.882V102.332L132.361 147.661C137.874 150.418 144.306 150.265 149.666 147.508Z" fill="#F3B7B3" stroke="#DA281C" stroke-width="3.06277" stroke-miterlimit="10" stroke-linecap="round" stroke-linejoin="round"/>
<path d="M236.2 135.317C247.135 133.535 254.556 123.226 252.774 112.291C250.993 101.355 240.683 93.9347 229.748 95.7163C218.813 97.4979 211.392 107.807 213.173 118.743C214.955 129.678 225.264 137.099 236.2 135.317Z" fill="#490D09"/>
<path d="M231.748 126.988C231.289 126.528 230.982 125.763 230.982 124.691V106.773L227.46 108.917C227.154 109.071 226.847 109.224 226.541 109.224C226.082 109.224 225.622 109.071 225.316 108.611C225.01 108.305 224.857 107.845 224.857 107.233C224.857 106.62 225.163 106.008 225.775 105.701L232.207 101.873C232.667 101.567 233.126 101.414 233.739 101.414C234.504 101.414 234.964 101.72 235.423 102.179C235.883 102.639 236.036 103.404 236.036 104.323V124.538C236.036 125.456 235.73 126.069 235.27 126.681C234.811 127.141 234.198 127.447 233.432 127.447C232.82 127.753 232.207 127.6 231.748 126.988Z" fill="#F3B7B3"/>
</svg>
