<svg width="1158" height="244" viewBox="0 0 1158 244" fill="none" xmlns="http://www.w3.org/2000/svg">
<rect width="1158" height="244" fill="black"/>
<path d="M510.298 112.545H513.989V123.881C513.989 125.153 513.685 126.267 513.077 127.222C512.474 128.176 511.631 128.92 510.545 129.455C509.46 129.983 508.196 130.247 506.753 130.247C505.304 130.247 504.037 129.983 502.952 129.455C501.866 128.92 501.023 128.176 500.42 127.222C499.818 126.267 499.517 125.153 499.517 123.881V112.545H503.207V123.565C503.207 124.23 503.352 124.821 503.642 125.338C503.938 125.855 504.352 126.261 504.886 126.557C505.42 126.852 506.043 127 506.753 127C507.469 127 508.091 126.852 508.619 126.557C509.153 126.261 509.565 125.855 509.855 125.338C510.151 124.821 510.298 124.23 510.298 123.565V112.545ZM516.957 134.909V116.909H520.536V119.108H520.698C520.857 118.756 521.087 118.398 521.388 118.034C521.695 117.665 522.093 117.358 522.582 117.114C523.076 116.864 523.69 116.739 524.423 116.739C525.377 116.739 526.258 116.989 527.065 117.489C527.871 117.983 528.516 118.73 528.999 119.73C529.482 120.724 529.724 121.972 529.724 123.472C529.724 124.932 529.488 126.165 529.016 127.17C528.55 128.17 527.914 128.929 527.107 129.446C526.306 129.957 525.408 130.213 524.414 130.213C523.71 130.213 523.11 130.097 522.616 129.864C522.127 129.631 521.727 129.338 521.414 128.986C521.102 128.628 520.863 128.267 520.698 127.903H520.587V134.909H516.957ZM520.511 123.455C520.511 124.233 520.619 124.912 520.835 125.491C521.05 126.071 521.363 126.523 521.772 126.847C522.181 127.165 522.678 127.324 523.263 127.324C523.854 127.324 524.354 127.162 524.763 126.838C525.173 126.509 525.482 126.054 525.692 125.474C525.908 124.889 526.016 124.216 526.016 123.455C526.016 122.699 525.911 122.034 525.701 121.46C525.491 120.886 525.181 120.437 524.772 120.114C524.363 119.79 523.86 119.628 523.263 119.628C522.673 119.628 522.173 119.784 521.763 120.097C521.36 120.409 521.05 120.852 520.835 121.426C520.619 122 520.511 122.676 520.511 123.455ZM535.775 112.545V130H532.144V112.545H535.775ZM544.598 130.256C543.274 130.256 542.129 129.974 541.163 129.412C540.203 128.844 539.462 128.054 538.939 127.043C538.416 126.026 538.155 124.847 538.155 123.506C538.155 122.153 538.416 120.972 538.939 119.96C539.462 118.943 540.203 118.153 541.163 117.591C542.129 117.023 543.274 116.739 544.598 116.739C545.922 116.739 547.064 117.023 548.024 117.591C548.99 118.153 549.734 118.943 550.257 119.96C550.78 120.972 551.041 122.153 551.041 123.506C551.041 124.847 550.78 126.026 550.257 127.043C549.734 128.054 548.99 128.844 548.024 129.412C547.064 129.974 545.922 130.256 544.598 130.256ZM544.615 127.443C545.217 127.443 545.72 127.273 546.124 126.932C546.527 126.585 546.831 126.114 547.036 125.517C547.246 124.92 547.351 124.241 547.351 123.48C547.351 122.719 547.246 122.04 547.036 121.443C546.831 120.847 546.527 120.375 546.124 120.028C545.72 119.682 545.217 119.509 544.615 119.509C544.007 119.509 543.496 119.682 543.081 120.028C542.672 120.375 542.362 120.847 542.152 121.443C541.947 122.04 541.845 122.719 541.845 123.48C541.845 124.241 541.947 124.92 542.152 125.517C542.362 126.114 542.672 126.585 543.081 126.932C543.496 127.273 544.007 127.443 544.615 127.443ZM557.135 130.247C556.3 130.247 555.555 130.102 554.902 129.812C554.249 129.517 553.732 129.082 553.351 128.509C552.976 127.929 552.788 127.207 552.788 126.344C552.788 125.616 552.922 125.006 553.189 124.511C553.456 124.017 553.82 123.619 554.28 123.318C554.74 123.017 555.263 122.79 555.848 122.636C556.439 122.483 557.058 122.375 557.706 122.312C558.467 122.233 559.081 122.159 559.547 122.091C560.013 122.017 560.351 121.909 560.561 121.767C560.771 121.625 560.876 121.415 560.876 121.136V121.085C560.876 120.545 560.706 120.128 560.365 119.832C560.03 119.537 559.553 119.389 558.933 119.389C558.28 119.389 557.76 119.534 557.374 119.824C556.987 120.108 556.732 120.466 556.607 120.898L553.249 120.625C553.419 119.83 553.754 119.142 554.254 118.562C554.754 117.977 555.399 117.528 556.189 117.216C556.984 116.898 557.905 116.739 558.95 116.739C559.678 116.739 560.374 116.824 561.038 116.994C561.709 117.165 562.303 117.429 562.82 117.787C563.342 118.145 563.754 118.605 564.055 119.168C564.357 119.724 564.507 120.392 564.507 121.17V130H561.064V128.185H560.962C560.751 128.594 560.47 128.955 560.118 129.267C559.766 129.574 559.342 129.815 558.848 129.991C558.354 130.162 557.783 130.247 557.135 130.247ZM558.175 127.741C558.709 127.741 559.18 127.636 559.589 127.426C559.999 127.21 560.32 126.92 560.553 126.557C560.786 126.193 560.902 125.781 560.902 125.321V123.932C560.788 124.006 560.632 124.074 560.433 124.136C560.24 124.193 560.021 124.247 559.777 124.298C559.533 124.344 559.288 124.386 559.044 124.426C558.8 124.46 558.578 124.491 558.379 124.52C557.953 124.582 557.581 124.682 557.263 124.818C556.945 124.955 556.697 125.139 556.521 125.372C556.345 125.599 556.257 125.884 556.257 126.224C556.257 126.719 556.436 127.097 556.794 127.358C557.158 127.614 557.618 127.741 558.175 127.741ZM572.148 130.213C571.153 130.213 570.253 129.957 569.446 129.446C568.645 128.929 568.009 128.17 567.537 127.17C567.071 126.165 566.838 124.932 566.838 123.472C566.838 121.972 567.08 120.724 567.562 119.73C568.045 118.73 568.688 117.983 569.489 117.489C570.295 116.989 571.179 116.739 572.139 116.739C572.872 116.739 573.483 116.864 573.972 117.114C574.466 117.358 574.864 117.665 575.165 118.034C575.472 118.398 575.705 118.756 575.864 119.108H575.974V112.545H579.597V130H576.017V127.903H575.864C575.693 128.267 575.452 128.628 575.139 128.986C574.832 129.338 574.432 129.631 573.938 129.864C573.449 130.097 572.852 130.213 572.148 130.213ZM573.298 127.324C573.884 127.324 574.378 127.165 574.781 126.847C575.19 126.523 575.503 126.071 575.719 125.491C575.94 124.912 576.051 124.233 576.051 123.455C576.051 122.676 575.943 122 575.727 121.426C575.511 120.852 575.199 120.409 574.79 120.097C574.381 119.784 573.884 119.628 573.298 119.628C572.702 119.628 572.199 119.79 571.79 120.114C571.381 120.437 571.071 120.886 570.861 121.46C570.651 122.034 570.545 122.699 570.545 123.455C570.545 124.216 570.651 124.889 570.861 125.474C571.077 126.054 571.386 126.509 571.79 126.838C572.199 127.162 572.702 127.324 573.298 127.324ZM591.895 112.545V130H588.205V112.545H591.895ZM594.863 130V116.909H598.323V119.219H598.477C598.749 118.452 599.204 117.847 599.84 117.403C600.477 116.96 601.238 116.739 602.124 116.739C603.022 116.739 603.786 116.963 604.417 117.412C605.048 117.855 605.468 118.457 605.678 119.219H605.815C606.082 118.469 606.565 117.869 607.263 117.42C607.968 116.966 608.8 116.739 609.761 116.739C610.982 116.739 611.974 117.128 612.735 117.906C613.502 118.679 613.886 119.776 613.886 121.196V130H610.263V121.912C610.263 121.185 610.07 120.639 609.684 120.276C609.298 119.912 608.815 119.73 608.235 119.73C607.576 119.73 607.062 119.94 606.692 120.361C606.323 120.776 606.138 121.324 606.138 122.006V130H602.619V121.835C602.619 121.193 602.434 120.682 602.065 120.301C601.701 119.92 601.221 119.73 600.624 119.73C600.221 119.73 599.857 119.832 599.533 120.037C599.215 120.236 598.962 120.517 598.775 120.881C598.587 121.239 598.494 121.659 598.494 122.142V130H594.863ZM620.487 130.247C619.651 130.247 618.907 130.102 618.254 129.812C617.6 129.517 617.083 129.082 616.702 128.509C616.327 127.929 616.14 127.207 616.14 126.344C616.14 125.616 616.273 125.006 616.54 124.511C616.808 124.017 617.171 123.619 617.631 123.318C618.092 123.017 618.614 122.79 619.2 122.636C619.79 122.483 620.41 122.375 621.058 122.312C621.819 122.233 622.433 122.159 622.898 122.091C623.364 122.017 623.702 121.909 623.913 121.767C624.123 121.625 624.228 121.415 624.228 121.136V121.085C624.228 120.545 624.058 120.128 623.717 119.832C623.381 119.537 622.904 119.389 622.285 119.389C621.631 119.389 621.112 119.534 620.725 119.824C620.339 120.108 620.083 120.466 619.958 120.898L616.6 120.625C616.771 119.83 617.106 119.142 617.606 118.562C618.106 117.977 618.751 117.528 619.54 117.216C620.336 116.898 621.256 116.739 622.302 116.739C623.029 116.739 623.725 116.824 624.39 116.994C625.06 117.165 625.654 117.429 626.171 117.787C626.694 118.145 627.106 118.605 627.407 119.168C627.708 119.724 627.859 120.392 627.859 121.17V130H624.415V128.185H624.313C624.103 128.594 623.822 128.955 623.469 129.267C623.117 129.574 622.694 129.815 622.2 129.991C621.705 130.162 621.134 130.247 620.487 130.247ZM621.526 127.741C622.06 127.741 622.532 127.636 622.941 127.426C623.35 127.21 623.671 126.92 623.904 126.557C624.137 126.193 624.254 125.781 624.254 125.321V123.932C624.14 124.006 623.984 124.074 623.785 124.136C623.592 124.193 623.373 124.247 623.129 124.298C622.884 124.344 622.64 124.386 622.396 124.426C622.151 124.46 621.93 124.491 621.731 124.52C621.305 124.582 620.933 124.682 620.614 124.818C620.296 124.955 620.049 125.139 619.873 125.372C619.697 125.599 619.609 125.884 619.609 126.224C619.609 126.719 619.788 127.097 620.146 127.358C620.509 127.614 620.969 127.741 621.526 127.741ZM636.573 135.182C635.397 135.182 634.388 135.02 633.548 134.696C632.712 134.378 632.048 133.943 631.553 133.392C631.059 132.841 630.738 132.222 630.59 131.534L633.948 131.082C634.05 131.344 634.212 131.588 634.434 131.815C634.656 132.043 634.948 132.224 635.312 132.361C635.681 132.503 636.13 132.574 636.658 132.574C637.448 132.574 638.099 132.381 638.61 131.994C639.127 131.614 639.386 130.974 639.386 130.077V127.682H639.232C639.073 128.045 638.835 128.389 638.516 128.713C638.198 129.037 637.789 129.301 637.289 129.506C636.789 129.71 636.192 129.812 635.499 129.812C634.516 129.812 633.621 129.585 632.815 129.131C632.013 128.67 631.374 127.969 630.897 127.026C630.425 126.077 630.19 124.878 630.19 123.429C630.19 121.946 630.431 120.707 630.914 119.713C631.397 118.719 632.039 117.974 632.84 117.48C633.647 116.986 634.531 116.739 635.491 116.739C636.224 116.739 636.837 116.864 637.332 117.114C637.826 117.358 638.224 117.665 638.525 118.034C638.832 118.398 639.067 118.756 639.232 119.108H639.369V116.909H642.974V130.128C642.974 131.241 642.701 132.173 642.156 132.923C641.61 133.673 640.854 134.236 639.888 134.611C638.928 134.991 637.823 135.182 636.573 135.182ZM636.65 127.085C637.235 127.085 637.729 126.94 638.133 126.651C638.542 126.355 638.854 125.935 639.07 125.389C639.292 124.838 639.403 124.179 639.403 123.412C639.403 122.645 639.295 121.98 639.079 121.418C638.863 120.849 638.55 120.409 638.141 120.097C637.732 119.784 637.235 119.628 636.65 119.628C636.053 119.628 635.55 119.79 635.141 120.114C634.732 120.432 634.423 120.875 634.212 121.443C634.002 122.011 633.897 122.668 633.897 123.412C633.897 124.168 634.002 124.821 634.212 125.372C634.428 125.918 634.738 126.341 635.141 126.642C635.55 126.937 636.053 127.085 636.65 127.085ZM651.829 130.256C650.482 130.256 649.323 129.983 648.352 129.438C647.386 128.886 646.641 128.108 646.119 127.102C645.596 126.091 645.335 124.895 645.335 123.514C645.335 122.168 645.596 120.986 646.119 119.969C646.641 118.952 647.377 118.159 648.326 117.591C649.281 117.023 650.4 116.739 651.684 116.739C652.548 116.739 653.352 116.878 654.096 117.156C654.846 117.429 655.499 117.841 656.056 118.392C656.619 118.943 657.056 119.636 657.369 120.472C657.681 121.301 657.837 122.273 657.837 123.386V124.384H646.783V122.134H654.42C654.42 121.611 654.306 121.148 654.079 120.744C653.852 120.341 653.536 120.026 653.133 119.798C652.735 119.565 652.272 119.449 651.744 119.449C651.192 119.449 650.704 119.577 650.278 119.832C649.857 120.082 649.528 120.42 649.289 120.847C649.05 121.267 648.928 121.736 648.923 122.253V124.392C648.923 125.04 649.042 125.599 649.281 126.071C649.525 126.543 649.869 126.906 650.312 127.162C650.755 127.418 651.281 127.545 651.888 127.545C652.292 127.545 652.661 127.489 652.996 127.375C653.332 127.261 653.619 127.091 653.857 126.864C654.096 126.636 654.278 126.358 654.403 126.028L657.761 126.25C657.59 127.057 657.241 127.761 656.712 128.364C656.19 128.96 655.513 129.426 654.684 129.761C653.86 130.091 652.908 130.256 651.829 130.256Z" fill="white" fill-opacity="0.4"/>
</svg>
