<svg width="500" height="500" viewBox="0 0 500 500" fill="none" xmlns="http://www.w3.org/2000/svg">
<g filter="url(#filter0_d_3465_288)">
<rect x="100" y="91" width="300" height="300" rx="150" fill="white"/>
<path d="M296.689 231.771C296.689 231.771 319.446 227.618 318.854 244.363C318.262 261.108 307.356 273.978 285.347 272.684C280.524 277.331 279.952 281.268 279.952 281.268C279.952 281.268 316.293 285.089 325.095 264.135C333.897 243.18 327.938 216.683 297.512 223.625" fill="#FFC72C"/>
<path d="M213.991 232.558C213.991 232.558 194.466 233.812 192.195 244.711C189.968 255.428 210.197 273.565 230.929 267.365C233.619 273.845 233.427 272.245 233.427 272.245C233.427 272.245 220.908 282.974 200.249 269.779C179.408 256.539 183.097 237.444 193.756 229.562C204.232 221.635 221.545 225.471 221.545 225.471" fill="#FFC72C"/>
<path d="M210.986 210.664C210.986 210.664 247.327 181.87 297.824 205.646C298.349 266.344 277.082 299.399 261.722 301.087C246.545 302.819 217.177 278.375 210.986 210.664Z" fill="#FFC72C"/>
<path d="M256.855 297.958C256.855 297.958 258.327 323.748 253.138 328.306C247.949 332.864 227.981 336.727 229.169 344.589C230.312 352.633 292.043 348.671 292.406 340.024C292.724 331.56 271.501 331.816 267.569 324.062C263.637 316.308 263.335 295.268 263.335 295.268" fill="#FFC72C"/>
<path d="M212.421 221.497L211.822 220.769C251.009 193.834 297.373 214.66 297.878 214.978L297.471 215.849C297.149 215.576 251.152 194.84 212.421 221.497Z" fill="#AA851D"/>
<path d="M211.982 216.925L211.383 216.197C211.656 215.875 241.422 189.359 298.082 210.951L297.675 211.822C241.748 190.41 212.254 216.604 211.982 216.925Z" fill="#AA851D"/>
<path d="M221.229 258.591L220.63 257.862C220.858 257.724 246.61 241.294 292.836 253.933L292.613 254.849C246.936 242.344 221.457 258.452 221.229 258.591Z" fill="#AA851D"/>
<path d="M245.589 295.597L245.218 294.73C245.401 294.774 256.628 290.137 275.438 291.815L275.398 292.776C256.954 291.187 245.772 295.641 245.589 295.597Z" fill="#AA851D"/>
<path d="M231.73 344.437L231.587 343.431C231.998 343.337 264.944 337.205 289.376 338.12L289.335 339.08C264.904 338.166 231.957 344.298 231.73 344.437Z" fill="#AA851D"/>
<path d="M180.501 215.455C176.01 213.971 171.791 212.165 167.389 210.315C162.988 208.464 158.769 206.658 154.551 204.852C150.377 202.863 145.975 201.012 141.801 199.023L135.563 195.948C133.498 194.862 131.434 193.775 129.369 192.689C131.523 193.409 133.816 194.357 135.97 195.076L142.525 197.647C146.927 199.497 151.146 201.303 155.364 203.109C159.538 205.099 163.94 206.949 168.114 208.938C172.059 211.066 176.372 213.283 180.501 215.455Z" fill="#FFC72C"/>
<path d="M205.807 192.899C202.585 189.395 199.408 185.707 196.275 181.837C193.098 178.15 190.149 174.324 187.2 170.498C184.251 166.672 181.302 162.847 178.398 158.838L174.202 152.96C172.772 150.864 171.481 148.996 170.051 146.9C171.753 148.674 173.228 150.587 174.93 152.362L179.582 157.962C182.759 161.649 185.708 165.475 188.657 169.301C191.606 173.126 194.555 176.952 197.46 180.961C200.181 184.925 203.085 188.934 205.807 192.899Z" fill="#FFC72C"/>
<path d="M247.629 179.032C246.638 173.548 245.874 167.926 245.294 162.349C244.53 156.727 243.95 151.149 243.37 145.572C242.789 139.994 242.392 134.462 241.995 128.929L241.491 120.652C241.384 117.908 241.094 115.12 241.215 112.237C241.688 115.071 242.023 117.676 242.497 120.51L243.55 128.92C244.314 134.542 244.894 140.12 245.475 145.697C246.055 151.275 246.452 156.807 246.849 162.34C247.063 167.828 247.415 173.544 247.629 179.032Z" fill="#FFC72C"/>
<path d="M289.222 189.181C290.662 184.874 292.101 180.566 293.724 176.302C295.347 172.039 296.97 167.776 298.775 163.557C300.581 159.339 302.204 155.076 304.149 151.085L306.996 144.985C308.082 142.92 308.985 140.811 310.027 138.93C309.307 141.084 308.587 143.238 307.867 145.392L305.525 151.809C303.902 156.072 302.28 160.336 300.474 164.554C298.668 168.773 297.045 173.036 295.1 177.026C293.156 181.017 291.167 185.191 289.222 189.181Z" fill="#FFC72C"/>
<path d="M318.47 208.549C322.023 205.921 325.715 203.522 329.407 201.123C333.098 198.723 336.745 196.507 340.62 194.152C344.45 191.981 348.097 189.764 351.927 187.593L357.72 184.541C359.726 183.478 361.505 182.553 363.695 181.534C362.01 182.87 360.186 183.978 358.318 185.27L352.803 188.777C349.112 191.177 345.465 193.393 341.59 195.748C337.76 197.919 334.113 200.135 330.282 202.307C326.269 204.434 322.439 206.605 318.47 208.549Z" fill="#FFC72C"/>
</g>
<defs>
<filter id="filter0_d_3465_288" x="0" y="0" width="500" height="500" filterUnits="userSpaceOnUse" color-interpolation-filters="sRGB">
<feFlood flood-opacity="0" result="BackgroundImageFix"/>
<feColorMatrix in="SourceAlpha" type="matrix" values="0 0 0 0 0 0 0 0 0 0 0 0 0 0 0 0 0 0 127 0" result="hardAlpha"/>
<feOffset dy="9"/>
<feGaussianBlur stdDeviation="50"/>
<feComposite in2="hardAlpha" operator="out"/>
<feColorMatrix type="matrix" values="0 0 0 0 1 0 0 0 0 0.780392 0 0 0 0 0.172549 0 0 0 0.6 0"/>
<feBlend mode="normal" in2="BackgroundImageFix" result="effect1_dropShadow_3465_288"/>
<feBlend mode="normal" in="SourceGraphic" in2="effect1_dropShadow_3465_288" result="shape"/>
</filter>
</defs>
</svg>
