<svg width="500" height="500" viewBox="0 0 500 500" fill="none" xmlns="http://www.w3.org/2000/svg">
<g filter="url(#filter0_d_3465_481)">
<rect x="100" y="91" width="300" height="300" rx="150" fill="white"/>
<path d="M357.7 240.9C357.7 243.8 357.6 246.6 357.4 249.5C355.4 275.1 344.5 298.2 327.7 315.6C308.1 336 280.5 348.8 249.9 348.8C246.8 348.8 243.7 348.7 240.7 348.4C185.4 343.7 142.1 297.4 142.1 240.9C142.1 208.9 156 180.2 178.1 160.5C182.6 156.5 187.4 152.9 192.5 149.6C209.1 139.1 228.9 133 250 133C268.7 133 286.3 137.8 301.6 146.1C311.9 151.8 321.3 159.1 329.2 167.7C346.1 186 356.7 210.1 357.7 236.6C357.6 238.1 357.7 239.5 357.7 240.9Z" fill="#D4A625"/>
<path d="M357.3 249.4C355.3 275 344.4 298.1 327.6 315.5C327.5 315.5 327.5 315.4 327.5 315.4C326.5 314.4 325.8 313 324.5 312.5C323.1 311.9 321.5 312.4 320.1 312.7C316.6 313.5 312.8 313.6 309.4 312.2C306.1 310.8 303.3 307.8 302.7 304.3C302.6 303.3 302.6 302.3 302 301.5C300.5 299.3 297.1 300.9 294.5 300.5C291.4 300 289.8 296.6 289.2 293.5C288.6 290.4 288.4 287.1 286.3 284.7C284 282.1 280.2 281.8 277 280.7C273.8 279.7 270.7 277.7 269 274.8C267.3 271.9 267.3 267.9 269.5 265.3C271.8 262.6 275.8 262.1 278.5 259.8C282.1 256.9 282.9 251.7 286 248.3C289.9 244 296.6 243.2 300.4 238.9C301.9 237.2 302.9 234.9 304.7 233.4C306.5 231.9 308.9 231.2 311.1 230.5C313.4 229.7 315.7 228.7 316.9 226.6C318.1 224.5 317.5 221.3 315.2 220.6C312.5 219.8 310 222.8 307.3 222.4C306.1 222.2 305 221.4 303.7 221.2C302.4 221 301.1 221.5 299.9 222C293.7 224.6 287 227.6 284.3 233.8C283.5 235.6 283.1 237.7 281.8 239.2C279.7 241.7 275.8 242 272.6 241.3C269.4 240.5 266.4 238.9 263.1 238.3C259.9 237.7 256.6 238.1 253.3 237.6C250.1 237.1 246.7 235.3 245.8 232.2C244.8 228.7 247.2 224.9 246 221.5C245.3 219.6 243.5 218.1 243.2 216.1C242.6 212.5 246.8 210.1 248.7 207C251 203.1 250 197.5 253.2 194.4C257.2 190.5 264.1 193.4 269 190.8C272 189.2 274 185.8 277.2 184.8C279.8 184.1 282.7 185.2 285.4 184.6C287.4 184.2 289 182.8 290.9 182C294.5 180.4 298.6 180.7 302.4 179.8C308.9 178.2 314 173.2 319.9 170.2C323 168.7 326 168 329.2 167.6C346.1 185.9 356.7 210 357.7 236.5C357.4 236.3 357 236 356.7 235.9C354.7 234.9 351.7 235.5 351 237.6C350.6 238.7 351 239.9 351.3 241C352.2 244.6 353.8 248.6 357.3 249.4Z" fill="#FFC72C"/>
<path d="M240.6 348.3C185.3 343.6 142 297.3 142 240.8C142 208.8 155.9 180.1 178 160.4C182.2 162.1 185.6 166.3 185.5 170.9C185.5 173.5 184.9 176.8 187.1 178.1C187.9 178.6 188.8 178.7 189.5 179.2C191.9 181 189.4 184.6 188.7 187.4C187.4 192.8 193.2 197 198.2 199.2C203.3 201.3 209.4 204 210.1 209.5C210.2 210.4 210.2 211.5 210.7 212.3C211.8 214.1 214.6 213.5 216.5 214.5C220 216.2 218.9 221.7 216.1 224.4C213.2 227 209.2 228.5 207.1 231.7C205.8 233.6 205.3 235.9 203.7 237.5C202.5 238.7 200.9 239.3 199.6 240.3C197.6 241.8 196.3 244.4 193.9 245.1C191.3 245.8 188.6 243.9 187 241.7C185.4 239.5 184.4 236.8 182.5 234.8C180.6 232.8 177.3 231.7 175.2 233.5C172.2 236 173.1 242.6 169.3 242.8C168.2 242.9 167.2 242.3 166.2 242.6C163.9 243.4 165 247 163.7 249C162.8 250.4 160.9 250.7 159.4 251.5C154.5 254 154.3 260.7 155.1 266.1C155.9 270.7 157 275.2 158.5 279.7C158.8 280.6 159.3 281.7 160.3 281.9C163.3 282.5 161.7 275.6 164.7 274.9C165.4 276.9 168.5 276.4 170 275C171.5 273.5 172.5 271.3 174.6 270.7C176.6 270 179.4 270.9 180.6 269.1C181.1 268.4 181.1 267.5 181.3 266.7C182 263.9 185.4 262.3 188.2 263.1C191 263.8 193.1 266.4 193.9 269.1C194.7 271.7 194.7 275 197 276.5C198 277.1 199.3 277.3 200.5 277.3C208.9 277.8 218.6 278.1 224 284.6C226.2 287.2 227.3 290.9 225.8 293.9C224.7 296.1 222.4 297.4 221.1 299.5C219.5 302 219.6 305.5 221.4 307.8C222.4 309.2 224 310.4 224.2 312.1C224.6 315.2 220.7 316.8 217.9 318.2C214.5 320 212 323.3 211 327C211.9 330.6 213.1 334.4 216.1 336.6C217.5 337.6 219.2 338.2 220.9 338.7C227.7 341.1 234.4 344.4 240.6 348.3Z" fill="#FFC72C"/>
<path d="M301.5 146.2C300.7 146.1 299.8 146.1 299 146.1C293.8 146 288.7 148.5 283.5 148.5C276.9 148.4 269.8 144.3 264 147.5C260.6 149.4 258.4 153.6 254.5 154.1C251.9 154.5 249.5 153 247 152.4C242.1 151.2 236.6 153.1 233.7 157.2C232.3 159.1 231.4 161.4 230 163.3C227.2 167.1 222.2 169.2 217.6 168.6C212.9 167.9 208.7 164.5 207.1 160.1C206.8 159.3 206.6 158.4 206 157.8C204.2 155.7 200.8 157.1 198.4 156.2C195.7 155.2 193.4 152.4 192.4 149.7C209 139.2 228.8 133.1 249.9 133.1C268.5 133 286.1 137.8 301.5 146.2Z" fill="#FFC72C"/>
<path d="M150.2 240.9C150.2 211.4 163 184.9 183.4 166.7C187.5 163 192 159.7 196.7 156.7C212.1 147 230.3 141.4 249.8 141.4" stroke="#353535" stroke-width="0.6695" stroke-miterlimit="10"/>
<path d="M181.818 310.611H231.118V270.211H181.818V310.611Z" fill="#96473C"/>
<path d="M181.8 270.1L187.2 260.7H226.9L231.1 270.1H181.8Z" fill="#D1745E"/>
<path d="M211.18 301.165C216.729 298.694 219.225 292.192 216.753 286.642C214.282 281.092 207.78 278.597 202.23 281.068C196.681 283.54 194.185 290.042 196.656 295.591C199.128 301.141 205.63 303.637 211.18 301.165Z" fill="#FCECE3"/>
<path d="M229.599 266.7H223.599L222.399 263.3H228.099L229.599 266.7Z" fill="#FCECE3"/>
<path d="M183.8 266.7H190.9L192.1 263.3H185.7L183.8 266.7Z" fill="#FCECE3"/>
<path d="M228.8 264.5H184.8V265.3H228.8V264.5Z" fill="#353535"/>
<path d="M201.5 287C202.7 285.7 204.8 285.6 206.1 286.8L206.7 287.4L207.3 286.8C208.6 285.6 210.7 285.7 211.9 287C213.1 288.3 213 290.4 211.7 291.6L206.6 296.3L201.5 291.6C200.4 290.3 200.3 288.3 201.5 287Z" fill="#DD5454"/>
<path d="M242.98 219.345H292.28V178.945H242.98V219.345Z" fill="#96473C"/>
<path d="M243 178.9L248.3 169.5H288.1L292.3 178.9H243Z" fill="#D1745E"/>
<path d="M272.098 209.974C277.711 207.649 280.376 201.214 278.051 195.601C275.726 189.988 269.291 187.323 263.679 189.648C258.066 191.973 255.4 198.408 257.725 204.02C260.05 209.633 266.485 212.298 272.098 209.974Z" fill="#FCECE3"/>
<path d="M290.8 175.5H284.8L283.5 172.1H289.3L290.8 175.5Z" fill="#FCECE3"/>
<path d="M245 175.5H252.1L253.3 172.1H246.8L245 175.5Z" fill="#FCECE3"/>
<path d="M290 173.2H246V174H290V173.2Z" fill="#353535"/>
<path d="M262.7 195.7C263.9 194.4 266 194.3 267.3 195.5L267.9 196.1L268.5 195.5C269.8 194.3 271.9 194.4 273.1 195.7C274.3 197 274.2 199.1 272.9 200.3L267.8 205L262.7 200.3C261.5 199.1 261.5 197 262.7 195.7Z" fill="#DD5454"/>
<path d="M295.461 285.951H340.161V249.251H295.461V285.951Z" fill="#96473C"/>
<path d="M295.5 249.3L300.3 240.7H336.4L340.2 249.3H295.5Z" fill="#D1745E"/>
<path d="M308.101 268.3C308.101 262.8 312.601 258.3 318.101 258.3C323.601 258.3 328.101 262.8 328.101 268.3C328.101 273.8 323.601 278.3 318.101 278.3C312.601 278.2 308.101 273.8 308.101 268.3Z" fill="#FCECE3"/>
<path d="M338.8 246.2H333.4L332.3 243.1H337.5L338.8 246.2Z" fill="#FCECE3"/>
<path d="M297.3 246.2H303.7L304.8 243.1H299L297.3 246.2Z" fill="#FCECE3"/>
<path d="M338.2 244.1H298.2V244.8H338.2V244.1Z" fill="#353535"/>
<path d="M313.3 264.5C314.4 263.3 316.3 263.2 317.5 264.3L318.1 264.8L318.7 264.3C319.9 263.2 321.8 263.3 322.9 264.5C324 265.7 323.9 267.6 322.7 268.7L318.1 272.9L313.5 268.7C312.3 267.6 312.2 265.7 313.3 264.5Z" fill="#DD5454"/>
<path d="M175.305 222.07H209.105V194.37H175.305V222.07Z" fill="#96473C"/>
<path d="M175.399 194.4L178.999 187.9H206.299L209.099 194.4H175.399Z" fill="#D1745E"/>
<path d="M194.804 215.813C198.726 214.479 200.823 210.219 199.49 206.297C198.156 202.376 193.896 200.278 189.974 201.612C186.053 202.946 183.955 207.206 185.289 211.127C186.623 215.049 190.883 217.146 194.804 215.813Z" fill="#FCECE3"/>
<path d="M208.1 192H204L203.1 189.7H207.1L208.1 192Z" fill="#FCECE3"/>
<path d="M176.699 192H181.599L182.399 189.7H177.999L176.699 192Z" fill="#FCECE3"/>
<path d="M207.599 190.5H177.399V191H207.599V190.5Z" fill="#353535"/>
<path d="M188.9 205.9C189.7 205 191.1 204.9 192 205.8L192.4 206.2L192.8 205.8C193.7 205 195.1 205 195.9 205.9C196.7 206.8 196.7 208.2 195.8 209L192.3 212.2L188.8 209C188.1 208.2 188 206.8 188.9 205.9Z" fill="#DD5454"/>
<path d="M256.94 267.409C258.63 256.997 251.559 247.186 241.146 245.496C230.734 243.806 220.923 250.877 219.233 261.29C217.543 271.702 224.614 281.513 235.026 283.203C245.439 284.893 255.25 277.822 256.94 267.409Z" fill="#F4BF2C"/>
<path d="M243.299 260C243.299 260.9 243.999 261.6 244.899 261.6C245.799 261.6 246.499 260.9 246.499 260C246.499 259.1 245.799 258.4 244.899 258.4C243.999 258.4 243.299 259.1 243.299 260Z" fill="#353535"/>
<path d="M229.699 260C229.699 260.9 230.399 261.6 231.299 261.6C232.199 261.6 232.899 260.9 232.899 260C232.899 259.1 232.199 258.4 231.299 258.4C230.399 258.4 229.699 259.1 229.699 260Z" fill="#353535"/>
<path d="M247.6 266C247.6 271.2 243.4 275.4 238.2 275.4C233 275.4 228.8 271.2 228.8 266" stroke="#353535" stroke-width="0.6842" stroke-miterlimit="10"/>
<path opacity="0.5" d="M251.9 267.4C251.9 269.8 249.9 271.8 247.5 271.8C245.1 271.8 243.1 269.8 243.1 267.4C243.1 265 245.1 263 247.5 263C250 263.1 251.9 265 251.9 267.4Z" fill="#F4A08C"/>
<path opacity="0.5" d="M233.1 267.4C233.1 269.8 231.1 271.8 228.7 271.8C226.3 271.8 224.3 269.8 224.3 267.4C224.3 265 226.3 263 228.7 263C231.1 263.1 233.1 265 233.1 267.4Z" fill="#F4A08C"/>
<path d="M246 265.8H249.2" stroke="#353535" stroke-width="0.5921" stroke-miterlimit="10"/>
<path d="M227.1 265.8H230.3" stroke="#353535" stroke-width="0.5921" stroke-miterlimit="10"/>
<path d="M296.1 228.2C303.335 228.2 309.2 222.335 309.2 215.1C309.2 207.865 303.335 202 296.1 202C288.865 202 283 207.865 283 215.1C283 222.335 288.865 228.2 296.1 228.2Z" fill="#F4BF2C"/>
<path d="M300.8 213.2C301.408 213.2 301.9 212.708 301.9 212.1C301.9 211.492 301.408 211 300.8 211C300.193 211 299.7 211.492 299.7 212.1C299.7 212.708 300.193 213.2 300.8 213.2Z" fill="#353535"/>
<path d="M290.3 212.1C290.3 212.7 290.8 213.2 291.4 213.2C292 213.2 292.5 212.7 292.5 212.1C292.5 211.5 292 211 291.4 211C290.8 211 290.3 211.5 290.3 212.1Z" fill="#353535"/>
<path d="M302.6 216.2C302.6 219.8 299.7 222.7 296.1 222.7C292.5 222.7 289.6 219.8 289.6 216.2" stroke="#353535" stroke-width="0.4713" stroke-miterlimit="10"/>
<path opacity="0.5" d="M305.6 217.2C305.6 218.9 304.2 220.2 302.6 220.2C300.9 220.2 299.6 218.8 299.6 217.2C299.6 215.6 301 214.2 302.6 214.2C304.2 214.2 305.6 215.6 305.6 217.2Z" fill="#F4A08C"/>
<path opacity="0.5" d="M292.6 217.2C292.6 218.9 291.2 220.2 289.6 220.2C287.9 220.2 286.6 218.8 286.6 217.2C286.6 215.6 288 214.2 289.6 214.2C291.2 214.2 292.6 215.6 292.6 217.2Z" fill="#F4A08C"/>
<path d="M301.5 216.1H303.7" stroke="#353535" stroke-width="0.4079" stroke-miterlimit="10"/>
<path d="M288.5 216.1H290.7" stroke="#353535" stroke-width="0.4079" stroke-miterlimit="10"/>
</g>
<defs>
<filter id="filter0_d_3465_481" x="0" y="0" width="500" height="500" filterUnits="userSpaceOnUse" color-interpolation-filters="sRGB">
<feFlood flood-opacity="0" result="BackgroundImageFix"/>
<feColorMatrix in="SourceAlpha" type="matrix" values="0 0 0 0 0 0 0 0 0 0 0 0 0 0 0 0 0 0 127 0" result="hardAlpha"/>
<feOffset dy="9"/>
<feGaussianBlur stdDeviation="50"/>
<feComposite in2="hardAlpha" operator="out"/>
<feColorMatrix type="matrix" values="0 0 0 0 1 0 0 0 0 0.780392 0 0 0 0 0.172549 0 0 0 0.6 0"/>
<feBlend mode="normal" in2="BackgroundImageFix" result="effect1_dropShadow_3465_481"/>
<feBlend mode="normal" in="SourceGraphic" in2="effect1_dropShadow_3465_481" result="shape"/>
</filter>
</defs>
</svg>
