<svg width="500" height="500" viewBox="0 0 500 500" fill="none" xmlns="http://www.w3.org/2000/svg">
<g filter="url(#filter0_d_3465_184)">
<g clip-path="url(#clip0_3465_184)">
<rect x="100" y="91" width="300" height="300" rx="150" fill="white"/>
<path d="M407.466 212.789C400.94 220.947 395.041 228.101 393.534 229.419C390.522 232.055 389.518 230.11 387.635 228.353C385.753 226.533 369.687 214.609 361.529 203.564C353.308 192.519 349.166 186.243 349.166 186.243C349.166 186.243 349.04 185.616 349.48 181.16C349.919 176.704 350.672 172.311 348.225 170.429C345.777 168.546 342.263 169.487 339.941 172.939C337.619 176.328 329.335 188.189 329.335 188.189C329.335 188.189 333.226 192.142 334.795 193.711C336.301 195.28 337.807 197.916 341.572 203.438C345.338 208.961 359.834 232.996 367.804 242.41C375.774 251.823 385.502 260.546 387.635 260.421C389.706 260.295 392.907 258.789 399.245 254.71C401.316 253.392 404.328 251.384 407.529 249.313V212.789H407.466Z" fill="#B35D1E" stroke="#263238" stroke-width="0.627561" stroke-miterlimit="10"/>
<path d="M340.004 204.066C339.753 204.066 339.502 204.003 339.314 203.815C338.937 203.438 338.937 202.873 339.314 202.497L351.99 190.008C352.367 189.632 352.932 189.632 353.308 190.008C353.685 190.385 353.685 190.95 353.308 191.326L340.632 203.815C340.443 203.94 340.255 204.066 340.004 204.066Z" fill="#FFC72C" stroke="#263238" stroke-width="0.627561" stroke-miterlimit="10"/>
<path d="M341.762 206.89C341.573 206.89 341.322 206.827 341.134 206.639C340.758 206.325 340.695 205.698 341.071 205.321L352.744 191.891C353.058 191.515 353.685 191.452 354.062 191.828C354.438 192.142 354.501 192.77 354.125 193.146L342.452 206.576C342.264 206.764 342.013 206.89 341.762 206.89Z" fill="#DA281C" stroke="#263238" stroke-width="0.627561" stroke-miterlimit="10"/>
<path d="M374.833 130.327L370.063 162.459L303.479 151.978C303.479 151.978 295.572 151.1 284.338 153.924C273.105 156.748 263.315 163.776 263.315 163.776C263.315 163.776 260.93 148.903 263.817 129.637C266.704 110.308 273.042 96.8784 273.042 96.8784C273.042 96.8784 285.029 111.124 304.546 118.467C324.126 125.621 374.833 130.327 374.833 130.327Z" fill="#DA281C" stroke="#263238" stroke-width="0.627561" stroke-miterlimit="10"/>
<path d="M329.335 152.041L303.919 148.025C303.919 148.025 296.012 147.146 284.778 149.97C273.545 152.794 263.755 159.823 263.755 159.823" stroke="#263238" stroke-width="2.51024" stroke-miterlimit="10"/>
<path d="M263.881 165.345C263.755 165.408 263.63 165.408 263.567 165.408C262.626 165.534 261.747 164.906 261.621 163.965C261.496 163.337 259.237 148.652 262.123 129.261C265.01 109.932 271.223 96.5647 271.474 95.9999C271.851 95.1213 272.918 94.7448 273.733 95.1841C274.612 95.5606 274.988 96.6275 274.549 97.4433C274.486 97.5688 268.274 110.936 265.45 129.763C262.626 148.59 264.885 163.274 264.948 163.4C265.136 164.279 264.634 165.032 263.881 165.345Z" fill="#FFC72C" stroke="#263238" stroke-width="0.627561" stroke-miterlimit="10"/>
<path d="M326.197 155.493L370.064 162.396L374.833 130.265C374.833 130.265 351.99 128.194 331.092 124.554L326.197 155.493Z" fill="#FFC72C" stroke="#263238" stroke-width="0.627561" stroke-miterlimit="10"/>
<path d="M364.855 143.381L362.156 160.764" stroke="#263238" stroke-width="0.627561" stroke-miterlimit="10"/>
<path d="M366.801 130.453L365.608 138.172" stroke="#263238" stroke-width="0.627561" stroke-miterlimit="10"/>
<path d="M333.414 151.037L332.849 156.999L335.108 158.191C335.108 158.191 335.422 163.337 332.661 169.613C329.962 175.889 329.962 175.889 329.962 175.889C329.962 175.889 325.82 180.03 323.812 180.784C321.804 181.537 320.423 182.29 321.114 184.361C321.741 186.432 322.871 189.946 325.695 191.703C328.519 193.46 328.393 192.331 329.021 191.452C329.711 190.573 335.924 186.118 340.254 179.026C344.584 171.872 345.714 167.856 345.714 167.856C345.714 167.856 350.672 170.429 351.048 169.55C351.487 168.609 353.935 154.3 353.935 154.3L333.414 151.037Z" fill="#DA281C" stroke="#263238" stroke-width="0.627561" stroke-miterlimit="10"/>
<path d="M334.041 157.062L349.981 168.358" stroke="#263238" stroke-width="0.627561" stroke-miterlimit="10"/>
<path d="M334.982 159.384C334.982 159.384 331.97 158.442 330.84 159.509C329.648 160.639 329.397 163.4 330.212 164.718C331.028 166.036 333.099 169.048 334.229 168.483C335.358 167.919 334.668 163.463 334.668 163.463C334.668 163.463 334.982 160.074 334.982 159.384Z" fill="#B35D1E" stroke="#263238" stroke-width="0.627561" stroke-miterlimit="10"/>
<path d="M329.648 163.086C329.648 163.086 327.326 161.517 325.82 164.279C324.313 167.04 326.322 169.174 327.828 171.056C329.334 172.939 331.217 173.692 332.158 172.813C333.099 171.935 333.35 170.115 333.162 169.299C332.974 168.483 332.409 167.291 332.409 167.291C332.409 167.291 329.899 165.032 329.648 163.086Z" fill="#B35D1E" stroke="#263238" stroke-width="0.627561" stroke-miterlimit="10"/>
<path d="M325.569 167.918C325.569 167.918 323.875 168.358 323.498 170.868C323.122 173.378 326.322 176.265 327.578 177.771C328.77 179.277 329.899 179.34 331.155 178.524C332.347 177.708 332.347 176.453 331.97 175.449C331.594 174.445 330.402 173.064 330.402 173.064C330.402 173.064 328.142 171.433 327.138 170.24C326.134 169.048 325.569 167.918 325.569 167.918Z" fill="#B35D1E" stroke="#263238" stroke-width="0.627561" stroke-miterlimit="10"/>
<path d="M324.941 174.885C324.941 174.885 322.117 173.19 321.113 175.136C320.109 177.018 321.489 178.964 323.121 179.905C324.753 180.784 326.698 180.909 327.514 180.344C328.33 179.78 328.204 178.462 328.204 178.462L324.941 174.885Z" fill="#B35D1E" stroke="#263238" stroke-width="0.627561" stroke-miterlimit="10"/>
<path d="M348.788 185.427C348.788 185.427 350.42 176.704 351.047 174.194C351.675 171.684 351.236 170.68 351.047 169.55C350.859 168.421 344.772 165.22 343.266 164.028C341.759 162.835 341.195 163.275 338.622 163.275C336.049 163.212 334.103 161.204 333.099 162.71C332.095 164.216 334.48 167.416 335.923 168.17C337.366 168.923 340.002 169.111 340.002 169.111L343.768 173.065C343.768 173.065 338.057 180.093 338.12 183.231C338.12 186.369 340.567 188.628 341.069 189.067" fill="#B35D1E"/>
<path d="M348.788 185.427C348.788 185.427 350.42 176.704 351.047 174.194C351.675 171.684 351.236 170.68 351.047 169.55C350.859 168.421 344.772 165.22 343.266 164.028C341.759 162.835 341.195 163.275 338.622 163.275C336.049 163.212 334.103 161.204 333.099 162.71C332.095 164.216 334.48 167.416 335.923 168.17C337.366 168.923 340.002 169.111 340.002 169.111L343.768 173.065C343.768 173.065 338.057 180.093 338.12 183.231C338.12 186.369 340.567 188.628 341.069 189.067" stroke="#263238" stroke-width="0.627561" stroke-miterlimit="10"/>
<path d="M135.42 270.964C146.904 262.68 152.929 257.785 152.929 257.785C152.929 257.785 153.243 257.158 154.247 252.325C155.251 247.493 156.004 242.598 159.204 241.469C162.405 240.339 165.794 242.473 167.112 246.866C168.367 251.259 173.136 266.446 173.136 266.446C173.136 266.446 167.677 269.27 165.543 270.462C163.409 271.654 160.962 273.851 155.125 278.432C153.243 279.875 149.603 282.95 145.084 286.779L135.42 270.964Z" fill="#B35D1E" stroke="#263238" stroke-width="0.627561" stroke-miterlimit="10"/>
<path d="M179.851 232.494L177.09 232.997C177.09 232.997 175.082 238.268 175.835 245.799C176.588 253.33 176.588 253.33 176.588 253.33C176.588 253.33 179.6 259.103 181.42 260.546C183.303 262.053 184.432 263.308 183.052 265.253C181.671 267.199 179.349 270.587 175.772 271.403C172.195 272.282 172.76 271.215 172.32 270.023C171.881 268.83 166.798 262.115 164.664 253.141C162.53 244.167 162.656 239.586 162.656 239.586C162.656 239.586 156.694 240.653 156.443 239.523C156.067 237.201 179.035 229.419 179.851 232.494Z" fill="#FFC72C" stroke="#263238" stroke-width="0.627561" stroke-miterlimit="10"/>
<path d="M176.901 234.377C176.901 234.377 180.353 234.377 181.231 235.883C182.11 237.452 181.42 240.465 180.165 241.531C178.909 242.661 175.646 245.171 174.642 244.167C173.638 243.163 175.897 238.707 175.897 238.707C175.897 238.707 176.65 235.005 176.901 234.377Z" fill="#B35D1E" stroke="#263238" stroke-width="0.627561" stroke-miterlimit="10"/>
<path d="M181.232 240.025C181.232 240.025 184.244 239.146 184.871 242.535C185.499 245.924 182.738 247.556 180.479 248.999C178.219 250.505 176.023 250.631 175.333 249.438C174.642 248.246 174.956 246.175 175.458 245.422C175.96 244.669 176.964 243.539 176.964 243.539C176.964 243.539 180.29 241.97 181.232 240.025Z" fill="#B35D1E" stroke="#263238" stroke-width="0.627561" stroke-miterlimit="10"/>
<path d="M183.93 246.489C183.93 246.489 185.625 247.556 185.122 250.317C184.62 253.078 180.29 255.024 178.533 256.216C176.713 257.409 175.521 257.095 174.517 255.84C173.513 254.585 173.952 253.267 174.705 252.325C175.458 251.384 177.152 250.317 177.152 250.317C177.152 250.317 180.102 249.376 181.545 248.434C182.989 247.43 183.93 246.489 183.93 246.489Z" fill="#B35D1E" stroke="#263238" stroke-width="0.627561" stroke-miterlimit="10"/>
<path d="M182.236 254.083C182.236 254.083 185.75 253.267 186.189 255.589C186.628 257.974 184.495 259.543 182.487 259.919C180.478 260.296 178.345 259.794 177.717 258.915C177.09 258.036 177.654 256.719 177.654 256.719L182.236 254.083Z" fill="#B35D1E" stroke="#263238" stroke-width="0.627561" stroke-miterlimit="10"/>
<path d="M153.619 257.095C153.619 257.095 154.874 247.305 155 244.481C155.125 241.657 155.941 240.715 156.569 239.586C157.133 238.456 164.664 237.076 166.672 236.385C168.681 235.695 169.12 236.323 171.818 237.138C174.517 237.954 177.215 236.448 177.843 238.394C178.408 240.276 174.831 242.912 173.074 243.226C171.316 243.54 168.492 242.849 168.492 242.849L163.221 245.736C163.221 245.736 166.861 255.024 165.794 258.35C164.727 261.613 161.464 263.245 160.711 263.496" fill="#B35D1E"/>
<path d="M153.619 257.095C153.619 257.095 154.874 247.305 155 244.481C155.125 241.657 155.941 240.715 156.569 239.586C157.133 238.456 164.664 237.076 166.672 236.385C168.681 235.695 169.12 236.323 171.818 237.138C174.517 237.954 177.215 236.448 177.843 238.394C178.408 240.276 174.831 242.912 173.074 243.226C171.316 243.54 168.492 242.849 168.492 242.849L163.221 245.736C163.221 245.736 166.861 255.024 165.794 258.35C164.727 261.613 161.464 263.245 160.711 263.496" stroke="#263238" stroke-width="0.627561" stroke-miterlimit="10"/>
<path d="M139.875 266.885L151.548 286.841L143.766 292.364L132.658 270.839L139.875 266.885Z" fill="#DA281C" stroke="#263238" stroke-width="0.627561" stroke-miterlimit="10"/>
<path d="M94 329.013L149.727 301.84L134.289 267.763L94 287.845V329.013Z" fill="#263238" stroke="#263238" stroke-width="0.627561" stroke-miterlimit="10"/>
<path d="M150.293 235.256L157.322 233.248" stroke="#263238" stroke-width="0.627561" stroke-miterlimit="10"/>
<path d="M168.931 202.121C168.931 202.121 179.285 199.736 191.648 192.895C204.011 186.055 211.856 177.018 211.856 177.018C211.856 177.018 218.257 180.344 223.779 199.234C228.361 214.986 226.29 226.282 225.913 227.223C225.537 228.164 225.537 228.164 225.537 228.164C225.537 228.164 212.546 224.587 196.23 225.026C179.913 225.529 175.081 229.859 175.081 229.859L168.931 202.121Z" fill="#DA281C" stroke="#263238" stroke-width="0.627561" stroke-miterlimit="10"/>
<path d="M219.575 223.897C214.053 222.893 205.518 221.826 195.854 222.077C179.035 222.579 174.077 227.035 174.077 227.035" stroke="#263238" stroke-width="1.88268" stroke-miterlimit="10"/>
<path d="M226.04 225.278C226.04 225.278 224.408 224.838 221.584 224.273" stroke="#263238" stroke-width="1.88268" stroke-miterlimit="10"/>
<path d="M225.537 229.545C225.348 229.545 225.223 229.545 225.035 229.482C224.282 229.231 223.968 228.415 224.219 227.662L224.595 226.721C225.035 225.34 226.666 214.295 222.399 199.61C217.253 181.788 211.228 178.273 211.165 178.211C210.475 177.834 210.224 177.018 210.601 176.328C210.977 175.638 211.793 175.387 212.483 175.763C212.797 175.889 219.512 179.591 225.097 198.857C230.181 216.303 227.231 227.662 227.231 227.725L226.855 228.666C226.603 229.231 226.101 229.545 225.537 229.545Z" fill="#263238"/>
<path d="M141.256 206.2L150.92 238.958L179.035 231.553L169.433 197.979L141.256 206.2Z" fill="#DA281C" stroke="#263238" stroke-width="0.627561" stroke-miterlimit="10"/>
<path d="M150.92 238.958L155.376 237.829L146.151 204.756L141.256 206.199L150.92 238.958Z" fill="#FFC72C" stroke="#263238" stroke-width="0.627561" stroke-miterlimit="10"/>
<path d="M167.362 203.627L170.688 202.685" stroke="#263238" stroke-width="0.627561" stroke-miterlimit="10"/>
<path d="M142.637 210.718L165.041 204.254" stroke="#263238" stroke-width="0.627561" stroke-miterlimit="10"/>
<path d="M159.455 232.62L177.843 227.348" stroke="#263238" stroke-width="0.627561" stroke-miterlimit="10"/>
<path d="M142.197 209.275L132.156 215.174L139.875 237.64L150.23 236.762L142.197 209.275Z" fill="#FFC72C" stroke="#263238" stroke-width="0.627561" stroke-miterlimit="10"/>
<path d="M143.075 211.973L136.611 215.174" stroke="#263238" stroke-width="0.627561" stroke-miterlimit="10"/>
<path d="M144.079 216.868L137.678 219.253" stroke="#263238" stroke-width="0.627561" stroke-miterlimit="10"/>
<path d="M145.523 221.951L139.373 224.085" stroke="#263238" stroke-width="0.627561" stroke-miterlimit="10"/>
<path d="M146.903 226.721L141.632 228.541" stroke="#263238" stroke-width="0.627561" stroke-miterlimit="10"/>
<path d="M148.473 231.177L143.954 232.62" stroke="#263238" stroke-width="0.627561" stroke-miterlimit="10"/>
<path d="M287.163 194.966C286.912 196.221 286.536 197.477 286.159 198.732C286.536 197.414 286.85 196.159 287.163 194.966Z" stroke="#263238" stroke-width="0.627561" stroke-miterlimit="10"/>
<path d="M275.113 217.747C261.934 232.997 251.454 235.13 251.454 235.13C244.927 237.327 239.028 237.076 235.2 233.687C227.167 226.595 231.498 208.522 244.927 193.335C258.357 178.148 275.741 171.558 283.773 178.65C287.664 182.039 288.668 188 287.162 194.966C284.903 206.451 275.113 217.747 275.113 217.747Z" fill="#FFC72C" stroke="#263238" stroke-width="0.627561" stroke-miterlimit="10"/>
<path d="M271.632 216.834C284.122 202.663 288.492 186.104 281.394 179.847C274.296 173.591 258.417 180.007 245.927 194.178C233.437 208.349 229.067 224.908 236.165 231.164C243.264 237.42 259.143 231.004 271.632 216.834Z" fill="#CFCFCF" stroke="#263238" stroke-width="0.627561" stroke-miterlimit="10"/>
<path d="M271.599 216.868C261.558 228.227 249.321 234.628 241.288 233.436C248.631 229.169 256.914 222.265 264.633 213.48C274.172 202.623 280.824 191.327 283.397 182.415C287.351 189.946 282.644 204.317 271.599 216.868Z" fill="#263238" stroke="#263238" stroke-width="0.627561" stroke-miterlimit="10"/>
<path d="M262.311 208.617C265.726 204.743 266.913 200.209 264.963 198.491C263.013 196.772 258.664 198.519 255.249 202.393C251.834 206.268 250.647 210.802 252.597 212.52C254.547 214.239 258.896 212.492 262.311 208.617Z" fill="#FFC72C" stroke="#263238" stroke-width="0.627561" stroke-miterlimit="10"/>
<path d="M264.947 198.543C266.892 200.238 265.7 204.756 262.248 208.647C258.86 212.538 254.529 214.295 252.584 212.538L263.692 224.462C266.39 222.265 269.089 219.692 271.599 216.868C274.36 213.73 276.745 210.404 278.691 207.141L264.947 198.543Z" fill="#FFC72C" stroke="#263238" stroke-width="0.627561" stroke-miterlimit="10"/>
<path d="M279.005 212.664C279.57 211.785 280.135 210.969 280.699 210.091C280.135 210.969 279.57 211.848 279.005 212.664Z" stroke="#263238" stroke-width="0.627561" stroke-miterlimit="10"/>
<path d="M335.359 257.283C334.92 261.362 332.849 266.32 327.076 269.834C322.243 272.784 319.294 272.784 315.78 270.964C312.391 269.207 306.68 266.759 301.597 262.869C302.664 263.433 303.668 263.873 304.546 264.375C308.751 266.571 312.265 266.508 317.976 263.057C324.879 258.852 327.389 252.953 327.891 248.058C328.08 246.426 328.08 244.795 327.703 243.1C327.766 243.163 327.891 243.289 327.954 243.351C335.108 249.25 335.799 253.204 335.359 257.283Z" fill="#FFC72C" stroke="#263238" stroke-width="0.627561" stroke-miterlimit="10"/>
<path d="M327.955 248.058C327.452 252.953 324.942 258.852 318.039 263.057C312.328 266.571 308.814 266.571 304.609 264.375C303.731 263.935 302.727 263.433 301.66 262.868C301.471 262.743 301.346 262.617 301.158 262.492C296.702 258.978 285.72 250.945 274.863 244.669C274.173 244.293 273.419 243.916 272.666 243.477C262.374 237.766 253.086 235.507 251.518 235.13C253.024 234.628 254.593 234.001 256.162 233.185C256.413 233.059 256.664 232.934 256.852 232.808C257.103 232.683 257.291 232.557 257.542 232.432C257.605 232.432 257.605 232.369 257.668 232.369C257.981 232.243 258.232 232.055 258.546 231.867C259.362 231.428 260.115 230.926 260.931 230.424C260.931 230.424 260.994 230.424 260.994 230.361C261.245 230.172 261.496 230.047 261.747 229.859C262.249 229.545 262.688 229.231 263.19 228.855C263.441 228.666 263.692 228.478 263.943 228.29C264.194 228.102 264.508 227.913 264.759 227.662C265.01 227.474 265.261 227.286 265.449 227.097C266.579 226.219 267.709 225.278 268.776 224.273C269.089 224.022 269.34 223.709 269.654 223.458C269.717 223.395 269.78 223.332 269.842 223.332C270.093 223.081 270.407 222.767 270.721 222.516C271.349 221.951 271.913 221.324 272.478 220.696C272.729 220.445 272.917 220.194 273.168 220.006C273.482 219.692 273.796 219.316 274.11 219.002C274.486 218.563 274.8 218.186 275.177 217.747C275.553 217.307 275.867 216.931 276.181 216.492C276.495 216.052 276.871 215.676 277.185 215.237C277.561 214.797 277.875 214.295 278.189 213.856C278.503 213.479 278.754 213.103 279.005 212.664C279.57 211.785 280.134 210.969 280.699 210.091C280.95 209.651 281.201 209.212 281.452 208.773C281.954 207.894 282.456 207.078 282.896 206.2C283.084 205.886 283.209 205.572 283.398 205.258C283.586 204.945 283.711 204.631 283.837 204.317C284.151 203.689 284.402 203.062 284.716 202.434C284.904 201.995 285.092 201.618 285.218 201.179C285.406 200.74 285.531 200.363 285.72 199.924C285.845 199.548 285.971 199.108 286.159 198.732C286.598 197.477 286.912 196.221 287.163 194.966C287.916 197.414 289.046 200.614 290.991 203.94C291.43 204.694 291.87 205.509 292.435 206.262C298.02 214.734 320.487 236.825 327.829 243.1C328.143 244.795 328.143 246.426 327.955 248.058Z" fill="#DA281C" stroke="#263238" stroke-width="0.627561" stroke-miterlimit="10"/>
<path d="M281.828 249.188C281.828 249.188 286.096 255.714 286.472 258.162C286.849 260.546 288.355 265.504 289.171 266.445C289.986 267.387 298.772 268.203 299.714 267.387C300.655 266.571 306.805 260.986 306.805 260.986C306.805 260.986 293.312 250.317 292.371 250.317C291.43 250.317 283.711 249.627 281.828 249.188Z" fill="#263238" stroke="#263238" stroke-width="0.627561" stroke-miterlimit="10"/>
<path d="M297.517 267.701C298.647 267.701 299.525 267.575 299.776 267.387C300.718 266.571 306.868 260.986 306.868 260.986C306.868 260.986 293.375 250.317 292.434 250.317C292.434 250.317 291.493 252.702 292.057 253.392C292.057 253.392 296.074 257.409 297.015 261.676C297.705 265.19 296.639 266.32 297.517 267.701Z" fill="#DA281C" stroke="#263238" stroke-width="0.627561" stroke-miterlimit="10"/>
<path d="M262.061 287.72C262.061 287.72 259.739 290.042 259.864 291.611C259.99 293.18 264.885 300.334 266.579 300.71C268.274 301.024 270.596 298.89 270.596 298.89C270.596 298.89 268.148 290.544 262.061 287.72Z" fill="#263238" stroke="#263238" stroke-width="0.627561" stroke-miterlimit="10"/>
<path d="M308.5 327.633C308.5 327.633 301.22 303.786 300.593 297.824C299.965 291.862 302.099 280.064 302.413 277.24C302.726 274.416 299.589 271.278 298.836 270.399C298.082 269.521 296.576 264.563 294.631 261.613C292.685 258.601 281.954 255.338 277.31 253.832C272.666 252.326 268.964 252.2 267.771 255.024C266.579 257.848 268.399 260.547 268.65 260.986C268.964 261.425 269.089 262.178 269.089 262.178C269.089 262.178 265.387 261.425 263.88 262.806C262.374 264.186 261.37 266.508 261.809 268.015C262.249 269.521 263.002 270.713 263.002 270.713C263.002 270.713 258.797 269.96 257.354 272.659C255.848 275.357 256.914 276.863 257.479 277.428C258.107 278.056 258.797 278.934 258.797 278.934C258.797 278.934 255.785 279.813 256.287 282.511C256.726 285.21 257.354 286.088 258.107 286.402C258.86 286.716 262.876 290.732 262.876 290.732C262.876 290.732 267.332 295.188 268.964 299.518C270.595 303.848 271.348 305.919 274.486 308.304C277.624 310.689 278.377 311.442 278.377 311.442L280.323 333.846L308.5 327.633Z" fill="#B35D1E" stroke="#263238" stroke-width="0.627561" stroke-miterlimit="10"/>
<path d="M269.089 262.178C269.089 262.178 280.887 263.684 281.891 263.684C282.895 263.684 283.837 262.806 285.782 264.563C287.727 266.383 288.041 267.826 288.041 267.826" stroke="#263238" stroke-width="0.627561" stroke-miterlimit="10"/>
<path d="M263.002 270.65C263.002 270.65 274.612 271.529 275.239 271.529C275.867 271.529 278.691 270.211 280.448 272.282C282.268 274.353 282.707 276.173 282.707 276.173" stroke="#263238" stroke-width="0.627561" stroke-miterlimit="10"/>
<path d="M258.797 278.871L270.721 281.57" stroke="#263238" stroke-width="0.627561" stroke-miterlimit="10"/>
<path d="M267.331 289.477C267.331 289.477 268.398 291.736 271.787 291.297" stroke="#263238" stroke-width="0.627561" stroke-miterlimit="10"/>
<path d="M280.009 310.94C280.009 310.94 280.762 312.446 285.092 311.253" stroke="#263238" stroke-width="0.627561" stroke-miterlimit="10"/>
<path d="M274.298 282.135C274.298 282.135 274.298 283.201 275.616 283.766C276.934 284.394 278.126 284.833 278.126 284.833L284.966 291.987" stroke="#263238" stroke-width="0.627561" stroke-miterlimit="10"/>
<path d="M286.724 313.324L288.167 319.726" stroke="#263238" stroke-width="0.627561" stroke-miterlimit="10"/>
<path d="M309.001 325.938L306.616 326.629C297.893 329.264 288.668 330.331 279.568 329.704L277.184 329.515L278.815 351.605C278.815 351.605 284.589 353.551 296.199 351.857C307.809 350.225 316.343 346.899 316.343 346.899L309.001 325.938Z" fill="#FFC72C" stroke="#263238" stroke-width="0.627561" stroke-miterlimit="10"/>
<path d="M278.879 351.605C278.879 351.605 276.369 355.496 276.682 362.399C276.933 369.303 276.933 387 276.933 387H330.276C330.276 387 321.428 356.061 319.231 352.233C317.035 348.342 316.47 346.961 316.47 346.961C316.47 346.961 293.815 353.237 278.879 351.605Z" fill="#FFC72C" stroke="#263238" stroke-width="0.627561" stroke-miterlimit="10"/>
</g>
</g>
<defs>
<filter id="filter0_d_3465_184" x="0" y="0" width="500" height="500" filterUnits="userSpaceOnUse" color-interpolation-filters="sRGB">
<feFlood flood-opacity="0" result="BackgroundImageFix"/>
<feColorMatrix in="SourceAlpha" type="matrix" values="0 0 0 0 0 0 0 0 0 0 0 0 0 0 0 0 0 0 127 0" result="hardAlpha"/>
<feOffset dy="9"/>
<feGaussianBlur stdDeviation="50"/>
<feComposite in2="hardAlpha" operator="out"/>
<feColorMatrix type="matrix" values="0 0 0 0 1 0 0 0 0 0.780392 0 0 0 0 0.172549 0 0 0 0.6 0"/>
<feBlend mode="normal" in2="BackgroundImageFix" result="effect1_dropShadow_3465_184"/>
<feBlend mode="normal" in="SourceGraphic" in2="effect1_dropShadow_3465_184" result="shape"/>
</filter>
<clipPath id="clip0_3465_184">
<rect x="100" y="91" width="300" height="300" rx="150" fill="white"/>
</clipPath>
</defs>
</svg>
