<svg width="28" height="22" viewBox="0 0 28 22" fill="none" xmlns="http://www.w3.org/2000/svg">
<path d="M21.9993 12.3335V9.66683H27.3327V12.3335H21.9993ZM23.5993 21.6668L19.3327 18.4668L20.9327 16.3335L25.1993 19.5335L23.5993 21.6668ZM20.9327 5.66683L19.3327 3.5335L23.5993 0.333496L25.1993 2.46683L20.9327 5.66683ZM4.66602 20.3335V15.0002H3.33268C2.59935 15.0002 1.97157 14.7391 1.44935 14.2168C0.927127 13.6946 0.666016 13.0668 0.666016 12.3335V9.66683C0.666016 8.9335 0.927127 8.30572 1.44935 7.7835C1.97157 7.26127 2.59935 7.00016 3.33268 7.00016H8.66602L15.3327 3.00016V19.0002L8.66602 15.0002H7.33268V20.3335H4.66602ZM16.666 15.4668V6.5335C17.266 7.06683 17.7493 7.71683 18.116 8.4835C18.4827 9.25016 18.666 10.0891 18.666 11.0002C18.666 11.9113 18.4827 12.7502 18.116 13.5168C17.7493 14.2835 17.266 14.9335 16.666 15.4668Z" fill="#1C1B1F"/>
</svg>
