<svg width="28" height="22" viewBox="0 0 28 22" fill="none" xmlns="http://www.w3.org/2000/svg">
<path d="M12.666 17.6668H15.3327V16.3335H16.666C17.0438 16.3335 17.3605 16.2057 17.616 15.9502C17.8716 15.6946 17.9993 15.3779 17.9993 15.0002V11.0002C17.9993 10.6224 17.8716 10.3057 17.616 10.0502C17.3605 9.79461 17.0438 9.66683 16.666 9.66683H12.666V8.3335H17.9993V5.66683H15.3327V4.3335H12.666V5.66683H11.3327C10.9549 5.66683 10.6382 5.79461 10.3827 6.05016C10.1271 6.30572 9.99935 6.62239 9.99935 7.00016V11.0002C9.99935 11.3779 10.1271 11.6946 10.3827 11.9502C10.6382 12.2057 10.9549 12.3335 11.3327 12.3335H15.3327V13.6668H9.99935V16.3335H12.666V17.6668ZM3.33268 21.6668C2.59935 21.6668 1.97157 21.4057 1.44935 20.8835C0.927127 20.3613 0.666016 19.7335 0.666016 19.0002V3.00016C0.666016 2.26683 0.927127 1.63905 1.44935 1.11683C1.97157 0.594607 2.59935 0.333496 3.33268 0.333496H24.666C25.3993 0.333496 26.0271 0.594607 26.5493 1.11683C27.0716 1.63905 27.3327 2.26683 27.3327 3.00016V19.0002C27.3327 19.7335 27.0716 20.3613 26.5493 20.8835C26.0271 21.4057 25.3993 21.6668 24.666 21.6668H3.33268Z" fill="#1C1B1F"/>
</svg>
