<svg width="22" height="29" viewBox="0 0 22 29" fill="none" xmlns="http://www.w3.org/2000/svg">
<path d="M7.90065 16.2665L9.06732 12.4665L6.00065 9.99984H9.80065L11.0007 6.2665L12.2007 9.99984H16.0007L12.9007 12.4665L14.0673 16.2665L11.0007 13.8998L7.90065 16.2665ZM3.00065 28.6665V18.3665C2.15621 17.4332 1.50065 16.3665 1.03398 15.1665C0.567318 13.9665 0.333984 12.6887 0.333984 11.3332C0.333984 8.35539 1.36732 5.83317 3.43398 3.7665C5.50065 1.69984 8.02287 0.666504 11.0007 0.666504C13.9784 0.666504 16.5007 1.69984 18.5673 3.7665C20.634 5.83317 21.6673 8.35539 21.6673 11.3332C21.6673 12.6887 21.434 13.9665 20.9673 15.1665C20.5007 16.3665 19.8451 17.4332 19.0007 18.3665V28.6665L11.0007 25.9998L3.00065 28.6665ZM11.0007 19.3332C13.2229 19.3332 15.1118 18.5554 16.6673 16.9998C18.2229 15.4443 19.0007 13.5554 19.0007 11.3332C19.0007 9.11095 18.2229 7.22206 16.6673 5.6665C15.1118 4.11095 13.2229 3.33317 11.0007 3.33317C8.77843 3.33317 6.88954 4.11095 5.33398 5.6665C3.77843 7.22206 3.00065 9.11095 3.00065 11.3332C3.00065 13.5554 3.77843 15.4443 5.33398 16.9998C6.88954 18.5554 8.77843 19.3332 11.0007 19.3332Z" fill="#1C1B1F"/>
</svg>
